<?xml version="1.0" encoding="utf-8"?>
<!-- Generator: Adobe Illustrator 23.0.2, SVG Export Plug-In . SVG Version: 6.00 Build 0)  -->
<svg version="1.1" xmlns="http://www.w3.org/2000/svg" xmlns:xlink="http://www.w3.org/1999/xlink" x="0px" y="0px"
	 viewBox="0 0 500 500" style="enable-background:new 0 0 500 500;" xml:space="preserve">
<style type="text/css">
	.st0{display:none;}
	.st1{display:inline;fill:#60CCFF;}
	.st2{fill:#9FE0FF;}
	.st3{opacity:0.2;fill:url(#SVGID_1_);}
	.st4{opacity:0.2;fill:url(#SVGID_2_);}
	.st5{opacity:0.2;fill:url(#SVGID_3_);}
	.st6{opacity:0.2;fill:url(#SVGID_4_);}
	.st7{opacity:0.2;fill:url(#SVGID_5_);}
	.st8{opacity:0.5;fill:#4C6BA7;}
	.st9{fill:#C5ECFF;}
	.st10{opacity:0.2;fill:url(#SVGID_6_);}
	.st11{opacity:0.2;fill:url(#SVGID_7_);}
	.st12{fill:#E8F7FF;}
	.st13{opacity:0.2;fill:url(#SVGID_8_);}
	.st14{opacity:0.2;fill:url(#SVGID_9_);}
	.st15{opacity:0.2;fill:url(#SVGID_10_);}
	.st16{opacity:0.2;fill:url(#SVGID_11_);}
	.st17{fill:#FFAD91;}
	.st18{fill:#39507D;}
	.st19{fill:#A8372C;}
	.st20{fill:#7FC3E3;}
	.st21{fill:#B03A2E;}
	.st22{fill:#E84C3D;}
	.st23{fill:#67463A;}
	.st24{opacity:0.2;fill:url(#SVGID_12_);}
	.st25{fill:#DFF5FF;}
	.st26{fill:none;stroke:#E84C3D;stroke-miterlimit:10;}
	.st27{fill:none;stroke:#33D9B2;stroke-width:1.0594;stroke-miterlimit:10;}
	.st28{fill:none;stroke:#60CCFF;stroke-miterlimit:10;}
	.st29{fill:#4C6BA7;}
	.st30{fill:#D49337;}
	.st31{fill:#F7F1E3;}
	.st32{fill:#FFB142;}
	.st33{fill:#E69C83;}
	.st34{fill:#218C74;}
	.st35{fill:#26A385;}
	.st36{fill:#33D9B2;}
	.st37{fill:#658EDF;}
	.st38{fill:#805749;}
	.st39{opacity:0.2;fill:url(#SVGID_13_);}
	.st40{opacity:0.2;fill:url(#SVGID_14_);}
	.st41{fill:#0D352C;}
	.st42{fill:#1A705D;}
	.st43{fill:#0A2821;}
	.st44{fill:#CD6133;}
	.st45{fill:#BFB023;}
	.st46{fill:#FFEA2E;}
	.st47{opacity:0.2;fill:url(#SVGID_15_);}
	.st48{opacity:0.2;fill:url(#SVGID_16_);}
	.st49{opacity:0.2;fill:url(#SVGID_17_);}
	.st50{opacity:0.2;fill:url(#SVGID_18_);}
	.st51{fill:#218F75;}
	.st52{fill:#FFD08E;}
	.st53{opacity:0.2;fill:url(#SVGID_19_);}
	.st54{opacity:0.2;fill:url(#SVGID_20_);}
	.st55{fill:#84A5E5;}
	.st56{opacity:0.5;fill:none;stroke:#ADF0E0;stroke-width:1.824;stroke-linecap:round;stroke-miterlimit:10;}
	.st57{fill:none;stroke:#F7E041;stroke-width:1.8;stroke-linecap:round;stroke-linejoin:round;stroke-miterlimit:10;}
	.st58{display:none;fill:none;stroke:#FFFFFF;stroke-width:1.0594;stroke-linecap:round;stroke-miterlimit:10;}
	.st59{display:none;fill:#E84C3D;}
	.st60{display:none;fill:#FFEA2E;}
	.st61{display:none;fill:#33D9B2;}
	.st62{display:none;fill:#658EDF;}
	.st63{display:inline;fill:none;}
	.st64{display:inline;}
	.st65{font-family:'Quicksand-Bold';}
	.st66{font-size:5px;}
	.st67{display:none;fill:#FFFFFF;}
	.st68{font-size:7px;}
	.st69{fill:#F9FBFC;}
</style>
<g id="Background" class="st0">
	<rect class="st1" width="500" height="500"/>
</g>
<g id="Objects">
	<g>
		<g>
			<g>
				<path class="st2" d="M142.6,145.8l-87.7,50.6c-3.7,2.1-8.3-0.5-8.3-4.8v-64.3c0-5,2.7-9.6,7-12.1l87.7-50.6
					c3.7-2.1,8.3,0.5,8.3,4.8v64.3C149.5,138.7,146.9,143.3,142.6,145.8z"/>
			</g>
		</g>
		<linearGradient id="SVGID_1_" gradientUnits="userSpaceOnUse" x1="222.1328" y1="152.2033" x2="90.763" y2="244.3741">
			<stop  offset="0" style="stop-color:#4C6BA7;stop-opacity:0"/>
			<stop  offset="1" style="stop-color:#4C6BA7"/>
		</linearGradient>
		<path class="st3" d="M65,256.5h15.2c4.3,0,8.5-1.1,12.3-3.3l130.3-75.3l-29.9-17.3h-20L65,256.5z"/>
		<linearGradient id="SVGID_2_" gradientUnits="userSpaceOnUse" x1="351.457" y1="208.9033" x2="220.0867" y2="301.0744">
			<stop  offset="0" style="stop-color:#4C6BA7;stop-opacity:0"/>
			<stop  offset="1" style="stop-color:#4C6BA7"/>
		</linearGradient>
		<path class="st4" d="M216.8,345.3H232c4.3,0,8.5-1.1,12.3-3.3l130.3-75.3l-103.3-61.5h-20L216.8,345.3z"/>
		<linearGradient id="SVGID_3_" gradientUnits="userSpaceOnUse" x1="443.5567" y1="287.5319" x2="330.7904" y2="366.6502">
			<stop  offset="0" style="stop-color:#4C6BA7;stop-opacity:0"/>
			<stop  offset="1" style="stop-color:#4C6BA7"/>
		</linearGradient>
		<path class="st5" d="M328,404.6h15.2c4.3,0,8.5-1.1,12.3-3.3l108.5-63.5l-89.5-52.4h-20L328,404.6z"/>
		<linearGradient id="SVGID_4_" gradientUnits="userSpaceOnUse" x1="179.9706" y1="322.903" x2="137.7225" y2="352.5448">
			<stop  offset="0" style="stop-color:#4C6BA7;stop-opacity:0"/>
			<stop  offset="1" style="stop-color:#4C6BA7"/>
		</linearGradient>
		<path class="st6" d="M147.2,381.4h15.2c4.3,0,8.5-1.1,12.3-3.3l27.4-15.9L124.6,321h-20L147.2,381.4z"/>
		<linearGradient id="SVGID_5_" gradientUnits="userSpaceOnUse" x1="406.1346" y1="189.705" x2="363.8865" y2="219.3468">
			<stop  offset="0" style="stop-color:#4C6BA7;stop-opacity:0"/>
			<stop  offset="1" style="stop-color:#4C6BA7"/>
		</linearGradient>
		<path class="st7" d="M373.3,248.2h15.2c4.3,0,8.5-1.1,12.3-3.3l27.4-15.9l-77.3-41.2h-20L373.3,248.2z"/>
		<path class="st8" d="M120.1,292.6l87.1,51.7c5.5,3.3,12.4,3.3,18,0.1l124.3-71.8c4-2.3,4.1-8.1,0.1-10.5l-87.1-51.7
			c-5.5-3.3-12.4-3.3-18-0.1l-124.3,71.8C116.1,284.4,116,290.2,120.1,292.6z"/>
		<path class="st8" d="M39.2,245.4l16.9,9.8c5.5,3.2,12.3,3.2,17.8,0l124.3-71.8c4.1-2.3,4.1-8.2,0-10.6l-16.9-9.8
			c-5.5-3.2-12.3-3.2-17.8,0L39.2,234.8C35.1,237.2,35.1,243,39.2,245.4z"/>
		<path class="st9" d="M352.5,265.8L352.5,265.8l0-6.3l-4.3,0.4l-85.9-50.9c-5.5-3.3-12.4-3.3-18-0.1l-121.8,70.3l-5.6,0.5v6.8l0,0
			c0.2,1.8,1.1,3.6,3,4.7l87.1,51.7c5.5,3.3,12.4,3.3,18,0.1l124.3-71.8C351.5,269.9,352.6,267.8,352.5,265.8z"/>
		<linearGradient id="SVGID_6_" gradientUnits="userSpaceOnUse" x1="391.3819" y1="123.0572" x2="154.7745" y2="351.1891">
			<stop  offset="0" style="stop-color:#4C6BA7;stop-opacity:0"/>
			<stop  offset="1" style="stop-color:#4C6BA7"/>
		</linearGradient>
		<path class="st10" d="M352.5,265.8L352.5,265.8l0-6.3l-4.3,0.4l-85.9-50.9c-5.5-3.3-12.4-3.3-18-0.1l-121.8,70.3l-5.6,0.5v6.8l0,0
			c0.2,1.8,1.1,3.6,3,4.7l87.1,51.7c5.5,3.3,12.4,3.3,18,0.1l124.3-71.8C351.5,269.9,352.6,267.8,352.5,265.8z"/>
		<path class="st9" d="M198.1,171.7l-16.8-9.7c-5.5-3.2-12.3-3.2-17.8,0L51,226.9l-14.9,5.6v6.5c0,2.1,1,4.1,3,5.3l16.9,9.8
			c5.5,3.2,12.3,3.2,17.8,0l124.3-71.8c2-1.2,3-3.2,3-5.2l0,0v-6.6L198.1,171.7z"/>
		<linearGradient id="SVGID_7_" gradientUnits="userSpaceOnUse" x1="192.2966" y1="168.1548" x2="15.3705" y2="264.0339">
			<stop  offset="0" style="stop-color:#4C6BA7;stop-opacity:0"/>
			<stop  offset="1" style="stop-color:#4C6BA7"/>
		</linearGradient>
		<path class="st11" d="M198.1,171.7l-16.8-9.7c-5.5-3.2-12.3-3.2-17.8,0L51,226.9l-14.9,5.6v6.5c0,2.1,1,4.1,3,5.3l16.9,9.8
			c5.5,3.2,12.3,3.2,17.8,0l124.3-71.8c2-1.2,3-3.2,3-5.2l0,0v-6.6L198.1,171.7z"/>
		<path class="st12" d="M120.1,284.6l87.1,51.7c5.5,3.3,12.4,3.3,18,0.1l124.3-71.8c4-2.3,4.1-8.1,0.1-10.5l-87.1-51.7
			c-5.5-3.3-12.4-3.3-18-0.1l-124.3,71.8C116.1,276.4,116,282.2,120.1,284.6z"/>
		<linearGradient id="SVGID_8_" gradientUnits="userSpaceOnUse" x1="292.9583" y1="245.3784" x2="179.5605" y2="324.9397">
			<stop  offset="0" style="stop-color:#4C6BA7;stop-opacity:0"/>
			<stop  offset="1" style="stop-color:#4C6BA7"/>
		</linearGradient>
		<polygon class="st13" points="341.4,269.3 179.1,269.3 163.8,278.1 185,288 308.9,288 		"/>
		<linearGradient id="SVGID_9_" gradientUnits="userSpaceOnUse" x1="276.9873" y1="285.7292" x2="226.2053" y2="321.3586">
			<stop  offset="0" style="stop-color:#4C6BA7;stop-opacity:0"/>
			<stop  offset="1" style="stop-color:#4C6BA7"/>
		</linearGradient>
		<polygon class="st14" points="228.7,299.2 213.4,308.1 234.6,318 257,318 289.5,299.2 		"/>
		<linearGradient id="SVGID_10_" gradientUnits="userSpaceOnUse" x1="331.6796" y1="255.7537" x2="283.0101" y2="289.9009">
			<stop  offset="0" style="stop-color:#4C6BA7;stop-opacity:0"/>
			<stop  offset="1" style="stop-color:#4C6BA7"/>
		</linearGradient>
		<path class="st15" d="M351.5,262.6H294l-15.1,8.8l21.2,9.9h20.3l29.1-16.8C350.4,264.1,351,263.4,351.5,262.6z"/>
		<linearGradient id="SVGID_11_" gradientUnits="userSpaceOnUse" x1="307.7102" y1="229.8387" x2="243.0663" y2="275.1938">
			<stop  offset="0" style="stop-color:#4C6BA7;stop-opacity:0"/>
			<stop  offset="1" style="stop-color:#4C6BA7"/>
		</linearGradient>
		<polygon class="st16" points="310.8,231.1 245.5,231.1 230.5,239.8 251.7,249.8 342.3,249.8 		"/>
		<g>
			<path class="st17" d="M251.7,180.3c0,0-2.2,7.7-1.4,9.2c0.8,1.5,3.1,1.4,3.1,1.4v1.9h5.9l-0.3-10.1L251.7,180.3z"/>
			<path class="st18" d="M227.8,234.3c0,0-4.3-0.7-5.6,0c-1.3,0.7-0.7,3,0.9,3.4c1.6,0.5,7.2,2.4,8.3,0.9c1.1-1.5,1.1-4.1,1.1-4.1
				L227.8,234.3z"/>
			<path class="st19" d="M249.9,214.2c0,0-6.2-6.4-9.9-6.5c-3.7-0.2-4.7,8.9-4.7,8.9l14.1,4.6L249.9,214.2z"/>
			<g>
				<path class="st20" d="M234.7,234.1c-0.4,0-0.7-0.2-0.9-0.5c-0.3-0.5-0.1-1.2,0.4-1.4l12.9-7.4c0.5-0.3,1.2-0.1,1.4,0.4
					c0.3,0.5,0.1,1.2-0.4,1.4l-12.9,7.4C235.1,234,234.9,234.1,234.7,234.1z"/>
			</g>
			<path class="st20" d="M261.7,226.2l-10.9-6.4c-2-1.2-4.5-1.2-6.5,0l-5,2.9c-0.4,0.2-0.7,0.6-1,0.9l-0.5,0v1.7c0,0,0,0,0,0v0l0,0
				c0,1,0.5,2.1,1.6,2.6l12.9,7.3l12.6-7.3v-1.7L261.7,226.2z"/>
			<path class="st9" d="M239.4,226.3l12.9,7.3l12.6-7.3l-14-8.2c-2-1.2-4.5-1.2-6.5,0l-5,2.9C237.3,222.2,237.3,225.1,239.4,226.3z"
				/>
			<path class="st21" d="M262.6,217.7c0,0-0.4,5.7-2.1,7.3c-1.7,1.6-8.6,4.9-11.8,4.3s-14.8-5.8-14.8-5.8l-0.5,12.6
				c0,0-4.1,1.2-5.6-0.4c-1.5-1.6-0.6-18.8,0.4-20.3c1.7-2.5,20.3,1.7,20.3,1.7L262.6,217.7z"/>
			<path class="st22" d="M262.7,191.5c0,0,1.6,1,2.2,4.6c0.6,3.6,0.6,6.7,0.6,6.7s-2,13.1-2.4,14.4c-0.4,1.2-7.6,5.9-10.4,5.3
				c-2.8-0.6-5.3-4.4-5-5.9c0.3-1.5,2.1-9.3,1.8-12.1c-0.2-2.8-0.6-7.8,1-9.3c1.6-1.5,3.8-2.4,3.8-2.4L262.7,191.5z"/>
			<path class="st9" d="M266.8,200.8l0.3-0.3l-1.1-0.5c-0.2-0.1-0.3-0.2-0.5-0.2c-2.2-0.7-3.2,3.3-6.6,4.6c-3.4,1.3-6.4,0-8.2,2.8
				c-1.8,2.7-1.7,9,0.2,10l0,0l1.4,0.7l0.3-0.3c2.3,0.2,5.8-0.6,9.5-3c0,0,4-2.5,5-5.2C267.9,207,268.1,202.9,266.8,200.8z"/>
			<path class="st2" d="M263.5,215.2c0,0,4-2.5,5-5.2c1-2.8,1.2-8.6-1.6-9.5c-2.2-0.7-3.2,3.3-6.6,4.6c-3.4,1.3-6.4,0-8.2,2.8
				c-1.9,2.8-1.7,9.4,0.3,10.1C254.5,218.6,258.9,218.1,263.5,215.2z"/>
			<g>
				<path class="st20" d="M252.2,249.9c-0.6,0-1.1-0.5-1.1-1.1l0-15.4l4.3-19.1c0.1-0.6,0.7-0.9,1.3-0.8c0.6,0.1,0.9,0.7,0.8,1.3
					l-4.3,19v15.1C253.3,249.4,252.8,249.9,252.2,249.9z"/>
			</g>
			<g>
				<path class="st20" d="M264,243.1c-0.6,0-1.1-0.5-1.1-1.1l0-15.4l2.9-17.1c0.1-0.6,0.6-1,1.2-0.9c0.6,0.1,1,0.6,0.9,1.2l-2.9,17
					V242C265,242.6,264.6,243.1,264,243.1z"/>
			</g>
			<g>
				<path class="st20" d="M252.2,245.9c-0.4,0-0.7-0.2-0.9-0.5c-0.3-0.5-0.1-1.2,0.4-1.4l11.7-6.8c0.5-0.3,1.2-0.1,1.4,0.4
					c0.3,0.5,0.1,1.2-0.4,1.4l-11.7,6.8C252.6,245.8,252.4,245.9,252.2,245.9z"/>
			</g>
			<g>
				<path class="st20" d="M231.1,239.9c-0.2,0-0.4-0.1-0.6-0.2c-0.5-0.3-0.6-1-0.3-1.5l7.5-12l1.9-9.9c0.1-0.3,0.3-0.6,0.6-0.8
					c0.3-0.1,0.7-0.1,1,0l13.6,7.8c0.5,0.3,0.7,0.9,0.4,1.4c-0.3,0.5-0.9,0.7-1.4,0.4l-12.3-7.1l-1.7,8.6c0,0.1-0.1,0.2-0.1,0.4
					l-7.6,12.2C231.8,239.8,231.4,239.9,231.1,239.9z"/>
			</g>
			<path class="st2" d="M244.4,216.7l-3.2-1.9c-0.5-0.3-1-0.3-1.5-0.1l-0.6-0.3v1l0,0c0,0.3,0.1,0.7,0.4,0.9l8.1,4.7
				c0.3,0.2,0.7,0.2,1,0l1.2-0.7c0.1-0.1,0.2-0.2,0.2-0.3V219L244.4,216.7z"/>
			<path class="st9" d="M249.7,219.2l-1.2,0.7c-0.3,0.2-0.7,0.2-1,0l-8.1-4.7c-0.6-0.4-0.6-1.2,0-1.6l0,0c0.5-0.3,1.2-0.3,1.7,0
				l8.6,5C250,218.8,250,219.1,249.7,219.2z"/>
			<path class="st21" d="M251.9,194.6c0,0,4.3,2.4,1.4,7c-2.3,3.6-6.9,13.8-10.2,14.3c-2.9,0.5-3.7-1.5-2.8-4.4
				C241.2,208.6,248.9,192.6,251.9,194.6z"/>
			<path class="st21" d="M252.9,193.4c0,0,1.6,0.8,4,0.5c2.4-0.3,5.7-2.4,5.7-2.4v-1.4c0,0-3.1,1-5.7,1.4c-2.6,0.4-4,0.5-4,0.5
				l-0.8,1.8L252.9,193.4z"/>
			<path class="st23" d="M252.6,186.5l-0.3-0.6c0,0,0.4-3,0.3-4c-0.1-1-1.5-0.7-1.5-2.3c0-1.7,2.4-5.6,7-4.6c4.6,1,6.6,4.9,6,9.2
				c-0.6,4.2-1,4.8-2.9,6.2c-1.7,1.3-6.1,0.8-6.7-0.1c-0.7-1-0.7-1.8-0.7-1.8s1.5-0.3,1.3-2C254.9,184.7,253.3,183.8,252.6,186.5z"
				/>
			<polygon class="st21" points="240.3,214.8 234.6,201.6 239,199.1 244.4,210.6 			"/>
			<path class="st17" d="M239,199.1c0,0,0.8-5.9-0.7-6.5c-1.5-0.6-1.7,1.8-1.7,1.8s-1.2-2.9-3.2-3.1c-1.9-0.2-3.4,2.4-2.6,5.1
				c0.7,2.7,3.8,5.1,3.8,5.1L239,199.1z"/>
		</g>
		<path class="st12" d="M39.2,237.8l16.9,9.8c5.5,3.2,12.3,3.2,17.8,0l124.3-71.8c4.1-2.3,4.1-8.2,0-10.6l-16.9-9.8
			c-5.5-3.2-12.3-3.2-17.8,0L39.2,227.2C35.1,229.6,35.1,235.4,39.2,237.8z"/>
		<linearGradient id="SVGID_12_" gradientUnits="userSpaceOnUse" x1="154.0103" y1="180.9768" x2="200.3525" y2="180.9768">
			<stop  offset="0" style="stop-color:#4C6BA7"/>
			<stop  offset="1" style="stop-color:#4C6BA7;stop-opacity:0"/>
		</linearGradient>
		<path class="st24" d="M162.3,173.7l-8.3,4.7l7.2,10h15.4l21.6-12.5c0.9-0.5,1.7-1.3,2.2-2.1H162.3z"/>
		<g>
			<g>
				<path class="st25" d="M144.9,147.1l-87.7,50.6c-3.7,2.1-8.3-0.5-8.3-4.8v-64.3c0-5,2.7-9.6,7-12.1l87.7-50.6
					c3.7-2.1,8.3,0.5,8.3,4.8V135C151.9,140,149.2,144.6,144.9,147.1z"/>
			</g>
		</g>
		<polygon class="st26" points="108.2,120.1 108.2,103.4 122.9,111.6 		"/>
		<path class="st27" d="M134.7,93.2c0,4.2-2.6,9.1-5.7,10.9c-3.2,1.8-5.7-0.1-5.7-4.3c0-4.2,2.6-9.1,5.7-10.9
			C132.1,87,134.7,89,134.7,93.2z"/>
		<line class="st28" x1="63.1" y1="133.8" x2="89.4" y2="118.6"/>
		<line class="st28" x1="63.1" y1="146.7" x2="89.4" y2="131.5"/>
		<line class="st28" x1="63.1" y1="159.6" x2="89.4" y2="144.4"/>
		<line class="st28" x1="63.1" y1="172.5" x2="89.4" y2="157.3"/>
		<line class="st28" x1="110.1" y1="133.8" x2="136.4" y2="118.6"/>
		<line class="st28" x1="110.1" y1="146.7" x2="136.4" y2="131.5"/>
		<g>
			<path class="st18" d="M165.1,176.8c0,0,3.6,5,3.4,6.4c-0.2,1.4-2.6,1.1-5.4,0c-2.7-1.2-4.4-2-4.8-3c-0.4-1-0.2-2.2-0.2-2.2
				L165.1,176.8z"/>
			<path class="st18" d="M158.9,180.9c0,0,3.6,5,3.4,6.4s-2.6,1.1-5.4,0c-2.7-1.2-4.4-2-4.8-3c-0.4-1-0.2-2.2-0.2-2.2L158.9,180.9z"
				/>
			<path class="st29" d="M150.1,151.1l1.9,31c0,0,0.7,0.8,3.1,0.5c2.4-0.3,3.8-1.8,3.8-1.8l0.2-2.8c0,0,1.4,0.5,3.2,0.4
				c1.8-0.1,3.1-1.3,3.1-1.3l0.4-31.2l-1.1-4.5l-13.8,4.5L150.1,151.1z"/>
			<path class="st30" d="M162.2,119.3c0,0,2.5,0.9,3.3,5.4c0.9,4.5,0.3,8.1,0.3,8.1l6.7-0.4l0.9,4.3c0.1,0.5-0.2,1-0.7,1
				c-2.4,0.2-8.7,0.8-9.9-0.1C161.2,136.7,159.2,116.8,162.2,119.3z"/>
			<path class="st31" d="M154.8,121.4l6.3-0.6c0,0,2.8,8,3,10.9c0.2,2.8,0,11,0,11l-6.6,3.8L154.8,121.4z"/>
			<path class="st32" d="M161.2,118.5c0,0,2.4,0.8,3.5,3.5c1.1,2.6,1.6,6.8,1.4,9.5c-0.1,1.9-0.4,4.6-0.6,6.2
				c-0.1,0.8-0.1,1.7,0.1,2.5l0.9,6.1l-3.2,3.1c0,0-0.6-21.3-1-23.8c-0.4-2.6-2.1-4.1-2.1-4.1v-1.7L161.2,118.5z"/>
			<path class="st23" d="M163.2,114.3c0,0,1.2,0,2.1-0.8c0.9-0.8,0.9-1.7,0.9-1.7s1-0.1,1.2-1.9c0.2-1.7-1.1-2.3-1.1-2.3
				s1.4-1.7,0.3-2.8c-0.8-0.8-1.4-0.4-1.4-0.4s0.1-1.9-1.7-2.5c-1.7-0.6-3,0-3,0s-0.7-1.4-3-1.2c-2.3,0.2-2.3,1.2-2.3,1.2
				s-2.8-0.4-4.1,0.8c-1.3,1.2-1.3,2.1-1.3,2.1s-2.1,0.7-2.6,2.9c-0.4,1.8,0.5,3.1,0.5,3.1s-0.5,0.5-0.5,1.4c0,0.9,0.6,1.2,0.6,1.2
				s-0.6,1.1-0.1,2c0.5,0.9,1.7,1.3,1.7,1.3s0.3,1.5,1.5,2.3c1.2,0.8,2.2,0.2,2.2,0.2s0.8,1.5,2.2,1.2
				C156.7,120.2,163.2,114.3,163.2,114.3z"/>
			<polygon class="st33" points="160.2,119.9 160.2,122.5 159.6,123.5 156.3,123.5 154.8,121.4 154.8,114.7 157.5,113.5 			"/>
			<path class="st17" d="M162.7,114.5c0,0,0.2,3.2-0.9,4.7c-1.1,1.5-2,1.4-3.4,1.2c-1.3-0.2-2.2-0.9-3-2.5c-0.8-1.6-0.8-6.4,0.5-8.1
				c1.3-1.7,6.6-4.2,6.7-1.2C162.8,111.6,162.7,114.5,162.7,114.5z"/>
			<path class="st17" d="M155,113.5c0,0-1.1,0.2-1.3,1.4c-0.1,0.8,0.3,2.2,1.4,1.6C156.2,115.9,155,113.5,155,113.5z"/>
			<path class="st32" d="M154.8,121.4c0,0,3.1,3.4,3.5,6.9c0.4,3.5,0.5,24,0.5,24s-2.7,1.1-4.7,1.2c-2,0.2-4.6-1.6-4.6-1.6
				s0.6-4.7,0.5-9.2c-0.1-5.5-1-11.1-1-13C149.1,126.2,150.9,123.7,154.8,121.4z"/>
			<path class="st30" d="M151.2,125.8c0,0,2.1-1,3.1,5.6c0.7,4.6,0.6,8,0.6,8l4.5-5.6l1.2,3.7c0.2,0.6,0.1,1.3-0.3,1.8
				c-1.6,2.2-5.8,7.8-7.8,6.5C150.9,144.8,147.6,127,151.2,125.8z"/>
			<path class="st17" d="M159.3,133.4c0,0,0-2.8,0.7-3.7c0.7-0.9,2-2.7,2.4-2c0.3,0.5-1.1,2.2-1.1,2.2s0.6,0,1.2,0.5
				c0.5,0.6,1.3,2,1,3.6c-0.3,1.6-3.1,4.2-3.1,4.2S157.9,136.6,159.3,133.4z"/>
			<path class="st17" d="M172.1,132.3c0,0,1-2.4,1.8-2.2c0.8,0.2,0.2,1.4,0.2,1.4s2.8-1.1,4-0.8c1.1,0.4,0.8,3.3-0.5,4.7
				s-4.5,1.7-4.5,1.7S170.9,135.5,172.1,132.3z"/>
		</g>
		<g>
			<path class="st2" d="M297.4,233c-0.7-0.4-1.7-0.4-2.4,0l-5.6,3.2c-0.1,0-0.1,0.1-0.2,0.1l-0.5-0.2v1.2c0,0.5,0.2,0.9,0.7,1.2
				l6.2,3.6c0.8,0.5,1.9,0.5,2.7,0l4.7-2.7l3.4,2l2.9-1.6L297.4,233z"/>
			<path class="st9" d="M309.1,238.6l-11.7-6.8c-0.7-0.4-1.7-0.4-2.4,0l-5.6,3.2c-0.9,0.5-0.9,1.8,0,2.3l6.2,3.6
				c0.8,0.5,1.9,0.5,2.7,0l4.7-2.7l3.4,2L309.1,238.6z"/>
			<g>
				<path class="st20" d="M282.6,265.6c-0.4,0-0.7-0.2-0.9-0.5c-0.3-0.5-0.1-1.2,0.4-1.4l12.9-7.4c0.5-0.3,1.2-0.1,1.4,0.4
					c0.3,0.5,0.1,1.2-0.4,1.4l-12.9,7.4C283,265.6,282.8,265.6,282.6,265.6z"/>
			</g>
			<g>
				<path class="st20" d="M296.1,261.4c-0.1,0-0.1,0-0.2,0c-0.6-0.1-1-0.7-0.8-1.2l1.1-6l2-10.1c0.1-0.3,0.3-0.6,0.6-0.8
					c0.3-0.1,0.7-0.1,1,0l13.6,7.8c0.5,0.3,0.7,0.9,0.4,1.4c-0.3,0.5-0.9,0.7-1.4,0.4l-12.3-7.1l-1.7,8.6l-1.1,5.9
					C297.1,261,296.6,261.4,296.1,261.4z"/>
			</g>
			<path class="st20" d="M309.6,257.7l-10.9-6.4c-2-1.2-4.5-1.2-6.5,0l-5,2.9c-0.4,0.2-0.7,0.6-1,0.9l-0.5,0v1.7c0,0,0,0,0,0v0l0,0
				c0,1,0.5,2.1,1.6,2.6l12.9,7.3l12.6-7.3v-1.7L309.6,257.7z"/>
			<path class="st9" d="M287.3,257.8l12.9,7.3l12.6-7.3l-14-8.2c-2-1.2-4.5-1.2-6.5,0l-5,2.9C285.2,253.7,285.2,256.6,287.3,257.8z"
				/>
			<path class="st9" d="M314.7,232.3l0.3-0.3l-1.1-0.5c-0.2-0.1-0.3-0.2-0.5-0.2c-2.2-0.7-3.2,3.3-6.6,4.6c-3.4,1.3-6.4,0-8.2,2.8
				c-1.8,2.7-1.7,9,0.2,10l0,0l1.4,0.7l0.3-0.3c2.3,0.2,5.8-0.6,9.5-3c0,0,4-2.5,5-5.2C315.8,238.5,316,234.4,314.7,232.3z"/>
			<path class="st2" d="M311.4,246.7c0,0,4-2.5,5-5.2c1-2.8,1.2-8.6-1.6-9.5c-2.2-0.7-3.2,3.3-6.6,4.6c-3.4,1.3-6.4,0-8.2,2.8
				c-1.9,2.8-1.7,9.4,0.3,10.1C302.4,250.1,306.8,249.6,311.4,246.7z"/>
			<g>
				<path class="st20" d="M300.1,281.4c-0.6,0-1.1-0.5-1.1-1.1l0-15.4l4.3-19.1c0.1-0.6,0.7-0.9,1.3-0.8c0.6,0.1,0.9,0.7,0.8,1.3
					l-4.3,19v15.1C301.2,280.9,300.7,281.4,300.1,281.4z"/>
			</g>
			<g>
				<path class="st20" d="M311.9,274.6c-0.6,0-1.1-0.5-1.1-1.1l0-15.4l2.9-17.1c0.1-0.6,0.6-1,1.2-0.9c0.6,0.1,1,0.6,0.9,1.2
					l-2.9,17v15.1C312.9,274.1,312.5,274.6,311.9,274.6z"/>
			</g>
			<g>
				<path class="st20" d="M300.1,277.4c-0.4,0-0.7-0.2-0.9-0.5c-0.3-0.5-0.1-1.2,0.4-1.4l11.7-6.8c0.5-0.3,1.2-0.1,1.4,0.4
					c0.3,0.5,0.1,1.2-0.4,1.4l-11.7,6.8C300.5,277.4,300.3,277.4,300.1,277.4z"/>
			</g>
			<g>
				<path class="st20" d="M279,271.4c-0.2,0-0.4-0.1-0.6-0.2c-0.5-0.3-0.6-1-0.3-1.5l7.5-12l1.9-9.9c0.1-0.3,0.3-0.6,0.6-0.8
					c0.3-0.1,0.7-0.1,1,0l13.6,7.8c0.5,0.3,0.7,0.9,0.4,1.4c-0.3,0.5-0.9,0.7-1.4,0.4l-12.3-7.1l-1.7,8.6c0,0.1-0.1,0.2-0.1,0.4
					l-7.6,12.2C279.7,271.3,279.3,271.4,279,271.4z"/>
			</g>
			<path class="st2" d="M292.3,248.2l-3.2-1.9c-0.5-0.3-1-0.3-1.5-0.1l-0.6-0.3v1l0,0c0,0.3,0.1,0.7,0.4,0.9l8.1,4.7
				c0.3,0.2,0.7,0.2,1,0l1.2-0.7c0.1-0.1,0.2-0.2,0.2-0.3v-1.1L292.3,248.2z"/>
			<path class="st9" d="M297.6,250.8l-1.2,0.7c-0.3,0.2-0.7,0.2-1,0l-8.1-4.7c-0.6-0.4-0.6-1.2,0-1.6l0,0c0.5-0.3,1.2-0.3,1.7,0
				l8.6,5C297.9,250.3,297.9,250.6,297.6,250.8z"/>
		</g>
		<g>
			<path class="st17" d="M233.2,247.7c0,0-0.8,8.5,0,10c0.8,1.5,3.1,1.4,3.1,1.4v1.9h4l1.7-10.1L233.2,247.7z"/>
			<path class="st18" d="M210.7,302.6c0,0-4.3-0.7-5.6,0c-1.3,0.7-0.7,3,0.9,3.4c1.6,0.5,7.2,2.4,8.3,0.9c1.1-1.5,1.1-4.1,1.1-4.1
				L210.7,302.6z"/>
			<path class="st34" d="M232.8,282.5c0,0-6.2-6.4-9.9-6.5c-3.7-0.2-4.7,8.9-4.7,8.9l14.1,4.6L232.8,282.5z"/>
			<g>
				<g>
					<path class="st20" d="M217.6,302.4c-0.4,0-0.7-0.2-0.9-0.5c-0.3-0.5-0.1-1.2,0.4-1.4l12.9-7.4c0.5-0.3,1.2-0.1,1.4,0.4
						c0.3,0.5,0.1,1.2-0.4,1.4l-12.9,7.4C217.9,302.3,217.8,302.4,217.6,302.4z"/>
				</g>
			</g>
			<path class="st20" d="M244.6,294.4l-10.9-6.4c-2-1.2-4.5-1.2-6.5,0l-5,2.9c-0.4,0.2-0.7,0.6-1,0.9l-0.5,0v1.7c0,0,0,0,0,0v0h0
				c0,1,0.5,2.1,1.6,2.6l12.9,7.3l12.6-7.3v-1.7L244.6,294.4z"/>
			<path class="st2" d="M222.2,294.6l12.9,7.3l12.6-7.3l-14-8.2c-2-1.2-4.5-1.2-6.5,0l-5,2.9C220.1,290.4,220.2,293.4,222.2,294.6z"
				/>
			<path class="st35" d="M245.5,286c0,0-0.4,5.7-2.1,7.3c-1.7,1.6-8.6,4.9-11.8,4.3c-3.3-0.5-14.8-5.8-14.8-5.8l-0.5,12.6
				c0,0-4.1,1.2-5.6-0.4c-1.5-1.6-0.6-18.8,0.4-20.3c1.7-2.5,20.3,1.7,20.3,1.7L245.5,286z"/>
			<path class="st36" d="M245.5,259.8c0,0,1.6,1,2.2,4.6c0.6,3.6,0.6,6.7,0.6,6.7s-2,13.1-2.4,14.4c-0.4,1.2-7.6,5.9-10.4,5.3
				c-2.8-0.6-5.3-4.4-5-5.9c0.3-1.5,2.1-9.3,1.8-12.1c-0.2-2.8-0.6-7.8,1-9.3c1.6-1.5,3.8-2.4,3.8-2.4L245.5,259.8z"/>
			<path class="st9" d="M249.7,269.1l0.3-0.3l-1.1-0.5c-0.2-0.1-0.3-0.2-0.5-0.2c-2.2-0.7-3.2,3.3-6.6,4.6c-3.4,1.3-6.4,0-8.2,2.8
				c-1.8,2.7-1.7,9,0.2,10l0,0l1.4,0.7l0.3-0.3c2.3,0.2,5.8-0.6,9.5-3c0,0,4-2.5,5-5.2C250.7,275.3,251,271.1,249.7,269.1z"/>
			<path class="st2" d="M246.4,283.4c0,0,4-2.5,5-5.2c1-2.8,1.2-8.6-1.6-9.5c-2.2-0.7-3.2,3.3-6.6,4.6c-3.4,1.3-6.4,0-8.2,2.8
				c-1.9,2.8-1.7,9.4,0.3,10.1C237.4,286.9,241.8,286.3,246.4,283.4z"/>
			<g>
				<g>
					<path class="st20" d="M235.1,318.1c-0.6,0-1.1-0.5-1.1-1.1l0-15.4l4.3-19.1c0.1-0.6,0.7-0.9,1.3-0.8c0.6,0.1,0.9,0.7,0.8,1.3
						l-4.3,19v15.1C236.2,317.7,235.7,318.1,235.1,318.1z"/>
				</g>
			</g>
			<g>
				<g>
					<path class="st20" d="M246.9,311.3c-0.6,0-1.1-0.5-1.1-1.1l0-15.4l2.9-17.1c0.1-0.6,0.6-1,1.2-0.9c0.6,0.1,1,0.6,0.9,1.2
						l-2.9,17v15.1C247.9,310.9,247.4,311.3,246.9,311.3z"/>
				</g>
			</g>
			<g>
				<g>
					<path class="st20" d="M235.1,314.2c-0.4,0-0.7-0.2-0.9-0.5c-0.3-0.5-0.1-1.2,0.4-1.4l11.7-6.8c0.5-0.3,1.2-0.1,1.4,0.4
						c0.3,0.5,0.1,1.2-0.4,1.4l-11.7,6.8C235.5,314.1,235.3,314.2,235.1,314.2z"/>
				</g>
			</g>
			<g>
				<g>
					<path class="st20" d="M213.9,308.2c-0.2,0-0.4-0.1-0.6-0.2c-0.5-0.3-0.6-1-0.3-1.5l7.5-12l1.9-9.9c0.1-0.3,0.3-0.6,0.6-0.8
						c0.3-0.1,0.7-0.1,1,0l13.6,7.8c0.5,0.3,0.7,0.9,0.4,1.4c-0.3,0.5-0.9,0.7-1.4,0.4l-12.3-7.1l-1.7,8.6c0,0.1-0.1,0.2-0.1,0.4
						l-7.6,12.2C214.6,308,214.3,308.2,213.9,308.2z"/>
				</g>
			</g>
			<path class="st2" d="M227.3,285l-3.2-1.9c-0.5-0.3-1-0.3-1.5-0.1l-0.6-0.3v1l0,0c0,0.3,0.1,0.7,0.4,0.9l8.1,4.7
				c0.3,0.2,0.7,0.2,1,0l1.2-0.7c0.1-0.1,0.2-0.2,0.2-0.3v-1.1L227.3,285z"/>
			<path class="st9" d="M232.6,287.5l-1.2,0.7c-0.3,0.2-0.7,0.2-1,0l-8.1-4.7c-0.6-0.4-0.6-1.2,0-1.6l0,0c0.5-0.3,1.2-0.3,1.7,0
				l8.6,5C232.8,287.1,232.8,287.4,232.6,287.5z"/>
			<path class="st35" d="M234.8,262.9c0,0,4.3,2.4,1.4,7c-2.3,3.6-6.9,13.8-10.2,14.3c-2.9,0.5-3.7-1.5-2.8-4.4
				C224.1,276.8,231.7,260.9,234.8,262.9z"/>
			<path class="st35" d="M235.8,261.6c0,0,1.6,0.8,4,0.5c2.4-0.3,5.7-2.4,5.7-2.4v-1.4c0,0-3.1,1-5.7,1.4c-2.6,0.4-4,0.5-4,0.5
				l-0.8,1.8L235.8,261.6z"/>
			<path class="st23" d="M236.8,254.7l-0.9-0.7c0,0,0.3-3.6,0-4.2c-0.3-0.7-2.7-0.5-3-2.8c-0.3-2.3,2.5-5.2,3.9-5.5
				c1.5-0.3,0.9,0.9,0.9,0.9s1.4-0.5,2.3-0.5c0.9,0,0.3,0.7,0.3,0.7s1.8-0.1,2-0.1c0.2,0,0,0.8,0,0.8s3.9,0.9,5.4,2.8
				c1.5,1.9,0.1,8.5-0.7,10.7c-0.8,2.2-2,2.8-4.1,3.1c-2.1,0.3-3.4-0.4-4.2-0.9c-0.9-0.5-0.9-2.3-0.9-2.3s0.7-0.7,0.5-2.2
				C238,252.9,237.2,252,236.8,254.7z"/>
		</g>
		<g>
			<path class="st17" d="M183.1,217.6c0,0-0.8,8.5,0,10c0.8,1.5,3.1,1.4,3.1,1.4v1.9h4l1.7-10.1L183.1,217.6z"/>
			<path class="st29" d="M160.6,272.5c0,0-4.3-0.7-5.6,0c-1.3,0.7-0.7,3,0.9,3.4c1.6,0.5,7.2,2.4,8.3,0.9c1.1-1.5,1.1-4.1,1.1-4.1
				L160.6,272.5z"/>
			<path class="st33" d="M182.7,252.4c0,0-7.9-2.8-11.6-2.9c-3.7-0.2-4.1,6.9-4.1,6.9l15.2,3.1L182.7,252.4z"/>
			<g>
				<path class="st20" d="M167.5,272.3c-0.4,0-0.7-0.2-0.9-0.5c-0.3-0.5-0.1-1.2,0.4-1.4l12.9-7.4c0.5-0.3,1.2-0.1,1.4,0.4
					c0.3,0.5,0.1,1.2-0.4,1.4l-12.9,7.4C167.9,272.2,167.7,272.3,167.5,272.3z"/>
			</g>
			<path class="st20" d="M194.5,264.3l-10.9-6.4c-2-1.2-4.5-1.2-6.5,0l-5,2.9c-0.4,0.2-0.7,0.6-1,0.9l-0.5,0v1.7c0,0,0,0,0,0v0h0
				c0,1,0.5,2.1,1.6,2.6l12.9,7.3l12.6-7.3v-1.7L194.5,264.3z"/>
			<path class="st9" d="M172.2,264.5l12.9,7.3l12.6-7.3l-14-8.2c-2-1.2-4.5-1.2-6.5,0l-5,2.9C170.1,260.3,170.1,263.3,172.2,264.5z"
				/>
			<path class="st17" d="M195.4,255.9c0,0-0.4,5.7-2.1,7.3c-1.7,1.6-8.6,4.9-11.8,4.3c-3.3-0.5-12-7.7-12-7.7l0,0
				c0.2,2.8-0.4,5.6-1.6,8.1l-3.5,6.9c0,0-2.3,0.9-3.8-0.7c-1.5-1.6,4.5-20.1,5.4-21.7c2.6-4.4,15.3,3.1,15.3,3.1L195.4,255.9z"/>
			<path class="st29" d="M169.5,259.8c0,0-2.8-6.7,0-8.9c2.8-2.2,5.3-0.9,5.3-0.9l11,2.6l9.6,3.2c0,0,0,5.3-1.9,7.9
				c-1.9,2.6-9,5.3-13.2,3.7C176.1,265.9,169.5,259.8,169.5,259.8z"/>
			<path class="st37" d="M195.4,229.7c0,0,1.6,1,2.2,4.6c0.6,3.6,0.6,6.7,0.6,6.7s-2,13.1-2.4,14.4c-0.4,1.2-7.6,5.9-10.4,5.3
				c-2.8-0.6-5.3-4.4-5-5.9c0.3-1.5,2.1-9.3,1.8-12.1c-0.2-2.8-0.6-7.8,1-9.3c1.6-1.5,3.8-2.4,3.8-2.4L195.4,229.7z"/>
			<path class="st9" d="M199.6,239l0.3-0.3l-1.1-0.5c-0.2-0.1-0.3-0.2-0.5-0.2c-2.2-0.7-3.2,3.3-6.6,4.6c-3.4,1.3-6.4,0-8.2,2.8
				c-1.8,2.7-1.7,9,0.2,10l0,0l1.4,0.7l0.3-0.3c2.3,0.2,5.8-0.6,9.5-3c0,0,4-2.5,5-5.2C200.6,245.2,200.9,241,199.6,239z"/>
			<path class="st2" d="M196.3,253.3c0,0,4-2.5,5-5.2c1-2.8,1.2-8.6-1.6-9.5c-2.2-0.7-3.2,3.3-6.6,4.6c-3.4,1.3-6.4,0-8.2,2.8
				c-1.9,2.8-1.7,9.4,0.3,10.1C187.3,256.8,191.7,256.2,196.3,253.3z"/>
			<g>
				<path class="st20" d="M185,288c-0.6,0-1.1-0.5-1.1-1.1l0-15.4l4.3-19.1c0.1-0.6,0.7-0.9,1.3-0.8c0.6,0.1,0.9,0.7,0.8,1.3
					l-4.3,19V287C186.1,287.6,185.6,288,185,288z"/>
			</g>
			<g>
				<path class="st20" d="M196.8,281.2c-0.6,0-1.1-0.5-1.1-1.1l0-15.4l2.9-17.1c0.1-0.6,0.6-1,1.2-0.9c0.6,0.1,1,0.6,0.9,1.2
					l-2.9,17v15.1C197.8,280.8,197.4,281.2,196.8,281.2z"/>
			</g>
			<g>
				<path class="st20" d="M185,284.1c-0.4,0-0.7-0.2-0.9-0.5c-0.3-0.5-0.1-1.2,0.4-1.4l11.7-6.8c0.5-0.3,1.2-0.1,1.4,0.4
					c0.3,0.5,0.1,1.2-0.4,1.4l-11.7,6.8C185.4,284,185.2,284.1,185,284.1z"/>
			</g>
			<g>
				<path class="st20" d="M163.8,278.1c-0.2,0-0.4-0.1-0.6-0.2c-0.5-0.3-0.6-1-0.3-1.5l7.5-12l1.9-9.9c0.1-0.3,0.3-0.6,0.6-0.8
					c0.3-0.1,0.7-0.1,1,0l13.6,7.8c0.5,0.3,0.7,0.9,0.4,1.4c-0.3,0.5-0.9,0.7-1.4,0.4l-12.3-7.1l-1.7,8.6c0,0.1-0.1,0.2-0.1,0.4
					l-7.6,12.2C164.5,277.9,164.2,278.1,163.8,278.1z"/>
			</g>
			<path class="st2" d="M177.2,254.9l-3.2-1.9c-0.5-0.3-1-0.3-1.5-0.1l-0.6-0.3v1l0,0c0,0.3,0.1,0.7,0.4,0.9l8.1,4.7
				c0.3,0.2,0.7,0.2,1,0l1.2-0.7c0.1-0.1,0.2-0.2,0.2-0.3v-1.1L177.2,254.9z"/>
			<path class="st9" d="M182.5,257.4l-1.2,0.7c-0.3,0.2-0.7,0.2-1,0l-8.1-4.7c-0.6-0.4-0.6-1.2,0-1.6l0,0c0.5-0.3,1.2-0.3,1.7,0
				l8.6,5C182.7,257,182.7,257.3,182.5,257.4z"/>
			<path class="st29" d="M184.7,232.8c0,0,4.3,2.4,1.4,7c-2.3,3.6-6.9,13.8-10.2,14.3c-2.9,0.5-3.7-1.5-2.8-4.4
				C174,246.7,181.6,230.8,184.7,232.8z"/>
			<path class="st29" d="M185.7,231.6c0,0,1.6,0.8,4,0.5c2.4-0.3,5.7-2.4,5.7-2.4v-1.4c0,0-3.1,1-5.7,1.4c-2.6,0.4-4,0.5-4,0.5
				l-0.8,1.8L185.7,231.6z"/>
			<path class="st38" d="M186.2,224.4c0,0-3.5-2.4-4-5.7c-0.6-3.3,0.1-4.6,1.5-5.5c1.3-0.9,3.4-0.8,3.4-0.8s1.1-1.8,3.8-1.7
				c2.7,0,6,2.5,7.4,7.5c1.4,5-2,10-4.4,11.5c-2.5,1.5-5.6-0.5-6.1-2c-0.5-1.4-0.5-1.4-0.5-1.4s1.1-0.5,0.9-2.3
				C188,222.2,186.2,222.7,186.2,224.4z"/>
			<path class="st23" d="M196.8,222.1c0,0,3.3,0.4,4.6,4.6c1.3,4.2-1.1,8-1.6,11.1c-0.6,3.1,0.6,5.5,0.2,6.1
				c-0.4,0.6-5.5,0.5-7.1-6.6c-1.6-7.1,1.1-13,1.1-13S194.2,222,196.8,222.1z"/>
		</g>
		<g>
			<g>
				<path class="st8" d="M248,360.7l72.7,43.1c4.6,2.7,10.4,2.8,15,0.1L439.4,344c3.4-1.9,3.4-6.8,0.1-8.8l-72.7-44.2
					c-4.6-2.7-10.4-2.8-15-0.1l-103.7,60.9C244.7,353.9,244.7,358.7,248,360.7z"/>
				<path class="st9" d="M441.9,338.3L441.9,338.3l0-6.3l-3.6,0.3l-71.6-42.5c-4.6-2.7-10.3-2.8-15-0.1l-101.6,58.6l-4.6,0.4v6.7
					l0,0c0.1,1.5,1,3,2.5,3.9l72.7,43.1c4.6,2.7,10.4,2.8,15,0.1l103.7-59.9C441.1,341.8,442,340,441.9,338.3z"/>
				<linearGradient id="SVGID_13_" gradientUnits="userSpaceOnUse" x1="474.9619" y1="218.1461" x2="276.6764" y2="409.3288">
					<stop  offset="0" style="stop-color:#4C6BA7;stop-opacity:0"/>
					<stop  offset="1" style="stop-color:#4C6BA7"/>
				</linearGradient>
				<path class="st39" d="M441.9,338.3L441.9,338.3l0-6.3l-3.6,0.3l-71.6-42.5c-4.6-2.7-10.3-2.8-15-0.1l-101.6,58.6l-4.6,0.4v6.7
					l0,0c0.1,1.5,1,3,2.5,3.9l72.7,43.1c4.6,2.7,10.4,2.8,15,0.1l103.7-59.9C441.1,341.8,442,340,441.9,338.3z"/>
				<path class="st12" d="M248,352.9l72.7,43.1c4.6,2.7,10.4,2.8,15,0.1l103.7-59.9c3.4-1.9,3.4-6.8,0.1-8.8l-72.7-43.1
					c-4.6-2.7-10.4-2.8-15-0.1l-103.7,59.9C244.7,346.1,244.7,351,248,352.9z"/>
				<linearGradient id="SVGID_14_" gradientUnits="userSpaceOnUse" x1="429.5414" y1="297.1735" x2="348.302" y2="354.1721">
					<stop  offset="0" style="stop-color:#4C6BA7;stop-opacity:0"/>
					<stop  offset="1" style="stop-color:#4C6BA7"/>
				</linearGradient>
				<path class="st40" d="M339.1,371.3h39.5l60.7-35.1c3.4-1.9,3.4-6.8,0.1-8.8l-27.2-16.2h-68.5L339.1,371.3z"/>
			</g>
			<g>
				<path class="st21" d="M399.4,326.2l-3.1,0.2c-2.1-3.2-5.4-6.2-9.7-8.7c-19.1-11-52.4-9.6-74.5,3.1c-6.9,4-11.9,8.6-14.9,13.4
					l-3.4,0.3v10.9l0,0c0.1,6.9,4.3,13.5,12.9,18.4c19.1,11,52.4,9.6,74.5-3.1c12.3-7.1,18.5-16.3,18.2-24.9h0V326.2z"/>
				<path class="st41" d="M312,310.3c-22,12.7-24.4,32-5.3,43c19.1,11,52.4,9.6,74.5-3.1c22-12.7,24.4-32,5.3-43
					C367.4,296.2,334.1,297.6,312,310.3z"/>
				<path class="st42" d="M346.6,330.2l17.8-29.9c8.3,1,15.9,3.3,22.1,6.8c3.7,2.1,6.6,4.6,8.7,7.2L346.6,330.2z"/>
				<path class="st43" d="M328,303.5c11.8-3.5,24.7-4.6,36.4-3.2l-17.8,29.9L328,303.5z"/>
				<polygon class="st35" points="328,289.3 328,303.5 346.6,330.2 346.6,316 				"/>
				<path class="st36" d="M328,289.2c11.8-3.5,24.7-4.6,36.4-3.2L346.6,316L328,289.2z"/>
				<path class="st22" d="M309.3,354.7c-0.9-0.4-1.8-0.9-2.6-1.4c-19.1-11-16.7-30.3,5.3-43c4.9-2.8,10.3-5.1,16-6.8l18.6,26.7
					L309.3,354.7z"/>
				<path class="st32" d="M346.6,310.6l17.8-29.9c8.3,1,15.9,3.3,22.1,6.8c3.7,2.1,6.6,4.6,8.7,7.2L346.6,310.6z"/>
				<polygon class="st44" points="346.6,310.6 346.6,319.3 395.2,303.5 395.2,294.8 				"/>
				<path class="st29" d="M399.4,316.5l-1.8,4.2c-0.6-1.3-1.4-2.5-2.4-3.8l-36.6,11.9l-12-10.1v22.1l25.1,24.5
					c3.3-1.3,6.5-2.8,9.4-4.5c12.3-7.1,18.4-16.2,18.2-24.7l0,0V316.5z"/>
				<path class="st45" d="M367,350.1l-20.4-19.8L316.4,350l-7.1,0v15.3c16.7,8.2,42.2,8,62.4,0v-15.3L367,350.1z"/>
				<path class="st37" d="M395.2,303c8.7,11,3.7,25.5-14,35.8c-3,1.7-6.1,3.2-9.4,4.5l-25.1-24.5L395.2,303z"/>
				<path class="st46" d="M309.3,350l37.3-24.4l25.1,24.5C351.5,358,326,358.2,309.3,350z"/>
			</g>
		</g>
		<g>
			<g>
				<path class="st8" d="M173.9,370.3l-16.9,9.8c-5.5,3.2-12.3,3.2-17.8,0l-60.6-35.3c-4.1-2.3-4.1-8.2,0-10.6l16.9-9.8
					c5.5-3.2,12.3-3.2,17.8,0l60.6,35.3C178,362.1,178,367.9,173.9,370.3z"/>
				<path class="st9" d="M78.7,333.1l16.8-9.7c5.5-3.2,12.3-3.2,17.8,0l48.7,28.4l14.9,5.6v6.5c0,2.1-1,4.1-3,5.3L157,379
					c-5.5,3.2-12.3,3.2-17.8,0l-60.6-35.3c-2-1.2-3-3.2-3-5.2l0,0v-6.6L78.7,333.1z"/>
				
					<linearGradient id="SVGID_15_" gradientUnits="userSpaceOnUse" x1="213.1282" y1="327.2946" x2="108.8905" y2="383.7828" gradientTransform="matrix(-1 0 0 1 295.6836 0)">
					<stop  offset="0" style="stop-color:#4C6BA7;stop-opacity:0"/>
					<stop  offset="1" style="stop-color:#4C6BA7"/>
				</linearGradient>
				<path class="st47" d="M78.7,333.1l16.8-9.7c5.5-3.2,12.3-3.2,17.8,0l48.7,28.4l14.9,5.6v6.5c0,2.1-1,4.1-3,5.3L157,379
					c-5.5,3.2-12.3,3.2-17.8,0l-60.6-35.3c-2-1.2-3-3.2-3-5.2l0,0v-6.6L78.7,333.1z"/>
				<path class="st12" d="M173.9,362.7l-16.9,9.8c-5.5,3.2-12.3,3.2-17.8,0l-60.6-35.3c-4.1-2.3-4.1-8.2,0-10.6l16.9-9.8
					c5.5-3.2,12.3-3.2,17.8,0l60.6,35.3C178,354.5,178,360.4,173.9,362.7z"/>
			</g>
			<linearGradient id="SVGID_16_" gradientUnits="userSpaceOnUse" x1="173.7208" y1="345.4894" x2="145.4416" y2="365.3305">
				<stop  offset="0" style="stop-color:#4C6BA7;stop-opacity:0"/>
				<stop  offset="1" style="stop-color:#4C6BA7"/>
			</linearGradient>
			<path class="st48" d="M132.3,357.1l14.7,8.5h22l5-2.9c4.1-2.3,4.1-8.2,0-10.6l-1.6-1h-29.7L132.3,357.1z"/>
			<linearGradient id="SVGID_17_" gradientUnits="userSpaceOnUse" x1="164.3209" y1="332.9954" x2="129.3673" y2="357.5193">
				<stop  offset="0" style="stop-color:#4C6BA7;stop-opacity:0"/>
				<stop  offset="1" style="stop-color:#4C6BA7"/>
			</linearGradient>
			<polygon class="st49" points="172.6,351.4 151.8,339.3 121.9,339.3 111.6,345.2 126.3,353.7 170.2,353.7 			"/>
			<linearGradient id="SVGID_18_" gradientUnits="userSpaceOnUse" x1="143.6289" y1="320.95" x2="108.6605" y2="345.4843">
				<stop  offset="0" style="stop-color:#4C6BA7;stop-opacity:0"/>
				<stop  offset="1" style="stop-color:#4C6BA7"/>
			</linearGradient>
			<polygon class="st50" points="151.9,339.3 131.1,327.2 101.2,327.2 90.9,333.2 105.6,341.6 149.5,341.6 			"/>
			<g>
				<polygon class="st36" points="90.9,281 103.6,273.7 118.3,282.2 105.6,289.5 				"/>
				<polygon class="st51" points="90.9,281 90.9,333.2 105.6,341.6 105.6,289.5 				"/>
				<polygon class="st35" points="105.6,341.6 118.3,334.3 118.3,282.2 105.6,289.5 				"/>
			</g>
			<g>
				<polygon class="st52" points="111.6,308.1 124.3,300.8 139,309.2 126.3,316.6 				"/>
				<polygon class="st44" points="111.6,308.1 111.6,345.1 126.3,353.6 126.3,316.6 				"/>
				<polygon class="st32" points="126.3,353.6 139,346.3 139,309.2 126.3,316.6 				"/>
			</g>
			<g>
				<polygon class="st22" points="132.3,334.7 145,327.4 159.7,335.9 147,343.2 				"/>
				<polygon class="st19" points="132.3,334.7 132.3,357.1 147,365.6 147,343.2 				"/>
				<polygon class="st21" points="147,365.6 159.7,358.3 159.7,335.9 147,343.2 				"/>
			</g>
		</g>
		<g>
			<g>
				<path class="st8" d="M400.2,237.1l-16.9,9.8c-5.5,3.2-12.3,3.2-17.8,0l-60.6-35.3c-4.1-2.3-4.1-8.2,0-10.6l16.9-9.8
					c5.5-3.2,12.3-3.2,17.8,0l60.6,35.3C404.3,228.9,404.3,234.8,400.2,237.1z"/>
				<path class="st9" d="M305,199.9l16.8-9.7c5.5-3.2,12.3-3.2,17.8,0l48.7,28.4l14.9,5.6v6.5c0,2.1-1,4.1-3,5.3l-16.9,9.8
					c-5.5,3.2-12.3,3.2-17.8,0l-60.6-35.3c-2-1.2-3-3.2-3-5.2l0,0v-6.6L305,199.9z"/>
				
					<linearGradient id="SVGID_19_" gradientUnits="userSpaceOnUse" x1="-13.1362" y1="194.0967" x2="-117.3738" y2="250.5848" gradientTransform="matrix(-1 0 0 1 295.6836 0)">
					<stop  offset="0" style="stop-color:#4C6BA7;stop-opacity:0"/>
					<stop  offset="1" style="stop-color:#4C6BA7"/>
				</linearGradient>
				<path class="st53" d="M305,199.9l16.8-9.7c5.5-3.2,12.3-3.2,17.8,0l48.7,28.4l14.9,5.6v6.5c0,2.1-1,4.1-3,5.3l-16.9,9.8
					c-5.5,3.2-12.3,3.2-17.8,0l-60.6-35.3c-2-1.2-3-3.2-3-5.2l0,0v-6.6L305,199.9z"/>
				<path class="st12" d="M400.2,229.5l-16.9,9.8c-5.5,3.2-12.3,3.2-17.8,0L304.9,204c-4.1-2.3-4.1-8.2,0-10.6l16.9-9.8
					c5.5-3.2,12.3-3.2,17.8,0l60.6,35.3C404.3,221.3,404.3,227.2,400.2,229.5z"/>
			</g>
			<linearGradient id="SVGID_20_" gradientUnits="userSpaceOnUse" x1="311.4434" y1="215.8725" x2="403.2485" y2="215.8725">
				<stop  offset="0" style="stop-color:#4C6BA7;stop-opacity:0"/>
				<stop  offset="1" style="stop-color:#4C6BA7"/>
			</linearGradient>
			<path class="st54" d="M379.4,235.5h10.4l10.4-6c4.1-2.3,4.1-8.2,0-10.6l-30.4-17.7l-58.4-5L379.4,235.5z"/>
			<path class="st55" d="M325.6,188.1V162c0,0,5-3.4,8.9-1.6c3.8,1.9,6.5,11.5,10.9,14.4c4.5,2.9,7.2-9.2,12-7.1
				c4.8,2.1,5.6,26.4,9.3,30.7c3.7,4.2,7.4-7.7,9.7-7.7c2.4,0,5.8,8.6,10.3,9.4c4.5,0.8,6.8-2,6.8-2v29.2L325.6,188.1z"/>
			<path class="st55" d="M311.4,170.2l14.2-8.2c0,0,13.8,17.1,28.7,27.1c15,10,10.9,11.9,18,15.1c7.1,3.2,21.3,23.1,21.3,23.1
				l-14.2,8.2L311.4,170.2z"/>
			<polygon class="st55" points="340.2,176.4 354.6,168.1 356.2,175.7 361.6,196.2 362.3,198.9 375.9,190.9 370.2,207.8 
				357.5,204.3 			"/>
			<path class="st34" d="M311.4,196.2v-26.1c0,0,5-3.4,8.9-1.6c3.8,1.9,6.5,11.5,10.9,14.4c4.5,2.9,7.2-9.2,12-7.1
				c4.8,2.1,5.6,26.4,9.3,30.7c3.7,4.2,7.4-7.7,9.7-7.7c2.4,0,5.8,8.6,10.3,9.4c4.5,0.8,6.8-2,6.8-2v29.2L311.4,196.2z"/>
			<path class="st29" d="M311.4,196.2v-26.1c0,0,5-3.4,8.9-1.6c3.8,1.9,6.5,11.5,10.9,14.4c4.5,2.9,7.2-9.2,12-7.1
				c4.8,2.1,5.6,26.4,9.3,30.7c3.7,4.2,7.4-7.7,9.7-7.7c2.4,0,5.8,8.6,10.3,9.4c4.5,0.8,6.8-2,6.8-2v29.2L311.4,196.2z"/>
			<polygon class="st37" points="379.4,206.3 393.6,198.1 393.6,227.3 379.4,235.5 			"/>
			<line class="st56" x1="316.3" y1="199.2" x2="316.3" y2="154.6"/>
			<line class="st56" x1="335.7" y1="210.4" x2="335.7" y2="165.8"/>
			<line class="st56" x1="355.2" y1="221.4" x2="355.2" y2="176.8"/>
			<line class="st56" x1="374.6" y1="232.7" x2="374.6" y2="188.1"/>
			<path class="st57" d="M311.4,170.2c0,0,5-3.4,8.9-1.6c3.8,1.9,6.5,11.5,10.9,14.4c4.5,2.9,7.2-9.2,12-7.1
				c4.8,2.1,5.6,26.4,9.3,30.7c3.7,4.2,7.4-7.7,9.7-7.7c2.4,0,5.8,8.6,10.3,9.4c4.5,0.8,6.8-2,6.8-2"/>
		</g>
		<line class="st58" x1="165" y1="85.3" x2="200.5" y2="85.3"/>
		<path class="st59" d="M220.5,85.3c0,3.7-3,6.7-6.7,6.7c-3.7,0-6.7-3-6.7-6.7c0-3.7,3-6.7,6.7-6.7
			C217.5,78.6,220.5,81.6,220.5,85.3z"/>
		<path class="st60" d="M352.5,438.3c0,3.7-3,6.7-6.7,6.7c-3.7,0-6.7-3-6.7-6.7c0-3.7,3-6.7,6.7-6.7
			C349.5,431.6,352.5,434.6,352.5,438.3z"/>
		<polyline class="st58" points="363.5,114.2 358,114.2 358,159.6 		"/>
		<polygon class="st61" points="369.5,117 376.2,105.4 382.9,117 		"/>
		<polygon class="st61" points="369.5,105.4 376.2,93.8 382.9,105.4 		"/>
		<polyline class="st58" points="78.5,398.1 78.5,360.4 113,360.4 		"/>
		<polyline class="st58" points="331.9,439.7 323,439.7 323,389.5 		"/>
		<rect x="71.3" y="405.9" class="st62" width="13.9" height="13.9"/>
		<g class="st0">
			<rect x="226.4" y="90.1" class="st63" width="71.2" height="14.5"/>
			<text transform="matrix(1 0 0 1 226.4424 93.6548)" class="st64"><tspan x="0" y="0" class="st9 st65 st66">Lorem ipsum dolor sit amet, ut ius </tspan><tspan x="0" y="6" class="st9 st65 st66">quaestio perpetua, cu.</tspan></text>
		</g>
		<text transform="matrix(1 0 0 1 226.4429 86.0215)" class="st67 st65 st68">Lorem ipsum</text>
		<g class="st0">
			<rect x="390.5" y="105.4" class="st63" width="71.2" height="14.5"/>
			<text transform="matrix(1 0 0 1 390.5425 108.9795)" class="st64"><tspan x="0" y="0" class="st9 st65 st66">Lorem ipsum dolor sit amet, ut ius </tspan><tspan x="0" y="6" class="st9 st65 st66">quaestio perpetua, cu.</tspan></text>
		</g>
		<text transform="matrix(1 0 0 1 390.5435 101.3467)" class="st67 st65 st68">Lorem ipsum</text>
		<g class="st0">
			<rect x="357.4" y="443.8" class="st63" width="71.2" height="14.5"/>
			<text transform="matrix(1 0 0 1 357.3999 447.3364)" class="st64"><tspan x="0" y="0" class="st9 st65 st66">Lorem ipsum dolor sit amet, ut ius </tspan><tspan x="0" y="6" class="st9 st65 st66">quaestio perpetua, cu.</tspan></text>
		</g>
		<text transform="matrix(1 0 0 1 357.4009 439.7036)" class="st67 st65 st68">Lorem ipsum</text>
		<g class="st0">
			<rect x="92.7" y="414.5" class="st63" width="71.2" height="14.5"/>
			<text transform="matrix(1 0 0 1 92.6563 418.0684)" class="st64"><tspan x="0" y="0" class="st9 st65 st66">Lorem ipsum dolor sit amet, ut ius </tspan><tspan x="0" y="6" class="st9 st65 st66">quaestio perpetua, cu.</tspan></text>
		</g>
		<text transform="matrix(1 0 0 1 92.6567 410.4355)" class="st67 st65 st68">Lorem ipsum</text>
	</g>
</g>
<g id="Designed_By_Freepik" class="st0">
	<g class="st64">
		<g id="XMLID_319_">
			<g id="XMLID_338_">
				<path id="XMLID_346_" class="st69" d="M260.1,465.5c-0.4,0.4-0.8,0.9-1.1,1.5l-0.5-0.2c-0.1-0.3-0.3-0.5-0.7-0.5
					c-0.3,0-0.6,0.3-0.5,0.7c0,0.3,0.3,0.6,0.7,0.5c0.1,0,0.1,0,0.2-0.1l0.5,0.2c-0.3,0.6-0.4,1.1-0.5,1.7l0.7,0.1
					c0.2-1.3,0.8-2.5,1.8-3.5L260.1,465.5z"/>
				<path id="XMLID_345_" class="st69" d="M265.6,463.2c-0.2,0-0.3,0-0.5,0l-0.1-0.6c0.2-0.1,0.3-0.4,0.3-0.6c0-0.4-0.4-0.7-0.8-0.6
					c-0.4,0-0.7,0.4-0.6,0.8c0,0.3,0.2,0.5,0.4,0.6l0.1,0.6c-0.7,0.1-1.4,0.3-2.1,0.6l0.3,0.7c0.9-0.4,1.9-0.7,3-0.7
					c0.5,0,1,0.1,1.5,0.2l0.2-0.7C266.7,463.2,266.1,463.2,265.6,463.2z"/>
				<path id="XMLID_344_" class="st69" d="M272.2,465.7c0.3,0,0.6-0.3,0.5-0.7c0-0.3-0.3-0.6-0.7-0.5c-0.3,0-0.5,0.3-0.5,0.6
					l-0.4,0.4c-0.4-0.4-0.9-0.8-1.4-1.1l-0.4,0.6c1.1,0.7,2,1.7,2.6,2.9l0.7-0.3c-0.3-0.6-0.6-1.1-0.9-1.5l0.4-0.4
					C272.1,465.7,272.1,465.7,272.2,465.7z"/>
				<path id="XMLID_343_" class="st69" d="M265,473.4c-0.4,0-0.8,0-1.2,0c-0.9,0-1.7-0.1-2.5-0.2c-0.4-0.1-0.8-0.2-1.3-0.3
					c1,1.9,3.1,3.1,5.4,3.1c2.9,0,5.3-1.9,5.9-4.5c-0.7,0.4-1.5,0.8-2.5,1.1C267.8,473,266.5,473.3,265,473.4z"/>
				<path id="XMLID_339_" class="st69" d="M265.6,464.7c-3.4,0-6.1,2.7-6.1,5.9c0,0.4,0,0.8,0.1,1.3c0.7,0.5,2.7,0.9,5.3,0.7
					c2.9-0.2,5.3-1,6.7-2.2c0-0.2,0-0.4,0-0.6C271.2,466.9,268.7,464.7,265.6,464.7z M263.4,471.2c-1,0-1.8-0.8-1.8-1.8
					c0-1,0.8-1.8,1.8-1.8c1,0,1.8,0.8,1.8,1.8C265.3,470.4,264.5,471.2,263.4,471.2z M268.2,470.3c-0.8,0-1.4-0.6-1.4-1.4
					s0.6-1.4,1.4-1.4s1.4,0.6,1.4,1.4S268.9,470.3,268.2,470.3z"/>
			</g>
			<path id="XMLID_336_" class="st69" d="M281.6,466.5c-0.3-0.1-0.8-0.3-1.4-0.2c-0.6,0.1-0.8,0.3-0.8,1v0.9h2.2v1.7h-2.2v5.5h-1.9
				v-5.5h-1.3v-1.7h1.3v-0.9c0-1.7,0.9-2.8,2.6-2.8c0.6,0,1.2,0.1,1.6,0.3V466.5z"/>
			<path id="XMLID_334_" class="st69" d="M286.3,469.9c-0.2,0-0.4,0-0.5,0c-0.9,0-1.5,0.5-1.5,1.6v3.9h-1.9v-7.2h1.9v0.8
				c0.5-0.7,1.1-1,2-1c0.4,0,0.8,0.1,1.1,0.3L286.3,469.9z"/>
			<path id="XMLID_331_" class="st69" d="M294,471.8c0,0.2,0,0.5,0,0.7h-5.1c0.2,1,0.9,1.5,1.8,1.5c0.6,0,1.3-0.3,1.8-0.7l1.1,1.2
				c-0.8,0.7-1.9,1.1-3.1,1.1c-2.2,0-3.7-1.5-3.7-3.8c0-2.3,1.5-3.8,3.6-3.8C292.5,468,294,469.5,294,471.8z M288.9,471.1h3.2
				c-0.2-0.9-0.7-1.4-1.6-1.4C289.6,469.7,289,470.2,288.9,471.1z"/>
			<path id="XMLID_328_" class="st69" d="M301.6,471.8c0,0.2,0,0.5,0,0.7h-5.1c0.2,1,0.9,1.5,1.8,1.5c0.6,0,1.3-0.3,1.8-0.7l1.1,1.2
				c-0.8,0.7-1.9,1.1-3.1,1.1c-2.2,0-3.7-1.5-3.7-3.8c0-2.3,1.5-3.8,3.6-3.8C300.2,468,301.6,469.5,301.6,471.8z M296.5,471.1h3.2
				c-0.2-0.9-0.7-1.4-1.6-1.4C297.2,469.7,296.7,470.2,296.5,471.1z"/>
			<path id="XMLID_325_" class="st69" d="M310,471.8c0,2.2-1.5,3.8-3.5,3.8c-1,0-1.6-0.4-2.1-0.9v3.7h-1.9v-10.1h1.9v0.8
				c0.5-0.6,1.2-1,2.1-1C308.5,468,310,469.6,310,471.8z M304.3,471.8c0,1.1,0.7,2,1.8,2c1.1,0,1.9-0.9,1.9-2c0-1.1-0.7-2-1.9-2
				C305,469.8,304.3,470.6,304.3,471.8z"/>
			<path id="XMLID_322_" class="st69" d="M313.1,465.8c0,0.7-0.5,1.2-1.2,1.2c-0.7,0-1.2-0.5-1.2-1.2c0-0.7,0.5-1.2,1.2-1.2
				C312.5,464.6,313.1,465.1,313.1,465.8z M312.8,475.4h-1.9v-7.2h1.9V475.4z"/>
			<path id="XMLID_320_" class="st69" d="M316,470.7l2.7-2.6h2.4l-3.5,3.4l3.5,3.8h-2.4l-2.7-2.9v2.9h-1.9v-10.7h1.9V470.7z"/>
		</g>
		<g>
			<path class="st69" d="M184.4,475.3v-1.1c-0.5,0.7-1.4,1.2-2.4,1.2c-1.8,0-3.1-1.4-3.1-3.7c0-2.3,1.3-3.7,3.1-3.7
				c1,0,1.8,0.5,2.4,1.2v-3.8h1.1v9.8H184.4z M184.4,473.4v-3.2c-0.4-0.6-1.2-1.1-2.1-1.1c-1.4,0-2.3,1.2-2.3,2.7
				c0,1.6,0.8,2.7,2.3,2.7C183.2,474.5,184,474,184.4,473.4z"/>
			<path class="st69" d="M186.9,471.7c0-2.1,1.5-3.7,3.5-3.7c2.1,0,3.4,1.7,3.4,3.8v0.3h-5.7c0.1,1.3,1,2.4,2.5,2.4
				c0.8,0,1.6-0.3,2.2-0.9l0.5,0.7c-0.7,0.7-1.7,1.1-2.8,1.1C188.4,475.5,186.9,474,186.9,471.7z M190.4,468.9
				c-1.5,0-2.3,1.3-2.3,2.4h4.6C192.7,470.2,192,468.9,190.4,468.9z"/>
			<path class="st69" d="M194.6,474.4l0.6-0.8c0.5,0.5,1.4,1,2.3,1c1.1,0,1.7-0.5,1.7-1.2c0-1.7-4.4-0.7-4.4-3.3c0-1.1,1-2,2.6-2
				c1.2,0,2.1,0.5,2.6,1l-0.5,0.8c-0.4-0.5-1.2-0.9-2.1-0.9c-1,0-1.6,0.5-1.6,1.1c0,1.6,4.4,0.5,4.4,3.3c0,1.2-1,2.1-2.8,2.1
				C196.3,475.5,195.3,475.1,194.6,474.4z"/>
			<path class="st69" d="M201.5,466.5c0-0.4,0.3-0.7,0.7-0.7c0.4,0,0.7,0.3,0.7,0.7c0,0.4-0.3,0.7-0.7,0.7
				C201.8,467.2,201.5,466.9,201.5,466.5z M201.7,475.3v-7.1h1.1v7.1H201.7z"/>
			<path class="st69" d="M204.6,477.1l0.6-0.8c0.6,0.7,1.3,1,2.3,1c1.2,0,2.3-0.6,2.3-2.1v-1c-0.5,0.7-1.4,1.3-2.4,1.3
				c-1.8,0-3.1-1.4-3.1-3.7c0-2.3,1.3-3.7,3.1-3.7c1,0,1.8,0.5,2.4,1.2v-1.1h1.1v6.9c0,2.3-1.6,3.1-3.4,3.1
				C206.2,478.2,205.4,477.9,204.6,477.1z M209.7,473.3v-3.1c-0.4-0.6-1.2-1.1-2.1-1.1c-1.4,0-2.3,1.1-2.3,2.7
				c0,1.6,0.8,2.7,2.3,2.7C208.5,474.4,209.3,473.9,209.7,473.3z"/>
			<path class="st69" d="M217.4,475.3v-4.6c0-1.2-0.6-1.6-1.6-1.6c-0.9,0-1.7,0.5-2.1,1.1v5.2h-1.1v-7.1h1.1v1
				c0.5-0.6,1.5-1.2,2.5-1.2c1.5,0,2.3,0.7,2.3,2.3v5H217.4z"/>
			<path class="st69" d="M219.9,471.7c0-2.1,1.5-3.7,3.5-3.7c2.1,0,3.4,1.7,3.4,3.8v0.3h-5.7c0.1,1.3,1,2.4,2.5,2.4
				c0.8,0,1.6-0.3,2.2-0.9l0.5,0.7c-0.7,0.7-1.7,1.1-2.8,1.1C221.4,475.5,219.9,474,219.9,471.7z M223.4,468.9
				c-1.5,0-2.3,1.3-2.3,2.4h4.6C225.7,470.2,225,468.9,223.4,468.9z"/>
			<path class="st69" d="M233.4,475.3v-1.1c-0.5,0.7-1.4,1.2-2.4,1.2c-1.8,0-3.1-1.4-3.1-3.7c0-2.3,1.3-3.7,3.1-3.7
				c1,0,1.8,0.5,2.4,1.2v-3.8h1.1v9.8H233.4z M233.4,473.4v-3.2c-0.4-0.6-1.2-1.1-2.1-1.1c-1.4,0-2.3,1.2-2.3,2.7
				c0,1.6,0.8,2.7,2.3,2.7C232.1,474.5,233,474,233.4,473.4z"/>
			<path class="st69" d="M239.7,475.3v-9.8h1.1v3.8c0.6-0.8,1.4-1.2,2.4-1.2c1.8,0,3.1,1.5,3.1,3.7c0,2.3-1.3,3.7-3.1,3.7
				c-1,0-1.9-0.5-2.4-1.2v1.1H239.7z M242.9,474.5c1.4,0,2.3-1.2,2.3-2.7c0-1.6-0.9-2.7-2.3-2.7c-0.9,0-1.7,0.5-2.1,1.1v3.2
				C241.2,474,242,474.5,242.9,474.5z"/>
			<path class="st69" d="M247.5,477.1c0.2,0.1,0.4,0.1,0.6,0.1c0.5,0,0.8-0.2,1.1-0.7l0.5-1.1l-3-7.1h1.2l2.4,5.8l2.3-5.8h1.2
				l-3.5,8.5c-0.4,1-1.1,1.4-2.1,1.4c-0.2,0-0.6,0-0.8-0.1L247.5,477.1z"/>
		</g>
	</g>
</g>
</svg>
