<svg xmlns="http://www.w3.org/2000/svg" xmlns:xlink="http://www.w3.org/1999/xlink" width="627.468" height="1577.709" viewBox="0 0 627.468 1577.709">
  <defs>
    <linearGradient id="linear-gradient" x1="0.399" x2="1.096" y2="1.405" gradientUnits="objectBoundingBox">
      <stop offset="0" stop-color="#98b1f5"/>
      <stop offset="1" stop-color="#eaa0df"/>
    </linearGradient>
  </defs>
  <g id="Group_366" data-name="Group 366" transform="translate(0 -1829)">
    <path id="Path_231" data-name="Path 231" d="M610.33,62S558,147.25,651,248s178.25,46.5,279,155,54.25,170.5,155,248,266.29,38.75,336.04-124c34.875-81.375,46.27-214.257,225.327-310,179.669-96.07,527-155,527-155Z" transform="translate(-62 4002.367) rotate(-90)" opacity="0.211" fill="url(#linear-gradient)"/>
    <g id="_2066769" data-name="2066769" transform="translate(8.9 2583.749)">
      <g id="Group_292" data-name="Group 292" transform="translate(119.1 68.515)">
        <g id="Group_239" data-name="Group 239" transform="translate(3.568)">
          <path id="Path_611" data-name="Path 611" d="M122,257.291,298.059,359.038l117.373-67.791L239.373,189.5Z" transform="translate(-122 -40.649)" fill="#a6c6dd"/>
          <path id="Path_612" data-name="Path 612" d="M122,240.891,298.059,342.515l117.373-67.791L239.373,173.1Z" transform="translate(-122 -44.426)" fill="#7da3db"/>
          <path id="Path_613" data-name="Path 613" d="M265.1,325.336v-1.846L382.473,255.7v1.845Z" transform="translate(-89.041 -25.401)" fill="#6a8fba"/>
          <path id="Path_614" data-name="Path 614" d="M384.67,158.556,230.634,69.727A9.02,9.02,0,0,0,217.1,77.478V197.435l173.229,99.9.984,2.83,1.969-.984V173.443A17,17,0,0,0,384.67,158.556Z" transform="translate(-100.096 -68.515)" fill="#9ccaef"/>
          <path id="Path_615" data-name="Path 615" d="M298.059,331.67,122,230.045V228.2L298.059,329.825Z" transform="translate(-122 -31.735)" fill="#6a8fba"/>
          <path id="Path_616" data-name="Path 616" d="M391.705,299.979,215.4,198.354V78.4a9.073,9.073,0,0,1,13.534-7.874l154.159,88.829a17.259,17.259,0,0,1,8.612,14.887Z" transform="translate(-100.488 -68.327)" fill="#6691c4"/>
          <path id="Path_617" data-name="Path 617" d="M384.087,290.437,220.7,196.317V73.9l163.387,94.12Z" transform="translate(-99.267 -67.274)" fill="#f6fbff"/>
          <g id="Group_237" data-name="Group 237" transform="translate(51.781 142.231)">
            <path id="Path_618" data-name="Path 618" d="M225.63,194.922l-11.073-6.4c-.492-.246-.369-.861.246-1.23l4.8-2.83a2.136,2.136,0,0,1,2.092-.123l11.073,6.4c.492.246.369.861-.246,1.23l-4.8,2.83A3.105,3.105,0,0,1,225.63,194.922Z" transform="translate(-152.533 -184.119)" fill="#507ca0"/>
            <path id="Path_619" data-name="Path 619" d="M237.03,201.422l-11.073-6.4c-.492-.246-.369-.861.246-1.23l4.8-2.83a2.136,2.136,0,0,1,2.092-.123l11.073,6.4c.492.246.369.861-.246,1.23l-4.8,2.83A2.142,2.142,0,0,1,237.03,201.422Z" transform="translate(-149.908 -182.622)" fill="#507ca0"/>
            <path id="Path_620" data-name="Path 620" d="M248.33,208.022l-11.073-6.4c-.492-.246-.369-.861.246-1.23l4.8-2.83a2.136,2.136,0,0,1,2.092-.123l11.073,6.4c.492.246.369.861-.246,1.23l-4.8,2.83A2.518,2.518,0,0,1,248.33,208.022Z" transform="translate(-147.305 -181.102)" fill="#507ca0"/>
            <path id="Path_621" data-name="Path 621" d="M259.73,214.622l-11.073-6.4c-.492-.246-.369-.861.246-1.23l4.8-2.83a2.136,2.136,0,0,1,2.092-.123l11.073,6.4c.492.246.369.861-.246,1.23l-4.8,2.83A3.13,3.13,0,0,1,259.73,214.622Z" transform="translate(-144.679 -179.581)" fill="#507ca0"/>
            <path id="Path_622" data-name="Path 622" d="M271.03,221.122l-11.073-6.4c-.492-.246-.369-.861.246-1.23l4.8-2.83a2.136,2.136,0,0,1,2.092-.123l11.073,6.4c.492.246.369.861-.246,1.23l-4.8,2.83A2.136,2.136,0,0,1,271.03,221.122Z" transform="translate(-142.077 -178.084)" fill="#507ca0"/>
            <path id="Path_623" data-name="Path 623" d="M282.43,227.723l-11.073-6.4c-.492-.246-.369-.861.246-1.23l4.8-2.83a2.136,2.136,0,0,1,2.092-.123l11.073,6.4c.492.246.369.861-.246,1.23l-4.8,2.83A2.53,2.53,0,0,1,282.43,227.723Z" transform="translate(-139.451 -176.564)" fill="#507ca0"/>
            <path id="Path_624" data-name="Path 624" d="M293.73,234.322l-11.073-6.4c-.492-.246-.369-.861.246-1.23l4.8-2.83a2.136,2.136,0,0,1,2.092-.123l11.073,6.4c.492.246.369.861-.246,1.23l-4.8,2.83A3.105,3.105,0,0,1,293.73,234.322Z" transform="translate(-136.848 -175.044)" fill="#507ca0"/>
            <path id="Path_625" data-name="Path 625" d="M305.13,240.823l-11.073-6.4c-.492-.246-.369-.861.246-1.23l4.8-2.83a2.136,2.136,0,0,1,2.092-.123l11.073,6.4c.492.246.369.861-.246,1.23l-4.8,2.83A2.142,2.142,0,0,1,305.13,240.823Z" transform="translate(-134.222 -173.547)" fill="#507ca0"/>
            <path id="Path_626" data-name="Path 626" d="M316.43,247.422l-11.073-6.4c-.492-.246-.369-.861.246-1.23l4.8-2.83a2.136,2.136,0,0,1,2.092-.123l11.073,6.4c.492.246.369.861-.246,1.23l-4.8,2.83A2.518,2.518,0,0,1,316.43,247.422Z" transform="translate(-131.62 -172.027)" fill="#507ca0"/>
            <path id="Path_627" data-name="Path 627" d="M327.83,254.022l-11.073-6.4c-.492-.246-.369-.861.246-1.23l4.8-2.83a2.136,2.136,0,0,1,2.092-.123l11.073,6.4c.492.246.369.861-.246,1.23l-4.8,2.83A2.53,2.53,0,0,1,327.83,254.022Z" transform="translate(-128.994 -170.507)" fill="#507ca0"/>
            <path id="Path_628" data-name="Path 628" d="M339.13,260.522l-11.073-6.4c-.492-.246-.369-.861.246-1.23l4.8-2.83a2.136,2.136,0,0,1,2.092-.123l11.073,6.4c.492.246.369.861-.246,1.23l-4.8,2.83A2.136,2.136,0,0,1,339.13,260.522Z" transform="translate(-126.392 -169.01)" fill="#507ca0"/>
            <path id="Path_629" data-name="Path 629" d="M215.376,200.98l-10.7-6.152c-.615-.369-.492-.984.369-1.476l8.12-4.675a3.265,3.265,0,0,1,2.584-.246l10.7,6.152c.615.369.492.984-.369,1.476l-8.12,4.675A3.265,3.265,0,0,1,215.376,200.98Z" transform="translate(-154.829 -183.163)" fill="#507ca0"/>
            <path id="Path_630" data-name="Path 630" d="M226.676,207.48l-10.7-6.152c-.615-.369-.492-.984.369-1.476l8.12-4.675a3.265,3.265,0,0,1,2.584-.246l10.7,6.152c.615.369.492.984-.369,1.476l-8.12,4.675A2.805,2.805,0,0,1,226.676,207.48Z" transform="translate(-152.226 -181.666)" fill="#507ca0"/>
            <path id="Path_631" data-name="Path 631" d="M238.076,214.08l-10.7-6.152c-.615-.369-.492-.984.369-1.476l8.12-4.675a3.265,3.265,0,0,1,2.584-.246l10.7,6.152c.615.369.492.984-.369,1.476l-8.12,4.675A2.827,2.827,0,0,1,238.076,214.08Z" transform="translate(-149.6 -180.146)" fill="#507ca0"/>
            <path id="Path_632" data-name="Path 632" d="M249.376,220.68l-10.7-6.152c-.615-.369-.492-.984.369-1.476l8.12-4.675a3.265,3.265,0,0,1,2.584-.246l10.7,6.152c.615.369.492.984-.369,1.476l-8.12,4.675A3.232,3.232,0,0,1,249.376,220.68Z" transform="translate(-146.998 -178.626)" fill="#507ca0"/>
            <path id="Path_633" data-name="Path 633" d="M260.776,227.18l-10.7-6.152c-.615-.369-.492-.984.369-1.476l8.12-4.675a3.265,3.265,0,0,1,2.584-.246l10.7,6.152c.615.369.492.984-.369,1.476l-8.12,4.675A2.827,2.827,0,0,1,260.776,227.18Z" transform="translate(-144.372 -177.129)" fill="#507ca0"/>
            <path id="Path_634" data-name="Path 634" d="M272.176,233.78l-10.7-6.152c-.615-.369-.492-.984.369-1.476l8.12-4.675a3.265,3.265,0,0,1,2.584-.246l10.7,6.152c.615.369.492.984-.369,1.476l-8.12,4.675A2.827,2.827,0,0,1,272.176,233.78Z" transform="translate(-141.746 -175.608)" fill="#507ca0"/>
            <path id="Path_635" data-name="Path 635" d="M283.476,240.38l-10.7-6.152c-.615-.369-.492-.984.369-1.476l8.12-4.675a3.265,3.265,0,0,1,2.584-.246l10.7,6.152c.615.369.492.984-.369,1.476l-8.12,4.675A2.827,2.827,0,0,1,283.476,240.38Z" transform="translate(-139.144 -174.088)" fill="#507ca0"/>
            <path id="Path_636" data-name="Path 636" d="M294.876,246.88l-10.7-6.152c-.615-.369-.492-.984.369-1.476l8.12-4.675a3.265,3.265,0,0,1,2.584-.246l10.7,6.152c.615.369.492.984-.369,1.476l-8.12,4.675A2.827,2.827,0,0,1,294.876,246.88Z" transform="translate(-136.518 -172.591)" fill="#507ca0"/>
            <path id="Path_637" data-name="Path 637" d="M306.176,253.48l-10.7-6.152c-.615-.369-.492-.984.369-1.476l8.12-4.675a3.265,3.265,0,0,1,2.584-.246l10.7,6.152c.615.369.492.984-.369,1.476l-8.12,4.675A2.805,2.805,0,0,1,306.176,253.48Z" transform="translate(-133.915 -171.071)" fill="#507ca0"/>
            <path id="Path_638" data-name="Path 638" d="M317.576,260.08l-10.7-6.152c-.615-.369-.492-.984.369-1.476l8.12-4.675a3.265,3.265,0,0,1,2.584-.246l10.7,6.152c.615.369.492.984-.369,1.476l-8.12,4.675A2.827,2.827,0,0,1,317.576,260.08Z" transform="translate(-131.29 -169.551)" fill="#507ca0"/>
            <path id="Path_639" data-name="Path 639" d="M328.876,266.58l-10.7-6.152c-.615-.369-.492-.984.369-1.476l8.12-4.675a3.265,3.265,0,0,1,2.584-.246l10.7,6.152c.615.369.492.984-.369,1.476l-8.12,4.675A2.493,2.493,0,0,1,328.876,266.58Z" transform="translate(-128.687 -168.054)" fill="#507ca0"/>
            <path id="Path_640" data-name="Path 640" d="M205.276,206.68l-10.7-6.152c-.615-.369-.492-.984.369-1.476l8.12-4.675a3.265,3.265,0,0,1,2.584-.246l10.7,6.152c.615.369.492.984-.369,1.476l-8.12,4.675A2.493,2.493,0,0,1,205.276,206.68Z" transform="translate(-157.155 -181.85)" fill="#507ca0"/>
            <path id="Path_641" data-name="Path 641" d="M216.676,213.28l-10.7-6.152c-.615-.369-.492-.984.369-1.476l8.12-4.675a3.265,3.265,0,0,1,2.584-.246l10.7,6.152c.615.369.492.984-.369,1.476l-8.12,4.675A2.827,2.827,0,0,1,216.676,213.28Z" transform="translate(-154.529 -180.33)" fill="#507ca0"/>
            <path id="Path_642" data-name="Path 642" d="M228.076,219.88l-10.7-6.152c-.615-.369-.492-.984.369-1.476l8.12-4.675a3.265,3.265,0,0,1,2.584-.246l10.7,6.152c.615.369.492.984-.369,1.476l-8.12,4.675A2.827,2.827,0,0,1,228.076,219.88Z" transform="translate(-151.903 -178.81)" fill="#507ca0"/>
            <path id="Path_643" data-name="Path 643" d="M239.376,226.38l-10.7-6.152c-.615-.369-.492-.984.369-1.476l8.12-4.675a3.265,3.265,0,0,1,2.584-.246l10.7,6.152c.615.369.492.984-.369,1.476l-8.12,4.675A2.508,2.508,0,0,1,239.376,226.38Z" transform="translate(-149.301 -177.313)" fill="#507ca0"/>
            <path id="Path_644" data-name="Path 644" d="M250.776,232.98l-10.7-6.152c-.615-.369-.492-.984.369-1.476l8.12-4.675a3.265,3.265,0,0,1,2.584-.246l10.7,6.152c.615.369.492.984-.369,1.476l-8.12,4.675A2.827,2.827,0,0,1,250.776,232.98Z" transform="translate(-146.675 -175.793)" fill="#507ca0"/>
            <path id="Path_645" data-name="Path 645" d="M262.076,239.58l-10.7-6.152c-.615-.369-.492-.984.369-1.476l8.12-4.675a3.265,3.265,0,0,1,2.584-.246l10.7,6.152c.615.369.492.984-.369,1.476l-8.12,4.675A2.827,2.827,0,0,1,262.076,239.58Z" transform="translate(-144.072 -174.273)" fill="#507ca0"/>
            <path id="Path_646" data-name="Path 646" d="M273.476,246.18l-10.7-6.152c-.615-.369-.492-.984.369-1.476l8.12-4.675a3.265,3.265,0,0,1,2.584-.246l10.7,6.152c.615.369.492.984-.369,1.476l-8.12,4.675A3.265,3.265,0,0,1,273.476,246.18Z" transform="translate(-141.447 -172.752)" fill="#507ca0"/>
            <path id="Path_647" data-name="Path 647" d="M284.776,252.68l-10.7-6.152c-.615-.369-.492-.984.369-1.476l8.12-4.675a3.265,3.265,0,0,1,2.584-.246l10.7,6.152c.615.369.492.984-.369,1.476l-8.12,4.675A2.805,2.805,0,0,1,284.776,252.68Z" transform="translate(-138.844 -171.255)" fill="#507ca0"/>
            <path id="Path_648" data-name="Path 648" d="M296.176,259.28l-10.7-6.152c-.615-.369-.492-.984.369-1.476l8.12-4.675a3.265,3.265,0,0,1,2.584-.246l10.7,6.152c.615.369.492.984-.369,1.476l-8.12,4.675A2.827,2.827,0,0,1,296.176,259.28Z" transform="translate(-136.218 -169.735)" fill="#507ca0"/>
            <path id="Path_649" data-name="Path 649" d="M307.476,265.88l-10.7-6.152c-.615-.369-.492-.984.369-1.476l8.12-4.675a3.265,3.265,0,0,1,2.584-.246l10.7,6.152c.615.369.492.984-.369,1.476l-8.12,4.675A3.231,3.231,0,0,1,307.476,265.88Z" transform="translate(-133.616 -168.215)" fill="#507ca0"/>
            <path id="Path_650" data-name="Path 650" d="M318.876,272.38l-10.7-6.152c-.615-.369-.492-.984.369-1.476l8.12-4.675a3.265,3.265,0,0,1,2.584-.246l10.7,6.152c.615.369.492.984-.369,1.476l-8.12,4.675A2.827,2.827,0,0,1,318.876,272.38Z" transform="translate(-130.99 -166.718)" fill="#507ca0"/>
            <path id="Path_651" data-name="Path 651" d="M195.276,212.48l-10.7-6.152c-.615-.369-.492-.984.369-1.476l8.12-4.675a3.265,3.265,0,0,1,2.584-.246l10.7,6.152c.615.369.492.984-.369,1.476l-8.12,4.675A2.508,2.508,0,0,1,195.276,212.48Z" transform="translate(-159.458 -180.514)" fill="#507ca0"/>
            <path id="Path_652" data-name="Path 652" d="M206.676,219.08l-10.7-6.152c-.615-.369-.492-.984.369-1.476l8.12-4.675a3.265,3.265,0,0,1,2.584-.246l10.7,6.152c.615.369.492.984-.369,1.476l-8.12,4.675A2.827,2.827,0,0,1,206.676,219.08Z" transform="translate(-156.832 -178.994)" fill="#507ca0"/>
            <path id="Path_653" data-name="Path 653" d="M217.976,225.68l-10.7-6.152c-.615-.369-.492-.984.369-1.476l8.12-4.675a3.265,3.265,0,0,1,2.584-.246l10.7,6.152c.615.369.492.984-.369,1.476l-8.12,4.675A2.827,2.827,0,0,1,217.976,225.68Z" transform="translate(-154.23 -177.474)" fill="#507ca0"/>
            <path id="Path_654" data-name="Path 654" d="M229.376,232.18l-10.7-6.152c-.615-.369-.492-.984.369-1.476l8.12-4.675a3.265,3.265,0,0,1,2.584-.246l10.7,6.152c.615.369.492.984-.369,1.476l-8.12,4.675A2.508,2.508,0,0,1,229.376,232.18Z" transform="translate(-151.604 -175.977)" fill="#507ca0"/>
            <path id="Path_655" data-name="Path 655" d="M240.676,238.78l-10.7-6.152c-.615-.369-.492-.984.369-1.476l8.12-4.675a3.265,3.265,0,0,1,2.584-.246l10.7,6.152c.615.369.492.984-.369,1.476l-8.12,4.675A2.805,2.805,0,0,1,240.676,238.78Z" transform="translate(-149.001 -174.457)" fill="#507ca0"/>
            <path id="Path_656" data-name="Path 656" d="M252.076,245.38l-10.7-6.152c-.615-.369-.492-.984.369-1.476l8.12-4.675a3.265,3.265,0,0,1,2.584-.246l10.7,6.152c.615.369.492.984-.369,1.476l-8.12,4.675A2.827,2.827,0,0,1,252.076,245.38Z" transform="translate(-146.376 -172.937)" fill="#507ca0"/>
            <path id="Path_657" data-name="Path 657" d="M263.376,251.88l-10.7-6.152c-.615-.369-.492-.984.369-1.476l8.12-4.675a3.265,3.265,0,0,1,2.584-.246l10.7,6.152c.615.369.492.984-.369,1.476l-8.12,4.675A2.493,2.493,0,0,1,263.376,251.88Z" transform="translate(-143.773 -171.44)" fill="#507ca0"/>
            <path id="Path_658" data-name="Path 658" d="M274.776,258.48l-10.7-6.152c-.615-.369-.492-.984.369-1.476l8.12-4.675a3.265,3.265,0,0,1,2.584-.246l10.7,6.152c.615.369.492.984-.369,1.476l-8.12,4.675A2.827,2.827,0,0,1,274.776,258.48Z" transform="translate(-141.147 -169.919)" fill="#507ca0"/>
            <path id="Path_659" data-name="Path 659" d="M286.076,265.08l-10.7-6.152c-.615-.369-.492-.984.369-1.476l8.12-4.675a3.265,3.265,0,0,1,2.584-.246l10.7,6.152c.615.369.492.984-.369,1.476l-8.12,4.675A2.806,2.806,0,0,1,286.076,265.08Z" transform="translate(-138.545 -168.399)" fill="#507ca0"/>
            <path id="Path_660" data-name="Path 660" d="M297.476,271.68l-10.7-6.152c-.615-.369-.492-.984.369-1.476l8.12-4.675a3.265,3.265,0,0,1,2.584-.246l10.7,6.152c.615.369.492.984-.369,1.476l-8.12,4.675A3.265,3.265,0,0,1,297.476,271.68Z" transform="translate(-135.919 -166.879)" fill="#507ca0"/>
            <path id="Path_661" data-name="Path 661" d="M308.776,278.18l-10.7-6.152c-.615-.369-.492-.984.369-1.476l8.12-4.675a3.265,3.265,0,0,1,2.584-.246l10.7,6.152c.615.369.492.984-.369,1.476l-8.12,4.675A2.805,2.805,0,0,1,308.776,278.18Z" transform="translate(-133.316 -165.382)" fill="#507ca0"/>
            <path id="Path_662" data-name="Path 662" d="M185.276,218.28l-10.7-6.152c-.615-.369-.492-.984.369-1.476l8.12-4.675a3.265,3.265,0,0,1,2.584-.246l10.7,6.152c.615.369.492.984-.369,1.476l-8.12,4.675A2.827,2.827,0,0,1,185.276,218.28Z" transform="translate(-161.761 -179.178)" fill="#507ca0"/>
            <path id="Path_663" data-name="Path 663" d="M196.576,224.88l-10.7-6.152c-.615-.369-.492-.984.369-1.476l8.12-4.675a3.265,3.265,0,0,1,2.584-.246l10.7,6.152c.615.369.492.984-.369,1.476l-8.12,4.675A2.805,2.805,0,0,1,196.576,224.88Z" transform="translate(-159.159 -177.658)" fill="#507ca0"/>
            <path id="Path_664" data-name="Path 664" d="M207.976,231.48l-10.7-6.152c-.615-.369-.492-.984.369-1.476l8.12-4.675a3.265,3.265,0,0,1,2.584-.246l10.7,6.152c.615.369.492.984-.369,1.476l-8.12,4.675A2.827,2.827,0,0,1,207.976,231.48Z" transform="translate(-156.533 -176.138)" fill="#507ca0"/>
            <path id="Path_665" data-name="Path 665" d="M219.276,237.98l-10.7-6.152c-.615-.369-.492-.984.369-1.476l8.12-4.675a3.265,3.265,0,0,1,2.584-.246l10.7,6.152c.615.369.492.984-.369,1.476l-8.12,4.675A2.805,2.805,0,0,1,219.276,237.98Z" transform="translate(-153.93 -174.641)" fill="#507ca0"/>
            <path id="Path_666" data-name="Path 666" d="M230.676,244.58l-10.7-6.152c-.615-.369-.492-.984.369-1.476l8.12-4.675a3.265,3.265,0,0,1,2.584-.246l10.7,6.152c.615.369.492.984-.369,1.476l-8.12,4.675A2.827,2.827,0,0,1,230.676,244.58Z" transform="translate(-151.305 -173.121)" fill="#507ca0"/>
            <path id="Path_667" data-name="Path 667" d="M241.976,251.18l-10.7-6.152c-.615-.369-.492-.984.369-1.476l8.12-4.675a3.265,3.265,0,0,1,2.584-.246l10.7,6.152c.615.369.492.984-.369,1.476l-8.12,4.675A2.805,2.805,0,0,1,241.976,251.18Z" transform="translate(-148.702 -171.601)" fill="#507ca0"/>
            <path id="Path_668" data-name="Path 668" d="M253.376,257.68l-10.7-6.152c-.615-.369-.492-.984.369-1.476l8.12-4.675a3.265,3.265,0,0,1,2.584-.246l10.7,6.152c.615.369.492.984-.369,1.476l-8.12,4.675A2.508,2.508,0,0,1,253.376,257.68Z" transform="translate(-146.076 -170.104)" fill="#507ca0"/>
            <path id="Path_669" data-name="Path 669" d="M264.676,264.28l-10.7-6.152c-.615-.369-.492-.984.369-1.476l8.12-4.675a3.265,3.265,0,0,1,2.584-.246l10.7,6.152c.615.369.492.984-.369,1.476l-8.12,4.675A2.805,2.805,0,0,1,264.676,264.28Z" transform="translate(-143.474 -168.584)" fill="#507ca0"/>
            <path id="Path_670" data-name="Path 670" d="M276.076,270.88l-10.7-6.152c-.615-.369-.492-.984.369-1.476l8.12-4.675a3.265,3.265,0,0,1,2.584-.246l10.7,6.152c.615.369.492.984-.369,1.476l-8.12,4.675A2.827,2.827,0,0,1,276.076,270.88Z" transform="translate(-140.848 -167.063)" fill="#507ca0"/>
            <path id="Path_671" data-name="Path 671" d="M287.476,277.38l-10.7-6.152c-.615-.369-.492-.984.369-1.476l8.12-4.675a3.265,3.265,0,0,1,2.584-.246l10.7,6.152c.615.369.492.984-.369,1.476l-8.12,4.675A2.508,2.508,0,0,1,287.476,277.38Z" transform="translate(-138.222 -165.566)" fill="#507ca0"/>
            <path id="Path_672" data-name="Path 672" d="M298.776,283.98l-10.7-6.152c-.615-.369-.492-.984.369-1.476l8.12-4.675a3.265,3.265,0,0,1,2.584-.246l10.7,6.152c.615.369.492.984-.369,1.476l-8.12,4.675A2.827,2.827,0,0,1,298.776,283.98Z" transform="translate(-135.62 -164.046)" fill="#507ca0"/>
            <path id="Path_673" data-name="Path 673" d="M175.176,224.08l-10.7-6.152c-.615-.369-.492-.984.369-1.476l8.12-4.675a3.265,3.265,0,0,1,2.584-.246l10.7,6.152c.615.369.492.984-.369,1.476l-8.12,4.675A2.805,2.805,0,0,1,175.176,224.08Z" transform="translate(-164.088 -177.843)" fill="#507ca0"/>
            <path id="Path_674" data-name="Path 674" d="M186.576,230.68l-10.7-6.152c-.615-.369-.492-.984.369-1.476l8.12-4.675a3.265,3.265,0,0,1,2.584-.246l10.7,6.152c.615.369.492.984-.369,1.476l-8.12,4.675A2.827,2.827,0,0,1,186.576,230.68Z" transform="translate(-161.462 -176.322)" fill="#507ca0"/>
            <path id="Path_675" data-name="Path 675" d="M197.876,237.28l-10.7-6.152c-.615-.369-.492-.984.369-1.476l8.12-4.675a3.265,3.265,0,0,1,2.584-.246l10.7,6.152c.615.369.492.984-.369,1.476l-8.12,4.675A3.232,3.232,0,0,1,197.876,237.28Z" transform="translate(-158.859 -174.802)" fill="#507ca0"/>
            <path id="Path_676" data-name="Path 676" d="M278.9,284.121l-80.217-46.383c-.738-.369-.492-1.23.369-1.722l7.628-4.429a3.651,3.651,0,0,1,2.953-.246l80.217,46.383c.738.369.492,1.23-.369,1.722l-7.628,4.429A3.6,3.6,0,0,1,278.9,284.121Z" transform="translate(-156.22 -173.292)" fill="#507ca0"/>
            <path id="Path_677" data-name="Path 677" d="M277.376,283.18l-10.7-6.152c-.615-.369-.492-.984.369-1.476l8.12-4.675a3.265,3.265,0,0,1,2.584-.246l10.7,6.152c.615.369.492.984-.369,1.476l-8.12,4.675A2.507,2.507,0,0,1,277.376,283.18Z" transform="translate(-140.549 -164.23)" fill="#507ca0"/>
            <path id="Path_678" data-name="Path 678" d="M288.776,289.78l-10.7-6.152c-.615-.369-.492-.984.369-1.476l8.12-4.675a3.265,3.265,0,0,1,2.584-.246l10.7,6.152c.615.369.492.984-.369,1.476l-8.12,4.675A2.827,2.827,0,0,1,288.776,289.78Z" transform="translate(-137.923 -162.71)" fill="#507ca0"/>
          </g>
          <g id="Group_238" data-name="Group 238" transform="translate(51.781 141.862)">
            <path id="Path_679" data-name="Path 679" d="M225.63,194.622l-11.073-6.4c-.492-.246-.369-.861.246-1.23l4.8-2.83a2.136,2.136,0,0,1,2.092-.123l11.073,6.4c.492.246.369.861-.246,1.23l-4.8,2.83A3.105,3.105,0,0,1,225.63,194.622Z" transform="translate(-152.533 -183.819)" fill="#5e8ab5"/>
            <path id="Path_680" data-name="Path 680" d="M237.03,201.122l-11.073-6.4c-.492-.246-.369-.861.246-1.23l4.8-2.83a2.136,2.136,0,0,1,2.092-.123l11.073,6.4c.492.246.369.861-.246,1.23l-4.8,2.83A2.142,2.142,0,0,1,237.03,201.122Z" transform="translate(-149.908 -182.322)" fill="#5e8ab5"/>
            <path id="Path_681" data-name="Path 681" d="M248.33,207.722l-11.073-6.4c-.492-.246-.369-.861.246-1.23l4.8-2.83a2.136,2.136,0,0,1,2.092-.123l11.073,6.4c.492.246.369.861-.246,1.23l-4.8,2.83A2.518,2.518,0,0,1,248.33,207.722Z" transform="translate(-147.305 -180.802)" fill="#5e8ab5"/>
            <path id="Path_682" data-name="Path 682" d="M259.73,214.322l-11.073-6.4c-.492-.246-.369-.861.246-1.23l4.8-2.83a2.136,2.136,0,0,1,2.092-.123l11.073,6.4c.492.246.369.861-.246,1.23l-4.8,2.83A2.53,2.53,0,0,1,259.73,214.322Z" transform="translate(-144.679 -179.282)" fill="#5e8ab5"/>
            <path id="Path_683" data-name="Path 683" d="M271.03,220.822l-11.073-6.4c-.492-.246-.369-.861.246-1.23l4.8-2.83a2.136,2.136,0,0,1,2.092-.123l11.073,6.4c.492.246.369.861-.246,1.23l-4.8,2.83A2.136,2.136,0,0,1,271.03,220.822Z" transform="translate(-142.077 -177.784)" fill="#5e8ab5"/>
            <path id="Path_684" data-name="Path 684" d="M282.43,227.422l-11.073-6.4c-.492-.246-.369-.861.246-1.23l4.8-2.83a2.136,2.136,0,0,1,2.092-.123l11.073,6.4c.492.246.369.861-.246,1.23l-4.8,2.83A2.53,2.53,0,0,1,282.43,227.422Z" transform="translate(-139.451 -176.264)" fill="#5e8ab5"/>
            <path id="Path_685" data-name="Path 685" d="M293.73,234.022l-11.073-6.4c-.492-.246-.369-.861.246-1.23l4.8-2.83a2.136,2.136,0,0,1,2.092-.123l11.073,6.4c.492.246.369.861-.246,1.23l-4.8,2.83A2.518,2.518,0,0,1,293.73,234.022Z" transform="translate(-136.848 -174.744)" fill="#5e8ab5"/>
            <path id="Path_686" data-name="Path 686" d="M305.13,240.622l-11.073-6.4c-.492-.246-.369-.861.246-1.23l4.8-2.83a2.136,2.136,0,0,1,2.092-.123l11.073,6.4c.492.246.369.861-.246,1.23l-4.8,2.83A3.13,3.13,0,0,1,305.13,240.622Z" transform="translate(-134.222 -173.224)" fill="#5e8ab5"/>
            <path id="Path_687" data-name="Path 687" d="M316.43,247.122l-11.073-6.4c-.492-.246-.369-.861.246-1.23l4.8-2.83a2.136,2.136,0,0,1,2.092-.123l11.073,6.4c.492.246.369.861-.246,1.23l-4.8,2.83A2.136,2.136,0,0,1,316.43,247.122Z" transform="translate(-131.62 -171.727)" fill="#5e8ab5"/>
            <path id="Path_688" data-name="Path 688" d="M327.83,253.722l-11.073-6.4c-.492-.246-.369-.861.246-1.23l4.8-2.83a2.136,2.136,0,0,1,2.092-.123l11.073,6.4c.492.246.369.861-.246,1.23l-4.8,2.83A2.53,2.53,0,0,1,327.83,253.722Z" transform="translate(-128.994 -170.207)" fill="#5e8ab5"/>
            <path id="Path_689" data-name="Path 689" d="M339.13,260.322l-11.073-6.4c-.492-.246-.369-.861.246-1.23l4.8-2.83a2.136,2.136,0,0,1,2.092-.123l11.073,6.4c.492.246.369.861-.246,1.23l-4.8,2.83A3.105,3.105,0,0,1,339.13,260.322Z" transform="translate(-126.392 -168.687)" fill="#5e8ab5"/>
            <path id="Path_690" data-name="Path 690" d="M215.376,200.68l-10.7-6.152c-.615-.369-.492-.984.369-1.476l8.12-4.675a3.265,3.265,0,0,1,2.584-.246l10.7,6.152c.615.369.492.984-.369,1.476l-8.12,4.675A2.827,2.827,0,0,1,215.376,200.68Z" transform="translate(-154.829 -182.863)" fill="#5e8ab5"/>
            <path id="Path_691" data-name="Path 691" d="M226.676,207.18l-10.7-6.152c-.615-.369-.492-.984.369-1.476l8.12-4.675a3.265,3.265,0,0,1,2.584-.246l10.7,6.152c.615.369.492.984-.369,1.476l-8.12,4.675A2.805,2.805,0,0,1,226.676,207.18Z" transform="translate(-152.226 -181.366)" fill="#5e8ab5"/>
            <path id="Path_692" data-name="Path 692" d="M238.076,213.78l-10.7-6.152c-.615-.369-.492-.984.369-1.476l8.12-4.675a3.265,3.265,0,0,1,2.584-.246l10.7,6.152c.615.369.492.984-.369,1.476l-8.12,4.675A2.827,2.827,0,0,1,238.076,213.78Z" transform="translate(-149.6 -179.846)" fill="#5e8ab5"/>
            <path id="Path_693" data-name="Path 693" d="M249.376,220.38l-10.7-6.152c-.615-.369-.492-.984.369-1.476l8.12-4.675a3.265,3.265,0,0,1,2.584-.246l10.7,6.152c.615.369.492.984-.369,1.476l-8.12,4.675A2.805,2.805,0,0,1,249.376,220.38Z" transform="translate(-146.998 -178.326)" fill="#5e8ab5"/>
            <path id="Path_694" data-name="Path 694" d="M260.776,226.88l-10.7-6.152c-.615-.369-.492-.984.369-1.476l8.12-4.675a3.265,3.265,0,0,1,2.584-.246l10.7,6.152c.615.369.492.984-.369,1.476l-8.12,4.675A2.508,2.508,0,0,1,260.776,226.88Z" transform="translate(-144.372 -176.829)" fill="#5e8ab5"/>
            <path id="Path_695" data-name="Path 695" d="M272.176,233.48l-10.7-6.152c-.615-.369-.492-.984.369-1.476l8.12-4.675a3.265,3.265,0,0,1,2.584-.246l10.7,6.152c.615.369.492.984-.369,1.476l-8.12,4.675A2.827,2.827,0,0,1,272.176,233.48Z" transform="translate(-141.746 -175.308)" fill="#5e8ab5"/>
            <path id="Path_696" data-name="Path 696" d="M283.476,240.08l-10.7-6.152c-.615-.369-.492-.984.369-1.476l8.12-4.675a3.265,3.265,0,0,1,2.584-.246l10.7,6.152c.615.369.492.984-.369,1.476l-8.12,4.675A2.827,2.827,0,0,1,283.476,240.08Z" transform="translate(-139.144 -173.788)" fill="#5e8ab5"/>
            <path id="Path_697" data-name="Path 697" d="M294.876,246.58l-10.7-6.152c-.615-.369-.492-.984.369-1.476l8.12-4.675a3.265,3.265,0,0,1,2.584-.246l10.7,6.152c.615.369.492.984-.369,1.476l-8.12,4.675A2.508,2.508,0,0,1,294.876,246.58Z" transform="translate(-136.518 -172.291)" fill="#5e8ab5"/>
            <path id="Path_698" data-name="Path 698" d="M306.176,253.18l-10.7-6.152c-.615-.369-.492-.984.369-1.476l8.12-4.675a3.265,3.265,0,0,1,2.584-.246l10.7,6.152c.615.369.492.984-.369,1.476l-8.12,4.675A2.805,2.805,0,0,1,306.176,253.18Z" transform="translate(-133.915 -170.771)" fill="#5e8ab5"/>
            <path id="Path_699" data-name="Path 699" d="M317.576,259.78l-10.7-6.152c-.615-.369-.492-.984.369-1.476l8.12-4.675a3.265,3.265,0,0,1,2.584-.246l10.7,6.152c.615.369.492.984-.369,1.476l-8.12,4.675A2.827,2.827,0,0,1,317.576,259.78Z" transform="translate(-131.29 -169.251)" fill="#5e8ab5"/>
            <path id="Path_700" data-name="Path 700" d="M328.876,266.28l-10.7-6.152c-.615-.369-.492-.984.369-1.476l8.12-4.675a3.265,3.265,0,0,1,2.584-.246l10.7,6.152c.615.369.492.984-.369,1.476l-8.12,4.675A2.493,2.493,0,0,1,328.876,266.28Z" transform="translate(-128.687 -167.754)" fill="#5e8ab5"/>
            <path id="Path_701" data-name="Path 701" d="M205.276,206.48l-10.7-6.152c-.615-.369-.492-.984.369-1.476l8.12-4.675a3.265,3.265,0,0,1,2.584-.246l10.7,6.152c.615.369.492.984-.369,1.476l-8.12,4.675A3.232,3.232,0,0,1,205.276,206.48Z" transform="translate(-157.155 -181.527)" fill="#5e8ab5"/>
            <path id="Path_702" data-name="Path 702" d="M216.676,212.98l-10.7-6.152c-.615-.369-.492-.984.369-1.476l8.12-4.675a3.265,3.265,0,0,1,2.584-.246l10.7,6.152c.615.369.492.984-.369,1.476l-8.12,4.675A2.827,2.827,0,0,1,216.676,212.98Z" transform="translate(-154.529 -180.03)" fill="#5e8ab5"/>
            <path id="Path_703" data-name="Path 703" d="M228.076,219.58l-10.7-6.152c-.615-.369-.492-.984.369-1.476l8.12-4.675a3.265,3.265,0,0,1,2.584-.246l10.7,6.152c.615.369.492.984-.369,1.476l-8.243,4.675A2.563,2.563,0,0,1,228.076,219.58Z" transform="translate(-151.903 -178.51)" fill="#5e8ab5"/>
            <path id="Path_704" data-name="Path 704" d="M239.376,226.18l-10.7-6.152c-.615-.369-.492-.984.369-1.476l8.12-4.675a3.265,3.265,0,0,1,2.584-.246l10.7,6.152c.615.369.492.984-.369,1.476l-8.12,4.675A3.265,3.265,0,0,1,239.376,226.18Z" transform="translate(-149.301 -176.99)" fill="#5e8ab5"/>
            <path id="Path_705" data-name="Path 705" d="M250.776,232.68l-10.7-6.152c-.615-.369-.492-.984.369-1.476l8.12-4.675a3.265,3.265,0,0,1,2.584-.246l10.7,6.152c.615.369.492.984-.369,1.476l-8.12,4.675A2.827,2.827,0,0,1,250.776,232.68Z" transform="translate(-146.675 -175.493)" fill="#5e8ab5"/>
            <path id="Path_706" data-name="Path 706" d="M262.076,239.28l-10.7-6.152c-.615-.369-.492-.984.369-1.476l8.12-4.675a3.265,3.265,0,0,1,2.584-.246l10.7,6.152c.615.369.492.984-.369,1.476l-8.12,4.675A2.827,2.827,0,0,1,262.076,239.28Z" transform="translate(-144.072 -173.973)" fill="#5e8ab5"/>
            <path id="Path_707" data-name="Path 707" d="M273.476,245.88l-10.7-6.152c-.615-.369-.492-.984.369-1.476l8.12-4.675a3.265,3.265,0,0,1,2.584-.246l10.7,6.152c.615.369.492.984-.369,1.476l-8.12,4.675A2.827,2.827,0,0,1,273.476,245.88Z" transform="translate(-141.447 -172.452)" fill="#5e8ab5"/>
            <path id="Path_708" data-name="Path 708" d="M284.776,252.38l-10.7-6.152c-.615-.369-.492-.984.369-1.476l8.12-4.675a3.265,3.265,0,0,1,2.584-.246l10.7,6.152c.615.369.492.984-.369,1.476l-8.12,4.675A2.805,2.805,0,0,1,284.776,252.38Z" transform="translate(-138.844 -170.955)" fill="#5e8ab5"/>
            <path id="Path_709" data-name="Path 709" d="M296.176,258.98l-10.7-6.152c-.615-.369-.492-.984.369-1.476l8.12-4.675a3.265,3.265,0,0,1,2.584-.246l10.7,6.152c.615.369.492.984-.369,1.476l-8.12,4.675A2.827,2.827,0,0,1,296.176,258.98Z" transform="translate(-136.218 -169.435)" fill="#5e8ab5"/>
            <path id="Path_710" data-name="Path 710" d="M307.476,265.58l-10.7-6.152c-.615-.369-.492-.984.369-1.476l8.12-4.675a3.265,3.265,0,0,1,2.584-.246l10.7,6.152c.615.369.492.984-.369,1.476l-8.12,4.675A2.805,2.805,0,0,1,307.476,265.58Z" transform="translate(-133.616 -167.915)" fill="#5e8ab5"/>
            <path id="Path_711" data-name="Path 711" d="M318.876,272.08l-10.7-6.152c-.615-.369-.492-.984.369-1.476l8.12-4.675a3.265,3.265,0,0,1,2.584-.246l10.7,6.152c.615.369.492.984-.369,1.476l-8.12,4.675A2.508,2.508,0,0,1,318.876,272.08Z" transform="translate(-130.99 -166.418)" fill="#5e8ab5"/>
            <path id="Path_712" data-name="Path 712" d="M195.276,212.18l-10.7-6.152c-.615-.369-.492-.984.369-1.476l8.12-4.675a3.265,3.265,0,0,1,2.584-.246l10.7,6.152c.615.369.492.984-.369,1.476l-8.12,4.675A2.508,2.508,0,0,1,195.276,212.18Z" transform="translate(-159.458 -180.214)" fill="#5e8ab5"/>
            <path id="Path_713" data-name="Path 713" d="M206.676,218.78l-10.7-6.152c-.615-.369-.492-.984.369-1.476l8.12-4.675a3.265,3.265,0,0,1,2.584-.246l10.7,6.152c.615.369.492.984-.369,1.476l-8.12,4.675A2.827,2.827,0,0,1,206.676,218.78Z" transform="translate(-156.832 -178.694)" fill="#5e8ab5"/>
            <path id="Path_714" data-name="Path 714" d="M217.976,225.38l-10.7-6.152c-.615-.369-.492-.984.369-1.476l8.12-4.675a3.265,3.265,0,0,1,2.584-.246l10.7,6.152c.615.369.492.984-.369,1.476l-8.12,4.675A2.827,2.827,0,0,1,217.976,225.38Z" transform="translate(-154.23 -177.174)" fill="#5e8ab5"/>
            <path id="Path_715" data-name="Path 715" d="M229.376,231.98l-10.7-6.152c-.615-.369-.492-.984.369-1.476l8.12-4.675a3.265,3.265,0,0,1,2.584-.246l10.7,6.152c.615.369.492.984-.369,1.476l-8.12,4.675A3.265,3.265,0,0,1,229.376,231.98Z" transform="translate(-151.604 -175.654)" fill="#5e8ab5"/>
            <path id="Path_716" data-name="Path 716" d="M240.676,238.48l-10.7-6.152c-.615-.369-.492-.984.369-1.476l8.12-4.675a3.265,3.265,0,0,1,2.584-.246l10.7,6.152c.615.369.492.984-.369,1.476l-8.12,4.675A2.806,2.806,0,0,1,240.676,238.48Z" transform="translate(-149.001 -174.157)" fill="#5e8ab5"/>
            <path id="Path_717" data-name="Path 717" d="M252.076,245.08l-10.7-6.152c-.615-.369-.492-.984.369-1.476l8.12-4.675a3.265,3.265,0,0,1,2.584-.246l10.7,6.152c.615.369.492.984-.369,1.476l-8.12,4.675A2.827,2.827,0,0,1,252.076,245.08Z" transform="translate(-146.376 -172.637)" fill="#5e8ab5"/>
            <path id="Path_718" data-name="Path 718" d="M263.376,251.68l-10.7-6.152c-.615-.369-.492-.984.369-1.476l8.12-4.675a3.265,3.265,0,0,1,2.584-.246l10.7,6.152c.615.369.492.984-.369,1.476l-8.12,4.675A3.232,3.232,0,0,1,263.376,251.68Z" transform="translate(-143.773 -171.117)" fill="#5e8ab5"/>
            <path id="Path_719" data-name="Path 719" d="M274.776,258.18l-10.7-6.152c-.615-.369-.492-.984.369-1.476l8.12-4.675a3.265,3.265,0,0,1,2.584-.246l10.7,6.152c.615.369.492.984-.369,1.476l-8.12,4.675A2.827,2.827,0,0,1,274.776,258.18Z" transform="translate(-141.147 -169.619)" fill="#5e8ab5"/>
            <path id="Path_720" data-name="Path 720" d="M286.076,264.78l-10.7-6.152c-.615-.369-.492-.984.369-1.476l8.12-4.675a3.265,3.265,0,0,1,2.584-.246l10.7,6.152c.615.369.492.984-.369,1.476l-8.12,4.675A2.805,2.805,0,0,1,286.076,264.78Z" transform="translate(-138.545 -168.099)" fill="#5e8ab5"/>
            <path id="Path_721" data-name="Path 721" d="M297.476,271.38l-10.7-6.152c-.615-.369-.492-.984.369-1.476l8.12-4.675a3.265,3.265,0,0,1,2.584-.246l10.7,6.152c.615.369.492.984-.369,1.476l-8.12,4.675A3.265,3.265,0,0,1,297.476,271.38Z" transform="translate(-135.919 -166.579)" fill="#5e8ab5"/>
            <path id="Path_722" data-name="Path 722" d="M308.776,277.88l-10.7-6.152c-.615-.369-.492-.984.369-1.476l8.12-4.675a3.265,3.265,0,0,1,2.584-.246l10.7,6.152c.615.369.492.984-.369,1.476l-8.12,4.675A2.805,2.805,0,0,1,308.776,277.88Z" transform="translate(-133.316 -165.082)" fill="#5e8ab5"/>
            <path id="Path_723" data-name="Path 723" d="M185.276,217.98l-10.7-6.152c-.615-.369-.492-.984.369-1.476l8.12-4.675a3.265,3.265,0,0,1,2.584-.246l10.7,6.152c.615.369.492.984-.369,1.476l-8.12,4.675A2.508,2.508,0,0,1,185.276,217.98Z" transform="translate(-161.761 -178.878)" fill="#5e8ab5"/>
            <path id="Path_724" data-name="Path 724" d="M196.576,224.58l-10.7-6.152c-.615-.369-.492-.984.369-1.476l8.12-4.675a3.265,3.265,0,0,1,2.584-.246l10.7,6.152c.615.369.492.984-.369,1.476l-8.12,4.675A2.805,2.805,0,0,1,196.576,224.58Z" transform="translate(-159.159 -177.358)" fill="#5e8ab5"/>
            <path id="Path_725" data-name="Path 725" d="M207.976,231.18l-10.7-6.152c-.615-.369-.492-.984.369-1.476l8.12-4.675a3.265,3.265,0,0,1,2.584-.246l10.7,6.152c.615.369.492.984-.369,1.476l-8.12,4.675A2.827,2.827,0,0,1,207.976,231.18Z" transform="translate(-156.533 -175.838)" fill="#5e8ab5"/>
            <path id="Path_726" data-name="Path 726" d="M219.276,237.68l-10.7-6.152c-.615-.369-.492-.984.369-1.476l8.12-4.675a3.265,3.265,0,0,1,2.584-.246l10.7,6.152c.615.369.492.984-.369,1.476l-8.12,4.675A2.493,2.493,0,0,1,219.276,237.68Z" transform="translate(-153.93 -174.341)" fill="#5e8ab5"/>
            <path id="Path_727" data-name="Path 727" d="M230.676,244.28l-10.7-6.152c-.615-.369-.492-.984.369-1.476l8.12-4.675a3.265,3.265,0,0,1,2.584-.246l10.7,6.152c.615.369.492.984-.369,1.476l-8.12,4.675A2.827,2.827,0,0,1,230.676,244.28Z" transform="translate(-151.305 -172.821)" fill="#5e8ab5"/>
            <path id="Path_728" data-name="Path 728" d="M241.976,250.88l-10.7-6.152c-.615-.369-.492-.984.369-1.476l8.12-4.675a3.265,3.265,0,0,1,2.584-.246l10.7,6.152c.615.369.492.984-.369,1.476l-8.12,4.675A2.805,2.805,0,0,1,241.976,250.88Z" transform="translate(-148.702 -171.301)" fill="#5e8ab5"/>
            <path id="Path_729" data-name="Path 729" d="M253.376,257.38l-10.7-6.152c-.615-.369-.492-.984.369-1.476l8.12-4.675a3.265,3.265,0,0,1,2.584-.246l10.7,6.152c.615.369.492.984-.369,1.476l-8.12,4.675A2.508,2.508,0,0,1,253.376,257.38Z" transform="translate(-146.076 -169.804)" fill="#5e8ab5"/>
            <path id="Path_730" data-name="Path 730" d="M264.676,263.98l-10.7-6.152c-.615-.369-.492-.984.369-1.476l8.12-4.675a3.265,3.265,0,0,1,2.584-.246l10.7,6.152c.615.369.492.984-.369,1.476l-8.12,4.675A2.806,2.806,0,0,1,264.676,263.98Z" transform="translate(-143.474 -168.284)" fill="#5e8ab5"/>
            <path id="Path_731" data-name="Path 731" d="M276.076,270.58l-10.7-6.152c-.615-.369-.492-.984.369-1.476l8.12-4.675a3.265,3.265,0,0,1,2.584-.246l10.7,6.152c.615.369.492.984-.369,1.476l-8.12,4.675A2.827,2.827,0,0,1,276.076,270.58Z" transform="translate(-140.848 -166.763)" fill="#5e8ab5"/>
            <path id="Path_732" data-name="Path 732" d="M287.476,277.18l-10.7-6.152c-.615-.369-.492-.984.369-1.476l8.12-4.675a3.265,3.265,0,0,1,2.584-.246l10.7,6.152c.615.369.492.984-.369,1.476l-8.12,4.675A3.265,3.265,0,0,1,287.476,277.18Z" transform="translate(-138.222 -165.243)" fill="#5e8ab5"/>
            <path id="Path_733" data-name="Path 733" d="M298.776,283.68l-10.7-6.152c-.615-.369-.492-.984.369-1.476l8.12-4.675a3.265,3.265,0,0,1,2.584-.246l10.7,6.152c.615.369.492.984-.369,1.476l-8.12,4.675A2.827,2.827,0,0,1,298.776,283.68Z" transform="translate(-135.62 -163.746)" fill="#5e8ab5"/>
            <path id="Path_734" data-name="Path 734" d="M175.176,223.78l-10.7-6.152c-.615-.369-.492-.984.369-1.476l8.12-4.675a3.265,3.265,0,0,1,2.584-.246l10.7,6.152c.615.369.492.984-.369,1.476l-8.12,4.675A2.805,2.805,0,0,1,175.176,223.78Z" transform="translate(-164.088 -177.543)" fill="#5e8ab5"/>
            <path id="Path_735" data-name="Path 735" d="M186.576,230.38l-10.7-6.152c-.615-.369-.492-.984.369-1.476l8.12-4.675a3.265,3.265,0,0,1,2.584-.246l10.7,6.152c.615.369.492.984-.369,1.476l-8.12,4.675A2.827,2.827,0,0,1,186.576,230.38Z" transform="translate(-161.462 -176.022)" fill="#5e8ab5"/>
            <path id="Path_736" data-name="Path 736" d="M197.876,236.98l-10.7-6.152c-.615-.369-.492-.984.369-1.476l8.12-4.675a3.265,3.265,0,0,1,2.584-.246l10.7,6.152c.615.369.492.984-.369,1.476l-8.12,4.675A2.805,2.805,0,0,1,197.876,236.98Z" transform="translate(-158.859 -174.502)" fill="#5e8ab5"/>
            <path id="Path_737" data-name="Path 737" d="M278.9,283.821l-80.217-46.383c-.738-.369-.492-1.23.369-1.722l7.628-4.429a3.651,3.651,0,0,1,2.953-.246l80.217,46.383c.738.369.492,1.23-.369,1.722l-7.628,4.429A3.6,3.6,0,0,1,278.9,283.821Z" transform="translate(-156.22 -172.992)" fill="#5e8ab5"/>
            <path id="Path_738" data-name="Path 738" d="M277.376,282.88l-10.7-6.152c-.615-.369-.492-.984.369-1.476l8.12-4.675a3.265,3.265,0,0,1,2.584-.246l10.7,6.152c.615.369.492.984-.369,1.476l-8.12,4.675A2.508,2.508,0,0,1,277.376,282.88Z" transform="translate(-140.549 -163.93)" fill="#5e8ab5"/>
            <path id="Path_739" data-name="Path 739" d="M288.776,289.48l-10.7-6.152c-.615-.369-.492-.984.369-1.476l8.12-4.675a3.265,3.265,0,0,1,2.584-.246l10.7,6.152c.615.369.492.984-.369,1.476l-8.12,4.675A2.827,2.827,0,0,1,288.776,289.48Z" transform="translate(-137.923 -162.41)" fill="#5e8ab5"/>
          </g>
        </g>
        <g id="Group_242" data-name="Group 242" transform="translate(0 125.47)">
          <ellipse id="Ellipse_20" data-name="Ellipse 20" cx="36.541" cy="21.039" rx="36.541" ry="21.039" transform="translate(0 167.575)" fill="#a6c6dd"/>
          <g id="Group_241" data-name="Group 241" transform="translate(7.674)">
            <path id="Path_740" data-name="Path 740" d="M141.06,328.19s-1.722,5.906,2.83,7.259c4.552,1.23,5.413-1.353,7.013-2.092,1.6-.861,11.934-6.152,13.9-8.612s-3.937-6.152-12.918-.369Z" transform="translate(-121.79 -135.762)" fill="#294154"/>
            <path id="Path_741" data-name="Path 741" d="M125.907,319.574s-2.215,5.413,2.092,7.013c4.183,1.6,5.783-2.707,7.013-3.568,1.476-.984,6.275-4.06,8.366-6.152,1.969-2.092-.984-6.767-9.966-2.092Z" transform="translate(-125.337 -137.727)" fill="#294154"/>
            <path id="Path_742" data-name="Path 742" d="M129.935,248.122s-1.23,37.156-.861,44.292c-3.691,8.735-4.183,34.818-3.076,43.184,0,1.353,10.089,1.476,10.089-3.076,0-4.675,4.06-30.266,5.167-33.957s4.8-15.748,4.8-15.748v-34.7L134.241,246.4Z" transform="translate(-125.305 -153.013)" fill="#395877"/>
            <path id="Path_743" data-name="Path 743" d="M166.171,238.136s-7.259,3.2-12.672-4.8c-5.413-7.874,4.675-6.521,4.675-6.521l6.89,4.06Z" transform="translate(-119.219 -157.544)" fill="#35526d"/>
            <path id="Path_744" data-name="Path 744" d="M140.661,345.171c.123,1.476,11.934,3.568,11.934-1.722s.615-29.528,2.215-39.616,5.783-27.928,4.306-39.616-1.722-16.363-1.969-19.316H139.8s1.969,50.074,1.969,54.749C141.645,304.2,140.169,337.3,140.661,345.171Z" transform="translate(-122.006 -153.359)" fill="#44668e"/>
            <path id="Path_745" data-name="Path 745" d="M145.1,199.59a10.7,10.7,0,0,0-9.966-1.476c-5.044,1.722-8.735,7.628-8.735,17.1s5.167,12.426,5.167,26.452-5.044,17.348-4.306,27.928c.861,10.581,32.234,14.764,36.541,8.858,3.322-5.536-3.445-30.389-2.584-38.017s4.921-24.606,3.076-29.282C163.064,207.956,153.1,201.066,145.1,199.59Z" transform="translate(-125.092 -164.275)" fill="#44668e"/>
            <path id="Path_746" data-name="Path 746" d="M157.5,234.348c4.06,8.243,7.259,8.735,8.858,8.12,2.338-.861,3.568-3.814,2.092-10.458-1.476-6.521-6.275-27.19-13.287-24.36C147.9,210.725,153.439,226.1,157.5,234.348Z" transform="translate(-119.282 -161.999)" fill="#3b5a7a"/>
            <g id="Group_240" data-name="Group 240" transform="translate(11.816)">
              <path id="Path_747" data-name="Path 747" d="M140.307,197.914v6.152c0,1.969,5.536,4.429,10.335,2.215v-5.167s5.413.738,6.644,0,2.215-17.84-.984-19.808c-5.29-4.183-18.7-2.338-18.7,5.906C137.6,189.671,140.307,192.87,140.307,197.914Z" transform="translate(-134.329 -168.504)" fill="#de976d"/>
              <path id="Path_748" data-name="Path 748" d="M137.228,188.833c1.6,1.845,11.073.123,14.641-1.969s11.2-8,8-13.9-4.8.492-10.212,1.722C144.364,175.914,129.231,179.605,137.228,188.833Z" transform="translate(-134.941 -170.496)" fill="#624638"/>
              <path id="Path_749" data-name="Path 749" d="M135.721,184.237c-.861,3.937,3.445,14.641,5.29,14.641,3.814,0,7.259-6.152,10.335-7.259s5.906-7.751,3.322-9.35C151.961,180.792,135.721,184.237,135.721,184.237Z" transform="translate(-134.788 -167.869)" fill="#624638"/>
              <path id="Path_750" data-name="Path 750" d="M153.163,203.414c.123.984-4.429,5.044-11.934,1.845-7.5-3.322-3.2-5.659-3.2-5.659l6.029,3.2,4.306.123Z" transform="translate(-134.513 -163.792)" fill="#3b5a7a"/>
              <path id="Path_751" data-name="Path 751" d="M140.307,198.7s1.722,4.306,10.335,2.215a3.477,3.477,0,0,1,2.338,2.707c-2.215,3.076-14.026,1.969-15.379-3.568A3.7,3.7,0,0,1,140.307,198.7Z" transform="translate(-134.329 -164)" fill="#bfd8ef"/>
              <path id="Path_752" data-name="Path 752" d="M149.522,191.985c-.984-.615-2.707-3.2-.984-4.06a2.155,2.155,0,0,1,2.707,1.476" transform="translate(-131.979 -166.512)" fill="#de976d"/>
            </g>
          </g>
        </g>
        <g id="Group_283" data-name="Group 283" transform="translate(92.643 24.712)">
          <g id="Group_250" data-name="Group 250">
            <g id="Group_243" data-name="Group 243">
              <path id="Path_753" data-name="Path 753" d="M245.581,206.45V118.728L194.4,89.2v87.722Z" transform="translate(-194.4 -88.462)" fill="#8fcdef"/>
              <path id="Path_754" data-name="Path 754" d="M236,201.06l1.23-.615V112.6l-1.23.738Z" transform="translate(-184.819 -83.072)" fill="#71b5d3"/>
              <path id="Path_755" data-name="Path 755" d="M246.812,118.128,195.63,88.6l-1.23.738,51.181,29.528Z" transform="translate(-194.4 -88.6)" fill="#c2ecff"/>
            </g>
            <g id="Group_249" data-name="Group 249" transform="translate(2.215 6.521)">
              <path id="Path_756" data-name="Path 756" d="M196.2,173.01l45.645,26.329v-79.11L196.2,93.9Z" transform="translate(-196.2 -93.9)" fill="#f8ffff"/>
              <ellipse id="Ellipse_21" data-name="Ellipse 21" cx="12.18" cy="21.039" rx="12.18" ry="21.039" transform="translate(1.635 26.842) rotate(-30.185)" fill="#f3f3f3"/>
              <g id="Group_247" data-name="Group 247" transform="translate(4.675 53.396)">
                <path id="Path_765" data-name="Path 765" d="M200,147.615l36.295,21.039v-2.338L200,145.4Z" transform="translate(-200 -135.434)" fill="#c4c4c4"/>
                <path id="Path_766" data-name="Path 766" d="M206.9,138.653l19.193,11.073v-1.353L206.9,137.3Z" transform="translate(-198.411 -137.3)" fill="#c4c4c4"/>
                <path id="Path_767" data-name="Path 767" d="M200,150.315l36.295,21.039v-2.338L200,148.1Z" transform="translate(-200 -134.813)" fill="#c4c4c4"/>
                <path id="Path_768" data-name="Path 768" d="M200,153.015l36.295,21.039v-2.338L200,150.8Z" transform="translate(-200 -134.191)" fill="#c4c4c4"/>
                <path id="Path_769" data-name="Path 769" d="M200,155.715l36.295,21.039v-2.338L200,153.5Z" transform="translate(-200 -133.569)" fill="#c4c4c4"/>
                <path id="Path_770" data-name="Path 770" d="M200,158.415l36.295,21.039v-2.215L200,156.2Z" transform="translate(-200 -132.947)" fill="#c4c4c4"/>
              </g>
              <g id="Group_248" data-name="Group 248" transform="translate(10.704 59.037)">
                <path id="Path_771" data-name="Path 771" d="M221.5,152.757a4.162,4.162,0,0,0,1.969,3.322c1.107.615,1.969.123,1.969-1.107a4.162,4.162,0,0,0-1.969-3.322C222.361,151.034,221.5,151.527,221.5,152.757Z" transform="translate(-201.077 -139.697)" fill="#e695ae"/>
                <path id="Path_772" data-name="Path 772" d="M215.9,149.557a4.162,4.162,0,0,0,1.969,3.322c1.107.615,1.969.123,1.969-1.107a4.162,4.162,0,0,0-1.969-3.322C216.761,147.834,215.9,148.327,215.9,149.557Z" transform="translate(-202.366 -140.434)" fill="#98c0ef"/>
                <path id="Path_773" data-name="Path 773" d="M210.4,146.357a4.162,4.162,0,0,0,1.969,3.322c1.107.615,1.969.123,1.969-1.107a4.162,4.162,0,0,0-1.969-3.322C211.261,144.634,210.4,145.127,210.4,146.357Z" transform="translate(-203.633 -141.171)" fill="#eaad59"/>
                <path id="Path_774" data-name="Path 774" d="M204.9,143.257a4.162,4.162,0,0,0,1.969,3.322c1.107.615,1.969.123,1.969-1.107a4.162,4.162,0,0,0-1.969-3.322C205.761,141.534,204.9,142.027,204.9,143.257Z" transform="translate(-204.9 -141.885)" fill="#b687f2"/>
              </g>
            </g>
          </g>
          <g id="Group_258" data-name="Group 258" transform="translate(141.364 81.693)">
            <g id="Group_251" data-name="Group 251">
              <path id="Path_775" data-name="Path 775" d="M360.481,272.85V185.128L309.3,155.6v87.722Z" transform="translate(-309.3 -154.862)" fill="#8fcdef"/>
              <path id="Path_776" data-name="Path 776" d="M350.9,267.46l1.23-.738V179l-1.23.738Z" transform="translate(-299.719 -149.472)" fill="#71b5d3"/>
              <path id="Path_777" data-name="Path 777" d="M361.712,184.528,310.53,155l-1.23.738,51.181,29.528Z" transform="translate(-309.3 -155)" fill="#c2ecff"/>
            </g>
            <g id="Group_257" data-name="Group 257" transform="translate(2.215 6.521)">
              <path id="Path_778" data-name="Path 778" d="M311.1,239.41l45.645,26.329v-79.11L311.1,160.3Z" transform="translate(-311.1 -160.3)" fill="#f8ffff"/>
              <ellipse id="Ellipse_23" data-name="Ellipse 23" cx="12.18" cy="21.039" rx="12.18" ry="21.039" transform="translate(1.756 26.809) rotate(-30.185)" fill="#f3f3f3"/>
              <g id="Group_255" data-name="Group 255" transform="translate(4.675 53.396)">
                <path id="Path_787" data-name="Path 787" d="M314.9,214.015l36.418,20.915v-2.215L314.9,211.8Z" transform="translate(-314.9 -201.834)" fill="#c4c4c4"/>
                <path id="Path_788" data-name="Path 788" d="M321.9,205.053l19.193,11.073v-1.353L321.9,203.7Z" transform="translate(-313.288 -203.7)" fill="#c4c4c4"/>
                <path id="Path_789" data-name="Path 789" d="M314.9,216.715l36.418,21.038v-2.338L314.9,214.5Z" transform="translate(-314.9 -201.213)" fill="#c4c4c4"/>
                <path id="Path_790" data-name="Path 790" d="M314.9,219.415l36.418,21.039v-2.338L314.9,217.2Z" transform="translate(-314.9 -200.591)" fill="#c4c4c4"/>
                <path id="Path_791" data-name="Path 791" d="M314.9,222.115l36.418,21.039v-2.338L314.9,219.9Z" transform="translate(-314.9 -199.969)" fill="#c4c4c4"/>
                <path id="Path_792" data-name="Path 792" d="M314.9,224.815l36.418,21.039v-2.338L314.9,222.6Z" transform="translate(-314.9 -199.347)" fill="#c4c4c4"/>
              </g>
              <g id="Group_256" data-name="Group 256" transform="translate(10.704 58.914)">
                <path id="Path_793" data-name="Path 793" d="M336.4,219.157a4.162,4.162,0,0,0,1.969,3.322c1.107.615,1.969.123,1.969-1.107a4.162,4.162,0,0,0-1.969-3.322C337.261,217.434,336.4,217.927,336.4,219.157Z" transform="translate(-315.977 -205.974)" fill="#e695ae"/>
                <path id="Path_794" data-name="Path 794" d="M330.9,215.957a4.162,4.162,0,0,0,1.969,3.322c1.107.615,1.969.123,1.969-1.107a4.162,4.162,0,0,0-1.969-3.322C331.761,214.234,330.9,214.727,330.9,215.957Z" transform="translate(-317.243 -206.711)" fill="#98c0ef"/>
                <path id="Path_795" data-name="Path 795" d="M325.4,212.757a4.162,4.162,0,0,0,1.969,3.322c1.107.615,1.969.123,1.969-1.107a4.162,4.162,0,0,0-1.969-3.322C326.261,211.034,325.4,211.527,325.4,212.757Z" transform="translate(-318.51 -207.448)" fill="#eaad59"/>
                <path id="Path_796" data-name="Path 796" d="M319.8,209.557a4.162,4.162,0,0,0,1.969,3.322c1.107.615,1.969.123,1.969-1.107a4.162,4.162,0,0,0-1.969-3.322C320.661,207.834,319.8,208.327,319.8,209.557Z" transform="translate(-319.8 -208.185)" fill="#b687f2"/>
              </g>
            </g>
          </g>
          <g id="Group_266" data-name="Group 266" transform="translate(22.023 32.358)">
            <g id="Group_259" data-name="Group 259">
              <path id="Path_797" data-name="Path 797" d="M263.481,232.873V145.151L212.3,115.5v87.722Z" transform="translate(-212.3 -114.762)" fill="#8fcdef"/>
              <path id="Path_798" data-name="Path 798" d="M253.9,227.46l1.23-.738V139l-1.23.738Z" transform="translate(-202.719 -109.349)" fill="#71b5d3"/>
              <path id="Path_799" data-name="Path 799" d="M264.712,144.551,213.53,114.9l-1.23.738,51.181,29.651Z" transform="translate(-212.3 -114.9)" fill="#c2ecff"/>
            </g>
            <g id="Group_265" data-name="Group 265" transform="translate(1.845 6.275)">
              <path id="Path_800" data-name="Path 800" d="M213.8,199.11l45.645,26.329v-79.11L213.8,120Z" transform="translate(-213.8 -120)" fill="#f8ffff"/>
              <ellipse id="Ellipse_25" data-name="Ellipse 25" cx="12.18" cy="21.039" rx="12.18" ry="21.039" transform="translate(1.64 26.83) rotate(-30.185)" fill="#f3f3f3"/>
              <g id="Group_263" data-name="Group 263" transform="translate(4.552 53.396)">
                <path id="Path_807" data-name="Path 807" d="M217.5,173.715l36.418,20.915v-2.215L217.5,171.5Z" transform="translate(-217.5 -161.534)" fill="#c4c4c4"/>
                <path id="Path_808" data-name="Path 808" d="M224.5,164.753l19.193,11.073v-1.353L224.5,163.4Z" transform="translate(-215.888 -163.4)" fill="#c4c4c4"/>
                <path id="Path_809" data-name="Path 809" d="M217.5,176.415l36.418,20.915v-2.215L217.5,174.2Z" transform="translate(-217.5 -160.912)" fill="#c4c4c4"/>
                <path id="Path_810" data-name="Path 810" d="M217.5,179.115l36.418,21.039v-2.338L217.5,176.9Z" transform="translate(-217.5 -160.291)" fill="#c4c4c4"/>
                <path id="Path_811" data-name="Path 811" d="M217.5,181.815l36.418,21.039v-2.338L217.5,179.6Z" transform="translate(-217.5 -159.669)" fill="#c4c4c4"/>
                <path id="Path_812" data-name="Path 812" d="M217.5,184.515l36.418,21.039v-2.338L217.5,182.3Z" transform="translate(-217.5 -159.047)" fill="#c4c4c4"/>
              </g>
              <g id="Group_264" data-name="Group 264" transform="translate(10.704 58.914)">
                <path id="Path_813" data-name="Path 813" d="M239,178.857a4.162,4.162,0,0,0,1.969,3.322c1.107.615,1.969.123,1.969-1.107a4.162,4.162,0,0,0-1.969-3.322C239.861,177.134,239,177.627,239,178.857Z" transform="translate(-218.7 -165.674)" fill="#e695ae"/>
                <path id="Path_814" data-name="Path 814" d="M233.5,175.657a4.162,4.162,0,0,0,1.969,3.322c1.107.615,1.969.123,1.969-1.107a4.162,4.162,0,0,0-1.969-3.322C234.361,173.934,233.5,174.427,233.5,175.657Z" transform="translate(-219.966 -166.411)" fill="#98c0ef"/>
                <path id="Path_815" data-name="Path 815" d="M228,172.457a4.162,4.162,0,0,0,1.969,3.322c1.107.615,1.969.123,1.969-1.107a4.162,4.162,0,0,0-1.969-3.322C228.861,170.734,228,171.227,228,172.457Z" transform="translate(-221.233 -167.148)" fill="#eaad59"/>
                <path id="Path_816" data-name="Path 816" d="M222.5,169.257a4.162,4.162,0,0,0,1.969,3.322c1.107.615,1.969.123,1.969-1.107a4.162,4.162,0,0,0-1.969-3.322C223.361,167.534,222.5,168.027,222.5,169.257Z" transform="translate(-222.5 -167.885)" fill="#b687f2"/>
              </g>
            </g>
          </g>
          <g id="Group_274" data-name="Group 274" transform="translate(90.183 71.851)">
            <g id="Group_267" data-name="Group 267">
              <path id="Path_817" data-name="Path 817" d="M318.881,264.873V177.151L267.7,147.5v87.845Z" transform="translate(-267.7 -146.885)" fill="#8fcdef"/>
              <path id="Path_818" data-name="Path 818" d="M309.3,259.46l1.23-.738V171l-1.23.738Z" transform="translate(-258.119 -141.472)" fill="#71b5d3"/>
              <path id="Path_819" data-name="Path 819" d="M320.112,176.528,268.93,147l-1.23.615,51.181,29.651Z" transform="translate(-267.7 -147)" fill="#c2ecff"/>
            </g>
            <g id="Group_273" data-name="Group 273" transform="translate(1.845 6.152)">
              <path id="Path_820" data-name="Path 820" d="M269.2,231.11l45.645,26.329v-79.11L269.2,152Z" transform="translate(-269.2 -152)" fill="#f8ffff"/>
              <ellipse id="Ellipse_27" data-name="Ellipse 27" cx="12.18" cy="21.039" rx="12.18" ry="21.039" transform="translate(1.632 26.845) rotate(-30.185)" fill="#f3f3f3"/>
              <g id="Group_271" data-name="Group 271" transform="translate(4.675 53.396)">
                <path id="Path_827" data-name="Path 827" d="M273,205.715l36.295,21.039v-2.338L273,203.5Z" transform="translate(-273 -193.534)" fill="#c4c4c4"/>
                <path id="Path_828" data-name="Path 828" d="M279.9,196.753l19.193,11.2v-1.476L279.9,195.4Z" transform="translate(-271.411 -195.4)" fill="#c4c4c4"/>
                <path id="Path_829" data-name="Path 829" d="M273,208.415l36.295,21.039v-2.338L273,206.2Z" transform="translate(-273 -192.912)" fill="#c4c4c4"/>
                <path id="Path_830" data-name="Path 830" d="M273,211.115l36.295,21.039v-2.338L273,208.9Z" transform="translate(-273 -192.291)" fill="#c4c4c4"/>
                <path id="Path_831" data-name="Path 831" d="M273,213.815l36.295,21.039v-2.215L273,211.6Z" transform="translate(-273 -191.669)" fill="#c4c4c4"/>
                <path id="Path_832" data-name="Path 832" d="M273,216.515l36.295,21.039v-2.215L273,214.3Z" transform="translate(-273 -191.047)" fill="#c4c4c4"/>
              </g>
              <g id="Group_272" data-name="Group 272" transform="translate(10.704 59.037)">
                <path id="Path_833" data-name="Path 833" d="M294.5,210.857a4.162,4.162,0,0,0,1.969,3.322c1.107.615,1.969.123,1.969-1.107a4.162,4.162,0,0,0-1.969-3.322C295.361,209.134,294.5,209.627,294.5,210.857Z" transform="translate(-274.077 -197.797)" fill="#e695ae"/>
                <path id="Path_834" data-name="Path 834" d="M288.9,207.657a4.162,4.162,0,0,0,1.969,3.322c1.107.615,1.969.123,1.969-1.107a4.162,4.162,0,0,0-1.969-3.322C289.761,205.934,288.9,206.427,288.9,207.657Z" transform="translate(-275.366 -198.534)" fill="#98c0ef"/>
                <path id="Path_835" data-name="Path 835" d="M283.4,204.443a4.162,4.162,0,0,0,1.969,3.322c1.107.615,1.969.123,1.969-1.107a4.162,4.162,0,0,0-1.969-3.322C284.261,202.844,283.4,203.336,283.4,204.443Z" transform="translate(-276.633 -199.257)" fill="#eaad59"/>
                <path id="Path_836" data-name="Path 836" d="M277.9,201.357a4.162,4.162,0,0,0,1.969,3.322c1.107.615,1.969.123,1.969-1.107a4.162,4.162,0,0,0-1.969-3.322C278.761,199.634,277.9,200.127,277.9,201.357Z" transform="translate(-277.9 -199.985)" fill="#b687f2"/>
              </g>
            </g>
          </g>
          <g id="Group_282" data-name="Group 282" transform="translate(38.878 62.008)">
            <g id="Group_275" data-name="Group 275">
              <path id="Path_837" data-name="Path 837" d="M277.3,256.85V169.128L226,139.6v87.722Z" transform="translate(-226 -138.862)" fill="#8fcdef"/>
              <path id="Path_838" data-name="Path 838" d="M267.7,251.46l1.23-.738V163l-1.23.738Z" transform="translate(-216.396 -133.472)" fill="#71b5d3"/>
              <path id="Path_839" data-name="Path 839" d="M278.535,168.528,227.23,139l-1.23.738,51.3,29.528Z" transform="translate(-226 -139)" fill="#c2ecff"/>
            </g>
            <g id="Group_281" data-name="Group 281" transform="translate(1.969 6.152)">
              <path id="Path_840" data-name="Path 840" d="M227.6,223.11l45.522,26.329V170.452L227.6,144Z" transform="translate(-227.6 -144)" fill="#f8ffff"/>
              <ellipse id="Ellipse_29" data-name="Ellipse 29" cx="12.18" cy="21.039" rx="12.18" ry="21.039" transform="translate(1.677 26.931) rotate(-30.185)" fill="#f3f3f3"/>
              <g id="Group_279" data-name="Group 279" transform="translate(4.552 53.396)">
                <path id="Path_847" data-name="Path 847" d="M231.3,197.715l36.418,21.039v-2.215L231.3,195.5Z" transform="translate(-231.3 -185.534)" fill="#c4c4c4"/>
                <path id="Path_848" data-name="Path 848" d="M238.3,188.876l19.193,11.073v-1.476L238.3,187.4Z" transform="translate(-229.688 -187.4)" fill="#c4c4c4"/>
                <path id="Path_849" data-name="Path 849" d="M231.3,200.415l36.418,21.039v-2.215L231.3,198.2Z" transform="translate(-231.3 -184.912)" fill="#c4c4c4"/>
                <path id="Path_850" data-name="Path 850" d="M231.3,203.115l36.418,21.039v-2.215L231.3,200.9Z" transform="translate(-231.3 -184.291)" fill="#c4c4c4"/>
                <path id="Path_851" data-name="Path 851" d="M231.3,205.815l36.418,21.039v-2.215L231.3,203.6Z" transform="translate(-231.3 -183.669)" fill="#c4c4c4"/>
                <path id="Path_852" data-name="Path 852" d="M231.3,208.515l36.418,21.038v-2.215L231.3,206.3Z" transform="translate(-231.3 -183.047)" fill="#c4c4c4"/>
              </g>
              <g id="Group_280" data-name="Group 280" transform="translate(10.704 59.037)">
                <path id="Path_853" data-name="Path 853" d="M252.8,202.843a4.162,4.162,0,0,0,1.969,3.322c1.107.615,1.969.123,1.969-1.107a4.162,4.162,0,0,0-1.969-3.322C253.661,201.244,252.8,201.736,252.8,202.843Z" transform="translate(-232.5 -189.783)" fill="#e695ae"/>
                <path id="Path_854" data-name="Path 854" d="M247.3,199.757a4.162,4.162,0,0,0,1.969,3.322c1.107.615,1.969.123,1.969-1.107a4.162,4.162,0,0,0-1.969-3.322C248.161,198.034,247.3,198.527,247.3,199.757Z" transform="translate(-233.766 -190.511)" fill="#98c0ef"/>
                <path id="Path_855" data-name="Path 855" d="M241.8,196.557a4.162,4.162,0,0,0,1.969,3.322c1.107.615,1.969.123,1.969-1.107a4.162,4.162,0,0,0-1.969-3.322C242.661,194.834,241.8,195.327,241.8,196.557Z" transform="translate(-235.033 -191.248)" fill="#eaad59"/>
                <path id="Path_856" data-name="Path 856" d="M236.3,193.357a4.162,4.162,0,0,0,1.969,3.322c1.107.615,1.969.123,1.969-1.107a4.162,4.162,0,0,0-1.969-3.322C237.161,191.634,236.3,192.127,236.3,193.357Z" transform="translate(-236.3 -191.985)" fill="#b687f2"/>
              </g>
            </g>
          </g>
        </g>
        <g id="Group_289" data-name="Group 289" transform="translate(63.145 114.814)">
          <g id="Group_286" data-name="Group 286" transform="translate(0 0)">
            <path id="Path_857" data-name="Path 857" d="M259.4,196.856c-16.609-28.051-44.538-42.077-62.5-31.5l-15.5,8.981,5.906,9.966a22.261,22.261,0,0,1,3.445-4.183c15.133-4.921,35.925,6.767,48.721,28.3s13.041,45.4,1.6,56.349a28.64,28.64,0,0,1-4.675.984l5.783,9.72,15.01-8.612C275.028,256.158,276.012,224.908,259.4,196.856Z" transform="translate(-167.896 -161.834)" fill="#8671c6"/>
            <path id="Path_858" data-name="Path 858" d="M247.044,203.856c-16.609-28.051-44.538-42.077-62.5-31.5-17.84,10.581-18.947,41.954-2.338,69.882,16.609,28.051,44.538,42.077,62.5,31.5C262.546,263.158,263.653,231.785,247.044,203.856Zm-3.445,59.3c-15.133,4.921-35.925-6.767-48.721-28.3s-13.041-45.4-1.6-56.349c15.133-4.921,35.925,6.767,48.721,28.3S255.164,252.208,243.6,263.158Z" transform="translate(-170.424 -160.222)" fill="#7163a8"/>
            <path id="Path_859" data-name="Path 859" d="M193.675,233.171c-12.8-21.531-13.041-45.4-1.6-56.349,6.644-2.092,14.272-1.107,21.9,2.461-9.35-4.429-18.824-5.044-26.206-.615-15.256,8.981-16.24,35.556-2.215,59.179S223.325,273.4,238.581,264.3a29.184,29.184,0,0,0,3.691-2.83C227.262,266.512,206.47,254.824,193.675,233.171Z" transform="translate(-169.22 -158.655)" fill="#5c5293"/>
            <path id="Path_860" data-name="Path 860" d="M239.284,205.206c-12.8-21.531-33.588-33.219-48.721-28.3-11.565,10.95-11.2,34.818,1.6,56.349s33.588,33.219,48.721,28.3C252.448,250.605,252.079,226.737,239.284,205.206Z" transform="translate(-167.708 -158.62)" fill="#d4f2ff" opacity="0.6"/>
            <g id="Group_284" data-name="Group 284" transform="translate(21.533 59.414)" opacity="0.8">
              <path id="Path_861" data-name="Path 861" d="M228.618,249.341c-12.549,0-26.7-9.6-35.925-25.222a55.826,55.826,0,0,1-4.552-9.473,3.313,3.313,0,1,1,6.152-2.461,54.185,54.185,0,0,0,4.183,8.489c9.227,15.625,24.36,24.73,35.064,21.162a3.307,3.307,0,0,1,2.092,6.275A20.075,20.075,0,0,1,228.618,249.341Z" transform="translate(-187.926 -210.126)" fill="#fff"/>
            </g>
            <g id="Group_285" data-name="Group 285" transform="translate(17.9 23.41)" opacity="0.8">
              <path id="Path_862" data-name="Path 862" d="M188.328,207.607a3.363,3.363,0,0,1-3.322-3.2c-.369-9.473,2.338-17.594,7.628-22.638a3.307,3.307,0,1,1,4.552,4.8c-3.937,3.691-5.906,9.966-5.659,17.594a3.307,3.307,0,0,1-3.2,3.445Q188.513,207.607,188.328,207.607Z" transform="translate(-184.973 -180.862)" fill="#fff"/>
            </g>
          </g>
          <g id="Group_287" data-name="Group 287" transform="translate(93.887 77.471)">
            <path id="Path_863" data-name="Path 863" d="M248.045,228.613c1.845-3.076,4.8-4.552,6.767-3.445l34.449,20.054-6.521,10.95-34.449-20.054C246.323,235.011,246.2,231.566,248.045,228.613Z" transform="translate(-246.735 -224.802)" fill="#8fcdef"/>
            <path id="Path_864" data-name="Path 864" d="M282.958,248.974c-1.845,3.076-4.8,4.552-6.767,3.445s-2.092-4.552-.246-7.5c1.845-3.076,4.8-4.552,6.767-3.445S284.681,245.9,282.958,248.974Z" transform="translate(-240.309 -221.048)" fill="#7d7d7d"/>
          </g>
          <g id="Group_288" data-name="Group 288" transform="translate(123.874 92.819)">
            <path id="Path_865" data-name="Path 865" d="M273.313,243.949c3.2-5.29,8.489-8,11.934-6.029l60.9,35.433L334.583,292.67,273.8,257.359C270.36,255.268,270.237,249.362,273.313,243.949Z" transform="translate(-271.108 -237.278)" fill="#8671c6"/>
            <path id="Path_866" data-name="Path 866" d="M335.139,280.008c-3.2,5.29-8.489,8-11.934,6.029s-3.568-8-.492-13.287c3.2-5.29,8.489-8,11.934-6.029S338.338,274.717,335.139,280.008Z" transform="translate(-259.73 -230.644)" fill="#7d7d7d"/>
            <path id="Path_867" data-name="Path 867" d="M332.577,278.221c-2.092,3.445-5.536,5.29-7.751,3.937s-2.338-5.167-.246-8.735,5.536-5.29,7.751-3.937S334.668,274.777,332.577,278.221Z" transform="translate(-259.137 -229.965)" fill="#999"/>
          </g>
        </g>
        <g id="Group_291" data-name="Group 291" transform="translate(26.448 71.833)">
          <g id="Group_290" data-name="Group 290">
            <path id="Path_868" data-name="Path 868" d="M146.506,164.671a4.756,4.756,0,0,0,4.8-4.552l1.107-27.19a5.907,5.907,0,1,0-11.811,0l1.107,27.19a4.756,4.756,0,0,0,4.8,4.552Z" transform="translate(-140.597 -126.9)" fill="#8671c6"/>
          </g>
          <path id="Path_869" data-name="Path 869" d="M150.8,164.352a4.542,4.542,0,0,1-4.552,4.552,4.552,4.552,0,0,1,0-9.1A4.542,4.542,0,0,1,150.8,164.352Z" transform="translate(-140.343 -119.322)" fill="#8671c6"/>
        </g>
      </g>
    </g>
  </g>
</svg>
