<svg xmlns="http://www.w3.org/2000/svg" xmlns:xlink="http://www.w3.org/1999/xlink" viewBox="0 0 257.7 171.95"><defs><style>.cls-1,.cls-4,.cls-6,.cls-7,.cls-8,.cls-9{opacity:0.2;}.cls-1,.cls-2,.cls-4,.cls-6,.cls-7,.cls-8,.cls-9{isolation:isolate;}.cls-1{fill:url(#Безымянный_градиент_11);}.cls-2,.cls-21{fill:#4c6ba7;}.cls-2{opacity:0.5;}.cls-3{fill:#c5ecff;}.cls-4{fill:url(#Безымянный_градиент_11-2);}.cls-5{fill:#e8f7ff;}.cls-6{fill:url(#Безымянный_градиент_11-3);}.cls-7{fill:url(#Безымянный_градиент_11-4);}.cls-8{fill:url(#Безымянный_градиент_11-5);}.cls-9{fill:url(#Безымянный_градиент_11-6);}.cls-10{fill:#ffad91;}.cls-11{fill:#39507d;}.cls-12{fill:#a8372c;}.cls-13{fill:#7fc3e3;}.cls-14{fill:#b03a2e;}.cls-15{fill:#e84c3d;}.cls-16{fill:#9fe0ff;}.cls-17{fill:#67463a;}.cls-18{fill:#218c74;}.cls-19{fill:#26a385;}.cls-20{fill:#33d9b2;}.cls-22{fill:#e69c83;}.cls-23{fill:#658edf;}.cls-24{fill:#805749;}</style><linearGradient id="Безымянный_градиент_11" x1="234.57" y1="116.13" x2="103.2" y2="23.96" gradientTransform="matrix(1, 0, 0, -1, 0, 150.21)" gradientUnits="userSpaceOnUse"><stop offset="0" stop-color="#4c6ba7" stop-opacity="0"/><stop offset="1" stop-color="#4c6ba7"/></linearGradient><linearGradient id="Безымянный_градиент_11-2" x1="274.44" y1="202.04" x2="37.84" y2="-26.1" xlink:href="#Безымянный_градиент_11"/><linearGradient id="Безымянный_градиент_11-3" x1="176.06" y1="79.67" x2="62.66" y2="0.11" xlink:href="#Безымянный_градиент_11"/><linearGradient id="Безымянный_градиент_11-4" x1="160.09" y1="39.32" x2="109.31" y2="3.69" xlink:href="#Безымянный_градиент_11"/><linearGradient id="Безымянный_градиент_11-5" x1="214.77" y1="69.32" x2="166.1" y2="35.17" xlink:href="#Безымянный_градиент_11"/><linearGradient id="Безымянный_градиент_11-6" x1="190.81" y1="95.21" x2="126.17" y2="49.85" xlink:href="#Безымянный_градиент_11"/></defs><title>center</title><g id="Слой_2" data-name="Слой 2"><g id="Слой_1-2" data-name="Слой 1"><g id="Objects"><path class="cls-1" d="M99.9,170.46h15.2a24.4,24.4,0,0,0,12.3-3.3l130.3-75.3L154.4,30.36h-20Z"/><path class="cls-2" d="M3.2,117.76l87.1,51.7a17.83,17.83,0,0,0,18,.1l124.3-71.8a6.09,6.09,0,0,0,.1-10.5l-87.1-51.7a17.83,17.83,0,0,0-18-.1L3.3,107.26A6,6,0,0,0,3.2,117.76Z"/><path class="cls-3" d="M235.6,91h0v-6.3l-4.3.4-85.9-50.9a17.83,17.83,0,0,0-18-.1L5.6,104.36l-5.6.5v6.8H0a6.06,6.06,0,0,0,3,4.7l87.1,51.7a17.83,17.83,0,0,0,18,.1l124.3-71.8A6,6,0,0,0,235.6,91Z"/><path class="cls-4" d="M235.6,91h0v-6.3l-4.3.4-85.9-50.9a17.83,17.83,0,0,0-18-.1L5.6,104.36l-5.6.5v6.8H0a6.06,6.06,0,0,0,3,4.7l87.1,51.7a17.83,17.83,0,0,0,18,.1l124.3-71.8A6,6,0,0,0,235.6,91Z"/><path class="cls-5" d="M3.2,109.76l87.1,51.7a17.83,17.83,0,0,0,18,.1l124.3-71.8a6.09,6.09,0,0,0,.1-10.5l-87.1-51.7a17.83,17.83,0,0,0-18-.1L3.3,99.26A6,6,0,0,0,3.2,109.76Z"/><polygon class="cls-6" points="224.5 94.46 62.2 94.46 46.9 103.26 68.1 113.16 192 113.16 224.5 94.46"/><polygon class="cls-7" points="111.8 124.36 96.5 133.26 117.7 143.16 140.1 143.16 172.6 124.36 111.8 124.36"/><path class="cls-8" d="M234.6,87.76H177.1L162,96.56l21.2,9.9h20.3l29.1-16.8A4.59,4.59,0,0,0,234.6,87.76Z"/><polygon class="cls-9" points="193.9 56.26 128.6 56.26 113.6 64.96 134.8 74.96 225.4 74.96 193.9 56.26"/><path class="cls-10" d="M134.8,5.46s-2.2,7.7-1.4,9.2,3.1,1.4,3.1,1.4V18h5.9l-.3-10.1Z"/><path class="cls-11" d="M110.9,59.46s-4.3-.7-5.6,0-.7,3,.9,3.4,7.2,2.4,8.3.9a8.23,8.23,0,0,0,1.1-4.1Z"/><path class="cls-12" d="M133,39.36s-6.2-6.4-9.9-6.5-4.7,8.9-4.7,8.9l14.1,4.6Z"/><path class="cls-13" d="M117.8,59.26a1.05,1.05,0,0,1-.9-.5,1,1,0,0,1,.4-1.4L130.2,50a1,1,0,1,1,1,1.8l-12.9,7.4A4.33,4.33,0,0,1,117.8,59.26Z"/><path class="cls-13" d="M144.8,51.36,133.9,45a6.32,6.32,0,0,0-6.5,0l-5,2.9a4.3,4.3,0,0,0-1,.9h-.5v1.7h0a2.81,2.81,0,0,0,1.6,2.6l12.9,7.3,12.6-7.3v-1.7Z"/><path class="cls-3" d="M122.5,51.46l12.9,7.3,12.6-7.3-14-8.2a6.32,6.32,0,0,0-6.5,0l-5,2.9A3,3,0,0,0,122.5,51.46Z"/><path class="cls-14" d="M145.7,42.86s-.4,5.7-2.1,7.3-8.6,4.9-11.8,4.3-14.8-5.8-14.8-5.8l-.5,12.6s-4.1,1.2-5.6-.4-.6-18.8.4-20.3c1.7-2.5,20.3,1.7,20.3,1.7Z"/><path class="cls-15" d="M145.8,16.66s1.6,1,2.2,4.6a45.64,45.64,0,0,1,.6,6.7s-2,13.1-2.4,14.4-7.6,5.9-10.4,5.3-5.3-4.4-5-5.9,2.1-9.3,1.8-12.1-.6-7.8,1-9.3a14.27,14.27,0,0,1,3.8-2.4Z"/><path class="cls-3" d="M149.9,26l.3-.3-1.1-.5c-.2-.1-.3-.2-.5-.2-2.2-.7-3.2,3.3-6.6,4.6s-6.4,0-8.2,2.8-1.7,9,.2,10h0l1.4.7.3-.3c2.3.2,5.8-.6,9.5-3,0,0,4-2.5,5-5.2C151,32.16,151.2,28.06,149.9,26Z"/><path class="cls-16" d="M146.6,40.36s4-2.5,5-5.2,1.2-8.6-1.6-9.5c-2.2-.7-3.2,3.3-6.6,4.6s-6.4,0-8.2,2.8-1.7,9.4.3,10.1S142,43.26,146.6,40.36Z"/><path class="cls-13" d="M135.3,75.06a1.11,1.11,0,0,1-1.1-1.1V58.56l4.3-19.1a1.08,1.08,0,1,1,2.1.5l-4.3,19v15.1A.94.94,0,0,1,135.3,75.06Z"/><path class="cls-13" d="M147.1,68.26a1.11,1.11,0,0,1-1.1-1.1V51.76l2.9-17.1a1.06,1.06,0,1,1,2.1.3l-2.9,17v15.2A1,1,0,0,1,147.1,68.26Z"/><path class="cls-13" d="M135.3,71.06a1.05,1.05,0,0,1-.9-.5,1,1,0,0,1,.4-1.4l11.7-6.8a1,1,0,1,1,1,1.8L135.8,71A4.33,4.33,0,0,1,135.3,71.06Z"/><path class="cls-13" d="M114.2,65.06a1.42,1.42,0,0,1-.6-.2,1.1,1.1,0,0,1-.3-1.5l7.5-12,1.9-9.9a1.56,1.56,0,0,1,.6-.8,1.7,1.7,0,0,1,1,0l13.6,7.8a1,1,0,1,1-1,1.8l-12.3-7.1-1.7,8.6c0,.1-.1.2-.1.4l-7.6,12.2A1.07,1.07,0,0,1,114.2,65.06Z"/><path class="cls-16" d="M127.5,41.86,124.3,40a1.6,1.6,0,0,0-1.5-.1l-.6-.3v1h0a1.09,1.09,0,0,0,.4.9l8.1,4.7a.91.91,0,0,0,1,0l1.2-.7c.1-.1.2-.2.2-.3v-1Z"/><path class="cls-3" d="M132.8,44.36l-1.2.7a.91.91,0,0,1-1,0l-8.1-4.7a.94.94,0,0,1,0-1.6h0a1.72,1.72,0,0,1,1.7,0l8.6,5C133.1,44,133.1,44.26,132.8,44.36Z"/><path class="cls-14" d="M135,19.76s4.3,2.4,1.4,7c-2.3,3.6-6.9,13.8-10.2,14.3-2.9.5-3.7-1.5-2.8-4.4S132,17.76,135,19.76Z"/><path class="cls-14" d="M136,18.56a7.53,7.53,0,0,0,4,.5c2.4-.3,5.7-2.4,5.7-2.4v-1.4a44.06,44.06,0,0,1-5.7,1.4c-2.6.4-4,.5-4,.5l-.8,1.8Z"/><path class="cls-17" d="M135.7,11.66l-.3-.6a29.72,29.72,0,0,0,.3-4c-.1-1-1.5-.7-1.5-2.3a5.64,5.64,0,0,1,7-4.6c4.6,1,6.6,4.9,6,9.2s-1,4.8-2.9,6.2c-1.7,1.3-6.1.8-6.7-.1a3.46,3.46,0,0,1-.7-1.8,1.71,1.71,0,0,0,1.3-2C138,9.86,136.4,9,135.7,11.66Z"/><polygon class="cls-14" points="123.4 39.96 117.7 26.76 122.1 24.26 127.5 35.76 123.4 39.96"/><path class="cls-10" d="M122.1,24.26s.8-5.9-.7-6.5-1.7,1.8-1.7,1.8-1.2-2.9-3.2-3.1-3.4,2.4-2.6,5.1,3.8,5.1,3.8,5.1Z"/><path class="cls-16" d="M180.5,58.16a2.55,2.55,0,0,0-2.4,0l-5.6,3.2c-.1,0-.1.1-.2.1l-.5-.2v1.2a1.31,1.31,0,0,0,.7,1.2l6.2,3.6a2.62,2.62,0,0,0,2.7,0l4.7-2.7,3.4,2,2.9-1.6Z"/><path class="cls-3" d="M192.2,63.76,180.5,57a2.55,2.55,0,0,0-2.4,0l-5.6,3.2a1.32,1.32,0,0,0,0,2.3l6.2,3.6a2.62,2.62,0,0,0,2.7,0l4.7-2.7,3.4,2Z"/><path class="cls-13" d="M165.7,90.76a1.05,1.05,0,0,1-.9-.5,1,1,0,0,1,.4-1.4l12.9-7.4a1,1,0,0,1,1,1.8l-12.9,7.4A.75.75,0,0,1,165.7,90.76Z"/><path class="cls-13" d="M179.2,86.56H179a1,1,0,0,1-.8-1.2l1.1-6,2-10.1a1.56,1.56,0,0,1,.6-.8,1.7,1.7,0,0,1,1,0l13.6,7.8a1,1,0,1,1-1,1.8L183.2,71l-1.7,8.6-1.1,5.9A1.35,1.35,0,0,1,179.2,86.56Z"/><path class="cls-13" d="M192.7,82.86l-10.9-6.4a6.32,6.32,0,0,0-6.5,0l-5,2.9a4.3,4.3,0,0,0-1,.9h-.5V82h0a2.81,2.81,0,0,0,1.6,2.6l12.9,7.3,12.6-7.3v-1.7Z"/><path class="cls-3" d="M170.4,83l12.9,7.3L195.9,83l-14-8.2a6.32,6.32,0,0,0-6.5,0l-5,2.9A3,3,0,0,0,170.4,83Z"/><path class="cls-3" d="M197.8,57.46l.3-.3-1.1-.5c-.2-.1-.3-.2-.5-.2-2.2-.7-3.2,3.3-6.6,4.6s-6.4,0-8.2,2.8-1.7,9,.2,10h0l1.4.7.3-.3c2.3.2,5.8-.6,9.5-3,0,0,4-2.5,5-5.2C198.9,63.66,199.1,59.56,197.8,57.46Z"/><path class="cls-16" d="M194.5,71.86s4-2.5,5-5.2,1.2-8.6-1.6-9.5c-2.2-.7-3.2,3.3-6.6,4.6s-6.4,0-8.2,2.8-1.7,9.4.3,10.1S189.9,74.76,194.5,71.86Z"/><path class="cls-13" d="M183.2,106.56a1.11,1.11,0,0,1-1.1-1.1V90.06L186.4,71a1.08,1.08,0,0,1,2.1.5l-4.3,19v15.1A.94.94,0,0,1,183.2,106.56Z"/><path class="cls-13" d="M195,99.76a1.11,1.11,0,0,1-1.1-1.1V83.26l2.9-17.1a1.06,1.06,0,0,1,2.1.3l-2.9,17v15.1C196,99.26,195.6,99.76,195,99.76Z"/><path class="cls-13" d="M183.2,102.56a1.05,1.05,0,0,1-.9-.5,1,1,0,0,1,.4-1.4l11.7-6.8a1,1,0,0,1,1,1.8l-11.7,6.8A.75.75,0,0,1,183.2,102.56Z"/><path class="cls-13" d="M162.1,96.56a1.42,1.42,0,0,1-.6-.2,1.1,1.1,0,0,1-.3-1.5l7.5-12,1.9-9.9a1.56,1.56,0,0,1,.6-.8,1.7,1.7,0,0,1,1,0L185.8,80a1,1,0,0,1-1,1.8l-12.3-7.1-1.7,8.6c0,.1-.1.2-.1.4l-7.6,12.2A1.07,1.07,0,0,1,162.1,96.56Z"/><path class="cls-16" d="M175.4,73.36l-3.2-1.9a1.6,1.6,0,0,0-1.5-.1l-.6-.3v1h0a1.09,1.09,0,0,0,.4.9l8.1,4.7a.91.91,0,0,0,1,0l1.2-.7c.1-.1.2-.2.2-.3v-1.1Z"/><path class="cls-3" d="M180.7,76l-1.2.7a.91.91,0,0,1-1,0L170.4,72a.94.94,0,0,1,0-1.6h0a1.72,1.72,0,0,1,1.7,0l8.6,5C181,75.46,181,75.76,180.7,76Z"/><path class="cls-10" d="M116.3,72.86s-.8,8.5,0,10,3.1,1.4,3.1,1.4v1.9h4l1.7-10.1Z"/><path class="cls-11" d="M93.8,127.76s-4.3-.7-5.6,0-.7,3,.9,3.4,7.2,2.4,8.3.9a8.23,8.23,0,0,0,1.1-4.1Z"/><path class="cls-18" d="M115.9,107.66s-6.2-6.4-9.9-6.5-4.7,8.9-4.7,8.9l14.1,4.6Z"/><path class="cls-13" d="M100.7,127.56a1.05,1.05,0,0,1-.9-.5,1,1,0,0,1,.4-1.4l12.9-7.4a1,1,0,0,1,1,1.8l-12.9,7.4C101,127.46,100.9,127.56,100.7,127.56Z"/><path class="cls-13" d="M127.7,119.56l-10.9-6.4a6.32,6.32,0,0,0-6.5,0l-5,2.9a4.3,4.3,0,0,0-1,.9h-.5v1.7h0a2.81,2.81,0,0,0,1.6,2.6l12.9,7.3,12.6-7.3v-1.7Z"/><path class="cls-16" d="M105.3,119.76l12.9,7.3,12.6-7.3-14-8.2a6.32,6.32,0,0,0-6.5,0l-5,2.9A3.05,3.05,0,0,0,105.3,119.76Z"/><path class="cls-19" d="M128.6,111.16s-.4,5.7-2.1,7.3-8.6,4.9-11.8,4.3S99.9,117,99.9,117l-.5,12.6s-4.1,1.2-5.6-.4-.6-18.8.4-20.3c1.7-2.5,20.3,1.7,20.3,1.7Z"/><path class="cls-20" d="M128.6,85s1.6,1,2.2,4.6a45.64,45.64,0,0,1,.6,6.7s-2,13.1-2.4,14.4-7.6,5.9-10.4,5.3-5.3-4.4-5-5.9,2.1-9.3,1.8-12.1-.6-7.8,1-9.3a14.27,14.27,0,0,1,3.8-2.4Z"/><path class="cls-3" d="M132.8,94.26l.3-.3-1.1-.5c-.2-.1-.3-.2-.5-.2-2.2-.7-3.2,3.3-6.6,4.6s-6.4,0-8.2,2.8-1.7,9,.2,10h0l1.4.7.3-.3c2.3.2,5.8-.6,9.5-3,0,0,4-2.5,5-5.2C133.8,100.46,134.1,96.26,132.8,94.26Z"/><path class="cls-16" d="M129.5,108.56s4-2.5,5-5.2,1.2-8.6-1.6-9.5c-2.2-.7-3.2,3.3-6.6,4.6s-6.4,0-8.2,2.8-1.7,9.4.3,10.1S124.9,111.46,129.5,108.56Z"/><path class="cls-13" d="M118.2,143.26a1.11,1.11,0,0,1-1.1-1.1v-15.4l4.3-19.1a1.08,1.08,0,1,1,2.1.5l-4.3,19v15.1C119.3,142.86,118.8,143.26,118.2,143.26Z"/><path class="cls-13" d="M130,136.46a1.11,1.11,0,0,1-1.1-1.1V120l2.9-17.1a1.06,1.06,0,0,1,2.1.3l-2.9,17v15.1A1.06,1.06,0,0,1,130,136.46Z"/><path class="cls-13" d="M118.2,139.36a1.05,1.05,0,0,1-.9-.5,1,1,0,0,1,.4-1.4l11.7-6.8a1,1,0,0,1,1,1.8l-11.7,6.8A4.33,4.33,0,0,1,118.2,139.36Z"/><path class="cls-13" d="M97,133.36a1.42,1.42,0,0,1-.6-.2,1.1,1.1,0,0,1-.3-1.5l7.5-12,1.9-9.9a1.56,1.56,0,0,1,.6-.8,1.7,1.7,0,0,1,1,0l13.6,7.8a1,1,0,0,1-1,1.8l-12.3-7.1-1.7,8.6c0,.1-.1.2-.1.4L98,132.66C97.7,133.16,97.4,133.36,97,133.36Z"/><path class="cls-16" d="M110.4,110.16l-3.2-1.9a1.6,1.6,0,0,0-1.5-.1l-.6-.3v1h0a1.09,1.09,0,0,0,.4.9l8.1,4.7a.91.91,0,0,0,1,0l1.2-.7c.1-.1.2-.2.2-.3v-1.1Z"/><path class="cls-3" d="M115.7,112.66l-1.2.7a.91.91,0,0,1-1,0l-8.1-4.7a.94.94,0,0,1,0-1.6h0a1.72,1.72,0,0,1,1.7,0l8.6,5C115.9,112.26,115.9,112.56,115.7,112.66Z"/><path class="cls-19" d="M117.9,88.06s4.3,2.4,1.4,7c-2.3,3.6-6.9,13.8-10.2,14.3-2.9.5-3.7-1.5-2.8-4.4S114.8,86.06,117.9,88.06Z"/><path class="cls-19" d="M118.9,86.76a7.53,7.53,0,0,0,4,.5c2.4-.3,5.7-2.4,5.7-2.4v-1.4a44.06,44.06,0,0,1-5.7,1.4c-2.6.4-4,.5-4,.5l-.8,1.8Z"/><path class="cls-17" d="M119.9,79.86l-.9-.7s.3-3.6,0-4.2-2.7-.5-3-2.8,2.5-5.2,3.9-5.5.9.9.9.9a8.94,8.94,0,0,1,2.3-.5c.9,0,.3.7.3.7s1.8-.1,2-.1,0,.8,0,.8,3.9.9,5.4,2.8.1,8.5-.7,10.7-2,2.8-4.1,3.1a5.83,5.83,0,0,1-4.2-.9c-.9-.5-.9-2.3-.9-2.3a2.65,2.65,0,0,0,.5-2.2C121.1,78.06,120.3,77.16,119.9,79.86Z"/><path class="cls-10" d="M66.2,42.76s-.8,8.5,0,10,3.1,1.4,3.1,1.4v1.9h4L75,46Z"/><path class="cls-21" d="M43.7,97.66s-4.3-.7-5.6,0-.7,3,.9,3.4,7.2,2.4,8.3.9a8.23,8.23,0,0,0,1.1-4.1Z"/><path class="cls-22" d="M65.8,77.56s-7.9-2.8-11.6-2.9-4.1,6.9-4.1,6.9l15.2,3.1Z"/><path class="cls-13" d="M50.6,97.46a1.05,1.05,0,0,1-.9-.5,1,1,0,0,1,.4-1.4L63,88.16A1,1,0,1,1,64,90l-12.9,7.4A4.33,4.33,0,0,1,50.6,97.46Z"/><path class="cls-13" d="M77.6,89.46l-10.9-6.4a6.32,6.32,0,0,0-6.5,0l-5,2.9a4.3,4.3,0,0,0-1,.9h-.5v1.7h0a2.81,2.81,0,0,0,1.6,2.6l12.9,7.3,12.6-7.3v-1.7Z"/><path class="cls-3" d="M55.3,89.66,68.2,97l12.6-7.3-14-8.2a6.32,6.32,0,0,0-6.5,0l-5,2.9A3,3,0,0,0,55.3,89.66Z"/><path class="cls-10" d="M78.5,81.06s-.4,5.7-2.1,7.3-8.6,4.9-11.8,4.3-12-7.7-12-7.7h0a16.14,16.14,0,0,1-1.6,8.1L47.5,100s-2.3.9-3.8-.7,4.5-20.1,5.4-21.7c2.6-4.4,15.3,3.1,15.3,3.1Z"/><path class="cls-21" d="M52.6,85s-2.8-6.7,0-8.9a5,5,0,0,1,5.3-.9l11,2.6L78.5,81s0,5.3-1.9,7.9-9,5.3-13.2,3.7S52.6,85,52.6,85Z"/><path class="cls-23" d="M78.5,54.86s1.6,1,2.2,4.6a45.64,45.64,0,0,1,.6,6.7s-2,13.1-2.4,14.4-7.6,5.9-10.4,5.3-5.3-4.4-5-5.9,2.1-9.3,1.8-12.1-.6-7.8,1-9.3a14.27,14.27,0,0,1,3.8-2.4Z"/><path class="cls-3" d="M82.7,64.16l.3-.3-1.1-.5c-.2-.1-.3-.2-.5-.2-2.2-.7-3.2,3.3-6.6,4.6s-6.4,0-8.2,2.8-1.7,9,.2,10h0l1.4.7.3-.3c2.3.2,5.8-.6,9.5-3,0,0,4-2.5,5-5.2C83.7,70.36,84,66.16,82.7,64.16Z"/><path class="cls-16" d="M79.4,78.46s4-2.5,5-5.2,1.2-8.6-1.6-9.5c-2.2-.7-3.2,3.3-6.6,4.6s-6.4,0-8.2,2.8-1.7,9.4.3,10.1S74.8,81.36,79.4,78.46Z"/><path class="cls-13" d="M68.1,113.16a1.11,1.11,0,0,1-1.1-1.1V96.66l4.3-19.1a1.08,1.08,0,1,1,2.1.5l-4.3,19v15.1C69.2,112.76,68.7,113.16,68.1,113.16Z"/><path class="cls-13" d="M79.9,106.36a1.11,1.11,0,0,1-1.1-1.1V89.86l2.9-17.1a1.06,1.06,0,1,1,2.1.3l-2.9,17v15.1C80.9,106,80.5,106.36,79.9,106.36Z"/><path class="cls-13" d="M68.1,109.26a1.05,1.05,0,0,1-.9-.5,1,1,0,0,1,.4-1.4l11.7-6.8a1,1,0,0,1,1,1.8l-11.7,6.8A4.33,4.33,0,0,1,68.1,109.26Z"/><path class="cls-13" d="M46.9,103.26a1.42,1.42,0,0,1-.6-.2,1.1,1.1,0,0,1-.3-1.5l7.5-12,1.9-9.9a1.56,1.56,0,0,1,.6-.8,1.7,1.7,0,0,1,1,0l13.6,7.8a1,1,0,0,1-1,1.8l-12.3-7.1L55.6,90c0,.1-.1.2-.1.4l-7.6,12.2C47.6,103.06,47.3,103.26,46.9,103.26Z"/><path class="cls-16" d="M60.3,80.06l-3.2-1.9a1.6,1.6,0,0,0-1.5-.1l-.6-.3v1h0a1.09,1.09,0,0,0,.4.9l8.1,4.7a.91.91,0,0,0,1,0l1.2-.7c.1-.1.2-.2.2-.3v-1.1Z"/><path class="cls-3" d="M65.6,82.56l-1.2.7a.91.91,0,0,1-1,0l-8.1-4.7a.94.94,0,0,1,0-1.6h0A1.72,1.72,0,0,1,57,77l8.6,5C65.8,82.16,65.8,82.46,65.6,82.56Z"/><path class="cls-21" d="M67.8,58s4.3,2.4,1.4,7c-2.3,3.6-6.9,13.8-10.2,14.3-2.9.5-3.7-1.5-2.8-4.4S64.7,56,67.8,58Z"/><path class="cls-21" d="M68.8,56.76a7.53,7.53,0,0,0,4,.5c2.4-.3,5.7-2.4,5.7-2.4v-1.4a44.06,44.06,0,0,1-5.7,1.4c-2.6.4-4,.5-4,.5l-.8,1.8Z"/><path class="cls-24" d="M69.3,49.56s-3.5-2.4-4-5.7.1-4.6,1.5-5.5a6.46,6.46,0,0,1,3.4-.8,4.24,4.24,0,0,1,3.8-1.7c2.7,0,6,2.5,7.4,7.5s-2,10-4.4,11.5-5.6-.5-6.1-2l-.5-1.4s1.1-.5.9-2.3S69.3,47.86,69.3,49.56Z"/><path class="cls-17" d="M79.9,47.26s3.3.4,4.6,4.6-1.1,8-1.6,11.1.6,5.5.2,6.1-5.5.5-7.1-6.6a22.32,22.32,0,0,1,1.1-13A2.5,2.5,0,0,1,79.9,47.26Z"/></g></g></g></svg>