<svg xmlns="http://www.w3.org/2000/svg" xmlns:xlink="http://www.w3.org/1999/xlink" width="278" height="276.5" viewBox="0 0 278 276.5"><defs><linearGradient id="a" x1="0.399" x2="1.096" y2="1.405" gradientUnits="objectBoundingBox"><stop offset="0" stop-color="#98b1f5" stop-opacity="0.11"/><stop offset="1" stop-color="#eaa0df" stop-opacity="0.596"/></linearGradient><filter id="b" x="16.5" y="0" width="255.733" height="240.713" filterUnits="userSpaceOnUse"><feOffset dx="5" dy="4" input="SourceAlpha"/><feGaussianBlur stdDeviation="20.5" result="c"/><feFlood flood-color="#3900ff" flood-opacity="0.333"/><feComposite operator="in" in2="c"/><feComposite in="SourceGraphic"/></filter></defs><g transform="translate(-900 -1362.5)"><text transform="translate(900 1587)" fill="#262525" font-size="16" font-family="Roboto-Bold, Roboto" font-weight="700"><tspan x="53.336" y="15">Цифровые технологии </tspan><tspan x="86.465" y="34">в масс-медиа</tspan></text><g transform="matrix(1, 0, 0, 1, 900, 1362.5)" filter="url(#b)"><path d="M895.2,14.946C905.5,53.4,983.452,69.9,1008.43,54.911S1036.738-6.7,995.108-45,884.893-23.507,895.2,14.946Z" transform="translate(-821.16 114.82)" opacity="0.996" fill="url(#a)"/></g><g transform="translate(1007 1442.088)"><path d="M60.793,42a11.752,11.752,0,0,0-9.125,4.34A9.379,9.379,0,0,0,39.51,50.611a6.981,6.981,0,0,0-5.928.667A9.373,9.373,0,0,0,23.34,46.963,11.641,11.641,0,0,0,13.759,42a11.759,11.759,0,1,0,0,23.517H60.793a11.759,11.759,0,1,0,0-23.517Zm0,21.165H13.759a9.407,9.407,0,1,1,8.066-14.228l.489.823.9-.312a7.028,7.028,0,0,1,8.858,4.074l.651,1.646,1.264-1.237a4.644,4.644,0,0,1,5.554-.734l1.211.673.47-1.305a7.034,7.034,0,0,1,10.2-3.709l.952.56L53,48.5a9.407,9.407,0,1,1,7.8,14.664Z" transform="translate(0 7.05)" fill="#fff"/><path d="M28,39.7a12.445,12.445,0,0,0,3.67,8.86L32.7,49.6l1.034-1.034a12.445,12.445,0,0,0,3.67-8.86A4.7,4.7,0,0,0,28,39.7Zm7.055,0A10.1,10.1,0,0,1,32.7,46.212,10.1,10.1,0,0,1,30.352,39.7a2.352,2.352,0,0,1,4.7,0Z" transform="translate(4.573 5.819)" fill="#fff"/><path d="M34.925,2.111l-.463-.2-.463.2a14.741,14.741,0,0,0-8.944,13.563v4.344A11.475,11.475,0,0,0,18,30.617v3.147h1.176v4.7h7.055v-4.7h3.528v4.7h9.407v-4.7h3.528v4.7h7.055v-4.7h1.176V30.617a11.475,11.475,0,0,0-7.055-10.6V15.674A14.741,14.741,0,0,0,34.925,2.111ZM20.352,30.617a9.132,9.132,0,0,1,4.7-8v8.791h-4.7Zm3.528,5.5H21.528V33.764h2.352Zm12.935,0h-4.7V33.764h4.7Zm4.7-4.7H27.407V15.674A12.39,12.39,0,0,1,34.462,4.485a12.39,12.39,0,0,1,7.055,11.192Zm5.879,4.7H45.045V33.764H47.4Zm1.176-5.5v.795h-4.7V22.624a9.132,9.132,0,0,1,4.7,7.993Z" transform="translate(2.814 0)" fill="#fff"/><path d="M19,38.528a6.9,6.9,0,0,0,2.007,4.846l1.52,1.52,1.52-1.52a6.9,6.9,0,0,0,2.007-4.846,3.528,3.528,0,0,0-7.055,0Zm4.7,0a4.533,4.533,0,0,1-1.176,3.034,4.533,4.533,0,0,1-1.176-3.034,1.176,1.176,0,0,1,2.352,0Z" transform="translate(2.99 5.819)" fill="#fff"/><path d="M39,38.528a6.9,6.9,0,0,0,2.007,4.846l1.52,1.52,1.52-1.52a6.9,6.9,0,0,0,2.007-4.846,3.528,3.528,0,0,0-7.055,0Zm4.7,0a4.533,4.533,0,0,1-1.176,3.034,4.533,4.533,0,0,1-1.176-3.034,1.176,1.176,0,0,1,2.352,0Z" transform="translate(6.507 5.819)" fill="#fff"/><path d="M32.7,10a4.7,4.7,0,1,0,4.7,4.7A4.7,4.7,0,0,0,32.7,10Zm0,7.055A2.352,2.352,0,1,1,35.055,14.7,2.352,2.352,0,0,1,32.7,17.055Z" transform="translate(4.573 1.422)" fill="#fff"/></g></g></svg>