<svg xmlns="http://www.w3.org/2000/svg" xmlns:xlink="http://www.w3.org/1999/xlink" viewBox="0 0 126.57 108.8"><defs><style>.cls-1,.cls-4,.cls-6,.cls-7,.cls-8{opacity:0.2;}.cls-1,.cls-2,.cls-4,.cls-6,.cls-7,.cls-8{isolation:isolate;}.cls-1{fill:url(#Безымянный_градиент_18);}.cls-2{fill:#4c6ba7;opacity:0.5;}.cls-3{fill:#c5ecff;}.cls-4{fill:url(#Безымянный_градиент_18-2);}.cls-5{fill:#e8f7ff;}.cls-6{fill:url(#Безымянный_градиент_18-3);}.cls-7{fill:url(#Безымянный_градиент_18-4);}.cls-8{fill:url(#Безымянный_градиент_18-5);}.cls-9{fill:#33d9b2;}.cls-10{fill:#218f75;}.cls-11{fill:#26a385;}.cls-12{fill:#ffd08e;}.cls-13{fill:#cd6133;}.cls-14{fill:#ffb142;}.cls-15{fill:#e84c3d;}.cls-16{fill:#a8372c;}.cls-17{fill:#b03a2e;}</style><linearGradient id="Безымянный_градиент_18" x1="104.45" y1="-96.73" x2="62.21" y2="-126.37" gradientTransform="matrix(1, 0, 0, -1, 0, -47.51)" gradientUnits="userSpaceOnUse"><stop offset="0" stop-color="#4c6ba7" stop-opacity="0"/><stop offset="1" stop-color="#4c6ba7"/></linearGradient><linearGradient id="Безымянный_градиент_18-2" x1="43.6" y1="-101.1" x2="-60.64" y2="-157.59" gradientTransform="translate(50.63 -47.51) rotate(180)" xlink:href="#Безымянный_градиент_18"/><linearGradient id="Безымянный_градиент_18-3" x1="98.19" y1="-119.3" x2="69.92" y2="-139.14" xlink:href="#Безымянный_градиент_18"/><linearGradient id="Безымянный_градиент_18-4" x1="88.81" y1="-106.82" x2="53.85" y2="-131.34" xlink:href="#Безымянный_градиент_18"/><linearGradient id="Безымянный_градиент_18-5" x1="68.11" y1="-94.77" x2="33.14" y2="-119.3" xlink:href="#Безымянный_градиент_18"/></defs><title>left_1</title><g id="Слой_2" data-name="Слой 2"><g id="Слой_1-2" data-name="Слой 1"><g id="Objects"><path class="cls-1" d="M71.67,107.7h15.2a24.4,24.4,0,0,0,12.3-3.3l27.4-15.9L49.07,47.3h-20Z"/><path class="cls-2" d="M98.37,96.6l-16.89,9.8a17.72,17.72,0,0,1-17.81,0L3.07,71.1a6.11,6.11,0,0,1,0-10.6L20,50.7a17.7,17.7,0,0,1,17.8,0L98.37,86A6.1,6.1,0,0,1,98.37,96.6Z"/><path class="cls-3" d="M3.17,59.4,20,49.7a17.7,17.7,0,0,1,17.8,0l48.7,28.4,14.89,5.6v6.5a6.07,6.07,0,0,1-3,5.3l-16.89,9.8a17.72,17.72,0,0,1-17.81,0L3.07,70a6,6,0,0,1-3-5.2h0V58.2Z"/><path class="cls-4" d="M3.17,59.4,20,49.7a17.7,17.7,0,0,1,17.8,0l48.7,28.4,14.89,5.6v6.5a6.07,6.07,0,0,1-3,5.3l-16.89,9.8a17.72,17.72,0,0,1-17.81,0L3.07,70a6,6,0,0,1-3-5.2h0V58.2Z"/><path class="cls-5" d="M98.37,89,81.48,98.8a17.72,17.72,0,0,1-17.81,0L3.07,63.5a6.11,6.11,0,0,1,0-10.6L20,43.1a17.7,17.7,0,0,1,17.8,0L98.37,78.4A6.1,6.1,0,0,1,98.37,89Z"/><path class="cls-6" d="M56.78,83.4l14.7,8.5h22l5-2.9a6.1,6.1,0,0,0,0-10.6l-1.61-1H67.17Z"/><polygon class="cls-7" points="97.08 77.7 76.28 65.6 46.38 65.6 36.08 71.5 50.77 80 94.67 80 97.08 77.7"/><polygon class="cls-8" points="76.38 65.6 55.58 53.5 25.68 53.5 15.38 59.5 30.07 67.9 73.97 67.9 76.38 65.6"/><polygon class="cls-9" points="15.38 7.3 28.07 0 42.77 8.5 30.07 15.8 15.38 7.3"/><polygon class="cls-10" points="15.38 7.3 15.38 59.5 30.07 67.9 30.07 15.8 15.38 7.3"/><polygon class="cls-11" points="30.07 67.9 42.77 60.6 42.77 8.5 30.07 15.8 30.07 67.9"/><polygon class="cls-12" points="36.08 34.4 48.77 27.1 63.48 35.5 50.77 42.9 36.08 34.4"/><polygon class="cls-13" points="36.08 34.4 36.08 71.4 50.77 79.9 50.77 42.9 36.08 34.4"/><polygon class="cls-14" points="50.77 79.9 63.48 72.6 63.48 35.5 50.77 42.9 50.77 79.9"/><polygon class="cls-15" points="56.77 61 69.47 53.7 84.17 62.2 71.47 69.5 56.77 61"/><polygon class="cls-16" points="56.77 61 56.77 83.4 71.47 91.9 71.47 69.5 56.77 61"/><polygon class="cls-17" points="71.47 91.9 84.17 84.6 84.17 62.2 71.47 69.5 71.47 91.9"/></g></g></g></svg>