<svg xmlns="http://www.w3.org/2000/svg" xmlns:xlink="http://www.w3.org/1999/xlink" width="275.303" height="283.5" viewBox="0 0 275.303 283.5">
  <defs>
    <linearGradient id="linear-gradient" x1="0.399" x2="1.096" y2="1.405" gradientUnits="objectBoundingBox">
      <stop offset="0" stop-color="#98b1f5" stop-opacity="0.11"/>
      <stop offset="1" stop-color="#eaa0df" stop-opacity="0.596"/>
    </linearGradient>
    <filter id="Path_38" x="12.5" y="0" width="262.803" height="254.836" filterUnits="userSpaceOnUse">
      <feOffset dx="5" dy="4" input="SourceAlpha"/>
      <feGaussianBlur stdDeviation="20.5" result="blur"/>
      <feFlood flood-color="#3900ff" flood-opacity="0.333"/>
      <feComposite operator="in" in2="blur"/>
      <feComposite in="SourceGraphic"/>
    </filter>
  </defs>
  <g id="Group_370" data-name="Group 370" transform="translate(-551 -1355.5)">
    <text id="Language_learning_and_teaching:_theory_practice_and_innovations" data-name="Language learning and teaching: theory, practice and innovations" transform="translate(551 1587)" fill="#262525" font-size="16" font-family="Roboto-Bold, Roboto" font-weight="700"><tspan x="15.23" y="15">Language learning and teaching: </tspan><tspan x="18.066" y="34">theory, practice and innovations</tspan></text>
    <g transform="matrix(1, 0, 0, 1, 551, 1355.5)" filter="url(#Path_38)">
      <path id="Path_38-2" data-name="Path 38" d="M942.236-35.234c-42.923,7.987-55.7,106.983-31.94,125.742S1027.738,74.046,1037.29,39.8,985.159-43.221,942.236-35.234Z" transform="translate(-829.48 93.6)" opacity="0.996" fill="url(#linear-gradient)"/>
    </g>
    <g id="_036-writing" data-name="036-writing" transform="translate(647 1442)">
      <path id="Path_244" data-name="Path 244" d="M5.337,5.335a1.2,1.2,0,0,0-.244.384,1.1,1.1,0,0,0,0,.884,1.086,1.086,0,0,0,.244.384A1.168,1.168,0,1,0,6.99,5.335,1.218,1.218,0,0,0,5.337,5.335Z" transform="translate(0.491 0.493)" fill="#fff"/>
      <path id="Path_245" data-name="Path 245" d="M8.721,5.092a1.086,1.086,0,0,0-.384.244,1.18,1.18,0,0,0,0,1.652,1.164,1.164,0,0,0,1.99-.826,1.224,1.224,0,0,0-.337-.826,1.183,1.183,0,0,0-1.268-.244Z" transform="translate(0.982 0.492)" fill="#fff"/>
      <path id="Path_246" data-name="Path 246" d="M11.721,5.092a1.2,1.2,0,0,0-.384.244,1.18,1.18,0,0,0,0,1.652,1.344,1.344,0,0,0,.384.244,1.164,1.164,0,0,0,.442.093,1.152,1.152,0,0,0,1.164-1.164,1.224,1.224,0,0,0-.337-.826A1.207,1.207,0,0,0,11.721,5.092Z" transform="translate(1.473 0.492)" fill="#fff"/>
      <rect id="Rectangle_84" data-name="Rectangle 84" width="16.292" height="2.327" transform="translate(17.128 21.783)" fill="#fff"/>
      <rect id="Rectangle_85" data-name="Rectangle 85" width="16.292" height="2.327" transform="translate(17.128 28.765)" fill="#fff"/>
      <rect id="Rectangle_86" data-name="Rectangle 86" width="22.11" height="2.327" transform="translate(17.128 35.747)" fill="#fff"/>
      <rect id="Rectangle_87" data-name="Rectangle 87" width="15.128" height="2.327" transform="translate(17.128 42.729)" fill="#fff"/>
      <rect id="Rectangle_88" data-name="Rectangle 88" width="9.309" height="2.327" transform="translate(17.128 49.711)" fill="#fff"/>
      <rect id="Rectangle_89" data-name="Rectangle 89" width="6.982" height="2.327" transform="translate(17.128 56.693)" fill="#fff"/>
      <path id="Path_247" data-name="Path 247" d="M67.365,15.964a4.422,4.422,0,0,0-3.15,1.306L60.184,21.3V5.491A3.491,3.491,0,0,0,56.693,2H5.491A3.491,3.491,0,0,0,2,5.491V68.33a3.491,3.491,0,0,0,3.491,3.491h51.2a3.491,3.491,0,0,0,3.491-3.491V33.9L70.515,23.57a4.455,4.455,0,0,0-3.15-7.606ZM4.327,5.491A1.164,1.164,0,0,1,5.491,4.327h51.2a1.164,1.164,0,0,1,1.164,1.164V8.982H4.327ZM57.857,68.33a1.164,1.164,0,0,1-1.164,1.164H5.491A1.164,1.164,0,0,1,4.327,68.33V11.309H57.857V23.628L50.875,30.61V27.119L38.556,14.8H11.309V66H50.875V43.211l6.982-6.982ZM30.075,51.41l-3.15,9.45,9.45-3.15,3.344-3.344,8.828-8.828V63.675H13.637V17.128H36.91V28.765H48.547v4.173L33.419,48.066Zm3.344-.054,3.009,3.009-1.31,1.31-4.514,1.5,1.5-4.514Zm5.818-32.583L46.9,26.437H39.238ZM38.074,52.72l-3.009-3.009L62.511,22.264l3.009,3.009Zm30.8-30.8-1.7,1.7-3.009-3.009,1.7-1.7a2.128,2.128,0,1,1,3.01,3.01Z" fill="#fff"/>
    </g>
  </g>
</svg>
