<svg xmlns="http://www.w3.org/2000/svg" xmlns:xlink="http://www.w3.org/1999/xlink" width="221" height="229.062" viewBox="0 0 221 229.062">
  <defs>
    <linearGradient id="linear-gradient" x1="0.399" x2="0.762" y2="0.879" gradientUnits="objectBoundingBox">
      <stop offset="0" stop-color="#f3deff"/>
      <stop offset="1" stop-color="#d1ceff"/>
    </linearGradient>
    <filter id="Path_1033" x="1.93" y="0" width="217.218" height="201.004" filterUnits="userSpaceOnUse">
      <feOffset input="SourceAlpha"/>
      <feGaussianBlur stdDeviation="15" result="blur"/>
      <feFlood flood-color="#4310f7" flood-opacity="0.082"/>
      <feComposite operator="in" in2="blur"/>
      <feComposite in="SourceGraphic"/>
    </filter>
  </defs>
  <g id="Group_375" data-name="Group 375" transform="translate(-1052 -1117.938)">
    <text id="Data_Science_Machine_Learning" data-name="Data Science &amp; Machine Learning" transform="translate(1052 1299)" fill="#262525" font-size="16" font-family="Roboto-Bold, Roboto" font-weight="700"><tspan x="23.41" y="15">Data Science &amp; Machine </tspan><tspan x="78.988" y="34">Learning</tspan></text>
    <g transform="matrix(1, 0, 0, 1, 1052, 1117.94)" filter="url(#Path_1033)">
      <path id="Path_1033-2" data-name="Path 1033" d="M895.325-28.368C885.558-3,942.123,59.98,970.746,55.6s71.508-83.067,39.07-101.489S905.093-53.74,895.325-28.368Z" transform="translate(-847.28 100.19)" opacity="0.996" fill="url(#linear-gradient)"/>
    </g>
    <g id="machine" transform="translate(1135.343 1184.343)">
      <path id="Path_1034" data-name="Path 1034" d="M62.357,31.178a13.122,13.122,0,0,0-5.594-10.717A10.04,10.04,0,0,0,48.276,5.029c-.3,0-.609.016-.927.047A9.047,9.047,0,0,0,30.173,9.052v5.029H28.161V10.058H26.15v4.023H22.127V10.058H20.115v4.023H16.092V10.058H14.081v4.023H10.058V10.058H8.046v4.023H7.63L4.023,17.687V18.1H0v2.012H4.023v4.023H0V26.15H4.023v4.023H0v2.012H4.023v4.023H0v2.012H4.023v4.023H0v2.012H4.023v4.023H8.046V52.3h2.012V48.276h4.023V52.3h2.012V48.276h4.023V52.3h2.012V48.276H26.15V52.3h2.012V48.276h2.012V53.3a9.045,9.045,0,0,0,17.251,3.812l.049-.01a11.094,11.094,0,0,0,8.85-10.842,10.878,10.878,0,0,0-.643-3.7A13.131,13.131,0,0,0,62.357,31.178ZM37.6,28.3c.056.126.106.253.156.382l.17.443,2.307.771v2.573l-2.309.77-.169.445c-.05.13-.1.256-.155.381L37.4,34.5l1.087,2.175L36.67,38.49,34.5,37.4l-.435.195c-.125.055-.25.106-.381.155l-.445.169-.77,2.308H29.891l-.77-2.309-.445-.169c-.13-.05-.256-.1-.381-.155l-.435-.195-2.175,1.087L23.867,36.67,24.954,34.5l-.195-.435c-.055-.125-.106-.25-.155-.381l-.169-.445-2.308-.77V29.891l2.307-.77.17-.443c.051-.129.1-.257.156-.382l.195-.435-1.087-2.175,1.819-1.819,2.175,1.087.435-.195c.124-.055.249-.106.377-.154l.448-.169.771-2.31h2.573l.771,2.311.448.169c.128.049.253.1.377.154l.435.195,2.175-1.087,1.819,1.819L37.4,27.863ZM6.035,46.265V18.52l2.428-2.428h21.71v4.023H28.441l-.823,2.47L25.291,21.42l-3.87,3.87,1.164,2.327-2.469.824v5.473l2.47.823L21.42,37.065l3.87,3.87,2.328-1.165.823,2.471h1.731v4.023Zm47.94-5.08-.9.423.414.905a8.953,8.953,0,0,1,.823,3.751,9.078,9.078,0,0,1-6.175,8.575,8.9,8.9,0,0,0-1.071-6.062l-1.74,1.008A7.041,7.041,0,1,1,32.184,53.3V42.242h1.731l.823-2.47,2.328,1.165,3.87-3.87-1.165-2.328,2.47-.823V28.442l-2.469-.824,1.164-2.327-3.87-3.87-2.328,1.165-.823-2.471H32.184V9.052A7.036,7.036,0,0,1,45.793,6.536l.3.772.814-.141a7.908,7.908,0,0,1,1.373-.128,8.046,8.046,0,1,1,0,16.092v2.012a10.023,10.023,0,0,0,7.23-3.084,11.029,11.029,0,0,1-1.532,19.125Zm0,0" fill="#fff"/>
      <path id="Path_1035" data-name="Path 1035" d="M272,37.029h2.012a3.021,3.021,0,0,1,3.017-3.017V32A5.035,5.035,0,0,0,272,37.029Zm0,0" transform="translate(-237.804 -27.977)" fill="#fff"/>
      <path id="Path_1036" data-name="Path 1036" d="M388.023,78.035h2.012A6.041,6.041,0,0,0,384,72v2.012A4.027,4.027,0,0,1,388.023,78.035Zm0,0" transform="translate(-335.724 -62.948)" fill="#fff"/>
      <path id="Path_1037" data-name="Path 1037" d="M358.1,233.821a3.017,3.017,0,0,1,0,4.268,3.09,3.09,0,0,1-4.267,0l-1.422,1.422a5.029,5.029,0,1,0,7.111-7.112Zm0,0" transform="translate(-308.102 -203.181)" fill="#fff"/>
      <path id="Path_1038" data-name="Path 1038" d="M274.012,424H272a5.035,5.035,0,0,0,5.029,5.029v-2.012A3.021,3.021,0,0,1,274.012,424Zm0,0" transform="translate(-237.804 -370.695)" fill="#fff"/>
      <path id="Path_1039" data-name="Path 1039" d="M320,88v2.011a3.017,3.017,0,0,1,0,6.035v2.012A5.029,5.029,0,0,0,320,88Zm0,0" transform="translate(-279.77 -76.937)" fill="#fff"/>
      <path id="Path_1040" data-name="Path 1040" d="M213.029,208a5.029,5.029,0,1,0,5.029,5.029A5.035,5.035,0,0,0,213.029,208Zm0,8.046a3.017,3.017,0,1,1,3.017-3.017A3.021,3.021,0,0,1,213.029,216.046Zm0,0" transform="translate(-181.85 -181.85)" fill="#fff"/>
      <path id="Path_1041" data-name="Path 1041" d="M128,144h10.058v2.012H128Zm0,0" transform="translate(-111.908 -125.896)" fill="#fff"/>
      <path id="Path_1042" data-name="Path 1042" d="M66.012,208H64v18.1H82.1v-2.011H66.012Zm0,0" transform="translate(-55.954 -181.85)" fill="#fff"/>
      <path id="Path_1043" data-name="Path 1043" d="M67.017,150.035A3.017,3.017,0,1,0,64,147.017,3.021,3.021,0,0,0,67.017,150.035Zm0-4.023a1.006,1.006,0,1,1-1.006,1.006A1.007,1.007,0,0,1,67.017,146.011Zm0,0" transform="translate(-55.954 -125.896)" fill="#fff"/>
    </g>
  </g>
</svg>
