<svg xmlns="http://www.w3.org/2000/svg" xmlns:xlink="http://www.w3.org/1999/xlink" width="756.571" height="684.81" viewBox="0 0 756.571 684.81">
  <defs>
    <linearGradient id="linear-gradient" x1="0.399" x2="1.096" y2="1.405" gradientUnits="objectBoundingBox">
      <stop offset="0" stop-color="#98b1f5"/>
      <stop offset="1" stop-color="#eaa0df"/>
    </linearGradient>
  </defs>
  <g id="Group_132" data-name="Group 132" transform="translate(-612.334)">
    <path id="Path_1" data-name="Path 1" d="M584.968,31S558,147.25,651,248s178.25,46.5,279,155,54.25,170.5,155,248,252.905,63.891,252.905,63.891V31Z" transform="translate(31 -31)" opacity="0.211" fill="url(#linear-gradient)"/>
    <g id="_453062-PF8UKO-191" data-name="453062-PF8UKO-191" transform="translate(738.9 187.777)">
      <g id="Group_60" data-name="Group 60" transform="translate(36.1 88.7)">
        <g id="Group_3" data-name="Group 3" transform="translate(84.326 43.267)">
          <rect id="Rectangle_8" data-name="Rectangle 8" width="51.386" height="67.974" transform="translate(138.155 170.167)" fill="#496dfa"/>
          <path id="Path_2" data-name="Path 2" d="M329.871,332.456H190.444a3.911,3.911,0,0,1-3.944-3.944h0a3.664,3.664,0,0,1,3.712-3.712H330.219a3.664,3.664,0,0,1,3.712,3.712h0A4.17,4.17,0,0,1,329.871,332.456Z" transform="translate(-96.367 -94.199)" fill="#6a95f9"/>
          <path id="Path_3" data-name="Path 3" d="M114.948,330.153H430.342a6.114,6.114,0,0,0,6.148-6.148V132.148A6.114,6.114,0,0,0,430.342,126H114.948a6.114,6.114,0,0,0-6.148,6.148V323.89A6.07,6.07,0,0,0,114.948,330.153Z" transform="translate(-108.797 -126)" fill="#6a95f9"/>
          <rect id="Rectangle_9" data-name="Rectangle 9" width="302.634" height="170.747" transform="translate(12.415 12.528)" fill="#fff"/>
          <rect id="Rectangle_10" data-name="Rectangle 10" width="79.109" height="31.551" transform="translate(29.351 130.844)" fill="#dee6fc"/>
          <rect id="Rectangle_11" data-name="Rectangle 11" width="79.109" height="31.551" transform="translate(124.235 130.844)" fill="#dee6fc"/>
          <rect id="Rectangle_12" data-name="Rectangle 12" width="79.109" height="31.551" transform="translate(219.004 130.844)" fill="#dee6fc"/>
        </g>
        <g id="Group_5" data-name="Group 5" transform="translate(113.676 69.83)">
          <g id="Group_4" data-name="Group 4">
            <rect id="Rectangle_13" data-name="Rectangle 13" width="67.626" height="6.38" fill="#dee6fc"/>
            <rect id="Rectangle_14" data-name="Rectangle 14" width="17.979" height="4.06" transform="translate(115.88 2.552)" fill="#dee6fc"/>
            <rect id="Rectangle_15" data-name="Rectangle 15" width="25.983" height="4.06" transform="translate(156.363 2.552)" fill="#dee6fc"/>
            <rect id="Rectangle_16" data-name="Rectangle 16" width="25.983" height="4.06" transform="translate(201.138 2.552)" fill="#dee6fc"/>
            <rect id="Rectangle_17" data-name="Rectangle 17" width="25.983" height="4.06" transform="translate(245.796 2.552)" fill="#dee6fc"/>
          </g>
        </g>
        <path id="Path_4" data-name="Path 4" d="M483.171,196.677H318.224a4.529,4.529,0,0,1-4.524-4.524V93.324a4.529,4.529,0,0,1,4.524-4.524H483.171a4.529,4.529,0,0,1,4.524,4.524v98.713A4.555,4.555,0,0,1,483.171,196.677Z" transform="translate(8.306 -88.684)" fill="#88d4ef"/>
        <path id="Path_5" data-name="Path 5" d="M443.969,232.8H347.924a4.529,4.529,0,0,1-4.524-4.524V130.724a4.529,4.529,0,0,1,4.524-4.524h96.045a4.529,4.529,0,0,1,4.524,4.524v97.553A4.457,4.457,0,0,1,443.969,232.8Z" transform="translate(13.057 -82.701)" fill="#524cb3"/>
        <path id="Path_6" data-name="Path 6" d="M198.147,88.7H49.9a13.8,13.8,0,1,0,0,27.607h136.18l8.468,10.556V116.307h3.712a13.762,13.762,0,0,0,13.8-13.8A13.936,13.936,0,0,0,198.147,88.7Z" transform="translate(-36.1 -88.7)" fill="#e488c7"/>
        <g id="Group_13" data-name="Group 13" transform="translate(370.26 55.794)">
          <g id="Group_12" data-name="Group 12">
            <g id="Group_7" data-name="Group 7">
              <rect id="Rectangle_18" data-name="Rectangle 18" width="8.816" height="2.668" fill="#e488c7"/>
              <g id="Group_6" data-name="Group 6" transform="translate(13.456)">
                <rect id="Rectangle_19" data-name="Rectangle 19" width="35.263" height="2.668" fill="#fff"/>
              </g>
              <rect id="Rectangle_20" data-name="Rectangle 20" width="5.8" height="2.668" transform="translate(13.456 4.64)" fill="#fff"/>
              <rect id="Rectangle_21" data-name="Rectangle 21" width="32.827" height="2.668" transform="translate(44.659 9.28)" fill="#e488c7"/>
              <rect id="Rectangle_22" data-name="Rectangle 22" width="18.211" height="2.668" transform="translate(20.531 4.64)" fill="#fff"/>
              <rect id="Rectangle_23" data-name="Rectangle 23" width="5.8" height="2.668" transform="translate(13.456 18.443)" fill="#fff"/>
              <rect id="Rectangle_24" data-name="Rectangle 24" width="6.496" height="2.668" transform="translate(20.531 18.443)" fill="#e6ca76"/>
              <rect id="Rectangle_25" data-name="Rectangle 25" width="29.927" height="2.668" transform="translate(13.456 9.28)" fill="#e488c7"/>
              <rect id="Rectangle_26" data-name="Rectangle 26" width="64.03" height="2.668" transform="translate(13.456 13.804)" fill="#fff"/>
            </g>
            <g id="Group_9" data-name="Group 9" transform="translate(0 30.507)">
              <rect id="Rectangle_27" data-name="Rectangle 27" width="8.816" height="2.668" fill="#e488c7"/>
              <g id="Group_8" data-name="Group 8" transform="translate(13.456)">
                <rect id="Rectangle_28" data-name="Rectangle 28" width="35.263" height="2.668" fill="#fff"/>
              </g>
              <rect id="Rectangle_29" data-name="Rectangle 29" width="5.8" height="2.668" transform="translate(13.456 4.524)" fill="#fff"/>
              <rect id="Rectangle_30" data-name="Rectangle 30" width="32.827" height="2.668" transform="translate(44.659 9.164)" fill="#e488c7"/>
              <rect id="Rectangle_31" data-name="Rectangle 31" width="18.211" height="2.668" transform="translate(20.531 4.524)" fill="#fff"/>
              <rect id="Rectangle_32" data-name="Rectangle 32" width="5.8" height="2.668" transform="translate(13.456 18.327)" fill="#fff"/>
              <rect id="Rectangle_33" data-name="Rectangle 33" width="6.496" height="2.668" transform="translate(20.531 18.327)" fill="#e6ca76"/>
              <rect id="Rectangle_34" data-name="Rectangle 34" width="29.927" height="2.668" transform="translate(13.456 9.164)" fill="#e488c7"/>
              <rect id="Rectangle_35" data-name="Rectangle 35" width="64.03" height="2.668" transform="translate(13.456 13.804)" fill="#fff"/>
            </g>
            <g id="Group_11" data-name="Group 11" transform="translate(0 60.898)">
              <rect id="Rectangle_36" data-name="Rectangle 36" width="8.816" height="2.668" fill="#e488c7"/>
              <g id="Group_10" data-name="Group 10" transform="translate(13.456)">
                <rect id="Rectangle_37" data-name="Rectangle 37" width="35.263" height="2.668" fill="#fff"/>
              </g>
              <rect id="Rectangle_38" data-name="Rectangle 38" width="5.8" height="2.668" transform="translate(13.456 4.64)" fill="#fff"/>
              <rect id="Rectangle_39" data-name="Rectangle 39" width="32.827" height="2.668" transform="translate(44.659 9.164)" fill="#e488c7"/>
              <rect id="Rectangle_40" data-name="Rectangle 40" width="18.211" height="2.668" transform="translate(20.531 4.64)" fill="#fff"/>
              <rect id="Rectangle_41" data-name="Rectangle 41" width="5.8" height="2.668" transform="translate(13.456 18.443)" fill="#fff"/>
              <rect id="Rectangle_42" data-name="Rectangle 42" width="6.496" height="2.668" transform="translate(20.531 18.443)" fill="#e6ca76"/>
              <rect id="Rectangle_43" data-name="Rectangle 43" width="29.927" height="2.668" transform="translate(13.456 9.164)" fill="#e488c7"/>
              <rect id="Rectangle_44" data-name="Rectangle 44" width="64.03" height="2.668" transform="translate(13.456 13.804)" fill="#fff"/>
            </g>
          </g>
        </g>
        <g id="Group_35" data-name="Group 35" transform="translate(0.232 91.521)">
          <path id="Path_7" data-name="Path 7" d="M139.3,275.129H40.824A4.529,4.529,0,0,1,36.3,270.6V172.124a4.529,4.529,0,0,1,4.524-4.524H139.3a4.529,4.529,0,0,1,4.524,4.524V270.6A4.456,4.456,0,0,1,139.3,275.129Z" transform="translate(-36.3 -167.6)" fill="#716ef1"/>
          <g id="Group_34" data-name="Group 34" transform="translate(9.164 9.048)">
            <g id="Group_30" data-name="Group 30" transform="translate(0 0.116)">
              <g id="Group_16" data-name="Group 16">
                <g id="Group_15" data-name="Group 15">
                  <g id="Group_14" data-name="Group 14">
                    <path id="Path_8" data-name="Path 8" d="M88.859,264.817a44.659,44.659,0,1,1,44.659-44.659A44.752,44.752,0,0,1,88.859,264.817Zm0-83.981a39.323,39.323,0,1,0,39.323,39.323A39.356,39.356,0,0,0,88.859,180.836Z" transform="translate(-44.2 -175.5)" fill="#514db5"/>
                  </g>
                </g>
              </g>
              <g id="Group_19" data-name="Group 19" transform="translate(9.28 9.28)">
                <g id="Group_18" data-name="Group 18">
                  <g id="Group_17" data-name="Group 17">
                    <path id="Path_9" data-name="Path 9" d="M87.579,254.258a35.379,35.379,0,1,1,35.379-35.379A35.445,35.445,0,0,1,87.579,254.258Zm0-65.422a30.043,30.043,0,1,0,30.043,30.043A30.049,30.049,0,0,0,87.579,188.836Z" transform="translate(-52.2 -183.5)" fill="#514db5"/>
                  </g>
                </g>
              </g>
              <g id="Group_21" data-name="Group 21" transform="translate(41.991 9.28)">
                <g id="Group_20" data-name="Group 20">
                  <path id="Path_10" data-name="Path 10" d="M83.068,254.258a2.668,2.668,0,0,1,0-5.336,30.043,30.043,0,1,0,0-60.086,2.668,2.668,0,1,1,0-5.336,35.379,35.379,0,1,1,0,70.758Z" transform="translate(-80.4 -183.5)" fill="#88d4ef"/>
                </g>
              </g>
              <g id="Group_24" data-name="Group 24" transform="translate(18.675 18.791)">
                <g id="Group_23" data-name="Group 23">
                  <g id="Group_22" data-name="Group 22">
                    <path id="Path_11" data-name="Path 11" d="M86.283,243.666a25.983,25.983,0,1,1,25.983-25.983A26.015,26.015,0,0,1,86.283,243.666Zm0-46.862a20.763,20.763,0,1,0,20.763,20.763A20.742,20.742,0,0,0,86.283,196.8Z" transform="translate(-60.3 -191.7)" fill="#514db5"/>
                  </g>
                </g>
              </g>
              <g id="Group_27" data-name="Group 27" transform="translate(27.955 28.071)">
                <g id="Group_26" data-name="Group 26">
                  <g id="Group_25" data-name="Group 25">
                    <path id="Path_12" data-name="Path 12" d="M85,233.107a16.708,16.708,0,0,1-16.7-16.7A16.6,16.6,0,0,1,85,199.7a16.7,16.7,0,0,1,0,33.407Zm0-28.187a11,11,0,0,0-8.352,3.712,11.265,11.265,0,0,0-3.016,7.772A11.484,11.484,0,1,0,85,204.92Z" transform="translate(-68.3 -199.7)" fill="#514db5"/>
                  </g>
                </g>
              </g>
              <g id="Group_29" data-name="Group 29" transform="translate(27.955 27.955)">
                <g id="Group_28" data-name="Group 28">
                  <path id="Path_13" data-name="Path 13" d="M85,233.123a16.708,16.708,0,0,1-16.7-16.7,2.668,2.668,0,0,1,5.336,0,11.484,11.484,0,1,0,11.484-11.484,2.668,2.668,0,0,1,0-5.336A16.762,16.762,0,1,1,85,233.123Z" transform="translate(-68.3 -199.6)" fill="#e488c7"/>
                </g>
              </g>
            </g>
            <g id="Group_32" data-name="Group 32" transform="translate(41.759)">
              <g id="Group_31" data-name="Group 31">
                <path id="Path_14" data-name="Path 14" d="M125.091,223.306a3,3,0,0,1-3.016-3.016,38.861,38.861,0,0,0-38.859-38.859,3.016,3.016,0,1,1,0-6.032,45.049,45.049,0,0,1,45.007,45.007A3.161,3.161,0,0,1,125.091,223.306Z" transform="translate(-80.2 -175.4)" fill="#fff"/>
              </g>
            </g>
            <g id="Group_33" data-name="Group 33" transform="translate(24.137 18.443)">
              <path id="Path_15" data-name="Path 15" d="M85.53,244.078a26.24,26.24,0,0,1-19.719-8.932,3.039,3.039,0,1,1,4.524-4.06,20.3,20.3,0,1,0,15.2-33.755,3.016,3.016,0,1,1,0-6.032,26.389,26.389,0,1,1,0,52.778Z" transform="translate(-65.008 -191.3)" fill="#f0ca76"/>
            </g>
          </g>
          <path id="Path_16" data-name="Path 16" d="M127.1,183.956l9.628-7.656H127.1" transform="translate(-21.775 -166.208)" fill="#716ef1"/>
        </g>
        <text id="Web_Design" data-name="Web Design" transform="translate(113.657 124.024)" fill="#dee6fc" font-size="13" font-family="Helvetica"><tspan x="0" y="0">Web Design</tspan></text>
        <g id="Group_42" data-name="Group 42" transform="translate(113.676 133.628)">
          <g id="Group_41" data-name="Group 41">
            <g id="Group_36" data-name="Group 36">
              <rect id="Rectangle_45" data-name="Rectangle 45" width="17.747" height="3.48" fill="#dee6fc"/>
            </g>
            <g id="Group_40" data-name="Group 40" transform="translate(0 7.076)">
              <g id="Group_37" data-name="Group 37">
                <rect id="Rectangle_46" data-name="Rectangle 46" width="103.933" height="4.06" fill="#dee6fc"/>
              </g>
              <g id="Group_38" data-name="Group 38" transform="translate(0 7.076)">
                <rect id="Rectangle_47" data-name="Rectangle 47" width="103.933" height="4.06" fill="#dee6fc"/>
              </g>
              <g id="Group_39" data-name="Group 39" transform="translate(0 14.152)">
                <rect id="Rectangle_48" data-name="Rectangle 48" width="55.678" height="4.06" fill="#dee6fc"/>
              </g>
            </g>
          </g>
        </g>
        <g id="Group_45" data-name="Group 45" transform="translate(426.17 156.943)">
          <path id="Path_17" data-name="Path 17" d="M469.85,293.83H406.98a3.418,3.418,0,0,1-3.48-3.48V227.48a3.418,3.418,0,0,1,3.48-3.48h62.87a3.418,3.418,0,0,1,3.48,3.48v62.87A3.49,3.49,0,0,1,469.85,293.83Z" transform="translate(-403.5 -224)" fill="#fff"/>
          <g id="Group_44" data-name="Group 44" transform="translate(15.196 13.92)">
            <g id="Group_43" data-name="Group 43">
              <rect id="Rectangle_49" data-name="Rectangle 49" width="6.032" height="11.368" transform="translate(0 27.607)" fill="#e488c7"/>
              <rect id="Rectangle_50" data-name="Rectangle 50" width="6.032" height="25.983" transform="translate(8.584 12.992)" fill="#e6ca76"/>
              <rect id="Rectangle_51" data-name="Rectangle 51" width="6.032" height="17.051" transform="translate(17.167 21.923)" fill="#716ef1"/>
              <rect id="Rectangle_52" data-name="Rectangle 52" width="6.032" height="34.103" transform="translate(25.751 4.872)" fill="#6a95f9"/>
              <rect id="Rectangle_53" data-name="Rectangle 53" width="6.032" height="38.975" transform="translate(34.451)" fill="#88d4ef"/>
            </g>
            <rect id="Rectangle_54" data-name="Rectangle 54" width="6.032" height="1.276" transform="translate(0 42.687)" fill="#dee6fc"/>
            <rect id="Rectangle_55" data-name="Rectangle 55" width="6.032" height="1.276" transform="translate(8.584 42.687)" fill="#dee6fc"/>
            <rect id="Rectangle_56" data-name="Rectangle 56" width="6.032" height="1.276" transform="translate(17.167 42.687)" fill="#dee6fc"/>
            <rect id="Rectangle_57" data-name="Rectangle 57" width="6.032" height="1.276" transform="translate(25.751 42.687)" fill="#dee6fc"/>
            <rect id="Rectangle_58" data-name="Rectangle 58" width="6.032" height="1.276" transform="translate(34.451 42.687)" fill="#dee6fc"/>
          </g>
        </g>
        <path id="Path_18" data-name="Path 18" d="M84.172,141.736a5.336,5.336,0,1,1-5.336-5.336A5.322,5.322,0,0,1,84.172,141.736Z" transform="translate(-30.117 -81.07)" fill="none" stroke="#88d4ef" stroke-miterlimit="10" stroke-width="4"/>
        <path id="Path_19" data-name="Path 19" d="M416.072,309.836a5.322,5.322,0,0,1-5.336,5.336,5.336,5.336,0,0,1,0-10.672A5.322,5.322,0,0,1,416.072,309.836Z" transform="translate(22.974 -54.18)" fill="none" stroke="#88d4ef" stroke-miterlimit="10" stroke-width="4"/>
        <circle id="Ellipse_1" data-name="Ellipse 1" cx="4.524" cy="4.524" r="4.524" transform="translate(61.362 67.626)" fill="#dee6fc"/>
        <g id="Group_48" data-name="Group 48" transform="translate(39.207 209.837)">
          <g id="Group_47" data-name="Group 47">
            <g id="Group_46" data-name="Group 46">
              <path id="Path_20" data-name="Path 20" d="M163.741,335.138H73.38a3.418,3.418,0,0,1-3.48-3.48V273.08a3.418,3.418,0,0,1,3.48-3.48h90.361a3.418,3.418,0,0,1,3.48,3.48v58.578A3.418,3.418,0,0,1,163.741,335.138Z" transform="translate(-69.9 -269.6)" fill="#88d4ef"/>
              <rect id="Rectangle_59" data-name="Rectangle 59" width="55.562" height="87.345" transform="translate(92.378 5.015) rotate(90)" fill="#524cb3"/>
              <path id="Path_21" data-name="Path 21" d="M110.6,292.408a7.308,7.308,0,1,0,7.308-7.308A7.428,7.428,0,0,0,110.6,292.408Z" transform="translate(-63.39 -267.121)" fill="#e6ca76"/>
            </g>
          </g>
          <path id="Path_22" data-name="Path 22" d="M161.545,320.247l-21.923-22.039-15.428,15.427L92.759,282.2,74.2,300.643V328.25h87.345Z" transform="translate(-69.212 -267.584)" fill="#fff"/>
        </g>
        <g id="Group_49" data-name="Group 49" transform="translate(278.507 21.343)">
          <line id="Line_1" data-name="Line 1" y2="9.164" transform="translate(4.524)" fill="none" stroke="#88d4ef" stroke-linecap="round" stroke-linejoin="round" stroke-miterlimit="10" stroke-width="4"/>
          <line id="Line_2" data-name="Line 2" x1="9.164" transform="translate(0 4.64)" fill="none" stroke="#88d4ef" stroke-linecap="round" stroke-linejoin="round" stroke-miterlimit="10" stroke-width="4"/>
        </g>
        <g id="Group_50" data-name="Group 50" transform="translate(474.193 125.856)">
          <line id="Line_3" data-name="Line 3" y2="9.28" transform="translate(4.64)" fill="none" stroke="#88d4ef" stroke-linecap="round" stroke-linejoin="round" stroke-miterlimit="10" stroke-width="4"/>
          <line id="Line_4" data-name="Line 4" x1="9.164" transform="translate(0 4.64)" fill="none" stroke="#88d4ef" stroke-linecap="round" stroke-linejoin="round" stroke-miterlimit="10" stroke-width="4"/>
        </g>
        <g id="Group_51" data-name="Group 51" transform="translate(148.591 255.54)">
          <line id="Line_5" data-name="Line 5" y2="9.28" transform="translate(4.64)" fill="none" stroke="#88d4ef" stroke-linecap="round" stroke-linejoin="round" stroke-miterlimit="10" stroke-width="4"/>
          <line id="Line_6" data-name="Line 6" x1="9.164" transform="translate(0 4.64)" fill="none" stroke="#88d4ef" stroke-linecap="round" stroke-linejoin="round" stroke-miterlimit="10" stroke-width="4"/>
        </g>
        <path id="Path_23" data-name="Path 23" d="M187.2,308.552A2.552,2.552,0,1,1,184.652,306,2.575,2.575,0,0,1,187.2,308.552Z" transform="translate(-12.745 -53.94)" fill="#fff"/>
        <path id="Path_24" data-name="Path 24" d="M195.416,311.908a1.508,1.508,0,1,1-1.508-1.508A1.462,1.462,0,0,1,195.416,311.908Z" transform="translate(-11.098 -53.236)" fill="#fff"/>
        <circle id="Ellipse_2" data-name="Ellipse 2" cx="4.06" cy="4.06" r="4.06" transform="translate(15.312 218.421)" fill="#dee6fc"/>
        <circle id="Ellipse_3" data-name="Ellipse 3" cx="4.64" cy="4.64" r="4.64" transform="translate(412.019 257.744)" fill="#fff"/>
        <g id="Group_52" data-name="Group 52" transform="translate(264.008 11.6)">
          <circle id="Ellipse_4" data-name="Ellipse 4" cx="3.132" cy="3.132" r="3.132" fill="#fff"/>
          <path id="Path_25" data-name="Path 25" d="M295.436,116.368a2.668,2.668,0,1,1-2.668-2.668A2.7,2.7,0,0,1,295.436,116.368Z" transform="translate(-259.477 -96.301)" fill="#fff"/>
          <path id="Path_26" data-name="Path 26" d="M298.544,109.072a1.955,1.955,0,0,1-1.972,1.972,1.888,1.888,0,0,1-1.972-1.972,1.955,1.955,0,0,1,1.972-1.972A1.888,1.888,0,0,1,298.544,109.072Z" transform="translate(-258.757 -97.356)" fill="#fff"/>
        </g>
        <g id="Group_55" data-name="Group 55" transform="translate(227.585 26.795)">
          <g id="Group_54" data-name="Group 54">
            <g id="Group_53" data-name="Group 53">
              <path id="Path_27" data-name="Path 27" d="M233.808,111.8h18.907a1.535,1.535,0,0,1,1.508,1.508v16.7a1.535,1.535,0,0,1-1.508,1.508h-5.684l-3.828,3.828-3.828-3.828h-5.568a1.535,1.535,0,0,1-1.508-1.508v-16.7A1.535,1.535,0,0,1,233.808,111.8Z" transform="translate(-232.3 -111.8)" fill="#e488c7"/>
            </g>
          </g>
          <path id="Path_28" data-name="Path 28" d="M246.68,118.5a2.522,2.522,0,0,0-3.48,0l-.812.812-.812-.812a2.461,2.461,0,1,0-3.48,3.48l4.176,4.176,4.176-4.176A2.339,2.339,0,0,0,246.68,118.5Z" transform="translate(-231.484 -110.84)" fill="#f9f9f9"/>
        </g>
        <g id="Group_56" data-name="Group 56" transform="translate(358.253 236.547)">
          <circle id="Ellipse_5" data-name="Ellipse 5" cx="15.659" cy="15.659" r="15.659" transform="translate(0 30.884) rotate(-80.427)" fill="#88d4ef"/>
          <path id="Path_29" data-name="Path 29" d="M361.924,299.3A10.347,10.347,0,0,0,351.6,309.624a10.224,10.224,0,0,0,1.74,5.684,1.128,1.128,0,0,1,.116,1.044l-1.044,2.9,2.9-1.044a1.127,1.127,0,0,1,1.044.116,10.6,10.6,0,0,0,5.684,1.74,10.347,10.347,0,0,0,10.324-10.324A10.546,10.546,0,0,0,361.924,299.3Zm.7,12.76-1.74-1.74-3.712,1.74,3.944-4.872,1.972,2.436,3.6-2.436Z" transform="translate(-343.884 -291.559)" fill="#fff"/>
        </g>
        <g id="Group_58" data-name="Group 58" transform="translate(336.041 11.206)">
          <g id="Group_57" data-name="Group 57">
            <path id="Path_30" data-name="Path 30" d="M334.384,98.522l-8.352,8.7a.886.886,0,0,0-.232.58v7.656a.793.793,0,0,0,.812.812H332.3a.793.793,0,0,0,.812-.812v-3.712a1.955,1.955,0,0,1,1.972-1.972h0a1.955,1.955,0,0,1,1.972,1.972v3.712a.793.793,0,0,0,.812.812h5.684a.793.793,0,0,0,.812-.812V107.8c0-.232-.116-.348-.232-.58l-8.352-8.584A1.243,1.243,0,0,0,334.384,98.522Z" transform="translate(-325.8 -98.361)" fill="#70c4ea"/>
          </g>
        </g>
        <g id="Group_59" data-name="Group 59" transform="translate(0.232 216.449)">
          <path id="Path_31" data-name="Path 31" d="M64.255,307.663H40.708a4.406,4.406,0,0,1-4.408-4.408V279.708a4.406,4.406,0,0,1,4.408-4.408H64.255a4.406,4.406,0,0,1,4.408,4.408v23.547A4.406,4.406,0,0,1,64.255,307.663Z" transform="translate(-36.3 -275.3)" fill="#f0ca76"/>
          <path id="Path_32" data-name="Path 32" d="M62.243,299.007,57.835,294.6a9.269,9.269,0,1,0-7.656,4.06,8.73,8.73,0,0,0,5.22-1.624l4.408,4.408Zm-11.948-3.6a6.032,6.032,0,1,1,6.032-6.032A6.064,6.064,0,0,1,50.3,295.411Z" transform="translate(-35.564 -274.532)" fill="#fff"/>
        </g>
      </g>
    </g>
  </g>
</svg>
