<svg xmlns="http://www.w3.org/2000/svg" width="449.115" height="335.8" viewBox="0 0 449.115 335.8">
  <g id="_445821-PF5LWD-853" data-name="445821-PF5LWD-853" transform="translate(-28.285 -81.5)">
    <g id="Group_110" data-name="Group 110">
      <ellipse id="Ellipse_6" data-name="Ellipse 6" cx="38.6" cy="3.6" rx="38.6" ry="3.6" transform="translate(142.2 410.1)" fill="#c8dbfb"/>
      <ellipse id="Ellipse_7" data-name="Ellipse 7" cx="38.6" cy="3.6" rx="38.6" ry="3.6" transform="translate(340.8 410.1)" fill="#c8dbfb"/>
      <g id="Group_65" data-name="Group 65">
        <g id="Group_64" data-name="Group 64">
          <g id="Group_63" data-name="Group 63">
            <path id="Path_39" data-name="Path 39" d="M461,159.5a14.162,14.162,0,0,0-.4-2" fill="none" stroke="#c8dbfb" stroke-linecap="round" stroke-linejoin="round" stroke-width="1"/>
            <path id="Path_40" data-name="Path 40" d="M459.7,153.6c-6.9-23.5-28.9-21.2-48.7-21.2-21.4,0-352.5.7-352.5.7-33.3.1-30.1,48.1-4,48.1,15,0,20.7,28.1-5.2,28.2-15.5,0-16,19.7-5.6,23.7" fill="none" stroke="#c8dbfb" stroke-linecap="round" stroke-linejoin="round" stroke-width="1" stroke-dasharray="3.993 3.993"/>
            <path id="Path_41" data-name="Path 41" d="M45.6,233.6a12.31,12.31,0,0,0,2,.2" fill="none" stroke="#c8dbfb" stroke-linecap="round" stroke-linejoin="round" stroke-width="1"/>
          </g>
        </g>
        <path id="Path_42" data-name="Path 42" d="M51.6,232.8a4.768,4.768,0,1,1-5.5-3.9A4.771,4.771,0,0,1,51.6,232.8Z" fill="#5193f4"/>
        <path id="Path_43" data-name="Path 43" d="M465.7,161.6a4.825,4.825,0,1,1-3.9-5.6A4.774,4.774,0,0,1,465.7,161.6Z" fill="#5193f4"/>
      </g>
      <g id="Group_83" data-name="Group 83">
        <g id="Group_66" data-name="Group 66">
          <path id="Path_44" data-name="Path 44" d="M100.4,197.8a86.491,86.491,0,0,1-2.9,11.4c-2.6,8.1-6.3,15.9-10,23.6-1.9,4-9.8,13.3-14,15.1a218.16,218.16,0,0,0-.7-33.3c-1.2-10.2,2.5-17.9-1.5-27.4-.5-1.2-1-2.4-1.6-3.6-2-4.5-4-9-4.6-13.9-.8-6.1,1.1-13.2,6.4-16.4,3.8-2.3,8.8-2.2,12.9-.4a24.018,24.018,0,0,1,9.9,8.8C101.4,172.2,102.6,185.6,100.4,197.8Z" fill="#5193f4"/>
          <path id="Path_45" data-name="Path 45" d="M81.8,163.9c7.8,11.1,8.5,23.9,9.2,37.5a72,72,0,0,1-9.3,39" fill="none" stroke="#0b43a4" stroke-linecap="round" stroke-linejoin="round" stroke-miterlimit="10" stroke-width="1"/>
        </g>
        <g id="Group_67" data-name="Group 67">
          <path id="Path_46" data-name="Path 46" d="M81.5,367.8c-5.5-4.8-11-9.8-15.1-15.9-3.5-5.3-5.8-11.3-8.9-16.9-2-3.6-4.3-7.1-5.5-11.1s-.9-8.7,1.9-11.7c2.9-3.1,8-3.6,12-2s7,5,9.4,8.6a40,40,0,0,1,6,15.9c.8,5.1.6,10.4,1.4,15.5a46.728,46.728,0,0,0,4.4,13.7c1.8,4,6.5,11,7.7,15.1C91.5,380.8,83.9,369.9,81.5,367.8Z" fill="#00ad9f"/>
          <path id="Path_47" data-name="Path 47" d="M62.3,317.6c5.2,2.3,7.3,8.5,8.4,14.1,1.2,6.4,1,13.3,3.9,19,5.5,10.9,12.7,23.3,18,27" fill="none" stroke="#00ad9f" stroke-linecap="round" stroke-linejoin="round" stroke-miterlimit="10" stroke-width="1"/>
        </g>
        <g id="Group_68" data-name="Group 68">
          <path id="Path_48" data-name="Path 48" d="M54.5,352.9c-4.6-1.8-10.6-2.5-13.6,1.4-2.4,3.3-1.2,8,.5,11.7,1.4,3.2,3.2,6.4,6.2,8.1a18.076,18.076,0,0,0,6.8,1.8A143.689,143.689,0,0,0,74.1,377a41.27,41.27,0,0,1,23.2,7.9C89.4,369.8,69.8,359,54.5,352.9Z" fill="#0056ec"/>
          <path id="Path_49" data-name="Path 49" d="M46.5,362.7A71.247,71.247,0,0,1,63.7,365c5.7,1.7,27.6,11.7,31,16" fill="none" stroke="#0b43a4" stroke-linecap="round" stroke-linejoin="round" stroke-miterlimit="10" stroke-width="1"/>
        </g>
        <g id="Group_69" data-name="Group 69">
          <path id="Path_50" data-name="Path 50" d="M104.2,322a38.292,38.292,0,0,0-27-17.2c-8.1-1.1-16.4.4-24.3-1.3A31.434,31.434,0,0,1,32.6,289a30.962,30.962,0,0,1-3-24.7c1.9-6.2,6.1-12.1,12.3-14.1a19.7,19.7,0,0,1,10.5-.1,30.085,30.085,0,0,1,8.8,3.8c6.2,3.9,11.2,10,15,16.4,3.4,5.9,11.9,15,17.7,20.9,3.4,3.5,5.8,5.8,5.8,5.8C103.7,302,101.9,316.1,104.2,322Z" fill="#52d2bc"/>
          <path id="Path_51" data-name="Path 51" d="M40.1,268.2c19.4,8.7,40.5,20.2,54.2,36.4" fill="none" stroke="#00ad9f" stroke-linecap="round" stroke-linejoin="round" stroke-miterlimit="10" stroke-width="1"/>
        </g>
        <g id="Group_70" data-name="Group 70">
          <path id="Path_52" data-name="Path 52" d="M96.2,302.4S67.3,279,61.3,253.9c6.2,3.9,11.2,10,15,16.4,3.4,5.9,11.9,15,17.7,20.9C94.6,294.4,95.4,298,96.2,302.4Z" fill="#5275a0" opacity="0.2"/>
          <path id="Path_53" data-name="Path 53" d="M97.5,209.3c-2.6,8.1-6.3,15.9-10,23.6-1.9,4-9.8,13.3-14,15.1a218.16,218.16,0,0,0-.7-33.3c-1.2-10.2,2.5-17.9-1.5-27.4-.5-1.2-1-2.4-1.6-3.6a4.875,4.875,0,0,1,1.1.4c6.6,2.8,9.6,9.8,10.2,16.5.5,5.6-.5,11.2-1.3,16.7a24.9,24.9,0,0,0-.1,7.7v.1a2.869,2.869,0,0,0,5.6-.2l1.8-9.3c.5-2.8,1.1-5.7,3.4-7.6a4.9,4.9,0,0,1,3.2-1.2A4.254,4.254,0,0,1,97.5,209.3Z" fill="#5275a0" opacity="0.2"/>
          <path id="Path_54" data-name="Path 54" d="M96.2,296.5c-4.6-23.8-7-27.5-5-33.4,2.6-7.6,1.1-15.3,3.5-22.9,2.4-7.7,4.1-15.9,2.1-23.7-.6-2.5-1.9-5.1-4.8-5.2a4.717,4.717,0,0,0-3.2,1.2c-2.3,1.9-2.9,4.9-3.4,7.6l-1.7,9.3a2.869,2.869,0,0,1-5.6.2v-.1a19.979,19.979,0,0,1,.1-7.7c.7-5.6,1.8-11.1,1.3-16.7-.6-6.8-3.6-13.7-10.2-16.5a11.763,11.763,0,0,0-7.4-.6c-6.9,1.8-8.7,8.5-7.6,14.2.7,4,2.6,7.7,4.3,11.5,4.2,9.1,1.1,17.4,1.7,27.4C61.8,268.7,96.2,296.5,96.2,296.5Z" fill="#7ee8d4"/>
          <path id="Path_55" data-name="Path 55" d="M65.5,195.2c3.4,16.9,6.8,34,13.4,50,1.9,4.7,2.9,10.8,14,23.6" fill="none" stroke="#00ad9f" stroke-linecap="round" stroke-linejoin="round" stroke-miterlimit="10" stroke-width="1"/>
        </g>
        <g id="Group_71" data-name="Group 71">
          <path id="Path_56" data-name="Path 56" d="M197.8,199.5c-3.5-4-6.8-8.1-10.2-12-2.2-2.5-4.5-5-7-7.4-1.2-1.2-2.5-2.3-3.8-3.4a108.3,108.3,0,0,0-26.2-16c-5.7-2.4-11.7-4.4-16.6-8.3-4.8-3.9-8.3-10.3-6.7-16.2a14.157,14.157,0,0,1,9.1-9.2,24.664,24.664,0,0,1,13.2-.5c12.2,2.6,22.4,11.4,29.3,21.8a2.092,2.092,0,0,0,.4.6c5.1,7.8,8.6,16.4,11.7,25.1,1,2.8,1.9,5.7,2.9,8.5C195.3,186.6,199.6,195.3,197.8,199.5Z" fill="#5193f4"/>
          <path id="Path_57" data-name="Path 57" d="M142,136.6c13.3,2.5,22.7,11.4,32.6,20.6A72.063,72.063,0,0,1,195,191.7" fill="none" stroke="#0b43a4" stroke-linecap="round" stroke-linejoin="round" stroke-miterlimit="10" stroke-width="1"/>
        </g>
        <g id="Group_72" data-name="Group 72">
          <path id="Path_58" data-name="Path 58" d="M187.6,187.5a14.824,14.824,0,0,0,.2,4.2c-3.3-.8-5.6-5.9-7.2-11.6a96.425,96.425,0,0,1-2.5-14.1,62.783,62.783,0,0,1,1.1-17.3c5.1,7.8,8.6,16.4,11.7,25.1a80.51,80.51,0,0,0-2.7,9.6C188,184.8,187.7,186.1,187.6,187.5Z" fill="#5275a0" opacity="0.2"/>
          <path id="Path_59" data-name="Path 59" d="M210.7,139.5c-1.1,5-4.1,9.3-6.8,13.7-1.4,2.3-2.7,4.7-3.9,7.1a109.829,109.829,0,0,0-8.9,24.2,20.694,20.694,0,0,0-.5,8.2c-6.6-1.5-9.2-20.1-9.6-25.7a60.642,60.642,0,0,1,5-29.4c1.8-4,4.1-8,7.7-10.5,3.6-2.6,8.6-3.5,12.4-1.2a9.8,9.8,0,0,1,4.4,6.1A14.652,14.652,0,0,1,210.7,139.5Z" fill="#52d2bc"/>
          <path id="Path_60" data-name="Path 60" d="M188.1,187.2c-4.1-10.2-1.6-31.9,4.9-45.6,2-4.1,4.8-8,8.7-10.3" fill="none" stroke="#00ad9f" stroke-linecap="round" stroke-linejoin="round" stroke-miterlimit="10" stroke-width="1"/>
        </g>
        <g id="Group_73" data-name="Group 73">
          <path id="Path_61" data-name="Path 61" d="M210.7,139.5c-1.1,5-4.1,9.3-6.8,13.7-1.4,2.3-2.7,4.7-3.9,7.1a24.943,24.943,0,0,1-3.4-9.8c-.6-5.8,1.7-12,6.4-15.5a16.828,16.828,0,0,1,7.5-2.9A14.239,14.239,0,0,1,210.7,139.5Z" fill="#5275a0" opacity="0.2"/>
          <path id="Path_62" data-name="Path 62" d="M248.6,182.9a21.873,21.873,0,0,1-1.7,5.5c-2.9,6.3-9,11.7-18.2,16.1,0,0-.5-10-.6-12.6-.4-11.4-12.8-17.7-20.7-26.1a26.87,26.87,0,0,1-7.6-15.4c-.6-5.8,1.7-12,6.4-15.5,4-2.9,9.1-3.5,14-3.1,7.9.6,15.8,3.9,20.7,10.1.2.2.4.5.6.7,3,4.1,4.5,9.1,5.7,14C249.1,165.2,250,174.2,248.6,182.9Z" fill="#00ad9f"/>
          <path id="Path_63" data-name="Path 63" d="M209.6,141.1c8.6,4.4,17.2,9.8,22.2,18.1,7,11.5,5.4,26.5.1,38.9" fill="none" stroke="#00ad9f" stroke-linecap="round" stroke-linejoin="round" stroke-miterlimit="10" stroke-width="1"/>
        </g>
        <g id="Group_74" data-name="Group 74">
          <path id="Path_64" data-name="Path 64" d="M392.1,256.5c5.5-9,2.7-20.6,4.6-30.9a34.634,34.634,0,0,1,12.2-20.4c4-3.2,9.6-5.4,14.1-3,1,.5,2.1,1.2,3.1.7a2.075,2.075,0,0,0,.9-1.7c1.1-5.6-1.5-11.7.6-17a15.184,15.184,0,0,1,6.2-6.6,34.308,34.308,0,0,1,16.8-5.3,8.943,8.943,0,0,1,4.6.7c2.5,1.3,3.7,4.4,3.4,7.3-.3,2.8-1.9,5.3-3.6,7.6-5.7,7.5-14.2,14-15.3,23.4a6.923,6.923,0,0,0,.4,3.5c.5,1,1.5,1.8,2.1,2.8,1.8,3.2-1.6,6.9-5,8.5a27.562,27.562,0,0,1-9.7,2.7c-2.3.2-4.9.3-6.5,2-2.9,3.2.4,8.2-.2,12.5-.4,2.7-2.3,4.8-4.2,6.6a80.337,80.337,0,0,1-11.7,9.2c-3.4,2.2-7,4.1-10,6.8s-5.4,6.3-5.6,10.3" fill="#52d2bc"/>
          <path id="Path_65" data-name="Path 65" d="M399.3,247.8c.9-4.4,2.9-8.4,4.9-12.4,3.1-6.2,6.3-12.5,11.1-17.6,3.6-3.9,8-6.9,11.7-10.7a42.316,42.316,0,0,0,6.6-9.1,34.447,34.447,0,0,1,3-5.3c1.5-1.9,3.6-3.2,5.4-4.9a23.513,23.513,0,0,0,5.7-7.9" fill="none" stroke="#00ad9f" stroke-linecap="round" stroke-linejoin="round" stroke-miterlimit="10" stroke-width="1"/>
        </g>
        <g id="Group_75" data-name="Group 75">
          <path id="Path_66" data-name="Path 66" d="M470.6,262.8a34.115,34.115,0,0,1-6.2,13.2,29.609,29.609,0,0,1-7.8,6.3,40.857,40.857,0,0,1-4.7,2.3,58.7,58.7,0,0,1-19.8,4.4c-9.9.4-20-1.8-29.5,1a27.254,27.254,0,0,0-11.6,6.8,27.549,27.549,0,0,0-5.2,6.6l1.3-8.2c2.4-8.8,4.8-17.8,9.7-25.5a64.254,64.254,0,0,1,11.6-13.4,97.76,97.76,0,0,1,23.2-16.2c6.9-3.3,14.5-5.7,22.1-4.8s15,5.7,17.4,13C472.5,252.9,471.8,258,470.6,262.8Z" fill="#5193f4"/>
          <path id="Path_67" data-name="Path 67" d="M393.4,288.9a60.238,60.238,0,0,1,30.4-23.1c7.7-2.6,15.8-3.5,23.5-5.8,7.8-2.2,15.5-6,20.1-12.7" fill="none" stroke="#0b43a4" stroke-linecap="round" stroke-linejoin="round" stroke-miterlimit="10" stroke-width="1"/>
        </g>
        <g id="Group_76" data-name="Group 76">
          <path id="Path_68" data-name="Path 68" d="M398.2,367.6c.4-11,6.1-21.2,13.1-29.8,5.8-7.2,12.7-13.7,21.3-17,2.7-1,5.7-1.7,8.5-1s5.3,3.1,5.4,6c0,2.4-1.6,4.6-3.3,6.3-5.7,5.7-13,9.3-19.8,13.4-11.8,7.1-23,16.6-27.7,29.6" fill="#52d2bc"/>
          <path id="Path_69" data-name="Path 69" d="M402.5,358c7.2-16.1,25.8-30.4,38.1-32.2" fill="none" stroke="#00ad9f" stroke-linecap="round" stroke-linejoin="round" stroke-miterlimit="10" stroke-width="1"/>
        </g>
        <g id="Group_77" data-name="Group 77">
          <path id="Path_70" data-name="Path 70" d="M393.7,376.4c-.1-1.8,5.9-6.7,7.3-7.9a70.717,70.717,0,0,1,25.9-14.8c3.8-1.2,7.9-2.1,11.7-1.1,3.8.9,7.3,4.1,7.7,8.2.4,4-2.3,7.9-5.7,9.9-3.4,1.9-7.4,2.2-11.3,2-5.9-.3-11.7-1.8-17.6-1.8S397.4,371.5,393.7,376.4Z" fill="#00ad9f"/>
          <path id="Path_71" data-name="Path 71" d="M399.8,370.8c12.1-6.6,30.4-10.8,43.7-9.2" fill="none" stroke="#00ad9f" stroke-linecap="round" stroke-linejoin="round" stroke-miterlimit="10" stroke-width="1"/>
        </g>
        <g id="Group_79" data-name="Group 79">
          <path id="Path_72" data-name="Path 72" d="M248.6,182.9a21.873,21.873,0,0,1-1.7,5.5,97.2,97.2,0,0,1-8.9-35.2,19.728,19.728,0,0,1,2.9-11.3c.2.2.4.5.6.7,3,4.1,4.5,9.1,5.7,14C249.1,165.2,250,174.2,248.6,182.9Z" fill="#5275a0" opacity="0.2"/>
          <path id="Path_73" data-name="Path 73" d="M290.5,182.4c9-3.2,18.4-5.8,26.7-10.7a22.046,22.046,0,0,0,6.6-5.5,11.379,11.379,0,0,0,2.5-8.1c-.4-2.9-2.3-5.7-1.6-8.6.4-1.9,1.8-3.4,2.9-5a15.614,15.614,0,0,0,2-13.3c-1.4-4.8-5-8.6-7-13.1a21.2,21.2,0,0,1-1.7-11.9c-7.6.1-14.5,4.2-22,5.6-5.7,1.1-11.6.5-17.3,1.8a27.234,27.234,0,0,0-20.3,21.9,15.314,15.314,0,0,0-13.3,4.4,19.817,19.817,0,0,0-5.2,14.3c2.3,37.4,23.8,57,23.8,57S287,183.6,290.5,182.4Z" fill="#7ee8d4"/>
          <g id="Group_78" data-name="Group 78">
            <path id="Path_74" data-name="Path 74" d="M270.2,182.1c-.9-9.2,2.3-18.4,6-26.9,3.6-8.3,7.8-16.4,13.3-23.5,5.6-7.1,12.7-13.2,21-16.7" fill="none" stroke="#00ad9f" stroke-linecap="round" stroke-linejoin="round" stroke-miterlimit="10" stroke-width="1"/>
            <path id="Path_75" data-name="Path 75" d="M278.3,120.7a74.8,74.8,0,0,0,1.9,26.2" fill="none" stroke="#00ad9f" stroke-linecap="round" stroke-linejoin="round" stroke-miterlimit="10" stroke-width="1"/>
            <path id="Path_76" data-name="Path 76" d="M281.7,143.9c9.4-6,23.9-9.7,35-9.1" fill="none" stroke="#00ad9f" stroke-linecap="round" stroke-linejoin="round" stroke-miterlimit="10" stroke-width="1"/>
            <path id="Path_77" data-name="Path 77" d="M258.7,145.4c11.3,4.8,11.8,21.4,12.1,26.1" fill="none" stroke="#00ad9f" stroke-linecap="round" stroke-linejoin="round" stroke-miterlimit="10" stroke-width="1"/>
            <path id="Path_78" data-name="Path 78" d="M273.9,161c8.7-6.2,21.2-8.1,30.4-5.8" fill="none" stroke="#00ad9f" stroke-linecap="round" stroke-linejoin="round" stroke-miterlimit="10" stroke-width="1"/>
            <path id="Path_79" data-name="Path 79" d="M297.5,116.4a13.476,13.476,0,0,0-3,9.7" fill="none" stroke="#00ad9f" stroke-linecap="round" stroke-linejoin="round" stroke-miterlimit="10" stroke-width="1"/>
            <path id="Path_80" data-name="Path 80" d="M297,123.8c4-2,9.3-2.5,15-1.1" fill="none" stroke="#00ad9f" stroke-linecap="round" stroke-linejoin="round" stroke-miterlimit="10" stroke-width="1"/>
          </g>
        </g>
        <g id="Group_80" data-name="Group 80">
          <path id="Path_81" data-name="Path 81" d="M74.3,141.9c1.1-.1,8.3-5.4,11.1-7.2a6.107,6.107,0,0,0,2.1-1.8,2.756,2.756,0,0,0,.4-2.6,3.278,3.278,0,0,0-3.4-2.1c-3.6,0-4.9,1.2-6.6,3C72.1,137.1,74.3,141.9,74.3,141.9Z" fill="#4a49ca"/>
          <path id="Path_82" data-name="Path 82" d="M106.8,163.5c3.2,1.4,6.5,2.8,10,2.4,1.3-.2,2.8-.8,3.2-2a2.908,2.908,0,0,0-1-3.1,7.269,7.269,0,0,0-3.1-1.4c-4.2-1-10.1-.5-14.3.7A32.75,32.75,0,0,0,106.8,163.5Z" fill="#4a49ca"/>
          <path id="Path_83" data-name="Path 83" d="M127.6,116.9c-1.4-.9-3-2.1-3-3.7,0-1.7,1.7-2.9,3.4-3a7.141,7.141,0,0,1,4.5,2c5.3,4.7,4.7,10,4.7,10S129.2,117.9,127.6,116.9Z" fill="#4a49ca"/>
          <path id="Path_84" data-name="Path 84" d="M131.8,102.6a6.79,6.79,0,0,1-3.2-2.3,1.911,1.911,0,0,1-.3-1.9c.4-1,1-2,3.6-1.5,8.2,1.5,10,7.1,10,7.1S134,103.6,131.8,102.6Z" fill="#4a49ca"/>
          <path id="Path_85" data-name="Path 85" d="M156,115.1a13.039,13.039,0,0,0,8.8-4.5,8.907,8.907,0,0,0,1.8-3.3,3.564,3.564,0,0,0-1-3.5,3.761,3.761,0,0,0-4.3,0,8.39,8.39,0,0,0-2.8,3.6C157.7,109.3,156,115.1,156,115.1Z" fill="#4a49ca"/>
          <path id="Path_86" data-name="Path 86" d="M96.9,235.8c-8-7.1-16-14.1-24-21.2-4.3-3.8-8.6-7.6-11.3-12.6-5.8-10.8-2.5-24.8,5.4-34.1,7.9-9.4,19.4-14.9,30.9-19,11.6-4,23.6-6.9,34.6-12.2,6.9-3.3,13.9-8.3,15.7-15.8a15.654,15.654,0,0,0-14.3-19.6" fill="none" stroke="#0b43a4" stroke-linecap="round" stroke-linejoin="round" stroke-miterlimit="10" stroke-width="1"/>
          <path id="Path_87" data-name="Path 87" d="M161.6,107.5c-2.2,6.7-10.7,10.8-14.6,16.6" fill="none" stroke="#0b43a4" stroke-linecap="round" stroke-linejoin="round" stroke-miterlimit="10" stroke-width="1"/>
          <path id="Path_88" data-name="Path 88" d="M131,115.2c1.7,1.8,3.7,3.2,5.2,5.2a11.273,11.273,0,0,1-1.2,15" fill="none" stroke="#0b43a4" stroke-linecap="round" stroke-linejoin="round" stroke-miterlimit="10" stroke-width="1"/>
          <path id="Path_89" data-name="Path 89" d="M87.8,152.8c7.1,5.4,16.4,9.1,25.3,9.4" fill="none" stroke="#0b43a4" stroke-linecap="round" stroke-linejoin="round" stroke-miterlimit="10" stroke-width="1"/>
          <path id="Path_90" data-name="Path 90" d="M71.6,162.7A24.888,24.888,0,0,1,80,135.5" fill="none" stroke="#0b43a4" stroke-linecap="round" stroke-linejoin="round" stroke-miterlimit="10" stroke-width="1"/>
        </g>
        <g id="Group_81" data-name="Group 81">
          <path id="Path_91" data-name="Path 91" d="M330,122.2a3.382,3.382,0,0,1,.5-3.5,2.655,2.655,0,0,1,2.8-.6c7,3.1,6.3,14.1,6.3,14.1S332.9,131.1,330,122.2Z" fill="#4a49ca"/>
          <path id="Path_92" data-name="Path 92" d="M329.9,142.7c-4.5,8.2,11.6,7.6,17.4,2.8C347.3,145.5,333.8,135.7,329.9,142.7Z" fill="#4a49ca"/>
          <path id="Path_93" data-name="Path 93" d="M350.3,122.8c-1.1-1.5-1.5-3.7-.3-5.2a3.793,3.793,0,0,1,3.8-1.1,9.1,9.1,0,0,1,4.3,2.6,13.913,13.913,0,0,1,2.8,13.1S352.1,125.3,350.3,122.8Z" fill="#4a49ca"/>
          <path id="Path_94" data-name="Path 94" d="M414.5,143.2a3.53,3.53,0,0,1,.7-3.7,2.9,2.9,0,0,1,2.4-.7,10.884,10.884,0,0,1,2.4.7,8.279,8.279,0,0,1,3.7,3.7c2,4.1.6,9.2.6,9.2S415.5,146.4,414.5,143.2Z" fill="#4a49ca"/>
          <path id="Path_95" data-name="Path 95" d="M394.3,158.2a10.22,10.22,0,0,0-10.7-1.7,5.547,5.547,0,0,0-2.3,1.7c-1.3,1.8-.8,4.3.5,6.1a13.375,13.375,0,0,0,5.3,3.7c3.6,1.6,9.2,2,13,2.9C400.1,170.9,400.1,163.3,394.3,158.2Z" fill="#4a49ca"/>
          <path id="Path_96" data-name="Path 96" d="M335.1,124c2.4,7.8,9.1,13.7,16.6,16.8,7.5,3.2,15.7,4,23.9,4.5,8.1.5,16.3.8,24.2,2.9,7.7,2.1,15.3,6.4,18.6,13.6,4,8.8.5,19.3-5.2,27.1-5.6,7.9-13.2,14.2-18.6,22.2-2.5,3.7-4.6,8-4.1,12.4.7,5.9,5.6,10.2,10.2,13.9" fill="none" stroke="#0b43a4" stroke-linecap="round" stroke-linejoin="round" stroke-miterlimit="10" stroke-width="1"/>
          <path id="Path_97" data-name="Path 97" d="M353.8,121.1a46.309,46.309,0,0,1,10.7,23.2" fill="none" stroke="#0b43a4" stroke-linecap="round" stroke-linejoin="round" stroke-miterlimit="10" stroke-width="1"/>
          <path id="Path_98" data-name="Path 98" d="M335.7,144.1a37.778,37.778,0,0,0,9.4,1.6,14.562,14.562,0,0,0,9.2-4" fill="none" stroke="#0b43a4" stroke-linecap="round" stroke-linejoin="round" stroke-miterlimit="10" stroke-width="1"/>
          <path id="Path_99" data-name="Path 99" d="M419.8,143.6a16.07,16.07,0,0,1,4.8,10.7c.1,4-2.1,8.9-4.7,11.9" fill="none" stroke="#0b43a4" stroke-linecap="round" stroke-linejoin="round" stroke-miterlimit="10" stroke-width="1"/>
          <path id="Path_100" data-name="Path 100" d="M389.6,161.8a165.22,165.22,0,0,0,17.2,14.1c2.9,2.1,8.7,4.7,11.3,4" fill="none" stroke="#0b43a4" stroke-linecap="round" stroke-linejoin="round" stroke-miterlimit="10" stroke-width="1"/>
        </g>
        <g id="Group_82" data-name="Group 82">
          <path id="Path_101" data-name="Path 101" d="M456.5,282.3a40.857,40.857,0,0,1-4.7,2.3A58.7,58.7,0,0,1,432,289c-9.9.4-20-1.8-29.5,1a27.254,27.254,0,0,0-11.6,6.8c-.3.2-.7.3-1,.5-.8-6.7,15.9-15.4,21-17.7a60.51,60.51,0,0,1,29.4-5.1c4.4.4,8.9,1.2,12.5,3.7A12.251,12.251,0,0,1,456.5,282.3Z" fill="#5275a0" opacity="0.2"/>
          <path id="Path_102" data-name="Path 102" d="M440.2,278.4c4.4.3,8.9,1.2,12.5,3.7s6.2,6.9,5.3,11.3c-1,5-6.2,8.3-11.2,8.9s-10.2-.8-15.2-1.8a106.51,106.51,0,0,0-33.8-1.5,19.539,19.539,0,0,0-7.9,2.3c-.8-6.7,15.9-15.4,21-17.7A60.185,60.185,0,0,1,440.2,278.4Z" fill="#52d2bc"/>
          <path id="Path_103" data-name="Path 103" d="M394.2,297c8.3-7.3,29.5-12.2,44.6-10.6,4.5.5,9.1,1.8,12.6,4.8" fill="none" stroke="#00ad9f" stroke-linecap="round" stroke-linejoin="round" stroke-miterlimit="10" stroke-width="1"/>
        </g>
      </g>
      <path id="Path_104" data-name="Path 104" d="M378.8,215.2l80.9-.2a17.2,17.2,0,0,1,17.2,17.2h0a17.2,17.2,0,0,1-17.2,17.2l-55.3.1" fill="none" stroke="#0b43a4" stroke-linecap="round" stroke-linejoin="round" stroke-miterlimit="10" stroke-width="1" stroke-dasharray="4"/>
      <path id="Path_105" data-name="Path 105" d="M134,274.6l-56.6.1a9.709,9.709,0,0,0-9.7,9.7h0a9.709,9.709,0,0,0,9.7,9.7H93.9" fill="none" stroke="#0b43a4" stroke-linecap="round" stroke-linejoin="round" stroke-miterlimit="10" stroke-width="1" stroke-dasharray="4"/>
      <g id="Group_84" data-name="Group 84">
        <path id="Path_106" data-name="Path 106" d="M43.7,318.4c-19.4,0-19.8,28.9,4.9,28.9,24.7-.1,348.1-.7,363.4-.7s16.9-23.8-2-23.8c-37.5.1-38.8-17.8-17.9-17.9" fill="none" stroke="#c8dbfb" stroke-linecap="round" stroke-linejoin="round" stroke-miterlimit="10" stroke-width="1" stroke-dasharray="4"/>
        <path id="Path_107" data-name="Path 107" d="M48.3,317.6a4.768,4.768,0,1,1-5.5-3.9A4.88,4.88,0,0,1,48.3,317.6Z" fill="#5193f4"/>
        <path id="Path_108" data-name="Path 108" d="M401.3,305a4.768,4.768,0,1,1-5.5-3.9A4.771,4.771,0,0,1,401.3,305Z" fill="#0b43a4"/>
      </g>
      <g id="Group_108" data-name="Group 108">
        <path id="Path_109" data-name="Path 109" d="M406.6,388.6l-300.9.6a7.277,7.277,0,0,1-7.3-7.3L98,182.6a7.277,7.277,0,0,1,7.3-7.3l300.9-.6a7.277,7.277,0,0,1,7.3,7.3l.4,199.3A7.407,7.407,0,0,1,406.6,388.6Z" fill="#5275a0" opacity="0.2"/>
        <g id="Group_87" data-name="Group 87">
          <path id="Path_110" data-name="Path 110" d="M400.7,384.8l-300.9.6a7.277,7.277,0,0,1-7.3-7.3l-.4-199.3a7.277,7.277,0,0,1,7.3-7.3l300.9-.6a7.277,7.277,0,0,1,7.3,7.3l.4,199.3A7.407,7.407,0,0,1,400.7,384.8Z" fill="#fff"/>
          <path id="Path_111" data-name="Path 111" d="M399.7,170.9l-299.6.6a7.917,7.917,0,0,0-7.9,7.9v6.9l315.4-.7v-6.9A7.832,7.832,0,0,0,399.7,170.9Z" fill="#0056ec"/>
          <path id="Path_112" data-name="Path 112" d="M100.5,385.4l45.3-.1-.4-199.1-53.2.1.4,191.2A7.853,7.853,0,0,0,100.5,385.4Z" fill="#c8dbfb"/>
          <g id="Group_85" data-name="Group 85">
            <path id="Path_113" data-name="Path 113" d="M400.3,172.9a5.335,5.335,0,0,1,5.3,5.3l.4,199.3a5.335,5.335,0,0,1-5.3,5.3l-300.9.6a5.335,5.335,0,0,1-5.3-5.3l-.4-199.3a5.135,5.135,0,0,1,1.5-3.7,5.685,5.685,0,0,1,3.7-1.6l301-.6h0m0-2h0l-300.9.6a7.341,7.341,0,0,0-7.3,7.3l.4,199.3a7.341,7.341,0,0,0,7.3,7.3h0l300.9-.6a7.341,7.341,0,0,0,7.3-7.3l-.4-199.3a7.341,7.341,0,0,0-7.3-7.3Z" fill="#0056ec"/>
          </g>
          <path id="Path_114" data-name="Path 114" d="M138.1,370.2l-34.9.1a2.8,2.8,0,0,1-2.8-2.8v-.3a2.8,2.8,0,0,1,2.8-2.8l34.9-.1a2.8,2.8,0,0,1,2.8,2.8v.3A2.734,2.734,0,0,1,138.1,370.2Z" fill="#fff"/>
          <path id="Path_115" data-name="Path 115" d="M133.9,235.1l-29.7.1a5.121,5.121,0,0,1-5.1-5.1L99,200.4a5.121,5.121,0,0,1,5.1-5.1l29.7-.1a5.121,5.121,0,0,1,5.1,5.1L139,230A5,5,0,0,1,133.9,235.1Z" fill="#fff"/>
          <path id="Path_116" data-name="Path 116" d="M261.1,324.1l-103.5.2a3.585,3.585,0,0,1-3.6-3.6v-.5a3.585,3.585,0,0,1,3.6-3.6l103.5-.2a3.585,3.585,0,0,1,3.6,3.6v.5A3.585,3.585,0,0,1,261.1,324.1Z" fill="#c8dbfb"/>
          <path id="Path_117" data-name="Path 117" d="M255.1,206.2l-81.8.2a3.585,3.585,0,0,1-3.6-3.6v-.5a3.585,3.585,0,0,1,3.6-3.6l81.8-.2a3.585,3.585,0,0,1,3.6,3.6v.5A3.585,3.585,0,0,1,255.1,206.2Z" fill="#c8dbfb"/>
          <path id="Path_118" data-name="Path 118" d="M384.4,288.9l-109,.2a3.585,3.585,0,0,1-3.6-3.6V285a3.585,3.585,0,0,1,3.6-3.6l109-.2a3.585,3.585,0,0,1,3.6,3.6v.5A3.585,3.585,0,0,1,384.4,288.9Z" fill="#c8dbfb"/>
          <path id="Path_119" data-name="Path 119" d="M261.1,340.1l-103.5.2a3.585,3.585,0,0,1-3.6-3.6v-.5a3.585,3.585,0,0,1,3.6-3.6l103.5-.2a3.585,3.585,0,0,1,3.6,3.6v.5A3.524,3.524,0,0,1,261.1,340.1Z" fill="#c8dbfb"/>
          <path id="Path_120" data-name="Path 120" d="M261.1,356.1l-103.5.2a3.585,3.585,0,0,1-3.6-3.6v-.5a3.585,3.585,0,0,1,3.6-3.6l103.5-.2a3.585,3.585,0,0,1,3.6,3.6v.5A3.522,3.522,0,0,1,261.1,356.1Z" fill="#c8dbfb"/>
          <path id="Path_121" data-name="Path 121" d="M382.2,366.5l-104.3.2a6.018,6.018,0,0,1-6-6l-.1-44.8a6.018,6.018,0,0,1,6-6l104.3-.2a6.018,6.018,0,0,1,6,6l.1,44.8A6.018,6.018,0,0,1,382.2,366.5Z" fill="#c8dbfb"/>
          <path id="Path_122" data-name="Path 122" d="M109.5,178.8a2.55,2.55,0,1,1-2.6-2.5A2.562,2.562,0,0,1,109.5,178.8Z" fill="#c8dbfb"/>
          <circle id="Ellipse_8" data-name="Ellipse 8" cx="2.5" cy="2.5" r="2.5" transform="translate(115.3 176.3)" fill="#c8dbfb"/>
          <path id="Path_123" data-name="Path 123" d="M131.1,178.8a2.55,2.55,0,1,1-2.6-2.5A2.389,2.389,0,0,1,131.1,178.8Z" fill="#c8dbfb"/>
          <circle id="Ellipse_9" data-name="Ellipse 9" cx="7.4" cy="7.4" r="7.4" transform="translate(150.28 209.235) rotate(-84.28)" fill="#c8dbfb"/>
          <path id="Path_124" data-name="Path 124" d="M136,241.4l-32.6.1a1.367,1.367,0,0,1-1.4-1.4v-.2a1.367,1.367,0,0,1,1.4-1.4l32.6-.1a1.367,1.367,0,0,1,1.4,1.4v.2A1.367,1.367,0,0,1,136,241.4Z" fill="#fff"/>
          <path id="Path_125" data-name="Path 125" d="M136,247.6l-32.6.1a1.367,1.367,0,0,1-1.4-1.4v-.2a1.367,1.367,0,0,1,1.4-1.4l32.6-.1a1.367,1.367,0,0,1,1.4,1.4v.2A1.367,1.367,0,0,1,136,247.6Z" fill="#fff"/>
          <path id="Path_126" data-name="Path 126" d="M173.4,260.8l-9.2.1.1,38.7h-8a5.121,5.121,0,0,1-5.1-5.1L151,223a5.276,5.276,0,0,1,5.1-5.2h17.1Z" fill="#c8dbfb"/>
          <g id="Group_86" data-name="Group 86">
            <path id="Path_127" data-name="Path 127" d="M233.3,217.7v1a4.951,4.951,0,0,1,5,5l.1,69.7a4.951,4.951,0,0,1-5,5l-76.3.2a4.951,4.951,0,0,1-5-5l-.1-69.7a4.951,4.951,0,0,1,5-5l76.3-.2v-1m0,0h0l-76.3.2a6.018,6.018,0,0,0-6,6l.1,69.7a6.018,6.018,0,0,0,6,6h0l76.3-.2a6.018,6.018,0,0,0,6-6l-.1-69.7a5.954,5.954,0,0,0-6-6Z" fill="#c8dbfb"/>
          </g>
        </g>
        <path id="Path_128" data-name="Path 128" d="M360.6,275.1l-101.7-23a5.979,5.979,0,0,1-4.5-7.2l11.4-50.6a5.979,5.979,0,0,1,7.2-4.5l101.7,23a5.979,5.979,0,0,1,4.5,7.2l-11.4,50.6A6.007,6.007,0,0,1,360.6,275.1Z" fill="#c8dbfb"/>
        <g id="Group_89" data-name="Group 89">
          <path id="Path_129" data-name="Path 129" d="M163.8,412.8H149.5L146,394.7l21.2-.1Z" fill="#0056ec"/>
          <path id="Path_130" data-name="Path 130" d="M150,394.6c0,1.5-.3,4,.7,4s.6-2.4,1.7-2.3c.7,0-.3,7.9,2.4,8.1,1.9.1,1.5-3.8,1.7-6.3a1.156,1.156,0,0,1,2.3-.2c0,1.2-.1,2.1,0,3.5.1,2.4,3.7,1.7,3.6-1.4s0-5.3,0-5.3Z" fill="#c8dbfb"/>
          <g id="Group_88" data-name="Group 88">
            <path id="Path_131" data-name="Path 131" d="M146.6,405.6a1.949,1.949,0,0,1-.8-.1,3.1,3.1,0,0,1-2.2-1.6c-1.5-3.1,2.4-8.8,2.5-9.1l.2,1c0,.1-3.4,5-2.1,7.8a2,2,0,0,0,1.7,1.2c.2,0,.5.1.7.1,5.1,0,13.9-9.6,14-9.7.4-.4,1,0,.8.3C161,396,152.1,405.6,146.6,405.6Z" fill="#0c2340"/>
          </g>
        </g>
        <g id="Group_90" data-name="Group 90">
          <path id="Path_132" data-name="Path 132" d="M296.1,157.6c-20.2-.8-48.1,14.2-38.2,50.8-.2,3.1,1.6,5.3,3.6,4.7s.2-6.5.2-6.5c3.4-27.2,9.7-31.9,20.4-31.8l25.1-.1c6.2.9,17.5,5.3,19.2,27l6.2,1.2C333.1,187.2,329.3,158.9,296.1,157.6Z" fill="#5275a0" opacity="0.2"/>
          <path id="Path_133" data-name="Path 133" d="M296.1,154.4c-20.2-.8-48.1,14.2-38.2,50.8l3.8-1.8c3.4-27.2,9.7-31.9,20.4-31.8l25.1-.1c6.2.9,17.8,6.4,19.5,28.2h5.9C333.1,184,329.3,155.7,296.1,154.4Z" fill="#ef832b"/>
          <path id="Path_134" data-name="Path 134" d="M292,155l-3,6.6s.4,3.7,4,3.6,4.1-1.8,4.1-1.8l.5-7.6Z" fill="#ffb9a3"/>
          <path id="Path_135" data-name="Path 135" d="M307.5,149.5c-3.4,6.1-4.9,7.9-9.4,8.8-5.8,1.2-12.3-2.7-9.3-12.4,2.5-7.9,6.2-6.7,9.9-6.4C302.3,139.9,311.2,143,307.5,149.5Z" fill="#ffb9a3"/>
          <path id="Path_136" data-name="Path 136" d="M293.8,144.7a2.364,2.364,0,0,0-2.8.7,3.155,3.155,0,0,0-.8,2.9,2.674,2.674,0,0,0-2.5,2.8c-1-2.2-.4-4.6-.6-6.8-.2-2.3.1-4.8,1.5-6.5a7.231,7.231,0,0,1,2.2-1.7,11.336,11.336,0,0,1,10.3-.1,6.174,6.174,0,0,0,4.6.8c4.4-1.1,7,1.9,4.3,4.7a3.528,3.528,0,0,1,2.2,1.5.854.854,0,0,1,0,.7c-.1.1-.3.2-.4.3a4.532,4.532,0,0,1-2.3.2c.3.3,1.9.4,2.4,1.3,1.3,2.5-3.9,1.3-4.7,1,.9.2,3.3,2.1,2.5,3.4-.2.3-3.4,2.1-6.8-1.8A6.577,6.577,0,0,0,300,146a5.479,5.479,0,0,0-2.8.4c-.6.2-2.3,1.2-2.8.6C294.2,146.3,294.9,145.3,293.8,144.7Z" fill="#0c2340"/>
          <path id="Path_137" data-name="Path 137" d="M327.3,199.8c-.9,3.1-1.8,3.4-.7,3.9s2-1.2,2-1.2l5,1s-1.1-3.3-1.9-3.7S327.3,199.8,327.3,199.8Z" fill="#ffb9a3"/>
          <path id="Path_138" data-name="Path 138" d="M261.8,203.4c.7,1.6.8,1.6,1.7,3.6,1.7,3.7-2.3,9.7-4.9,3.2a17.755,17.755,0,0,1-.7-5Z" fill="#ffb9a3"/>
        </g>
        <g id="Group_92" data-name="Group 92">
          <g id="Group_91" data-name="Group 91">
            <path id="Path_139" data-name="Path 139" d="M301,136.4c3.4.2,7.7-2.2,10.3.9.2.3.7-.1.5-.4-2.6-3.7-7.3-.9-10.9-1-.3,0-.3.5.1.5Z" fill="#0c2340"/>
            <path id="Path_140" data-name="Path 140" d="M302.4,134.5c-2.3.4-4.6-.7-7-.3a11.11,11.11,0,0,0-5.1,2.5c-.4.3.1,1,.5.7,2-1.3,4-2.5,6.5-2.3,1.8.1,3.4.7,5.2.1.5-.1.3-.7-.1-.7Z" fill="#0c2340"/>
            <path id="Path_141" data-name="Path 141" d="M289,137.7a5.368,5.368,0,0,0-2.8,4.4c-.1,1.4-.2,4.7,1.2,5.5.3.2.7-.3.4-.5-.9-.9-1-3.4-.9-4.6a5.646,5.646,0,0,1,2.3-4.3.27.27,0,0,0-.2-.5Z" fill="#0c2340"/>
            <path id="Path_142" data-name="Path 142" d="M314.4,143.4c-.8-1.5-3-2.8-4.7-1.8-.3.1-.1.5.1.6a7.412,7.412,0,0,1,2.1.1,3.524,3.524,0,0,1,2,1.4c.2.2.7,0,.5-.3Z" fill="#0c2340"/>
          </g>
        </g>
        <g id="Group_94" data-name="Group 94">
          <path id="Path_143" data-name="Path 143" d="M203.1,295.9c10.6,3.9,19.8,16.1,17.7,24.9-2.4,10-9.3,14.3-9.3,14.3l-2.2-4s5.5-8.6,5-12.7c-.8-6.5-9-10.9-9-10.9Z" fill="#0b43a4"/>
          <path id="Path_144" data-name="Path 144" d="M177,408.6s-6.5,2.6-8.1,4.1h12.9v-4.1Z" fill="#0c2340"/>
          <path id="Path_145" data-name="Path 145" d="M205.5,408.4a10.86,10.86,0,0,1,2.2,4.3h-8.8a11.857,11.857,0,0,1,1.6-4.3Z" fill="#0c2340"/>
          <path id="Path_146" data-name="Path 146" d="M206.1,408.6h-6c.1-7.1-1.3-31.2-2.8-49.2-.8-10.6-1.6-19.1-2.1-20.8l3.2-.7,12.1-2.7C212.6,344.6,207.8,388.2,206.1,408.6Z" fill="#047f76"/>
          <path id="Path_147" data-name="Path 147" d="M184,338.2c-4.7,7.4-5.9,60.7-7.9,70.6l5.7.3a511.972,511.972,0,0,1,20.5-71.5Z" fill="#009790"/>
          <path id="Path_148" data-name="Path 148" d="M204.7,337.6c-2.8,7.5-5.2,14.8-7.4,21.7-.8-10.6-1.6-19.1-2.1-20.8l3.2-.7Z" fill="#5275a0" opacity="0.2"/>
          <path id="Path_149" data-name="Path 149" d="M184,338.2c-4.7,7.4-5.9,60.7-7.9,70.6l5.7.3a511.972,511.972,0,0,1,20.5-71.5Z" fill="#009790"/>
          <path id="Path_150" data-name="Path 150" d="M187.5,278.6s-3.6,13.9,5.5,13.9l-.5,3.6,6.9.8-1.5-5s1.4-8.7,1.5-10.3C199.5,278.6,191.3,273.4,187.5,278.6Z" fill="#ffb9a3"/>
          <g id="Group_93" data-name="Group 93">
            <rect id="Rectangle_60" data-name="Rectangle 60" width="2.7" height="11.3" transform="translate(162.288 263.004) rotate(-0.113)" fill="#0c2340"/>
            <path id="Path_151" data-name="Path 151" d="M171.4,263H156a1.988,1.988,0,0,1-2-1.9v-.4a2.006,2.006,0,0,1,2-2h15.4a1.988,1.988,0,0,1,2,1.9v.4A2.149,2.149,0,0,1,171.4,263Z" fill="#0056ec"/>
          </g>
          <path id="Path_152" data-name="Path 152" d="M161.6,277.3c-.1-2.6-2.2-1.9-1-6.1.7-2.6,6.1.4,5.4,2.2s-1.4,4.6-1.4,4.6Z" fill="#ffb9a3"/>
          <path id="Path_153" data-name="Path 153" d="M193.1,295.2c-13.6.9-14.5,5.5-20.6,4.8-9-1.1-7.4-17.8-6.3-23.8h-5.4s-9.7,38.2,21,31.1c-1.2,6.7,6.5,17.6-.9,30.9,11.7,3.2,22.5,3.9,31.8-.1-1.6-2.2,3.3-24.4-6.4-40.4C204.3,294.6,194.1,295.1,193.1,295.2Z" fill="#0056ec"/>
          <path id="Path_154" data-name="Path 154" d="M193.1,295.2c-13.6.9-14.5,5.5-20.6,4.8-9-1.1-7.4-17.8-6.3-23.8h-5.4s-9.7,38.2,21,31.1c-1.2,6.7,6.5,17.6-.9,30.9,11.7,3.2,22.5,3.9,31.8-.1-1.6-2.2,3.3-24.4-6.4-40.4C204.3,294.6,194.1,295.1,193.1,295.2Z" fill="#0056ec"/>
          <path id="Path_155" data-name="Path 155" d="M191.2,281.3a3.486,3.486,0,0,1,2.4,1.2,3.233,3.233,0,0,1,.3,1.7,1.539,1.539,0,0,1,1.5-1,1.389,1.389,0,0,1,1.2,1.3,1.884,1.884,0,0,1-.2.8,11.4,11.4,0,0,1-1,1.9c1.1.4,2,3.7,2.6,4.7,1.9-.5,6-2.1,6.4-8.7.2-3.1-.8-6.8-4.1-8.8-2.4-1.5-6.3-1.5-9-.8-2.2.6-5.7,2.8-4.1,5.3C187.9,280.1,189.7,280.9,191.2,281.3Z" fill="#ef832b"/>
          <path id="Path_156" data-name="Path 156" d="M202.9,277c1.3-.4,2.9-.2,3.6.9.6.8.5,1.9.7,2.9a2.618,2.618,0,0,0,.6,1.3,2.458,2.458,0,0,0,1.7.5c1.5.1,3-.1,4.4.1a4.03,4.03,0,0,1,3.3,2.4,18.458,18.458,0,0,0,.4,2.3c.4,1.1,1.6,1.7,2.6,2.4a18.2,18.2,0,0,1,5.4,5.3,9.751,9.751,0,0,1,1.6,4.4c.1,1.6,1.2,3.6.9,5.2-.3,1.7-2,3.9-5.2,5-5.6,1.8-7.4,2.6-12.7-.6-.6-.4-1.9-1.7-2.5-2.2a2.371,2.371,0,0,1-.9-1.5,6.341,6.341,0,0,1,.9-4.6c.8-1.4,1.9-2.6,2.7-4a4.49,4.49,0,0,0,.8-2.7,1.284,1.284,0,0,0-.4-1,2.471,2.471,0,0,0-.9-.4c-1.2-.2-2.5,0-3.5-.5a2.546,2.546,0,0,1-1.3-2.8c.2-.7.8-1.3.9-2.1a2.839,2.839,0,0,0-1.4-2.8,6.33,6.33,0,0,0-3.2-1,4.94,4.94,0,0,1-1.6-.5,2.289,2.289,0,0,1-.8-1.7A5.365,5.365,0,0,1,202.9,277Z" fill="#ef832b"/>
        </g>
        <g id="Group_96" data-name="Group 96">
          <g id="Group_95" data-name="Group 95">
            <path id="Path_157" data-name="Path 157" d="M201.9,282.6c6.7,1.5-1.8,7.8,1.8,10.9,1,.9,2.2.6,3.4.8,4.6.6,2.1,3.7,1.8,6.2,0,.4.6.4.6.1.4-1.7,1.9-3.7,1.1-5.5-.7-1.6-2.4-1.4-3.9-1.4-1.8-.1-3.8,0-3.1-3.6a9.733,9.733,0,0,1,1.1-2.3,4,4,0,0,0,.4-2.6,3.739,3.739,0,0,0-3.2-2.8c-.2-.2-.3.2,0,.2Z" fill="#ef832b"/>
          </g>
        </g>
        <g id="Group_98" data-name="Group 98">
          <g id="Group_97" data-name="Group 97">
            <path id="Path_158" data-name="Path 158" d="M188,274.4c5.2-2.6,10.4-2.1,14.8,1.8a.285.285,0,1,0,.4-.4,11.661,11.661,0,0,0-15.4-1.6c-.1,0,0,.3.2.2Z" fill="#ef832b"/>
          </g>
        </g>
        <g id="Group_99" data-name="Group 99">
          <path id="Path_159" data-name="Path 159" d="M362.6,290.7l-2.2,4.5,5.5,2.3.6-5.3Z" fill="#ffb9a3"/>
          <path id="Path_160" data-name="Path 160" d="M366,275.9c-12.5,5.4-7.4,18.6.2,17.1,3.7-.8,5.6-12.7,5.6-12.7Z" fill="#ffb9a3"/>
          <path id="Path_161" data-name="Path 161" d="M370.1,274.1a5.381,5.381,0,0,0-1.5-2.1,1.956,1.956,0,0,0-2.4-.1c-.8.8-.3,2.2.5,3-.7.1-1.6-.4-2.1.1a1.348,1.348,0,0,0,0,1.6,7.294,7.294,0,0,0,2.6,2.9c-.6.4-1.4,1.1-1,1.7.1.2.3.3.4.5a1.531,1.531,0,0,1-.2,1.3,12.734,12.734,0,0,1-1.3,1.9c.4-.6,1.5-.3,1.8.3a2.046,2.046,0,0,1-.4,2,1.524,1.524,0,0,1-1,.6c-.3.1-1.9,4.8-.7,5.7,1.5,1.1,6.4.1,7.1-1.1a3.174,3.174,0,0,0,2.8,1.2,1.812,1.812,0,0,0,1.3-2.4,3.175,3.175,0,0,0,3.3-.9,3.014,3.014,0,0,0,.3-3.4c.6-.2.7-1,.6-1.6a3.735,3.735,0,0,0-2.6-2.7,1.391,1.391,0,0,0,1.2-1.3,2.837,2.837,0,0,0-.7-1.7,6.546,6.546,0,0,0-4.3-2.1C371.8,277.3,370.9,275.5,370.1,274.1Z" fill="#4a49ca"/>
          <path id="Path_162" data-name="Path 162" d="M358.4,407.8s-7.3,3.5-8.3,4.6c0,0,14.4.6,15.5,0,1.1-.7-2.3-4.6-2.3-4.6Z" fill="#0c2340"/>
          <path id="Path_163" data-name="Path 163" d="M385.6,403.8s-6.4,4.9-7.2,6.2c0,0,15.2-2.3,15.2-3.2,0-1-3.2-4-3.2-4Z" fill="#0c2340"/>
          <path id="Path_164" data-name="Path 164" d="M365.5,340c-.3,1.5-10.3,41,18.4,64.7l8.3-1.9s-9.7-9.1-14.2-25.3c-4.3-15.4-.9-16.9,1.7-25.4,2.9-9.4.7-16.2.7-16.2Z" fill="#d8742a"/>
          <path id="Path_165" data-name="Path 165" d="M351.8,339.9c-4.5,10.8-12.3,47.8,4.7,68.6H365s-6.7-7.3-7.4-24.3,3.6-24.4,6.6-30.1c3-5.6,5.9-15.1,5.9-15.1Z" fill="#ef832b"/>
          <path id="Path_166" data-name="Path 166" d="M345.8,272.6c-2.3,7.9-3,22.6,8.3,28.5l7.6-1.8s-13.6-7.1-10.7-25.2Z" fill="#0b43a4"/>
          <path id="Path_167" data-name="Path 167" d="M325,268.6l5.9-.7s-.7,24.6,27.7,26.7c21.7,1.6,23.4,42.3,23.4,42.3-7,4.7-18.7,6.1-33.8,5.1,0,0,1-29.1-1.4-37C346.8,304.9,323.1,297.5,325,268.6Z" fill="#0056ec"/>
          <path id="Path_168" data-name="Path 168" d="M317.8,264.1c-1,1.2,3.2,2.6,7.2,4.5l5.1-.6a12.456,12.456,0,0,0,0-2.1c-.1-1.1-.6-1.7-1.2-.8s-3.2,1.2-4.4.4C323.3,264.6,318.8,263,317.8,264.1Z" fill="#ffb9a3"/>
          <path id="Path_169" data-name="Path 169" d="M345.8,272.6c-1.9-1.9-1.4-1.7-1.4-1.7l5.8,1.3s1.3-2.8,2.3-2.9c1.1-.1-.8,1.9-.4,2.7.4.7-1.2,2.2-1.2,2.2Z" fill="#ffb9a3"/>
        </g>
        <g id="Group_101" data-name="Group 101">
          <g id="Group_100" data-name="Group 100">
            <path id="Path_170" data-name="Path 170" d="M373.3,276.8a8.154,8.154,0,0,1,3.4,1.2,2.522,2.522,0,0,1,.7,3.3c-.3.5.5.9.8.5a3.158,3.158,0,0,0-.2-3.9,5.2,5.2,0,0,0-4.6-1.6.257.257,0,0,0-.1.5Z" fill="#4a49ca"/>
          </g>
        </g>
        <g id="Group_103" data-name="Group 103">
          <g id="Group_102" data-name="Group 102">
            <path id="Path_171" data-name="Path 171" d="M378.5,287.4a1.9,1.9,0,0,1,1.1,2.2c-.3.9-1.2,1.4-1.9,1.9-.4.2,0,.8.3.6a4.036,4.036,0,0,0,2.4-2.7,2.583,2.583,0,0,0-1.6-2.5c-.3-.2-.6.3-.3.5Z" fill="#4a49ca"/>
          </g>
        </g>
        <g id="Group_105" data-name="Group 105">
          <g id="Group_104" data-name="Group 104">
            <path id="Path_172" data-name="Path 172" d="M365.4,293.4a7.077,7.077,0,0,0,8.6-.9c.3-.3-.1-.8-.4-.6a7.575,7.575,0,0,1-7.9,1.1c-.3-.1-.5.2-.3.4Z" fill="#4a49ca"/>
          </g>
        </g>
        <g id="Group_107" data-name="Group 107">
          <g id="Group_106" data-name="Group 106">
            <path id="Path_173" data-name="Path 173" d="M378.9,278.5c1.5,1.4,0,3.4-1,4.7a.283.283,0,0,0,.4.4,5.054,5.054,0,0,0,1.9-3,2.385,2.385,0,0,0-1.1-2.3c-.2,0-.3.1-.2.2Z" fill="#4a49ca"/>
          </g>
        </g>
      </g>
      <g id="Group_109" data-name="Group 109">
        <path id="Path_174" data-name="Path 174" d="M209.7,95.8l-2.3-5.7L230,81.5Z" fill="#0b43a4"/>
        <path id="Path_175" data-name="Path 175" d="M210.9,92.3,230,81.5,216.7,95Z" fill="#5193f4"/>
        <path id="Path_176" data-name="Path 176" d="M202.2,87.8,230,81.5l-22.6,8.6Z" fill="#5193f4"/>
        <path id="Path_177" data-name="Path 177" d="M210.9,92.3l-1.2,3.5,3.5-2.4Z" fill="#0056ec"/>
      </g>
      <path id="Path_178" data-name="Path 178" d="M207.1,95.1c-5.9-1-13.9,5-10.5,11.2,1.2,2.1,7.2,1.2,6.8-1.1-.2-1.1-1.6-1.6-2.7-1.5-6.6.8-6.9,6.3-6.6,7.7,1.5,7.3,12.7,4.8,16.4,3.8" fill="none" stroke="#c8dbfb" stroke-linecap="round" stroke-linejoin="round" stroke-miterlimit="10" stroke-width="1" stroke-dasharray="4"/>
    </g>
  </g>
</svg>
