<svg xmlns="http://www.w3.org/2000/svg" xmlns:xlink="http://www.w3.org/1999/xlink" width="627.468" height="1577.709" viewBox="0 0 627.468 1577.709">
  <defs>
    <linearGradient id="linear-gradient" x1="0.399" x2="1.096" y2="1.405" gradientUnits="objectBoundingBox">
      <stop offset="0" stop-color="#98b1f5"/>
      <stop offset="1" stop-color="#eaa0df"/>
    </linearGradient>
  </defs>
  <g id="Group_139" data-name="Group 139" transform="translate(0 -1829)">
    <path id="Path_231" data-name="Path 231" d="M610.33,62S558,147.25,651,248s178.25,46.5,279,155,54.25,170.5,155,248,266.29,38.75,336.04-124c34.875-81.375,46.27-214.257,225.327-310,179.669-96.07,527-155,527-155Z" transform="translate(-62 4002.367) rotate(-90)" opacity="0.211" fill="url(#linear-gradient)"/>
    <g id="_416195-PDXC8U-490" data-name="416195-PDXC8U-490" transform="translate(-415.5 2460.774)">
      <g id="Group_126" data-name="Group 126" transform="translate(167.5 129.3)">
        <g id="Group_125" data-name="Group 125" transform="translate(75.064 0)">
          <g id="Group_124" data-name="Group 124">
            <ellipse id="Ellipse_10" data-name="Ellipse 10" cx="38.22" cy="2.774" rx="38.22" ry="2.774" transform="translate(401.781 347.837)" fill="#ccdde5"/>
            <g id="Group_112" data-name="Group 112" transform="translate(419.761 198.037)">
              <path id="Path_179" data-name="Path 179" d="M241.7,310.787l-1.541,1.849s3.7,3.236,3.545,3.545-6.473-2.774-6.781-3.236,2.312-3.545,2.312-3.545Z" transform="translate(-212.726 -209.38)" fill="#4aa2ff"/>
              <g id="Group_111" data-name="Group 111" transform="translate(0)">
                <rect id="Rectangle_61" data-name="Rectangle 61" width="3.853" height="152.574" transform="translate(33.443)" fill="#feac00"/>
                <rect id="Rectangle_62" data-name="Rectangle 62" width="3.853" height="152.574" fill="#feac00"/>
              </g>
              <rect id="Rectangle_63" data-name="Rectangle 63" width="32.056" height="3.082" transform="translate(2.62 138.395)" fill="#feac00"/>
              <rect id="Rectangle_64" data-name="Rectangle 64" width="32.056" height="3.082" transform="translate(2.62 122.213)" fill="#feac00"/>
              <rect id="Rectangle_65" data-name="Rectangle 65" width="32.056" height="3.082" transform="translate(2.62 106.647)" fill="#feac00"/>
              <rect id="Rectangle_66" data-name="Rectangle 66" width="32.056" height="3.082" transform="translate(2.62 90.774)" fill="#feac00"/>
              <rect id="Rectangle_67" data-name="Rectangle 67" width="32.056" height="3.082" transform="translate(2.62 74.746)" fill="#feac00"/>
              <rect id="Rectangle_68" data-name="Rectangle 68" width="32.056" height="3.082" transform="translate(2.62 58.872)" fill="#feac00"/>
              <rect id="Rectangle_69" data-name="Rectangle 69" width="32.056" height="3.082" transform="translate(2.62 42.998)" fill="#feac00"/>
              <rect id="Rectangle_70" data-name="Rectangle 70" width="32.056" height="3.082" transform="translate(2.62 26.97)" fill="#feac00"/>
              <rect id="Rectangle_71" data-name="Rectangle 71" width="32.056" height="3.082" transform="translate(2.62 11.096)" fill="#feac00"/>
            </g>
            <path id="Path_180" data-name="Path 180" d="M253.351,321.179l-1.387,2s4.007,2.928,3.853,3.236-6.781-2.158-7.089-2.62,1.849-3.7,1.849-3.7Z" transform="translate(171.181 -5.552)" fill="#4aa2ff"/>
            <path id="Path_181" data-name="Path 181" d="M241.092,281.282s.308,11.867,8.168,18.186c8.014,6.319,11.1,9.093,11.1,9.093l-7.243,35.292,3.391,1.079s13.87-18.956,14.333-34.214S258.2,278.2,258.2,278.2Z" transform="translate(169.556 -28.226)" fill="#363147"/>
            <path id="Path_182" data-name="Path 182" d="M242.741,281.851s24.658,6.935,27.432,16.644S262.468,325,250.139,330.089l-3.853-3.391s11.559-17.261,12.021-24.35c0,0-29.282,1.849-33.135-15.1S242.741,281.851,242.741,281.851Z" transform="translate(202.698 -28.332)" fill="#424261"/>
            <path id="Path_183" data-name="Path 183" d="M526.267,182.5v12.483a74.512,74.512,0,0,1-21.884,25.275c-36.987,27.741-83.838,53.015-92.469,99.4-12.021,65.036-122.521,88.616-177.232,45.464C216.8,351.1,203.55,340.468,192.3,332.608V182.5Z" transform="translate(36.56 -80.014)" fill="#fff"/>
            <path id="Path_185" data-name="Path 185" d="M199.543,162.3h319.48a7.235,7.235,0,0,1,7.243,7.243v28.511H192.3V169.543A7.235,7.235,0,0,1,199.543,162.3Z" transform="translate(36.56 -90.945)" fill="#9fc7fa"/>
            <path id="Path_186" data-name="Path 186" d="M353.3,176.3A5.689,5.689,0,0,0,359,182a5.594,5.594,0,0,0,5.7-5.7,5.7,5.7,0,0,0-11.4,0Z" transform="translate(-155.393 -86.453)" fill="#6b8bfa"/>
            <path id="Path_189" data-name="Path 189" d="M205.939,181.963H333.854a4.966,4.966,0,0,0,4.932-4.932h0a4.966,4.966,0,0,0-4.932-4.932H205.939a4.966,4.966,0,0,0-4.932,4.932h0A4.867,4.867,0,0,0,205.939,181.963Z" transform="translate(210.633 -85.642)" fill="#ecf3fa"/>
            <rect id="Rectangle_72" data-name="Rectangle 72" width="108.651" height="9.247" transform="translate(377.007 143.327)" fill="#ccdde5"/>
            <path id="Path_192" data-name="Path 192" d="M307.2,229.447H224.9V220.2h94.935C315.519,223.282,311.358,226.365,307.2,229.447Z" transform="translate(147.776 -59.612)" fill="#ccdde5"/>
            <path id="Path_193" data-name="Path 193" d="M333.157,264.6s15.72,8.014,16.644,23.888-24.967,7.706-27.741-2.774S325.451,262.283,333.157,264.6Z" transform="translate(-77.709 -35.735)" fill="#57a1ff"/>
            <path id="Path_206" data-name="Path 206" d="M249,220.217s1.541-7.706,2.158-8.014.616,7.4.616,7.4Z" transform="translate(175.066 -63.945)" fill="#ffd2b0"/>
            <g id="Group_117" data-name="Group 117" transform="translate(410.157 155.656)">
              <path id="Path_207" data-name="Path 207" d="M265.015,266.183s-.462-29.128-5.548-31.9-10.017,6.01-11.1,17.877S251.145,284.214,265.015,266.183Z" transform="translate(-248.2 -207.927)" fill="#c53642"/>
              <path id="Path_208" data-name="Path 208" d="M259.788,245.974V217h-3.082S249,233.953,249,247.823Z" transform="translate(-244.206 -217)" fill="#c53642"/>
            </g>
            <path id="Path_209" data-name="Path 209" d="M248.8,217.792c.154-.154,2.312-2.62,2-3.236s-1.541.771-1.541.771a1.118,1.118,0,0,0-1.541.771C247.564,217.175,247.872,218.254,248.8,217.792Z" transform="translate(178.697 -62.752)" fill="#ffd2b0"/>
            <path id="Path_219" data-name="Path 219" d="M235.67,262.694s-.462-6.781-1.233-7.089-.308,5.086-.308,5.086-2.158-1.849-2.312-1.079.771,1.7.771,1.7a2.372,2.372,0,0,0-.308,1.849C232.434,264.389,235.67,262.694,235.67,262.694Z" transform="translate(226.62 -40.46)" fill="#ffd2b0"/>
            <path id="Path_220" data-name="Path 220" d="M238.085,285.791c.771-.462,5.394-9.247,1.849-25.891l-4.161.462s-5.856,12.637-4.932,20.343C231.92,288.257,235.157,287.487,238.085,285.791Z" transform="translate(222.645 -38.129)" fill="#c53642"/>
            <rect id="Rectangle_73" data-name="Rectangle 73" width="103.937" height="32.969" transform="matrix(-0.994, 0.111, -0.111, -0.994, 358.923, 238.686)" fill="#c2cfd6"/>
            <rect id="Rectangle_74" data-name="Rectangle 74" width="103.111" height="35.469" transform="translate(354.767 258.416) rotate(-168.077)" fill="#ccdde5"/>
            <g id="Group_123" data-name="Group 123" transform="translate(413.302 182.003)">
              <g id="Group_122" data-name="Group 122" transform="translate(7.064)">
                <path id="Path_221" data-name="Path 221" d="M253.309,237.8s4.161,10.017,1.079,14.949c-3.853,5.086-10.326-.462-10.326-.462Z" transform="translate(-236.396 -232.092)" fill="#ffd2b0"/>
                <path id="Path_222" data-name="Path 222" d="M250.335,235.8s-10.942,5.394-1.541,18.8c7.706,11.1,16.644-4.623,13.1-14.641S250.335,235.8,250.335,235.8Z" transform="translate(-244.981 -234.096)" fill="#9c5b40"/>
              </g>
              <path id="Path_223" data-name="Path 223" d="M255.249,249.878s11.559,2.774,21.576,36.217c0,0,1.233,5.856-4.932,6.935s-11.1-7.706-11.1-7.706,2.62,7.4,1.541,12.329c0,0-11.4,8.785-30.361-.925,0,0-2.466-30.361,8.322-44.231C240.145,252.5,245.539,247.1,255.249,249.878Z" transform="translate(-231.735 -225.984)" fill="#dd425e"/>
            </g>
            <path id="Path_224" data-name="Path 224" d="M244.885,241.363s0-6.627,4.932-8.939,11.559-1.233,11.1,2.62C260.3,238.9,249.971,244.445,244.885,241.363Z" transform="translate(173.024 -53.651)" fill="#9c5b40"/>
            <circle id="Ellipse_13" data-name="Ellipse 13" cx="10.017" cy="10.017" r="10.017" transform="translate(570.224 49.317)" fill="#9fc7fa"/>
            <circle id="Ellipse_14" data-name="Ellipse 14" cx="10.017" cy="10.017" r="10.017" transform="translate(362.118 290.506)" fill="#9fc7fa"/>
            <circle id="Ellipse_15" data-name="Ellipse 15" cx="3.853" cy="3.853" r="3.853" transform="translate(584.095 84.763)" fill="#9fc7fa"/>
            <circle id="Ellipse_16" data-name="Ellipse 16" cx="3.853" cy="3.853" r="3.853" transform="translate(387.521 272.783)" fill="#9fc7fa"/>
            <path id="Path_228" data-name="Path 228" d="M201.015,159.23a4.308,4.308,0,0,0,4.315-4.315,4.41,4.41,0,0,0-4.315-4.315,4.315,4.315,0,0,0,0,8.63Z" transform="translate(350.715 -97.276)" fill="#ff6aff"/>
          </g>
        </g>
      </g>
    </g>
  </g>
</svg>
