<svg xmlns="http://www.w3.org/2000/svg" width="234.937" height="220.774" viewBox="0 0 234.937 220.774">
  <g id="Group_129" data-name="Group 129" transform="translate(-1036.063 -3065.226)">
    <path id="Path_229" data-name="Path 229" d="M451.588,211.707V336.078a4.144,4.144,0,0,1-4.161,4.161H358.349c-10.942-8.63-20.035-15.566-28.049-21.268V207.7H447.427A4.114,4.114,0,0,1,451.588,211.707Z" transform="translate(775.438 2867.081)" fill="#ccdde5"/>
    <path id="Path_230" data-name="Path 230" d="M340.461,334.193H457.588a4.144,4.144,0,0,0,4.161-4.161V205.661a4.144,4.144,0,0,0-4.161-4.161H340.461a4.144,4.144,0,0,0-4.161,4.161V330.032A4.144,4.144,0,0,0,340.461,334.193Z" transform="translate(722.732 2863.726)" fill="#fedd56"/>
    <g id="Group_127" data-name="Group 127" transform="translate(1036.063 3104.362)">
      <path id="Path_194" data-name="Path 194" d="M418.306,341.954l-.616,2.312s4.778,1.387,4.778,1.849-7.089.154-7.552-.154.616-4.161.616-4.161Z" transform="translate(-395.028 -164.713)" fill="#4aa2ff"/>
      <path id="Path_195" data-name="Path 195" d="M433.678,336.7l-1.849,1.541s3.236,3.853,2.928,4.161c-.154.308-6.01-3.853-6.165-4.315S431.367,335,431.367,335Z" transform="translate(-428.587 -168.393)" fill="#4aa2ff"/>
      <path id="Path_196" data-name="Path 196" d="M418.307,294.2s-2.774,11.559,3.391,19.727,8.476,11.559,8.476,11.559l-15.72,32.364,3.082,1.849s18.186-15.1,22.347-29.59-4.315-34.676-4.315-34.676Z" transform="translate(-413.061 -190.472)" fill="#363147"/>
      <path id="Path_197" data-name="Path 197" d="M431.2,295.589s4.161,45.618-10.172,74.9h-4.161s1.541-48.7,0-54.248c0,0-6.627-5.7-6.627-19.573S431.2,295.589,431.2,295.589Z" transform="translate(-397.284 -192.631)" fill="#424261"/>
      <path id="Path_198" data-name="Path 198" d="M390.8,294.227s9.709,4.161,23.579-6.627H394.036Z" transform="translate(-349.954 -194.043)" fill="#00acff"/>
      <path id="Path_199" data-name="Path 199" d="M417.7,234.917s1.541-7.706,2.158-8.014.616,7.4.616,7.4Z" transform="translate(-397.505 -226.894)" fill="#ffd2b0"/>
      <g id="Group_113" data-name="Group 113" transform="translate(7.391 7.406)">
        <path id="Path_200" data-name="Path 200" d="M433.711,280.783s-.462-29.128-5.548-31.9-10.017,6.01-11.1,17.877C415.988,278.779,419.995,298.968,433.711,280.783Z" transform="translate(-416.9 -222.681)" fill="#0092ff"/>
        <path id="Path_201" data-name="Path 201" d="M428.488,260.674V231.7h-3.082s-7.706,16.953-7.706,30.823Z" transform="translate(-412.91 -231.7)" fill="#0092ff"/>
      </g>
      <g id="Group_115" data-name="Group 115" transform="translate(4.387 33.816)">
        <g id="Group_114" data-name="Group 114" transform="translate(7.064)">
          <path id="Path_202" data-name="Path 202" d="M422.009,252.5s4.161,10.017,1.079,14.949c-3.853,5.086-10.326-.462-10.326-.462Z" transform="translate(-405.096 -246.853)" fill="#ffc183"/>
          <path id="Path_203" data-name="Path 203" d="M419.035,250.476s-10.942,5.394-1.541,18.8c7.706,11.1,16.644-4.623,13.1-14.641C427.049,244.773,419.035,250.476,419.035,250.476Z" transform="translate(-413.681 -248.836)" fill="#424261"/>
        </g>
        <path id="Path_204" data-name="Path 204" d="M423.949,264.453s11.559,2.774,21.576,36.217c0,0,1.233,5.856-4.932,6.935s-11.1-7.706-11.1-7.706,2.774,7.4,1.541,12.329c0,0-11.4,8.785-30.361-.925,0,0-2.466-30.361,8.322-44.231C409,267.227,414.24,261.833,423.949,264.453Z" transform="translate(-400.435 -240.774)" fill="#00acff"/>
      </g>
      <path id="Path_205" data-name="Path 205" d="M417.489,232.392c.154-.154,2.312-2.62,2-3.236s-1.541.771-1.541.771a1.118,1.118,0,0,0-1.541.771C416.256,231.93,416.718,232.854,417.489,232.392Z" transform="translate(-394.52 -225.756)" fill="#ffd2b0"/>
    </g>
    <g id="Group_128" data-name="Group 128" transform="translate(1199.512 3138.178)">
      <g id="Group_120" data-name="Group 120">
        <path id="Path_210" data-name="Path 210" d="M338.786,341.954l.616,2.312s-4.778,1.387-4.778,1.849,7.089.154,7.552-.154-.617-4.161-.617-4.161Z" transform="translate(-297.638 -198.529)" fill="#4aa2ff"/>
        <path id="Path_211" data-name="Path 211" d="M322.9,336.7l1.849,1.541s-3.236,3.853-2.928,4.161c.154.308,6.01-3.853,6.165-4.315S325.207,335,325.207,335Z" transform="translate(-263.562 -202.209)" fill="#4aa2ff"/>
        <path id="Path_212" data-name="Path 212" d="M345.425,294.2s2.774,11.559-3.391,19.727-8.476,11.559-8.476,11.559l15.72,32.364L346.2,359.7s-18.186-15.1-22.347-29.59,4.315-34.676,4.315-34.676Z" transform="translate(-286.245 -224.288)" fill="#363147"/>
        <path id="Path_213" data-name="Path 213" d="M330.762,295.589s-4.161,45.618,10.172,74.9h4.161s-1.541-48.7,0-54.248c0,0,6.627-5.7,6.627-19.573S330.762,295.589,330.762,295.589Z" transform="translate(-300.247 -226.447)" fill="#424261"/>
        <path id="Path_214" data-name="Path 214" d="M371.88,294.227s-9.709,4.161-23.579-6.627h20.343Z" transform="translate(-348.3 -227.859)" fill="#00acff"/>
        <g id="Group_119" data-name="Group 119" transform="translate(14.848)">
          <g id="Group_118" data-name="Group 118" transform="translate(18.999)">
            <path id="Path_215" data-name="Path 215" d="M336.416,252.5s-4.161,10.017-1.079,14.949c3.853,5.086,10.326-.462,10.326-.462Z" transform="translate(-334.2 -246.853)" fill="#ffc183"/>
            <path id="Path_216" data-name="Path 216" d="M341.584,250.476s10.942,5.394,1.541,18.8c-7.706,11.1-16.644-4.623-13.1-14.641C333.416,244.773,341.584,250.476,341.584,250.476Z" transform="translate(-327.81 -248.836)" fill="#dd4288"/>
          </g>
          <path id="Path_217" data-name="Path 217" d="M346.319,264.453s-11.559,2.774-21.576,36.217c0,0-1.233,5.856,4.932,6.935s11.1-7.706,11.1-7.706-2.774,7.4-1.541,12.329c0,0,11.4,8.785,30.361-.925,0,0,2.466-30.361-8.322-44.231C361.268,267.227,355.874,261.833,346.319,264.453Z" transform="translate(-324.642 -240.774)" fill="#00acff"/>
        </g>
      </g>
      <path id="Path_218" data-name="Path 218" d="M329.559,250.018s7.706,1.7,9.555,11.4-5.394,11.559-.308,16.644,13.1,6.165,11.867,14.641,4.315,8.476,2.312,14.641-16.953,13.87-23.425,2.774-.308-18.031-4.623-24.35c-4.315-6.473-6.473-8.785-5.7-14.179s-3.391-11.25-1.541-15.72C319.542,251.714,325.4,248.631,329.559,250.018Z" transform="translate(-281.938 -248.379)" fill="#dd4288"/>
    </g>
  </g>
</svg>
