<svg xmlns="http://www.w3.org/2000/svg" xmlns:xlink="http://www.w3.org/1999/xlink" width="310" height="284.5" viewBox="0 0 310 284.5"><defs><linearGradient id="a" x1="0.399" x2="1.096" y2="1.405" gradientUnits="objectBoundingBox"><stop offset="0" stop-color="#98b1f5" stop-opacity="0.11"/><stop offset="1" stop-color="#eaa0df" stop-opacity="0.596"/></linearGradient><filter id="b" x="34.5" y="0" width="251.881" height="264.141" filterUnits="userSpaceOnUse"><feOffset dx="5" dy="4" input="SourceAlpha"/><feGaussianBlur stdDeviation="20.5" result="c"/><feFlood flood-color="#3900ff" flood-opacity="0.333"/><feComposite operator="in" in2="c"/><feComposite in="SourceGraphic"/></filter></defs><g transform="translate(-155 -1351.5)"><text transform="translate(155 1587)" fill="#262525" font-size="16" font-family="Roboto-Bold, Roboto" font-weight="700"><tspan x="3.414" y="15">Разработка программного обеспечения </tspan><tspan x="77.387" y="34">и инженерия знаний</tspan></text><g transform="matrix(1, 0, 0, 1, 155, 1351.5)" filter="url(#b)"><path d="M895.34-21.087c-9.9,32.261,47.41,112.335,76.406,106.766S1044.19-19.94,1011.327-43.364,905.235-53.348,895.34-21.087Z" transform="translate(-803.21 112.69)" opacity="0.996" fill="url(#a)"/></g><g transform="translate(271.398 1432.995)"><path d="M15.131,56.349A9.141,9.141,0,0,0,6,65.48V70.7A1.3,1.3,0,0,0,7.3,72H49.045a1.3,1.3,0,0,0,1.3-1.3V65.48a9.392,9.392,0,0,0-.048-.943,23.245,23.245,0,0,0,4.847-1.992l5.281,5.283L69.654,58.6l-5.283-5.28a23.219,23.219,0,0,0,1.991-4.8h7.466V35.479H66.362a23.219,23.219,0,0,0-1.991-4.8l5.283-5.28L60.43,16.174l-5.281,5.283a23.231,23.231,0,0,0-4.8-1.99V12H37.305v3.75a18.272,18.272,0,0,0-3.913-1.674V13.3a1.3,1.3,0,0,0-1.3-1.3H24.262a1.3,1.3,0,0,0-1.3,1.3v.771A18.173,18.173,0,0,0,9.913,31.566a1.3,1.3,0,0,0,1.3,1.3h1.3v2.609h-1.3a3.913,3.913,0,1,0,0,7.826h1.54a15.678,15.678,0,0,0,8.895,11.609v1.435ZM43.591,43.305h1.54a3.913,3.913,0,1,0,0-7.826h-1.3V32.87h1.3a1.3,1.3,0,0,0,1.3-1.3,18.439,18.439,0,0,0-.168-2.367,13.044,13.044,0,0,1-2.441,25.847,12.914,12.914,0,0,1-6.453-1.713A15.645,15.645,0,0,0,43.591,43.305Zm.236-5.218h1.3a1.3,1.3,0,1,1,0,2.609h-1.3Zm-5.218-18.2a15.573,15.573,0,0,1,3.8,5.156H39.914a1.3,1.3,0,0,1-1.3-1.3ZM34.87,54.825a15.586,15.586,0,0,0,2.682,1.525H34.7V54.915Zm-.938,4.134H38.61L33.251,66.1l-3.232-3.232Zm-1.08,10.435H23.5l4.678-4.678ZM23.1,66.1,17.74,58.958h4.678l3.913,3.913ZM8.609,65.48a6.508,6.508,0,0,1,5.917-6.461L22.3,69.393H8.609Zm39.132,3.913h-13.7L41.825,59.02a6.509,6.509,0,0,1,5.915,6.461ZM39.914,14.609h7.826V21.5l1,.241A20.74,20.74,0,0,1,54.681,24.2l.877.536,4.872-4.873L65.964,25.4l-4.873,4.872.536.877a20.71,20.71,0,0,1,2.464,5.942l.241,1H71.22v7.826H64.333l-.241,1a20.71,20.71,0,0,1-2.464,5.942l-.536.877L65.964,58.6,60.43,64.138l-4.872-4.873-.877.536A20.711,20.711,0,0,1,49.658,62,9.186,9.186,0,0,0,45.7,57.531a15.637,15.637,0,0,0,.012-31.052,18.161,18.161,0,0,0-5.794-8.906Zm-14.348,0h5.218V25.044H25.566Zm-1.3,13.044h7.826a1.3,1.3,0,0,0,1.3-1.3V16.812A15.676,15.676,0,0,1,36,18.008V23.74a3.913,3.913,0,0,0,3.913,3.913h3.418a15.679,15.679,0,0,1,.442,2.609h-31.2a15.677,15.677,0,0,1,.44-2.609h3.42a3.913,3.913,0,0,0,3.913-3.913V18a15.772,15.772,0,0,1,2.609-1.194v9.542A1.3,1.3,0,0,0,24.262,27.653ZM17.74,19.884V23.74a1.3,1.3,0,0,1-1.3,1.3H13.941a15.551,15.551,0,0,1,3.8-5.16ZM11.218,40.7a1.3,1.3,0,1,1,0-2.609h1.3V40.7Zm3.913,0V32.87H41.219V40.7a13.044,13.044,0,1,1-26.088,0ZM28.175,56.349a15.564,15.564,0,0,0,3.913-.522v1.28L28.175,61.02l-3.913-3.913v-1.28A15.564,15.564,0,0,0,28.175,56.349Z" transform="translate(1.602 4.005)" fill="#fff"/><path d="M20.218,35.218h2.609v-1.3a3.913,3.913,0,0,0-7.826,0v1.3h2.609v-1.3a1.3,1.3,0,0,1,2.609,0Z" transform="translate(4.342 9.485)" fill="#fff"/><path d="M27.609,33.913a1.3,1.3,0,0,1,2.609,0v1.3h2.609v-1.3a3.913,3.913,0,1,0-7.826,0v1.3h2.609Z" transform="translate(7.386 9.485)" fill="#fff"/><path d="M29.435,38.3V37H26.826v1.3a2.609,2.609,0,1,1-5.218,0V37H19v1.3a5.218,5.218,0,0,0,10.435,0Z" transform="translate(5.559 11.615)" fill="#fff"/><path d="M22.378,55.231a1.507,1.507,0,0,0,.43.274,1.229,1.229,0,0,0,.991,0,1.507,1.507,0,0,0,.43-.274,1.291,1.291,0,0,0,.378-.926,1.37,1.37,0,0,0-.378-.926,2.053,2.053,0,0,0-.2-.157.987.987,0,0,0-.235-.117.829.829,0,0,0-.235-.078,1.174,1.174,0,0,0-.522,0,.829.829,0,0,0-.235.078.987.987,0,0,0-.235.117,2.057,2.057,0,0,0-.2.157,1.37,1.37,0,0,0-.378.926,1.291,1.291,0,0,0,.378.926Z" transform="translate(6.473 16.485)" fill="#fff"/></g></g></svg>