<svg xmlns="http://www.w3.org/2000/svg" xmlns:xlink="http://www.w3.org/1999/xlink" viewBox="0 0 218.5 125.18"><defs><style>.cls-1,.cls-4,.cls-6{opacity:0.2;}.cls-1,.cls-2,.cls-4,.cls-6{isolation:isolate;}.cls-1{fill:url(#Безымянный_градиент_14);}.cls-16,.cls-2{fill:#4c6ba7;}.cls-2{opacity:0.5;}.cls-3{fill:#c5ecff;}.cls-4{fill:url(#Безымянный_градиент_14-2);}.cls-5{fill:#e8f7ff;}.cls-6{fill:url(#Безымянный_градиент_14-3);}.cls-7{fill:#b03a2e;}.cls-8{fill:#0d352c;}.cls-9{fill:#1a705d;}.cls-10{fill:#0a2821;}.cls-11{fill:#26a385;}.cls-12{fill:#33d9b2;}.cls-13{fill:#e84c3d;}.cls-14{fill:#ffb142;}.cls-15{fill:#cd6133;}.cls-17{fill:#bfb023;}.cls-18{fill:#658edf;}.cls-19{fill:#ffea2e;}</style><linearGradient id="Безымянный_градиент_14" x1="198.06" y1="-68.34" x2="85.29" y2="-147.46" gradientTransform="matrix(1, 0, 0, -1, 0, -61.51)" gradientUnits="userSpaceOnUse"><stop offset="0" stop-color="#4c6ba7" stop-opacity="0"/><stop offset="1" stop-color="#4c6ba7"/></linearGradient><linearGradient id="Безымянный_градиент_14-2" x1="229.41" y1="1.1" x2="31.12" y2="-190.08" xlink:href="#Безымянный_градиент_14"/><linearGradient id="Безымянный_градиент_14-3" x1="183.97" y1="-77.88" x2="102.73" y2="-134.88" xlink:href="#Безымянный_градиент_14"/></defs><title>down_2</title><g id="Слой_2" data-name="Слой 2"><g id="Слой_1-2" data-name="Слой 1"><g id="Objects"><path class="cls-1" d="M82.5,123.9H97.7a24.4,24.4,0,0,0,12.3-3.3L218.5,57.1,129,4.7H109Z"/><path class="cls-2" d="M2.5,80l72.7,43.1a14.9,14.9,0,0,0,15,.1L193.9,63.3a5.11,5.11,0,0,0,.1-8.8L121.3,10.3a14.9,14.9,0,0,0-15-.1L2.6,71.1A5.2,5.2,0,0,0,2.5,80Z"/><path class="cls-3" d="M196.4,57.6h0V51.3l-3.6.3L121.2,9.1a14.9,14.9,0,0,0-15-.1L4.6,67.6,0,68v6.7H0a5,5,0,0,0,2.5,3.9l72.7,43.1a14.9,14.9,0,0,0,15,.1L193.9,61.9A4.48,4.48,0,0,0,196.4,57.6Z"/><path class="cls-4" d="M196.4,57.6h0V51.3l-3.6.3L121.2,9.1a14.9,14.9,0,0,0-15-.1L4.6,67.6,0,68v6.7H0a5,5,0,0,0,2.5,3.9l72.7,43.1a14.9,14.9,0,0,0,15,.1L193.9,61.9A4.48,4.48,0,0,0,196.4,57.6Z"/><path class="cls-5" d="M2.5,72.2l72.7,43.1a14.9,14.9,0,0,0,15,.1L193.9,55.5a5.11,5.11,0,0,0,.1-8.8L121.3,3.6a14.9,14.9,0,0,0-15-.1L2.6,63.4A5.11,5.11,0,0,0,2.5,72.2Z"/><path class="cls-6" d="M93.6,90.6h39.5l60.7-35.1a5.11,5.11,0,0,0,.1-8.8L166.7,30.5H98.2Z"/><path class="cls-7" d="M153.9,45.5l-3.1.2a28.69,28.69,0,0,0-9.7-8.7C122,26,88.7,27.4,66.6,40.1c-6.9,4-11.9,8.6-14.9,13.4l-3.4.3V64.7h0c.1,6.9,4.3,13.5,12.9,18.4,19.1,11,52.4,9.6,74.5-3.1,12.3-7.1,18.5-16.3,18.2-24.9h0Z"/><path class="cls-8" d="M66.5,29.6c-22,12.7-24.4,32-5.3,43s52.4,9.6,74.5-3.1,24.4-32,5.3-43S88.6,16.9,66.5,29.6Z"/><path class="cls-9" d="M101.1,49.5l17.8-29.9A59.73,59.73,0,0,1,141,26.4a30.4,30.4,0,0,1,8.7,7.2Z"/><path class="cls-10" d="M82.5,22.8a92.25,92.25,0,0,1,36.4-3.2L101.1,49.5Z"/><polygon class="cls-11" points="82.5 8.6 82.5 22.8 101.1 49.5 101.1 35.3 82.5 8.6"/><path class="cls-12" d="M82.5,8.5a92.25,92.25,0,0,1,36.4-3.2l-17.8,30Z"/><path class="cls-13" d="M63.8,74a21.48,21.48,0,0,1-2.6-1.4c-19.1-11-16.7-30.3,5.3-43a76.25,76.25,0,0,1,16-6.8l18.6,26.7Z"/><path class="cls-14" d="M101.1,29.9,118.9,0A59.73,59.73,0,0,1,141,6.8a30.4,30.4,0,0,1,8.7,7.2Z"/><polygon class="cls-15" points="101.1 29.9 101.1 38.6 149.7 22.8 149.7 14.1 101.1 29.9"/><path class="cls-16" d="M153.9,35.8,152.1,40a20,20,0,0,0-2.4-3.8L113.1,48.1,101.1,38V60.1l25.1,24.5a68,68,0,0,0,9.4-4.5C147.9,73,154,63.9,153.8,55.4h0V35.8Z"/><path class="cls-17" d="M121.5,69.4,101.1,49.6,70.9,69.3H63.8V84.6c16.7,8.2,42.2,8,62.4,0V69.3Z"/><path class="cls-18" d="M149.7,22.3c8.7,11,3.7,25.5-14,35.8a73.92,73.92,0,0,1-9.4,4.5L101.2,38.1Z"/><path class="cls-19" d="M63.8,69.3l37.3-24.4,25.1,24.5C106,77.3,80.5,77.5,63.8,69.3Z"/></g></g></g></svg>