<svg xmlns="http://www.w3.org/2000/svg" width="465.346" height="306.81" viewBox="0 0 465.346 306.81">
  <g id="_2066799" data-name="2066799" transform="translate(-22.375 -92.1)">
    <g id="Group_236" data-name="Group 236">
      <path id="Path_420" data-name="Path 420" d="M335,158.6c-30.9.5-55.8,16.9-55.5,36.7s25.7,35.4,56.6,34.9,55.8-16.9,55.5-36.7C391.3,173.8,366,158.1,335,158.6Z" fill="#bbe1ea"/>
      <path id="Path_421" data-name="Path 421" d="M95.2,344.6c-23.5.4-42.3,12.8-42.1,27.8S72.6,399.3,96,398.9c23.5-.4,42.3-12.8,42.1-27.8S118.7,344.2,95.2,344.6Z" fill="#bbe1ea"/>
      <g id="Group_178" data-name="Group 178">
        <path id="Path_422" data-name="Path 422" d="M28.3,273.6l172.5,99.6a12.026,12.026,0,0,0,11.9,0l114.1-65.9a11.915,11.915,0,0,0,0-20.6L154.3,187.1a12.026,12.026,0,0,0-11.9,0l-114.1,66A11.828,11.828,0,0,0,28.3,273.6Z" fill="#bbe1ea"/>
        <path id="Path_423" data-name="Path 423" d="M202.3,358.4l114.5-66.1-52.7-30.4-93,78.6Z" fill="#b4cdf6"/>
        <path id="Path_424" data-name="Path 424" d="M201.9,355.9l109.3-63a95.242,95.242,0,0,1,0-26.5L200.7,329.8s-9.4,21.1.5,26.8Z" fill="#fff"/>
        <path id="Path_425" data-name="Path 425" d="M202.3,330.6" fill="#ced1d5"/>
        <path id="Path_426" data-name="Path 426" d="M316.8,292.3,204,357.4c-8.8-6.5,0-25.5,0-25.5l112.9-65.2v-2.3L200.1,329.2s-11.3,23.9,2.3,31.7l114.5-66.1v-2.5Z" fill="#6c87c7"/>
        <path id="Path_427" data-name="Path 427" d="M39.3,236.5l163,94.1,114.5-66.1-163-94.1Z" fill="#b4cdf6"/>
        <path id="Path_428" data-name="Path 428" d="M202.3,361c-10.7-8.2,0-30.4,0-30.4l-163-94s-10.7,22.2,0,30.4Z" fill="#819fde"/>
        <path id="Path_429" data-name="Path 429" d="M169.3,336.5c-3.7-6,0-18.5,0-18.5L70.4,261s-4,11.7,0,18.5Z" fill="#fff"/>
        <path id="Path_430" data-name="Path 430" d="M46,265.1c-3.7-6,0-18.5,0-18.5l18.5,10.9s-4,11.7,0,18.5Z" fill="#fff"/>
        <path id="Path_431" data-name="Path 431" d="M176,340.3c-3.7-6,0-18.5,0-18.5l4.8,2.8s-4,11.7,0,18.5Z" fill="#fff"/>
      </g>
      <g id="Group_179" data-name="Group 179">
        <path id="Path_432" data-name="Path 432" d="M236.3,327.9l114.5-66.1-52.7-30.4-93,78.6Z" fill="#a5edca"/>
        <path id="Path_433" data-name="Path 433" d="M235.9,325.4l109.3-63a95.242,95.242,0,0,1,0-26.5L234.7,299.3s-9.4,21.1.5,26.8Z" fill="#fff"/>
        <path id="Path_434" data-name="Path 434" d="M236.3,300.1" fill="#ced1d5"/>
        <path id="Path_435" data-name="Path 435" d="M350.8,261.8,238,326.9c-8.8-6.5,0-25.5,0-25.5l112.9-65.2V234L234.1,298.8s-11.3,23.9,2.3,31.7l114.5-66.1v-2.6Z" fill="#68a580"/>
        <path id="Path_436" data-name="Path 436" d="M73.3,206l163,94.1L350.8,234l-163-94.1Z" fill="#a5edca"/>
        <path id="Path_437" data-name="Path 437" d="M236.3,330.5c-10.7-8.2,0-30.4,0-30.4l-163-94s-10.7,22.2,0,30.4Z" fill="#80c79f"/>
        <path id="Path_438" data-name="Path 438" d="M203.3,306.1c-3.7-6,0-18.5,0-18.5l-98.9-57.1s-4,11.7,0,18.5Z" fill="#fff"/>
        <path id="Path_439" data-name="Path 439" d="M80,234.6c-3.7-6,0-18.5,0-18.5L98.5,227s-4,11.7,0,18.5Z" fill="#fff"/>
        <path id="Path_440" data-name="Path 440" d="M210,309.8c-3.7-6,0-18.5,0-18.5l4.8,2.8s-4,11.7,0,18.5Z" fill="#fff"/>
      </g>
      <g id="Group_180" data-name="Group 180">
        <ellipse id="Ellipse_17" data-name="Ellipse 17" cx="12" cy="7.6" rx="12" ry="7.6" transform="translate(159.983 246.103) rotate(-0.926)" fill="#90d1aa"/>
        <path id="Path_441" data-name="Path 441" d="M154.2,272.3a2.373,2.373,0,0,1,.5,1.7c-.2.7-4.3,3.8-6.1,3.5-1.8-.2,1.6-5,2.9-5.7A2.918,2.918,0,0,1,154.2,272.3Z" fill="#524e6c"/>
        <path id="Path_442" data-name="Path 442" d="M165.3,279.5a2.373,2.373,0,0,1,.5,1.7c-.2.7-4.3,3.8-6.1,3.5-1.8-.2,1.6-5,2.9-5.7A2.918,2.918,0,0,1,165.3,279.5Z" fill="#524e6c"/>
        <path id="Path_443" data-name="Path 443" d="M178.3,255.9c-2.9,1.2-11.3,1.4-11.6,5.4s-1.2,17.8-1.4,18.5-2.9.7-3.1-.9-1.7-17.1-1.7-19.5,5.1-5.9,5.8-6c0,0-7.7,1.5-11.2,2.3,0,0,0,14.7-.9,16.8,0,0-3,.8-3.4-.7-.3-1.1-1.4-16.7-1.4-18.6s9.6-6.3,13.8-6.7c4.2-.5,12.9,5.5,12.9,5.5l2.7,2.5Z" fill="#7063ce"/>
        <path id="Path_444" data-name="Path 444" d="M178.7,256.9s-6.6-5.4-10.9-7.1-3.7-12.2-2.8-15.2c.9-2.9,5.5-4,7.6-3.7s7.1,1.4,8.1,8.7C181.8,247,182.1,251.7,178.7,256.9Z" fill="#fff"/>
        <path id="Path_445" data-name="Path 445" d="M170.6,233.1h0a2.263,2.263,0,0,0,2.3-2.3V225h-4.7v5.7A2.5,2.5,0,0,0,170.6,233.1Z" fill="#f0c8a9"/>
        <path id="Path_446" data-name="Path 446" d="M172.5,226.8c-.8,1.4-2.5,5.1-5.4,4.9s-3.5-6.5-2.2-8.1c1.4-1.6,2.7-1.8,4.9-1.8S174.8,223.2,172.5,226.8Z" fill="#f0c8a9"/>
        <path id="Path_447" data-name="Path 447" d="M172.1,224c-.4.1-1.4,2.1-5.5,1.7-4-.5-4.7-2.1-4.3-3.9.3-1.8,2.5-.8,3.7-1.5s5.6-2.3,8-.2.2,6,0,7.5a2.927,2.927,0,0,1-1.2,2.1s-1-.8-.1-3.4C172.8,225.9,173.8,223.8,172.1,224Z" fill="#5f859b"/>
        <path id="Path_448" data-name="Path 448" d="M163.9,250.8l-5.8-4.8v-9.5l5.8,4.8Z" fill="#475f97"/>
        <path id="Path_449" data-name="Path 449" d="M163.9,241.3l8.4-3.3v9.5l-8.4,3.3Z" fill="#6984c0"/>
        <path id="Path_450" data-name="Path 450" d="M179.7,242.2s.1,9.3-3.3,10.3-7.2-1.7-8.1-3.9c0,0-4.7-2.3-3-6.4.5-.9,1.4,2.8,2.5,3.3.1-.8-.1-1.1.1-1.6.1-.5,1.7,1.4,1.3,3.5a30.95,30.95,0,0,1,5.6,2.3s1.3-7,1.8-8.5,1.9-.4,1.9-.4Z" fill="#f0c8a9"/>
        <path id="Path_451" data-name="Path 451" d="M177.4,234.5c1.5-.5,3,0,3.6,2.9a28.978,28.978,0,0,1,.5,5.9c-3.7.6-5.5-1.2-5.5-1.2S174.9,235.4,177.4,234.5Z" fill="#e9d9d4"/>
      </g>
      <g id="Group_183" data-name="Group 183">
        <path id="Path_452" data-name="Path 452" d="M312.2,346.9c-18.3,11.3-22,21.8-19.4,30.3,4.8,6.7,20.2,2.1,33.9-5.7C347,359.9,504.5,284.7,483.3,261,453.6,243.8,332.2,334.6,312.2,346.9Z" fill="#bbe1ea"/>
        <g id="Group_182" data-name="Group 182">
          <path id="Path_453" data-name="Path 453" d="M484.6,246.3c-4.4-7.4-11.8-11.1-16.5-8.3L301.4,334.2l14.1,27.9L484,264.8C488.7,262,489,253.7,484.6,246.3Z" fill="#92c0f9"/>
          <path id="Path_454" data-name="Path 454" d="M315.4,362.2c4.6-2.8,5-10.8.8-18.1L299,354C303.4,361.3,310.8,364.9,315.4,362.2Z" fill="#6ca6d2"/>
          <path id="Path_455" data-name="Path 455" d="M318.4,349.2a26.262,26.262,0,0,0-2.4-5.5c-4.4-7.4-11-11.6-14.8-9.3-3.8,2.2-3.3,10.1,1.1,17.5a27.42,27.42,0,0,0,3.4,4.6Z" fill="#5b88b1"/>
          <g id="Group_181" data-name="Group 181">
            <path id="Path_456" data-name="Path 456" d="M428.6,278.9c-4.4-7.4-12-11.2-16.7-8.4l-37.1,21.2c4.7-2.7,12.3,1.1,16.6,8.5,4.4,7.4,4.1,15.7-.6,18.5L428,297.4C432.7,294.5,433,286.3,428.6,278.9Z" fill="#5b88b1"/>
          </g>
          <path id="Path_457" data-name="Path 457" d="M435.9,309.7a29.027,29.027,0,0,0-7.5-6.6c-6.2-3.8-13.8-5.7-16.1-1.9a4.128,4.128,0,0,0-.5,2.7,9.138,9.138,0,0,0-4.7,2.1,27.911,27.911,0,0,0-6.4,7.7c-3.7,6.3-5.4,13.9-1.5,16.2a3.439,3.439,0,0,0,2,.5,8.129,8.129,0,0,0,4.9-2.1,27.911,27.911,0,0,0,6.4-7.7,26.877,26.877,0,0,0,3.6-9.7,40.335,40.335,0,0,0,5.1,3.9c3.8,2.4,8.2,4,11.5,4,2.1,0,3.7-.6,4.6-2.1C438,315.7,438.7,313.4,435.9,309.7Zm-26.2,9.2a26.1,26.1,0,0,1-5.6,6.8c-1.6,1.3-2.8,1.6-3.3,1.3-1.1-.6-.9-5.5,2.7-11.7a26.1,26.1,0,0,1,5.6-6.8,5.567,5.567,0,0,1,2.9-1.4c.2,0,.3,0,.4.1C413.4,307.9,413.2,312.8,409.7,318.9Zm24.8-3.9c-.7,1.1-5.6.7-11.6-3s-8.5-7.9-7.9-9c.2-.3.8-.5,1.8-.5,2.1,0,5.7.9,9.8,3.5a23.822,23.822,0,0,1,6.6,5.7C434.5,313.4,434.8,314.6,434.5,315Z" fill="#5b88b1"/>
        </g>
      </g>
      <g id="Group_186" data-name="Group 186">
        <g id="Group_184" data-name="Group 184">
          <path id="Path_458" data-name="Path 458" d="M350.8,203.1c14.7-.2,26.5-8,26.3-17.4V154.5l-53.2,1.2v30.9C324.1,195.9,336.1,203.3,350.8,203.1Z" fill="#54518f"/>
          <path id="Path_459" data-name="Path 459" d="M350.8,198.6c14.7-.2,26.5-8,26.3-17.4V156.4l-53.2,1.2V182C324.1,191.5,336.1,198.9,350.8,198.6Z" fill="#706dad"/>
          <ellipse id="Ellipse_18" data-name="Ellipse 18" cx="26.6" cy="17" rx="26.6" ry="17" transform="translate(323.739 140.635) rotate(-0.926)" fill="#636363"/>
        </g>
        <path id="Path_460" data-name="Path 460" d="M350.6,127.1l-47.5,27.4,47.5,27.4L398,154.4Z" fill="#9f9ce1"/>
        <g id="Group_185" data-name="Group 185">
          <path id="Path_461" data-name="Path 461" d="M386.5,174.3a.684.684,0,0,1-.7-.7v-1.2c.1-3.8.2-10.1-3.5-11.2a.632.632,0,0,1,.4-1.2c4.6,1.4,4.5,8.3,4.4,12.4v1.2C387.1,174,386.9,174.3,386.5,174.3Z" fill="#d8a739"/>
        </g>
        <path id="Path_462" data-name="Path 462" d="M387.2,179.2l.1-3.3a.73.73,0,0,0-.6-.7c-.1,0-.1,0-.2.1h0c-.1,0-.1.1-.2.1h0a.664.664,0,0,0-.4.5l-.1,2.9-2.6,29.4v.1a1.624,1.624,0,0,0,1.5,1.6.52.52,0,0,0,.4-.2L385,212v.1a1.551,1.551,0,0,0,3.1-.1Z" fill="#d8a739"/>
        <path id="Path_463" data-name="Path 463" d="M386.5,177h0a1.793,1.793,0,0,1-1.8-1.8v-1.1a1.793,1.793,0,0,1,1.8-1.8h0a1.793,1.793,0,0,1,1.8,1.8v1.1A1.933,1.933,0,0,1,386.5,177Z" fill="#d8a739"/>
      </g>
      <g id="Group_188" data-name="Group 188">
        <path id="Path_464" data-name="Path 464" d="M301.6,250.1c-4.6.1-8.3,2.5-8.2,5.4s3.8,5.2,8.4,5.2c4.6-.1,8.3-2.5,8.2-5.4C310,252.3,306.2,250,301.6,250.1Z" fill="#90d1aa"/>
        <path id="Path_465" data-name="Path 465" d="M306.8,239.7l1.9,4.6,4.3,3.9-2.4.7-4.5-3.7-1.9-4.8Z" fill="#d78d75"/>
        <path id="Path_466" data-name="Path 466" d="M302.1,232.2c-1.9.2-.9,5,1.9,9.3a3.968,3.968,0,0,0,3.4-1.9C307.1,238.8,304.1,232,302.1,232.2Z" fill="#d6749a"/>
        <path id="Path_467" data-name="Path 467" d="M313.9,258.1s-.3,15-.2,16.9a13.965,13.965,0,0,0,.4,3.2c.1.2-2.9-1.1-3.2-2.7s-.9-16.8-.6-18.6a1.806,1.806,0,0,1,2.2-1.4Z" fill="#dab295"/>
        <path id="Path_468" data-name="Path 468" d="M316.4,254.9s6.4,9,8.7,12.1a15.235,15.235,0,0,0,3.5,2.1s-2.8,1.2-4.9,0-7.5-8.2-9.1-9.8c0,0-4.1.2-5.4-.8a7.155,7.155,0,0,1-1.9-3.3l6.1-2.1Z" fill="#f0c8a9"/>
        <path id="Path_469" data-name="Path 469" d="M296.1,249.9c.2.9,9.3,1.9,12.5-1.9,0,0,5.9,3.9,7.7,6.9,0,0-7.9-3-7.2,3.7C302.4,260.7,294.1,258.5,296.1,249.9Z" fill="#9088e8"/>
        <path id="Path_470" data-name="Path 470" d="M313.7,274.9c.2.7,3.1,5.1,3.3,6s-2.1-.2-3.3-1.1c-1.3-1-2.5-1.4-3.2-2.6-.1-.7,0-2.3.3-2.4.6.2,1.5,2.6,2.8,2.6A11.215,11.215,0,0,0,313.7,274.9Z" fill="#b94864"/>
        <path id="Path_471" data-name="Path 471" d="M322,267.6s-.2,2,.3,2.5,7.6.3,8.8-.2-4.1-1.6-4.6-1.9c.5.4,1.2.8,1.1,1.2C327.6,269.6,323.3,269.4,322,267.6Z" fill="#b94864"/>
        <path id="Path_472" data-name="Path 472" d="M296.1,249.9c1.5-4.2-3.5-8.2-3.2-10.8-.1-3.2-1.2-5.3,4.2-7.4,3.3-1.2,8.4,2.7,9.1,4.4s.8,3.6-.8,4.8c-.2,1.7.6,6.9,3.4,7C308.4,251.5,299.6,252.5,296.1,249.9Z" fill="#e0a5bb"/>
        <path id="Path_473" data-name="Path 473" d="M298.6,233.2h0a2.263,2.263,0,0,1-2.3-2.3v-5.6h4.5v5.6A2.126,2.126,0,0,1,298.6,233.2Z" fill="#f0c8a9"/>
        <path id="Path_474" data-name="Path 474" d="M296.9,227.7c.8,1.4,2,4.4,4.8,4.2s3.8-6.3,2.4-7.9c-1.3-1.6-2.7-1.8-4.7-1.8S294.8,224.2,296.9,227.7Z" fill="#f0c8a9"/>
        <path id="Path_475" data-name="Path 475" d="M303.9,225.4s-3.5.3-4.7-1.4c0,0-3.3,5.4-1.2,9.9-1.1,0-3.6-.8-3.4-5.3.1-4.5,1-7.3,4-7.8s8.6,1.5,5.8,9.1Z" fill="#a97c5d"/>
        <g id="Group_187" data-name="Group 187">
          <path id="Path_476" data-name="Path 476" d="M305.2,255.8l-7.2-4,10.9-6.6,6.7,4.3Z" fill="#7f9bb6"/>
          <path id="Path_477" data-name="Path 477" d="M305.2,255.8v-6.4l10.4-6.1v6.2Z" fill="#627893"/>
          <path id="Path_478" data-name="Path 478" d="M310.1,249.8c-.2.6-.1,1.2.2,1.3s.7-.3.9-1c.2-.6.1-1.2-.2-1.3S310.3,249.1,310.1,249.8Z" fill="#7f9bb6"/>
        </g>
        <path id="Path_479" data-name="Path 479" d="M290.7,243.7s-.6,5.6,0,7.3,9,.6,11,.9a7.774,7.774,0,0,1,2.6.7c.7.3.3-1.8-2.2-2.1.2-.2.5.1,1.3-.1.2-.5-1.5-.7-2.4-.2,0,0-6.3-.9-7.3-.6l.8-6.8Z" fill="#d78d75"/>
        <path id="Path_480" data-name="Path 480" d="M293.7,234.1c-1.8-.8-3.4,4.6-3,9.8a4.352,4.352,0,0,0,3.9,0C294.7,243.1,295.6,234.9,293.7,234.1Z" fill="#d6749a"/>
      </g>
      <g id="Group_197" data-name="Group 197">
        <ellipse id="Ellipse_19" data-name="Ellipse 19" cx="14.6" cy="9.3" rx="14.6" ry="9.3" transform="translate(169.557 165.643) rotate(-0.926)" fill="#90d1aa"/>
        <path id="Path_481" data-name="Path 481" d="M115.3,202.4c-8.1.1-14.6,4.4-14.5,9.6s6.7,9.2,14.8,9.1,14.6-4.4,14.5-9.6C129.9,206.4,123.3,202.3,115.3,202.4Z" fill="#90d1aa"/>
        <g id="Group_190" data-name="Group 190">
          <path id="Path_482" data-name="Path 482" d="M174.6,111.4a3.485,3.485,0,0,0,.7-2.7c-.3-.5-.7,0-.7,0a21.622,21.622,0,0,1,0-2.7c.1-1.3-3.2-1-2.7,2.7a9.351,9.351,0,0,0,1,2.7Z" fill="#f0c8a9"/>
          <g id="Group_189" data-name="Group 189">
            <path id="Path_483" data-name="Path 483" d="M174.4,130.2s-1.7-13.4-1.6-19.7h1.9s.9,14.6,2.4,17.7" fill="#f0c8a9"/>
            <path id="Path_484" data-name="Path 484" d="M176.5,134.7c1.2.1,2.2-.5,2-2.8a19.762,19.762,0,0,0-.8-4.5,17.624,17.624,0,0,1-3.8,2.4S174.5,134.5,176.5,134.7Z" fill="#628bb8"/>
          </g>
          <path id="Path_485" data-name="Path 485" d="M181.6,170.9a2.017,2.017,0,0,1,.4,1.2c-.1.6-3.2,2.8-4.5,2.6s1.2-3.7,2.1-4.2A2.351,2.351,0,0,1,181.6,170.9Z" fill="#524e6c"/>
          <path id="Path_486" data-name="Path 486" d="M185.1,173.6a2.017,2.017,0,0,1,.4,1.2c-.1.6-3.2,2.8-4.5,2.6s1.2-3.7,2.1-4.2A2.234,2.234,0,0,1,185.1,173.6Z" fill="#524e6c"/>
          <path id="Path_487" data-name="Path 487" d="M181.6,144.4s-.7,21.7.4,27c0,0-1.2,1.1-3.5,0,0,0-2.2-16.9-1.7-22.1l.2-4.9Z" fill="#475f97"/>
          <path id="Path_488" data-name="Path 488" d="M185.3,146.9s-.7,21.7.4,27c0,0-1.2,1.1-3.5,0,0,0-2.2-16.9-1.7-22.1l.2-4.9Z" fill="#6984c0"/>
          <path id="Path_489" data-name="Path 489" d="M185.8,149.5s-5.8,3.7-9.8-.6c0-6.4-1.6-14-.9-16.2s4.1-3,5.7-2.8,3.7.5,4.4,5.9C186,141.3,185.2,144.7,185.8,149.5Z" fill="#84bdcb"/>
          <path id="Path_490" data-name="Path 490" d="M179.3,131.5h0a1.685,1.685,0,0,0,1.7-1.7v-4.3h-3.5v4.3A1.844,1.844,0,0,0,179.3,131.5Z" fill="#f0c8a9"/>
          <path id="Path_491" data-name="Path 491" d="M180.8,126.9c-.6,1-1.9,3.8-4,3.7-2.1-.2-2.6-4.8-1.6-6s2-1.4,3.6-1.4S182.4,124.2,180.8,126.9Z" fill="#f0c8a9"/>
          <path id="Path_492" data-name="Path 492" d="M180.5,124.8a4.461,4.461,0,0,1-4.1,1.2c-3-.4-3.5-2.3-3.3-3.6,0,0,2.2.6,3.1.1s4-2.2,5.5-.4c1.6,1.9.3,4.3.2,5.4a2.6,2.6,0,0,1-.9,1.6s-.7-.6,0-2.6C181,126.2,181.7,124.6,180.5,124.8Z" fill="#8d7350"/>
        </g>
        <g id="Group_192" data-name="Group 192">
          <path id="Path_493" data-name="Path 493" d="M105.1,155a3.485,3.485,0,0,0,.7-2.7c-.3-.5-.7,0-.7,0a21.624,21.624,0,0,1,0-2.7c.1-1.3-3.2-1-2.7,2.7a9.351,9.351,0,0,0,1,2.7Z" fill="#f0c8a9"/>
          <g id="Group_191" data-name="Group 191">
            <path id="Path_494" data-name="Path 494" d="M104.3,169.4a136.38,136.38,0,0,1-1-15.2h1.9s.3,10.1,1.8,13.2" fill="#f0c8a9"/>
            <path id="Path_495" data-name="Path 495" d="M106.3,173.8c1.2.1,2.2-.5,2-2.8a19.761,19.761,0,0,0-.8-4.5,17.624,17.624,0,0,1-3.8,2.4S104.3,173.6,106.3,173.8Z" fill="#a8a2cf"/>
          </g>
          <path id="Path_496" data-name="Path 496" d="M111.4,210.1a2.017,2.017,0,0,1,.4,1.2c-.1.5-3.2,2.8-4.5,2.6s1.2-3.7,2.1-4.2A2.234,2.234,0,0,1,111.4,210.1Z" fill="#524e6c"/>
          <path id="Path_497" data-name="Path 497" d="M115,212.8a2.017,2.017,0,0,1,.4,1.2c-.1.6-3.2,2.8-4.5,2.6s1.2-3.7,2.1-4.2A2.234,2.234,0,0,1,115,212.8Z" fill="#524e6c"/>
          <path id="Path_498" data-name="Path 498" d="M111.4,183.6s-.7,21.7.4,27c0,0-1.2,1.1-3.5,0,0,0-2.2-16.9-1.7-22.1l.2-4.9Z" fill="#475f97"/>
          <path id="Path_499" data-name="Path 499" d="M115.2,186.1s-.7,21.7.4,27c0,0-1.2,1.1-3.5,0,0,0-2.2-16.9-1.7-22.1l.2-4.9Z" fill="#6984c0"/>
          <path id="Path_500" data-name="Path 500" d="M115.7,188.6s-5.8,3.7-9.8-.6c0-6.4-1.6-14-.9-16.2s4.1-3,5.7-2.8,3.7.5,4.4,5.9C115.8,180.5,115.1,183.9,115.7,188.6Z" fill="#746d95"/>
          <path id="Path_501" data-name="Path 501" d="M109.2,170.7h0a1.685,1.685,0,0,0,1.7-1.7v-4.3h-3.5V169A1.774,1.774,0,0,0,109.2,170.7Z" fill="#f0c8a9"/>
          <path id="Path_502" data-name="Path 502" d="M110.6,166c-.6,1-1.9,3.8-4,3.7-2.1-.2-2.6-4.8-1.6-6s2-1.4,3.6-1.4S112.3,163.3,110.6,166Z" fill="#f0c8a9"/>
          <path id="Path_503" data-name="Path 503" d="M110.3,164a4.461,4.461,0,0,1-4.1,1.2c-3-.4-3.5-1.6-3.2-2.9.2-1.3,1.9-.6,2.8-1.1.9-.6,4.2-1.7,6-.2s.2,4.5,0,5.6a2.6,2.6,0,0,1-.9,1.6s-.7-.6,0-2.6C110.8,165.4,111.5,163.8,110.3,164Z" fill="#5f859b"/>
        </g>
        <g id="Group_194" data-name="Group 194">
          <path id="Path_504" data-name="Path 504" d="M182.1,102.8h0c-1.8,1.2-1.9,4.3-.2,7,1.7,2.8,4.5,4.2,6.3,3.1l11.6-6.7c1.8-1.1,1.9-4.2.2-7s-4.5-4.2-6.3-3.1Z" fill="#e79ab7"/>
          <path id="Path_505" data-name="Path 505" d="M176.6,106h0c-1.8,1.2-1.9,4.3-.2,7,1.7,2.8,4.5,4.2,6.3,3.1l11.6-6.7c1.8-1.1,1.9-4.2.2-7s-4.5-4.2-6.3-3.1Z" fill="#9088e8"/>
          <g id="Group_193" data-name="Group 193">
            <path id="Path_506" data-name="Path 506" d="M191.4,104.2c-1.7-2.8-4.5-4.2-6.3-3.1l-102,59.1,6.2,10.1,101.9-59.1C193,110.2,193.1,107,191.4,104.2Z" fill="#f3d46c"/>
            <path id="Path_507" data-name="Path 507" d="M82.9,167.2c1.7,2.8,4.5,4.2,6.3,3.1s1.9-4.2.2-7-4.5-4.2-6.3-3.1S81.3,164.4,82.9,167.2Z" fill="#a6a6a6"/>
          </g>
          <path id="Path_508" data-name="Path 508" d="M68.8,174c.5-.3,1.8,1.7,1.2,2.1,6.3-1.7,18-5,19.3-5.8,1.8-1.1,1.9-4.2.2-7s-4.5-4.2-6.3-3.1C81.8,161,73.3,169.4,68.8,174Z" fill="#ccc"/>
          <path id="Path_509" data-name="Path 509" d="M68.8,174c-1.7,1.8-2.8,3-2.8,3a25.467,25.467,0,0,0,4-.9C70.6,175.8,69.3,173.7,68.8,174Z" fill="#7a8698"/>
        </g>
        <g id="Group_195" data-name="Group 195">
          <path id="Path_510" data-name="Path 510" d="M115.2,170.6s2.1-7.1-1.4-16.1l-1.8.4s2.2,9.7.1,14.4" fill="#f0c8a9"/>
          <path id="Path_511" data-name="Path 511" d="M114.2,175.4c-1.1.4-2.2,0-2.6-2.2a24.12,24.12,0,0,1-.3-4.6,22.6,22.6,0,0,0,4.2,1.5S116.1,174.7,114.2,175.4Z" fill="#a8a2cf"/>
          <path id="Path_512" data-name="Path 512" d="M112,154.9c-.6-.4-1.5-1.9-1.3-2.4s.7-.2.7-.2a17.342,17.342,0,0,0-.6-2.7c-.4-1.2,2.9-1.8,3.3,2a12.079,12.079,0,0,1-.2,2.8Z" fill="#f0c8a9"/>
        </g>
        <g id="Group_196" data-name="Group 196">
          <path id="Path_513" data-name="Path 513" d="M186.1,130.4s.6-10-.8-16.2l-1.8.4s.5,11-.4,14.4" fill="#f0c8a9"/>
          <path id="Path_514" data-name="Path 514" d="M184.9,135.2c-1.1.3-2.2-.1-2.5-2.3a24.432,24.432,0,0,1-.1-4.6,17.943,17.943,0,0,0,4.2,1.6S186.8,134.6,184.9,135.2Z" fill="#628bb8"/>
          <path id="Path_515" data-name="Path 515" d="M183.5,114.6a3.319,3.319,0,0,1-1.2-2.5c.2-.5.7-.1.7-.1a12.736,12.736,0,0,0-.5-2.7c-.4-1.2,3-1.7,3.2,2.1a9.871,9.871,0,0,1-.3,2.8Z" fill="#f0c8a9"/>
        </g>
      </g>
      <g id="Group_200" data-name="Group 200">
        <path id="Path_516" data-name="Path 516" d="M95.7,356.4c-.2.2-1.1.5-1.3,1.1-.1.5,1.8,6.6,3.9,7.4.9.3-.2-6.2-.2-6.2l-1.6-1.4Z" fill="#524e6c"/>
        <path id="Path_517" data-name="Path 517" d="M106.7,366.5s-1.1,1.3-.9,1.9,5,4.3,6.9,4.4c2,.1-2.6-6.8-2.6-6.8Z" fill="#524e6c"/>
        <g id="Group_198" data-name="Group 198">
          <path id="Path_518" data-name="Path 518" d="M112.1,312.7s-1,4.4.4,7.5,5.8,11.5,6.1,11.9c.2,1.6.7,3.1,1.3,3.5,1.5-.2,1.7-.5,1.9-.8.3-.7-.5-1.7-1.1-2.4,0,0,1.2.7,1.4.1-.7-.3-1.2-1.4-1.9-1.3,0,0-4.8-9.6-5.2-11.1-.4-1.4.3-6.8.3-6.8Z" fill="#f0c8a9"/>
          <path id="Path_519" data-name="Path 519" d="M111.9,306.8a7.785,7.785,0,0,1,4.7,6.6,14.4,14.4,0,0,1-3.7.7Z" fill="#97cccc"/>
        </g>
        <path id="Path_520" data-name="Path 520" d="M108.6,304.1c-.5-1.2-6.6,1.7-10.1,5C96.2,311.7,88,334,101,326.7l6.3-8.6s-2.1-7.8-2-8.3,5.8-2.6,5.8-2.6l-2.5-3.1" fill="#9f5b7e"/>
        <path id="Path_521" data-name="Path 521" d="M112.4,332c.7,3.9.4,13.2-2,15.8S98.1,359,98.1,359s-1.8,1.1-2.5-2.6c0,0,10-10.2,10-13.4-.1-3.2-.8-14.8-.8-14.8l7,.9Z" fill="#688ba9"/>
        <path id="Path_522" data-name="Path 522" d="M98.9,331.4s5.5,11.9,6.9,16.1.9,18.5,1,19.1c2.6,1.6,4-.3,4-.3s.6-14.6.4-19.5-4.9-15.9-4.9-15.9Z" fill="#7395b8"/>
        <path id="Path_523" data-name="Path 523" d="M97.7,331.7c-1.1,2.5,14.8,1.7,16.8,0-2.9-9.7,3.5-24.3-3.4-26.1-2.4-.3-8.9.1-10.6,6.9C99.1,318.6,99.5,327.9,97.7,331.7Z" fill="#b4e9eb"/>
        <path id="Path_524" data-name="Path 524" d="M104.7,306.8a2.376,2.376,0,0,1,2.1-1s1.1,13.6-7.7,20.8a2.3,2.3,0,0,1,.4-2.7C99.5,324,107.3,316,104.7,306.8Z" fill="#9f5b7e"/>
        <path id="Path_525" data-name="Path 525" d="M110.5,308h0a2.22,2.22,0,0,1-2.2-2.2v-5.4h4.4v5.4A2.22,2.22,0,0,1,110.5,308Z" fill="#f0c8a9"/>
        <path id="Path_526" data-name="Path 526" d="M108.6,302.1c.8,1.3,2.4,4.9,5.1,4.7s3.3-6.1,2.1-7.7c-1.3-1.5-2.6-1.7-4.6-1.7S106.5,298.7,108.6,302.1Z" fill="#f0c8a9"/>
        <path id="Path_527" data-name="Path 527" d="M109,299.5c.4,0,1.3,2,5.2,1.6,3.8-.5,4.4-2,4.1-3.7s-2.4-.7-3.5-1.4-5.3-2.1-7.6-.2c-2.3,2-.2,5.7,0,7.1a2.956,2.956,0,0,0,1.1,2s.9-.8.1-3.2C108.4,301.3,107.4,299.3,109,299.5Z" fill="#5f859b"/>
        <g id="Group_199" data-name="Group 199">
          <path id="Path_528" data-name="Path 528" d="M98.5,312.4s-3,4.2-2.9,7.6c.2,3.4,1.9,12.2,2,12.7s0,4.4,1.5,4.4,2-.9,1.8-1-1.8-1.5-1.7-2.3c0,0,.8,1,1.3.6s-.6-1.8-1.3-1.9c0,0-.7-11.4-.5-12.9s2.5-5.5,2.5-5.5Z" fill="#f0c8a9"/>
          <path id="Path_529" data-name="Path 529" d="M105,307.4s-2.7-1.5-6.8,4.5c0,0,2,2.7,4.2,3.2C102.3,315.1,106.4,309.7,105,307.4Z" fill="#97cccc"/>
        </g>
      </g>
      <g id="Group_204" data-name="Group 204">
        <g id="Group_201" data-name="Group 201">
          <path id="Path_530" data-name="Path 530" d="M88.8,323.7s-2.5,3.7-2.3,7.1,1.6,12.7,1.7,13.2,0,4.4,1.6,4.4,2-.9,1.8-1-1.8-1.5-1.7-2.3c0,0,.8,1,1.3.6s-.7-1.8-1.3-1.8c0,0-1.1-10.7-.9-12.2.1-1.5,2.7-6.3,2.7-6.3Z" fill="#f0c8a9"/>
          <path id="Path_531" data-name="Path 531" d="M89.4,317.9s4.7,3.1,3.3,8.1a13.767,13.767,0,0,1-3.7-.7Z" fill="#c7a2c8"/>
        </g>
        <path id="Path_532" data-name="Path 532" d="M90.5,373.5s-1.1,1.3-.9,1.9,5,4.3,6.9,4.4c2,.1-2.6-6.8-2.6-6.8Z" fill="#524e6c"/>
        <path id="Path_533" data-name="Path 533" d="M82.5,337.4s-2.3,5,6.9,17.3c1.4,4.2.9,18.5,1,19.1,2.6,1.6,4-.3,4-.3s.6-14.6.4-19.5-4.9-15.9-4.9-15.9Z" fill="#ab88dd"/>
        <path id="Path_534" data-name="Path 534" d="M86,316.4c-.4-1.1-5.2,1.6-8,4.7-1.8,2.5-8.3,23.4,1.9,16.6l5-8.1s-1.7-7.4-1.6-7.8c.1-.5,4.6-2.5,4.6-2.5L86,316.4" fill="#9f5b7e"/>
        <g id="Group_202" data-name="Group 202">
          <path id="Path_535" data-name="Path 535" d="M70.9,367.6c-.2.2-1.1.5-1.3,1.1-.1.5.4,6.1,3.9,7.4.9.3-.2-6.2-.2-6.2l-1.6-1.4Z" fill="#524e6c"/>
          <path id="Path_536" data-name="Path 536" d="M85.5,341.5c.7,3.9-1.7,17.3-4.1,19.9s-8,8.8-8,8.8-1.8,1.1-2.5-2.6c0,0,7.1-10.6,7-13.8s-3.2-12.6-.3-14.2c.8-.7,4.4,0,4.4,0Z" fill="#ab88dd"/>
        </g>
        <path id="Path_537" data-name="Path 537" d="M76.8,339.5c-1,2.6,13.5,3,13.5-1.1-1.2-4-.1-4.7-.1-8.3.2-.8,1.4-1.7,1.8-3.1,1-3.3-1.1-8.3-3.6-10-2.4-.3-8.9.1-10.6,6.9C76.3,329.9,80.9,328.3,76.8,339.5Z" fill="#e3c8d0"/>
        <path id="Path_538" data-name="Path 538" d="M82,318.2a2.376,2.376,0,0,1,2.1-1s1.1,13.6-7.7,20.8a2.3,2.3,0,0,1,.4-2.7S84.5,327.4,82,318.2Z" fill="#9f5b7e"/>
        <path id="Path_539" data-name="Path 539" d="M87.7,319.4h0a2.22,2.22,0,0,1-2.2-2.2v-5.4h4.4v5.4A2.22,2.22,0,0,1,87.7,319.4Z" fill="#f0c8a9"/>
        <path id="Path_540" data-name="Path 540" d="M85.9,313.5c.8,1.3,2.4,4.9,5.1,4.7s3.3-6.1,2.1-7.7c-1.3-1.5-2.6-1.7-4.6-1.7S83.8,310.1,85.9,313.5Z" fill="#f0c8a9"/>
        <g id="Group_203" data-name="Group 203">
          <path id="Path_541" data-name="Path 541" d="M78.5,325.8s-.5,4.7.5,7.9c1.4,4.5,7.1,10.4,7.3,10.8s1.3,2.4,2.7,2.4c1.5-.1,2-.7,1.7-.7-.2,0-2.2-.6-2.5-1.4,0,0,1.2.6,1.4,0s-1.3-1.4-2-1.1c0,0-5.4-9.3-5.8-10.7-.5-1.4-.1-6.8-.1-6.8Z" fill="#f0c8a9"/>
          <path id="Path_542" data-name="Path 542" d="M82.2,318.5s-3-.2-4.3,7c0,0,3,1.6,5.1,1.1C83.1,326.7,84.5,320,82.2,318.5Z" fill="#c7a2c8"/>
        </g>
        <path id="Path_543" data-name="Path 543" d="M93.4,311.2s-6.7-2.1-4.9,3.4c0,0-1-1.6-1.3-.4a5.045,5.045,0,0,1-1.7,2.5,48.175,48.175,0,0,1-1.1-5.9c0-1.3,1.9-2.8,4.7-2.8S93.2,309.2,93.4,311.2Z" fill="#e695ae"/>
        <path id="Path_544" data-name="Path 544" d="M88.1,313.8c0,.6-.3,1.1-.7,1.1s-.7-.5-.7-1.1.3-1.1.7-1.1S88.1,313.2,88.1,313.8Z" fill="#f0c8a9"/>
        <path id="Path_545" data-name="Path 545" d="M88.4,308.5a2.9,2.9,0,1,1-2.9-2.9A2.84,2.84,0,0,1,88.4,308.5Z" fill="#e695ae"/>
      </g>
      <g id="Group_210" data-name="Group 210">
        <g id="Group_205" data-name="Group 205">
          <path id="Path_546" data-name="Path 546" d="M184.3,220.2l31.8-18.4L248,220.2l-31.9,18.3Z" fill="#90d1aa"/>
          <path id="Path_547" data-name="Path 547" d="M184.3,211.1l31.8-18.4L248,211.1l-31.9,18.4Z" fill="#f3d45f"/>
          <path id="Path_548" data-name="Path 548" d="M216.1,229.5v3.7L248,214.8v-3.7Z" fill="#ddb341"/>
          <path id="Path_549" data-name="Path 549" d="M216.1,233.2l-31.8-18.4v-3.7l31.8,18.4Z" fill="#d89a3e"/>
        </g>
        <g id="Group_209" data-name="Group 209">
          <path id="Path_550" data-name="Path 550" d="M225.7,200.6a9.9,9.9,0,1,1-9.9-9.9A9.859,9.859,0,0,1,225.7,200.6Z" fill="#fff"/>
          <g id="Group_206" data-name="Group 206">
            <path id="Path_551" data-name="Path 551" d="M205.9,219a1.689,1.689,0,0,1-1-.3c-2.7-1.7.7-9.9,2.2-13.2l.6,1c-3.3,7.1-3.4,10.8-2.3,11.5,1.9,1.2,8.6-4.8,15.1-15.3,6.6-10.5,9-19.1,7.1-20.3-1.2-.8-5.1,1.9-10.4,8.6l-.5-1c1.9-2.5,8.4-10.3,11.4-8.4,3.1,2-1.3,12.5-6.8,21.6C216.3,211.5,209.5,219.1,205.9,219Z" fill="#aed5f9"/>
          </g>
          <g id="Group_207" data-name="Group 207">
            <path id="Path_552" data-name="Path 552" d="M225.8,220c-2.9,0-7.9-6.8-9.8-9.5l1.1-.1c4.4,6.4,8,9.2,9.1,8.5,2-1,.2-9.8-5.5-20.8a64.947,64.947,0,0,0-8.3-12.7c-3-3.4-4.8-4.2-5.6-3.8-1.3.7-1.2,5,1.9,12.9l-.9.3c-1.1-2.9-4.6-12.5-1.5-14.1,1.9-1,4.7,1.6,6.7,4a62.616,62.616,0,0,1,8.4,12.9c4.9,9.4,8.4,20.4,5.1,22.1C226.4,220,226.1,220,225.8,220Z" fill="#aed5f9"/>
          </g>
          <g id="Group_208" data-name="Group 208">
            <path id="Path_553" data-name="Path 553" d="M226.6,207.4c-1,0-2.4-.1-3.5-.1l.6-.8c7.8.5,11.4-.9,11.6-2.3.2-1.1-1.6-2.7-4.8-4.1a57.4,57.4,0,0,0-13.5-3.9,59.682,59.682,0,0,0-14-1c-3.5.3-5.8,1.1-6,2.2-.2,1.3,2.4,3.6,9.2,5.8l.3,1.1c-6.7-2.2-10.8-4.9-10.4-7.1.4-2,3.9-2.7,6.8-3a66.886,66.886,0,0,1,28,5c2.7,1.2,5.7,3.1,5.4,5.1C235.9,206.3,232.4,207.4,226.6,207.4Z" fill="#aed5f9"/>
          </g>
        </g>
      </g>
      <g id="Group_211" data-name="Group 211">
        <path id="Path_554" data-name="Path 554" d="M350.7,146.6c-8.5.1-15.3,4.7-15.2,10.1s7.1,9.7,15.6,9.6,15.3-4.7,15.2-10.1C366.1,150.8,359.2,146.5,350.7,146.6Z" fill="#8181c9"/>
        <path id="Path_555" data-name="Path 555" d="M341.7,159.3s9.6-2.3,11.3-5.5-4.2-1.6-4.2-1.6l-4,3.2Z" fill="#6a8ebb"/>
        <path id="Path_556" data-name="Path 556" d="M354.3,146.7a52.794,52.794,0,0,1,11.8-1.5c2.8.2,6.4,4.1-5.6,7.6s-10.9-3.8-10.9-3.8A20.766,20.766,0,0,0,354.3,146.7Z" fill="#6a8ebb"/>
        <path id="Path_557" data-name="Path 557" d="M352.9,152.9c-1.1.1-5.2,2-6.2,5.5s4.3,0,6.8-2.7Z" fill="#524e6c"/>
        <path id="Path_558" data-name="Path 558" d="M336.5,153.5s-4.3-20.4,6.1-27.9c2.3-1.7,11.2-2.9,13,.4,1.9,3.4-1.3,8.6-1.3,11.1.1,2.6-.5,8.8-.1,9.6s-9.1,4.8-9.1,4.8l-4.1,5.4Z" fill="#d0b9ec"/>
        <path id="Path_559" data-name="Path 559" d="M349.2,126.6l-1.1,12.1,10.4,1.5.8-11.4Z" fill="#c78da5"/>
        <path id="Path_560" data-name="Path 560" d="M359.3,128.8l6.8-1.2-1.2,11-6.4,1.6Z" fill="#9b5070"/>
        <path id="Path_561" data-name="Path 561" d="M349.1,125.6h0a2.583,2.583,0,0,1-2.2-2.9l.8-6.3,5.1.7-.8,6.3A2.583,2.583,0,0,1,349.1,125.6Z" fill="#f0c8a9"/>
        <path id="Path_562" data-name="Path 562" d="M347.9,118.5c.7,1.6,2,6,5.2,6.2s4.8-6.6,3.6-8.6c-1.3-2-2.7-2.4-5.1-2.7S346,114.2,347.9,118.5Z" fill="#f0c8a9"/>
        <path id="Path_563" data-name="Path 563" d="M348.7,115.5c.4.1,1.2,2.6,5.7,2.6s5.4-1.7,5.3-3.6c-.1-2-2.2-3.7-3.6-4.3a10.426,10.426,0,0,0-9,.7c-2.9,1.9-1.7,6.8-1.7,8.5a2.322,2.322,0,0,0,1.5,2.2s1.2-.7.6-3.7C347.7,117.5,346.9,115.1,348.7,115.5Z" fill="#536997"/>
        <path id="Path_564" data-name="Path 564" d="M348.2,118.4c-.4-.2-1.3-2.1-.5-3s1.5,1.2,1.5,1.2" fill="#f0c8a9"/>
        <path id="Path_565" data-name="Path 565" d="M341.5,133.3s-2.8,11.5-.6,15.4,6.8-10.2,7.6-11.2,4.3-3.5,4.5-5.3c.3-1.8-1.7-2.4-3.1-.7-.3.5-.7.7-.8,1-.2.2,0-.5,0-1.3s-1.3,0-1.2,1.2c.1,1.3-.9,2-.5,3.1-.3.5-2.4,3.3-2.7,3.9l.8-5.7Z" fill="#f0c8a9"/>
        <path id="Path_566" data-name="Path 566" d="M344.8,124.6c-1.4-.2-5.8,2.6-4.8,9.3,0,0,4.6,1.4,6.8.9C347.4,133.9,348.8,125.1,344.8,124.6Z" fill="#987fbc"/>
        <path id="Path_567" data-name="Path 567" d="M336.8,153c-1.8,1.8.1,7.9,5.1,6.5s5.9-6.1,9.1-5c3.3,1.1,13.5,4.2,15.6,4.1,2.1-.2,1.9-3,1.9-3.3s-17-10.2-18.5-9.9A36.1,36.1,0,0,0,336.8,153Z" fill="#98b5df"/>
        <path id="Path_568" data-name="Path 568" d="M367.3,158.1c1,.5,5.4,1.2,8.2-1.2s-3.6-2.4-7.2-1.4Z" fill="#524e6c"/>
      </g>
      <g id="Group_215" data-name="Group 215">
        <g id="Group_212" data-name="Group 212">
          <path id="Path_569" data-name="Path 569" d="M352.9,107.8a1.645,1.645,0,0,0,1.7-1.4,3.219,3.219,0,0,1,.5-2h-4.3a3.759,3.759,0,0,1,.5,2A1.483,1.483,0,0,0,352.9,107.8Z" fill="#9b5070"/>
          <path id="Path_570" data-name="Path 570" d="M352.9,103.1c-1.2,0-2.2.6-2.2,1.4s1,1.4,2.2,1.4,2.2-.6,2.2-1.4S354.1,103.1,352.9,103.1Z" fill="#878787"/>
        </g>
        <g id="Group_213" data-name="Group 213">
          <path id="Path_571" data-name="Path 571" d="M352.9,106.8c1.4,0,2.5-.7,2.5-1.6v-3h-4.9v2.9C350.4,106.1,351.5,106.8,352.9,106.8Z" fill="#987fbc"/>
          <path id="Path_572" data-name="Path 572" d="M352.9,100.7c-1.4,0-2.5.7-2.5,1.6s1.1,1.6,2.5,1.6,2.5-.7,2.5-1.6S354.3,100.7,352.9,100.7Z" fill="#d0b9ec"/>
        </g>
        <g id="Group_214" data-name="Group 214">
          <path id="Path_573" data-name="Path 573" d="M355.4,102.8Z" fill="#8c8c8c"/>
        </g>
        <path id="Path_574" data-name="Path 574" d="M357.4,96.6a4.593,4.593,0,0,0-4.4-4.5,4.669,4.669,0,0,0-4.5,4.4v.1h0c-.1,3.9,2.6,4.6,2.6,5.8h0c0,.6.8,1,1.7,1s1.7-.4,1.7-1h0c0-1.2,2.7-1.8,2.8-5.7h0C357.4,96.7,357.4,96.7,357.4,96.6Z" fill="#f6e05e"/>
        <path id="Path_575" data-name="Path 575" d="M351.8,93.7a.5.5,0,1,1-.5-.5C351.6,93.3,351.8,93.5,351.8,93.7Z" fill="#f0f0f0"/>
      </g>
      <g id="Group_219" data-name="Group 219">
        <g id="Group_216" data-name="Group 216">
          <path id="Path_576" data-name="Path 576" d="M299.7,217.4a1.645,1.645,0,0,0,1.7-1.4,3.219,3.219,0,0,1,.5-2h-4.3a3.759,3.759,0,0,1,.5,2A1.546,1.546,0,0,0,299.7,217.4Z" fill="#9b5070"/>
          <path id="Path_577" data-name="Path 577" d="M299.7,212.7c-1.2,0-2.2.6-2.2,1.4s1,1.4,2.2,1.4,2.2-.6,2.2-1.4S300.9,212.7,299.7,212.7Z" fill="#878787"/>
        </g>
        <g id="Group_217" data-name="Group 217">
          <path id="Path_578" data-name="Path 578" d="M299.7,216.4c1.4,0,2.5-.7,2.5-1.6v-3h-4.9v2.9C297.3,215.7,298.4,216.4,299.7,216.4Z" fill="#987fbc"/>
          <path id="Path_579" data-name="Path 579" d="M299.8,210.4c-1.4,0-2.5.7-2.5,1.6s1.1,1.6,2.5,1.6,2.5-.7,2.5-1.6A2.23,2.23,0,0,0,299.8,210.4Z" fill="#d0b9ec"/>
        </g>
        <g id="Group_218" data-name="Group 218">
          <path id="Path_580" data-name="Path 580" d="M302.2,212.4Z" fill="#8c8c8c"/>
        </g>
        <path id="Path_581" data-name="Path 581" d="M304.3,206.2a4.593,4.593,0,0,0-4.4-4.5,4.669,4.669,0,0,0-4.5,4.4v.1h0c-.1,3.9,2.6,4.6,2.6,5.8h0c0,.6.8,1,1.7,1s1.7-.4,1.7-1h0c0-1.2,2.7-1.8,2.8-5.7h0C304.3,206.3,304.3,206.3,304.3,206.2Z" fill="#f6e05e"/>
        <path id="Path_582" data-name="Path 582" d="M298.7,203.3a.5.5,0,1,1-.5-.5C298.5,202.9,298.7,203.1,298.7,203.3Z" fill="#f0f0f0"/>
      </g>
      <g id="Group_223" data-name="Group 223">
        <g id="Group_220" data-name="Group 220">
          <path id="Path_583" data-name="Path 583" d="M168.6,215.2a1.645,1.645,0,0,0,1.7-1.4,3.219,3.219,0,0,1,.5-2h-4.3a3.759,3.759,0,0,1,.5,2A1.483,1.483,0,0,0,168.6,215.2Z" fill="#9b5070"/>
          <path id="Path_584" data-name="Path 584" d="M168.6,210.5c-1.2,0-2.2.6-2.2,1.4s1,1.4,2.2,1.4,2.2-.6,2.2-1.4S169.8,210.5,168.6,210.5Z" fill="#878787"/>
        </g>
        <g id="Group_221" data-name="Group 221">
          <path id="Path_585" data-name="Path 585" d="M168.6,214.2c1.4,0,2.5-.7,2.5-1.6v-3h-4.9v2.9C166.1,213.5,167.3,214.2,168.6,214.2Z" fill="#987fbc"/>
          <path id="Path_586" data-name="Path 586" d="M168.7,208.1c-1.4,0-2.5.7-2.5,1.6s1.1,1.6,2.5,1.6,2.5-.7,2.5-1.6C171.1,208.8,170,208.1,168.7,208.1Z" fill="#d0b9ec"/>
        </g>
        <g id="Group_222" data-name="Group 222">
          <path id="Path_587" data-name="Path 587" d="M171.1,210.2Z" fill="#8c8c8c"/>
        </g>
        <path id="Path_588" data-name="Path 588" d="M173.2,204a4.593,4.593,0,0,0-4.4-4.5,4.669,4.669,0,0,0-4.5,4.4v.1h0c-.1,3.9,2.6,4.6,2.6,5.8h0c0,.6.8,1,1.7,1s1.7-.4,1.7-1h0c0-1.2,2.7-1.8,2.8-5.7h0C173.2,204.1,173.2,204.1,173.2,204Z" fill="#f6e05e"/>
        <path id="Path_589" data-name="Path 589" d="M167.6,201.1a.5.5,0,1,1-.5-.5C167.4,200.7,167.6,200.9,167.6,201.1Z" fill="#f0f0f0"/>
      </g>
      <g id="Group_227" data-name="Group 227">
        <g id="Group_224" data-name="Group 224">
          <path id="Path_590" data-name="Path 590" d="M111.6,292.7a1.645,1.645,0,0,0,1.7-1.4,3.219,3.219,0,0,1,.5-2h-4.3a3.759,3.759,0,0,1,.5,2A1.483,1.483,0,0,0,111.6,292.7Z" fill="#9b5070"/>
          <path id="Path_591" data-name="Path 591" d="M111.6,288c-1.2,0-2.2.6-2.2,1.4s1,1.4,2.2,1.4,2.2-.6,2.2-1.4S112.8,288,111.6,288Z" fill="#878787"/>
        </g>
        <g id="Group_225" data-name="Group 225">
          <path id="Path_592" data-name="Path 592" d="M111.6,291.7c1.4,0,2.5-.7,2.5-1.6v-3h-4.9V290C109.1,291,110.2,291.7,111.6,291.7Z" fill="#987fbc"/>
          <path id="Path_593" data-name="Path 593" d="M111.6,285.6c-1.4,0-2.5.7-2.5,1.6s1.1,1.6,2.5,1.6,2.5-.7,2.5-1.6S113,285.6,111.6,285.6Z" fill="#d0b9ec"/>
        </g>
        <g id="Group_226" data-name="Group 226">
          <path id="Path_594" data-name="Path 594" d="M114.1,287.7Z" fill="#8c8c8c"/>
        </g>
        <path id="Path_595" data-name="Path 595" d="M116.1,281.5a4.593,4.593,0,0,0-4.4-4.5,4.669,4.669,0,0,0-4.5,4.4v.1h0c-.1,3.9,2.6,4.6,2.6,5.8h0c0,.6.8,1,1.7,1s1.7-.4,1.7-1h0c0-1.2,2.7-1.8,2.8-5.7h0C116.1,281.6,116.1,281.6,116.1,281.5Z" fill="#f6e05e"/>
        <path id="Path_596" data-name="Path 596" d="M110.5,278.6a.5.5,0,1,1-.5-.5C110.3,278.2,110.5,278.4,110.5,278.6Z" fill="#f0f0f0"/>
      </g>
      <g id="Group_231" data-name="Group 231">
        <g id="Group_228" data-name="Group 228">
          <path id="Path_597" data-name="Path 597" d="M137.7,123.4a1.645,1.645,0,0,0,1.7-1.4,3.219,3.219,0,0,1,.5-2h-4.3a3.759,3.759,0,0,1,.5,2A1.483,1.483,0,0,0,137.7,123.4Z" fill="#9b5070"/>
          <path id="Path_598" data-name="Path 598" d="M137.7,118.6c-1.2,0-2.2.6-2.2,1.4s1,1.4,2.2,1.4,2.2-.6,2.2-1.4S138.9,118.6,137.7,118.6Z" fill="#878787"/>
        </g>
        <g id="Group_229" data-name="Group 229">
          <path id="Path_599" data-name="Path 599" d="M137.7,122.4c1.4,0,2.5-.7,2.5-1.6v-3h-4.9v2.9C135.2,121.7,136.3,122.4,137.7,122.4Z" fill="#987fbc"/>
          <path id="Path_600" data-name="Path 600" d="M137.7,116.3c-1.4,0-2.5.7-2.5,1.6s1.1,1.6,2.5,1.6,2.5-.7,2.5-1.6S139.1,116.3,137.7,116.3Z" fill="#d0b9ec"/>
        </g>
        <g id="Group_230" data-name="Group 230">
          <path id="Path_601" data-name="Path 601" d="M140.2,118.3Z" fill="#8c8c8c"/>
        </g>
        <path id="Path_602" data-name="Path 602" d="M142.2,112.2a4.593,4.593,0,0,0-4.4-4.5,4.669,4.669,0,0,0-4.5,4.4v.1h0c-.1,3.9,2.6,4.6,2.6,5.8h0c0,.6.8,1,1.7,1s1.7-.4,1.7-1h0c0-1.2,2.7-1.8,2.8-5.7h0A.1.1,0,0,0,142.2,112.2Z" fill="#f6e05e"/>
        <path id="Path_603" data-name="Path 603" d="M136.6,109.3a.5.5,0,1,1-.5-.5A.472.472,0,0,1,136.6,109.3Z" fill="#f0f0f0"/>
      </g>
      <g id="Group_235" data-name="Group 235">
        <g id="Group_232" data-name="Group 232">
          <path id="Path_604" data-name="Path 604" d="M87.9,302a1.645,1.645,0,0,0,1.7-1.4,3.219,3.219,0,0,1,.5-2H85.8a3.759,3.759,0,0,1,.5,2A1.546,1.546,0,0,0,87.9,302Z" fill="#9b5070"/>
          <path id="Path_605" data-name="Path 605" d="M88,297.3c-1.2,0-2.2.6-2.2,1.4s1,1.4,2.2,1.4,2.2-.6,2.2-1.4C90.1,297.9,89.2,297.3,88,297.3Z" fill="#878787"/>
        </g>
        <g id="Group_233" data-name="Group 233">
          <path id="Path_606" data-name="Path 606" d="M88,301c1.4,0,2.5-.7,2.5-1.6v-3H85.6v2.9C85.5,300.3,86.6,301,88,301Z" fill="#987fbc"/>
          <path id="Path_607" data-name="Path 607" d="M88,294.9c-1.4,0-2.5.7-2.5,1.6s1.1,1.6,2.5,1.6,2.5-.7,2.5-1.6S89.4,294.9,88,294.9Z" fill="#d0b9ec"/>
        </g>
        <g id="Group_234" data-name="Group 234">
          <path id="Path_608" data-name="Path 608" d="M90.5,297Z" fill="#8c8c8c"/>
        </g>
        <path id="Path_609" data-name="Path 609" d="M92.5,290.8a4.593,4.593,0,0,0-4.4-4.5,4.669,4.669,0,0,0-4.5,4.4v.1h0c-.1,3.9,2.6,4.6,2.6,5.8h0c0,.6.8,1,1.7,1s1.7-.4,1.7-1h0c0-1.2,2.7-1.8,2.8-5.7h0C92.5,290.9,92.5,290.9,92.5,290.8Z" fill="#f6e05e"/>
        <path id="Path_610" data-name="Path 610" d="M86.9,287.9a.5.5,0,1,1-.5-.5C86.7,287.5,86.9,287.7,86.9,287.9Z" fill="#f0f0f0"/>
      </g>
    </g>
  </g>
</svg>
