<svg xmlns="http://www.w3.org/2000/svg" xmlns:xlink="http://www.w3.org/1999/xlink" viewBox="0 0 126.37 95.61"><defs><style>.cls-1,.cls-4,.cls-6{opacity:0.2;}.cls-1,.cls-11,.cls-2,.cls-4,.cls-6{isolation:isolate;}.cls-1{fill:url(#Безымянный_градиент);}.cls-2,.cls-9{fill:#4c6ba7;}.cls-11,.cls-2{opacity:0.5;}.cls-3{fill:#c5ecff;}.cls-4{fill:url(#Безымянный_градиент-2);}.cls-5{fill:#e8f7ff;}.cls-6{fill:url(#Безымянный_градиент-3);}.cls-7{fill:#84a5e5;}.cls-8{fill:#218c74;}.cls-10{fill:#658edf;}.cls-11,.cls-12{fill:none;stroke-linecap:round;}.cls-11{stroke:#adf0e0;stroke-miterlimit:10;stroke-width:1.82px;}.cls-12{stroke:#f7e041;stroke-linejoin:round;stroke-width:1.8px;}</style><linearGradient id="Безымянный_градиент" x1="104.33" y1="288.47" x2="62.08" y2="258.83" gradientTransform="matrix(1, 0, 0, -1, 0, 324.51)" gradientUnits="userSpaceOnUse"><stop offset="0" stop-color="#4c6ba7" stop-opacity="0"/><stop offset="1" stop-color="#4c6ba7"/></linearGradient><linearGradient id="Безымянный_градиент-2" x1="-1105.16" y1="284.12" x2="-1209.39" y2="227.64" gradientTransform="translate(-1098.15 324.51) rotate(180)" xlink:href="#Безымянный_градиент"/><linearGradient id="Безымянный_градиент-3" x1="9.58" y1="262.35" x2="101.45" y2="262.35" xlink:href="#Безымянный_градиент"/></defs><title>Ресурс 2</title><g id="Слой_2" data-name="Слой 2"><g id="Слой_1-2" data-name="Слой 1"><path class="cls-1" d="M71.47,94.51H86.68A24.37,24.37,0,0,0,99,91.21l27.4-15.9-77.3-41.2h-20Z"/><path class="cls-2" d="M98.38,83.41l-16.9,9.8a17.7,17.7,0,0,1-17.8,0L3.08,57.91a6.1,6.1,0,0,1,0-10.6L20,37.51a17.7,17.7,0,0,1,17.8,0l60.6,35.3A6.11,6.11,0,0,1,98.38,83.41Z"/><path class="cls-3" d="M3.18,46.21,20,36.51a17.7,17.7,0,0,1,17.8,0l48.7,28.4,14.9,5.6V77a6.07,6.07,0,0,1-3,5.3l-16.9,9.8a17.68,17.68,0,0,1-17.79,0L3.08,56.81a6,6,0,0,1-3-5.2h0V45Z"/><path class="cls-4" d="M3.18,46.21,20,36.51a17.7,17.7,0,0,1,17.8,0l48.7,28.4,14.9,5.6V77a6.07,6.07,0,0,1-3,5.3l-16.9,9.8a17.68,17.68,0,0,1-17.79,0L3.08,56.81a6,6,0,0,1-3-5.2h0V45Z"/><path class="cls-5" d="M98.38,75.81l-16.9,9.8a17.7,17.7,0,0,1-17.8,0L3.08,50.31a6.1,6.1,0,0,1,0-10.6L20,29.91a17.7,17.7,0,0,1,17.8,0l60.6,35.3A6.11,6.11,0,0,1,98.38,75.81Z"/><path class="cls-6" d="M77.58,81.81H88l10.4-6a6.1,6.1,0,0,0,0-10.6L68,47.51l-58.39-5Z"/><path class="cls-7" d="M23.78,34.41V8.31s5-3.4,8.9-1.6,6.5,11.5,10.9,14.4,7.2-9.2,12-7.1,5.6,26.4,9.29,30.7,7.4-7.7,9.71-7.7,5.79,8.6,10.29,9.4a7.23,7.23,0,0,0,6.8-2v29.2Z"/><path class="cls-7" d="M9.58,16.51l14.2-8.2s13.8,17.1,28.7,27.1,10.9,11.9,18,15.1,21.3,23.1,21.3,23.1l-14.2,8.2Z"/><polygon class="cls-7" points="38.38 22.71 52.77 14.41 54.38 22.01 59.77 42.51 60.48 45.21 74.08 37.21 68.38 54.11 55.67 50.61 38.38 22.71"/><path class="cls-8" d="M9.58,42.51V16.41s5-3.4,8.89-1.6,6.5,11.5,10.9,14.4,7.21-9.2,12-7.1,5.6,26.4,9.3,30.7,7.4-7.7,9.7-7.7,5.8,8.6,10.3,9.4a7.23,7.23,0,0,0,6.8-2v29.2Z"/><path class="cls-9" d="M9.58,42.51V16.41s5-3.4,8.89-1.6,6.5,11.5,10.9,14.4,7.21-9.2,12-7.1,5.6,26.4,9.3,30.7,7.4-7.7,9.7-7.7,5.8,8.6,10.3,9.4a7.23,7.23,0,0,0,6.8-2v29.2Z"/><polygon class="cls-10" points="77.58 52.61 91.78 44.41 91.78 73.61 77.58 81.81 77.58 52.61"/><line class="cls-11" x1="14.47" y1="45.51" x2="14.47" y2="0.91"/><line class="cls-11" x1="33.88" y1="56.71" x2="33.88" y2="12.11"/><line class="cls-11" x1="53.38" y1="67.71" x2="53.38" y2="23.11"/><line class="cls-11" x1="72.78" y1="79.01" x2="72.78" y2="34.41"/><path class="cls-12" d="M9.58,16.51s5-3.4,8.89-1.6,6.5,11.5,10.9,14.4,7.21-9.2,12-7.1,5.6,26.4,9.3,30.7,7.4-7.7,9.7-7.7,5.8,8.6,10.3,9.4a7.23,7.23,0,0,0,6.8-2"/></g></g></svg>