<svg xmlns="http://www.w3.org/2000/svg" xmlns:xlink="http://www.w3.org/1999/xlink" viewBox="0 0 186.7 193.74"><defs><style>.cls-1{fill:#9fe0ff;}.cls-2,.cls-5,.cls-7{opacity:0.2;}.cls-2,.cls-3,.cls-5,.cls-7{isolation:isolate;}.cls-2{fill:url(#Безымянный_градиент_7);}.cls-13,.cls-3{fill:#4c6ba7;}.cls-3{opacity:0.5;}.cls-4{fill:#c5ecff;}.cls-5{fill:url(#Безымянный_градиент_7-2);}.cls-6{fill:#e8f7ff;}.cls-7{fill:url(#Безымянный_градиент_12);}.cls-8{fill:#dff5ff;}.cls-10,.cls-11,.cls-9{fill:none;stroke-miterlimit:10;}.cls-9{stroke:#e84c3d;}.cls-10{stroke:#33d9b2;stroke-width:1.06px;}.cls-11{stroke:#60ccff;}.cls-12{fill:#39507d;}.cls-14{fill:#d49337;}.cls-15{fill:#f7f1e3;}.cls-16{fill:#ffb142;}.cls-17{fill:#67463a;}.cls-18{fill:#e69c83;}.cls-19{fill:#ffad91;}</style><linearGradient id="Безымянный_градиент_7" x1="186.04" y1="283.82" x2="54.67" y2="191.65" gradientTransform="matrix(1, 0, 0, -1, 0, 372.17)" gradientUnits="userSpaceOnUse"><stop offset="0" stop-color="#4c6ba7" stop-opacity="0"/><stop offset="1" stop-color="#4c6ba7"/></linearGradient><linearGradient id="Безымянный_градиент_7-2" x1="156.19" y1="267.89" x2="-20.74" y2="172.01" xlink:href="#Безымянный_градиент_7"/><linearGradient id="Безымянный_градиент_12" x1="117.9" y1="254.98" x2="164.24" y2="254.98" gradientTransform="matrix(1, 0, 0, -1, 0, 372.17)" gradientUnits="userSpaceOnUse"><stop offset="0" stop-color="#4c6ba7"/><stop offset="1" stop-color="#4c6ba7" stop-opacity="0"/></linearGradient></defs><title>up_1</title><g id="Слой_2" data-name="Слой 2"><g id="Слой_1-2" data-name="Слой 1"><g id="Objects"><path class="cls-1" d="M106.5,81.94l-87.7,50.6a5.53,5.53,0,0,1-8.3-4.8V63.44a14,14,0,0,1,7-12.1L105.2.74a5.53,5.53,0,0,1,8.3,4.8v64.3A14.24,14.24,0,0,1,106.5,81.94Z"/><path class="cls-2" d="M28.9,192.64H44.1a24.4,24.4,0,0,0,12.3-3.3L186.7,114l-29.9-17.3h-20Z"/><path class="cls-3" d="M3.1,181.54l16.9,9.8a17.7,17.7,0,0,0,17.8,0l124.3-71.8a6.1,6.1,0,0,0,0-10.6l-16.9-9.8a17.7,17.7,0,0,0-17.8,0L3.1,170.94A6.1,6.1,0,0,0,3.1,181.54Z"/><path class="cls-4" d="M162,107.84l-16.8-9.7a17.7,17.7,0,0,0-17.8,0L14.9,163,0,168.64v6.5a6.07,6.07,0,0,0,3,5.3l16.9,9.8a17.7,17.7,0,0,0,17.8,0L162,118.44a6,6,0,0,0,3-5.2h0v-6.6Z"/><path class="cls-5" d="M162,107.84l-16.8-9.7a17.7,17.7,0,0,0-17.8,0L14.9,163,0,168.64v6.5a6.07,6.07,0,0,0,3,5.3l16.9,9.8a17.7,17.7,0,0,0,17.8,0L162,118.44a6,6,0,0,0,3-5.2h0v-6.6Z"/><path class="cls-6" d="M3.1,173.94l16.9,9.8a17.7,17.7,0,0,0,17.8,0l124.3-71.8a6.1,6.1,0,0,0,0-10.6l-16.9-9.8a17.7,17.7,0,0,0-17.8,0L3.1,163.34A6.1,6.1,0,0,0,3.1,173.94Z"/><path class="cls-7" d="M126.2,109.84l-8.3,4.7,7.2,10h15.4L162.1,112a6.34,6.34,0,0,0,2.2-2.1H126.2Z"/><path class="cls-8" d="M108.8,83.24l-87.7,50.6a5.53,5.53,0,0,1-8.3-4.8V64.74a14,14,0,0,1,7-12.1L107.5,2a5.53,5.53,0,0,1,8.3,4.8v64.3A14,14,0,0,1,108.8,83.24Z"/><polygon class="cls-9" points="72.1 56.24 72.1 39.54 86.8 47.74 72.1 56.24"/><path class="cls-10" d="M98.6,29.34c0,4.2-2.6,9.1-5.7,10.9s-5.7-.1-5.7-4.3,2.6-9.1,5.7-10.9S98.6,25.14,98.6,29.34Z"/><line class="cls-11" x1="27" y1="69.94" x2="53.3" y2="54.74"/><line class="cls-11" x1="27" y1="82.84" x2="53.3" y2="67.64"/><line class="cls-11" x1="27" y1="95.74" x2="53.3" y2="80.54"/><line class="cls-11" x1="27" y1="108.64" x2="53.3" y2="93.44"/><line class="cls-11" x1="74" y1="69.94" x2="100.3" y2="54.74"/><line class="cls-11" x1="74" y1="82.84" x2="100.3" y2="67.64"/><path class="cls-12" d="M129,112.94s3.6,5,3.4,6.4-2.6,1.1-5.4,0-4.4-2-4.8-3a4.71,4.71,0,0,1-.2-2.2Z"/><path class="cls-12" d="M122.8,117s3.6,5,3.4,6.4-2.6,1.1-5.4,0-4.4-2-4.8-3a4.71,4.71,0,0,1-.2-2.2Z"/><path class="cls-13" d="M114,87.24l1.9,31s.7.8,3.1.5a6.68,6.68,0,0,0,3.8-1.8l.2-2.8a9,9,0,0,0,3.2.4,5.49,5.49,0,0,0,3.1-1.3l.4-31.2-1.1-4.5L114.8,82Z"/><path class="cls-14" d="M126.1,55.44s2.5.9,3.3,5.4a24.83,24.83,0,0,1,.3,8.1l6.7-.4.9,4.3a.78.78,0,0,1-.7,1c-2.4.2-8.7.8-9.9-.1C125.1,72.84,123.1,52.94,126.1,55.44Z"/><path class="cls-15" d="M118.7,57.54l6.3-.6s2.8,8,3,10.9,0,11,0,11l-6.6,3.8Z"/><path class="cls-16" d="M125.1,54.64a6.31,6.31,0,0,1,3.5,3.5,23.87,23.87,0,0,1,1.4,9.5c-.1,1.9-.4,4.6-.6,6.2a7,7,0,0,0,.1,2.5l.9,6.1-3.2,3.1s-.6-21.3-1-23.8a7.34,7.34,0,0,0-2.1-4.1v-1.7Z"/><path class="cls-17" d="M127.1,50.44a3.49,3.49,0,0,0,2.1-.8,2.48,2.48,0,0,0,.9-1.7s1-.1,1.2-1.9a2.18,2.18,0,0,0-1.1-2.3s1.4-1.7.3-2.8c-.8-.8-1.4-.4-1.4-.4a2.56,2.56,0,0,0-1.7-2.5,4.26,4.26,0,0,0-3,0s-.7-1.4-3-1.2-2.3,1.2-2.3,1.2-2.8-.4-4.1.8-1.3,2.1-1.3,2.1a4.09,4.09,0,0,0-2.1,6,2.07,2.07,0,0,0-.5,1.4,1.3,1.3,0,0,0,.6,1.2,2.32,2.32,0,0,0-.1,2,3.4,3.4,0,0,0,1.7,1.3,4,4,0,0,0,1.5,2.3,2.11,2.11,0,0,0,2.2.2s.8,1.5,2.2,1.2S127.1,50.44,127.1,50.44Z"/><polygon class="cls-18" points="124.1 56.04 124.1 58.64 123.5 59.64 120.2 59.64 118.7 57.54 118.7 50.84 121.4 49.64 124.1 56.04"/><path class="cls-19" d="M126.6,50.64s.2,3.2-.9,4.7-2,1.4-3.4,1.2a3.87,3.87,0,0,1-3-2.5c-.8-1.6-.8-6.4.5-8.1s6.6-4.2,6.7-1.2S126.6,50.64,126.6,50.64Z"/><path class="cls-19" d="M118.9,49.64a1.7,1.7,0,0,0-1.3,1.4c-.1.8.3,2.2,1.4,1.6S118.9,49.64,118.9,49.64Z"/><path class="cls-16" d="M118.7,57.54s3.1,3.4,3.5,6.9.5,24,.5,24a18,18,0,0,1-4.7,1.2c-2,.2-4.6-1.6-4.6-1.6a71.35,71.35,0,0,0,.5-9.2c-.1-5.5-1-11.1-1-13C113,62.34,114.8,59.84,118.7,57.54Z"/><path class="cls-14" d="M115.1,61.94s2.1-1,3.1,5.6a49.3,49.3,0,0,1,.6,8l4.5-5.6,1.2,3.7a1.94,1.94,0,0,1-.3,1.8c-1.6,2.2-5.8,7.8-7.8,6.5C114.8,80.94,111.5,63.14,115.1,61.94Z"/><path class="cls-19" d="M123.2,69.54s0-2.8.7-3.7,2-2.7,2.4-2c.3.5-1.1,2.2-1.1,2.2a2.05,2.05,0,0,1,1.2.5,4.58,4.58,0,0,1,1,3.6c-.3,1.6-3.1,4.2-3.1,4.2A3.72,3.72,0,0,1,123.2,69.54Z"/><path class="cls-19" d="M136,68.44s1-2.4,1.8-2.2.2,1.4.2,1.4,2.8-1.1,4-.8.8,3.3-.5,4.7-4.5,1.7-4.5,1.7A4,4,0,0,1,136,68.44Z"/></g></g></g></svg>